<svg width="56" height="56" viewBox="0 0 56 56" fill="none" xmlns="http://www.w3.org/2000/svg">
<path d="M29.2082 2.43164C14.4916 2.43164 2.56201 14.3618 2.56201 29.0778C2.56201 43.7945 14.4916 55.724 29.2082 55.724C43.9237 55.724 55.8538 43.7945 55.8538 29.0778C55.8544 14.3618 43.9237 2.43164 29.2082 2.43164ZM29.2088 34.1293C26.489 34.1293 24.2847 31.9244 24.2847 29.2058C24.2847 26.486 26.4896 24.2822 29.2088 24.2822C31.9268 24.2822 34.1311 26.486 34.1311 29.2058C34.1311 31.925 31.9268 34.1293 29.2088 34.1293Z" fill="#E6E6E6"/>
<path d="M47.0852 15.9418C46.816 15.9418 46.5491 15.8229 46.3696 15.5949C45.124 14.0127 43.6704 12.6107 42.0489 11.4294C41.6432 11.1334 41.554 10.564 41.85 10.1577C42.1447 9.7514 42.7153 9.66226 43.121 9.9588C44.8772 11.2384 46.4509 12.7562 47.7996 14.47C48.1107 14.8648 48.0421 15.4372 47.6474 15.7471C47.48 15.8787 47.2823 15.9418 47.0852 15.9418Z" fill="#F2F2F2"/>
<path d="M51.8329 32.3214C51.8019 32.3214 51.7704 32.3195 51.7395 32.3165C51.2398 32.2656 50.8759 31.8193 50.9269 31.319C51.0021 30.5785 51.0409 29.8247 51.0409 29.0782C51.0409 27.8423 50.9299 26.5773 50.7116 25.3166C50.6255 24.8223 50.9572 24.3506 51.452 24.265C51.9499 24.1789 52.4187 24.5113 52.5036 25.0061C52.7407 26.3687 52.8602 27.7386 52.8602 29.0782C52.8602 29.8866 52.8189 30.7016 52.737 31.5039C52.6885 31.9727 52.2932 32.3214 51.8329 32.3214Z" fill="#F2F2F2"/>
<path d="M15.1596 47.8635C14.9625 47.8635 14.7642 47.7998 14.5975 47.6688C12.8837 46.3195 11.3658 44.7458 10.0863 42.9903C9.79036 42.584 9.8795 42.0151 10.2852 41.7192C10.6921 41.4227 11.2603 41.513 11.5569 41.9181C12.7382 43.5391 14.1402 44.9927 15.723 46.2389C16.1172 46.55 16.1857 47.1212 15.8752 47.5166C15.6951 47.744 15.4283 47.8635 15.1596 47.8635Z" fill="#F2F2F2"/>
<path d="M43.4829 47.6869C43.2173 47.6869 42.9541 47.5717 42.7746 47.3485C42.4593 46.9573 42.5199 46.3849 42.911 46.0695C44.472 44.8094 45.8546 43.337 47.0214 41.6936C47.3137 41.2831 47.8807 41.1885 48.29 41.4783C48.7 41.7694 48.7964 42.337 48.5053 42.747C47.2421 44.5268 45.7443 46.1211 44.0542 47.4855C43.8856 47.6208 43.6836 47.6869 43.4829 47.6869Z" fill="#F2F2F2"/>
<path d="M29.2085 52.7277C28.2291 52.7277 27.2061 52.6604 26.1685 52.5263C25.67 52.4627 25.3183 52.0066 25.382 51.5082C25.4456 51.0097 25.9017 50.6543 26.4007 50.7222C28.4874 50.9891 30.4322 50.963 32.4019 50.6731C32.9052 50.6034 33.3613 50.9442 33.434 51.4414C33.5068 51.9381 33.163 52.4008 32.6657 52.4736C31.5165 52.6428 30.3534 52.7277 29.2085 52.7277Z" fill="#F2F2F2"/>
<path d="M6.0744 25.3276C6.10533 25.3276 6.13626 25.3295 6.16779 25.3325C6.66748 25.3834 7.03134 25.8298 6.9804 26.3301C6.90459 27.0705 6.86639 27.8243 6.86639 28.5702C6.86639 29.8061 6.97675 31.0723 7.19567 32.3312C7.28118 32.826 6.94947 33.2978 6.45524 33.3827C5.95676 33.4689 5.48859 33.1377 5.40369 32.6423C5.16658 31.2803 5.04712 29.9098 5.04712 28.5696C5.04712 27.7618 5.08836 26.9462 5.17022 26.1445C5.21813 25.6763 5.61352 25.3276 6.0744 25.3276Z" fill="#F2F2F2"/>
<path d="M28.6974 4.91846C29.6768 4.91846 30.6998 4.98577 31.7374 5.11979C32.2359 5.18346 32.5876 5.63949 32.524 6.13797C32.4603 6.63645 32.0043 6.99182 31.5052 6.9239C29.4191 6.65707 27.4743 6.68375 25.504 6.97302C25.0007 7.04275 24.5446 6.70195 24.4719 6.20468C24.3991 5.70802 24.7429 5.24532 25.2402 5.17255C26.3894 5.00397 27.5531 4.91846 28.6974 4.91846Z" fill="#F2F2F2"/>
<path d="M34.1765 2.90282L31.9206 5.15871L30.2772 6.80211L6.92935 30.15L5.27382 31.8049L3.03066 34.0487C2.72745 32.4356 2.56372 30.7801 2.56372 29.0754C2.56372 14.3636 14.492 2.4292 29.2105 2.4292C30.9079 2.42981 32.5695 2.59961 34.1765 2.90282Z" fill="#CCCCCC"/>
<path d="M6.97808 26.329C6.90531 27.0688 6.86346 27.8208 6.86346 28.5667C6.86346 29.0882 6.88105 29.6158 6.92956 30.1494L5.27403 31.8043C5.12243 30.7188 5.04419 29.634 5.04419 28.5661C5.04419 27.7595 5.08603 26.9463 5.17093 26.1404C5.21945 25.6734 5.61362 25.3271 6.0745 25.3271H6.16546C6.6694 25.3829 7.03265 25.8256 6.97808 26.329Z" fill="#E6E6E6"/>
<path d="M31.9217 5.15896C31.8666 5.14076 31.8005 5.12257 31.7392 5.1165C30.7022 4.98309 29.678 4.91699 28.695 4.91699C27.5549 4.91699 26.3906 5.00189 25.2378 5.17169C24.7411 5.24385 24.4009 5.70534 24.4737 6.202C24.5464 6.69927 25.0013 7.04553 25.5046 6.97276C27.088 6.74232 28.6459 6.67562 30.2777 6.80297L31.9217 5.15896Z" fill="#E6E6E6"/>
<path d="M47.584 29.4354C47.584 19.2857 39.3567 11.0602 29.2094 11.0596C19.0603 11.0602 10.8318 19.2875 10.8318 29.4354C10.8318 39.5851 19.0603 47.8112 29.2094 47.8112C39.3561 47.8112 47.584 39.5845 47.584 29.4354ZM22.2277 29.4354C22.2277 25.5791 25.3538 22.4549 29.2094 22.4549C33.0632 22.4549 36.1893 25.5791 36.1893 29.4354C36.1893 33.2904 33.0638 36.4165 29.2094 36.4165C25.3532 36.4165 22.2277 33.2904 22.2277 29.4354Z" fill="#666666"/>
<path d="M40.6021 17.8145C34.3189 11.5332 24.0977 11.5332 17.8145 17.8145C11.5338 24.0958 11.5338 34.3189 17.8145 40.6002C24.0971 46.8828 34.3183 46.8828 40.6021 40.6002C46.884 34.3183 46.884 24.0964 40.6021 17.8145ZM44.2564 28.4481C44.676 28.4481 45.0162 28.7877 45.0162 29.208C45.0162 29.6276 44.676 29.9678 44.2564 29.9678C43.8373 29.9678 43.4977 29.6276 43.4977 29.208C43.4977 28.7871 43.8373 28.4481 44.2564 28.4481ZM40.3862 18.0298C40.6833 18.3263 40.6833 18.8072 40.3862 19.1044C40.0896 19.4009 39.6088 19.4009 39.3122 19.1044C39.0151 18.8072 39.0151 18.3263 39.3122 18.0298C39.6081 17.732 40.089 17.732 40.3862 18.0298ZM29.2092 13.3998C29.6283 13.3998 29.9691 13.74 29.9685 14.1596C29.9691 14.5792 29.6283 14.9201 29.2092 14.9201C28.789 14.9201 28.4494 14.5798 28.4488 14.1596C28.4494 13.74 28.789 13.3998 29.2092 13.3998ZM18.031 19.1044C17.7339 18.8072 17.7339 18.3269 18.031 18.0298C18.3276 17.7339 18.8085 17.7339 19.105 18.0298C19.4022 18.3269 19.4022 18.8072 19.105 19.1044C18.8085 19.4009 18.3276 19.4009 18.031 19.1044ZM14.1609 29.9678C13.7412 29.9678 13.4004 29.6276 13.4004 29.208C13.3998 28.7877 13.7412 28.4481 14.1609 28.4481C14.5799 28.4481 14.9201 28.7877 14.9201 29.208C14.9201 29.6276 14.5799 29.9678 14.1609 29.9678ZM18.031 40.3855C17.7339 40.0884 17.7339 39.6081 18.031 39.3104C18.3276 39.0144 18.8085 39.0144 19.105 39.3104C19.4022 39.6075 19.4022 40.0878 19.105 40.3855C18.8085 40.6821 18.3276 40.6821 18.031 40.3855ZM29.2092 45.0156C28.789 45.0156 28.4494 44.6754 28.4494 44.2557C28.4488 43.8367 28.789 43.4953 29.2092 43.4953C29.6283 43.4953 29.9685 43.8355 29.9685 44.2557C29.9685 44.676 29.6283 45.0156 29.2092 45.0156ZM19.3421 39.0739C13.9019 33.6336 13.9019 24.7817 19.3421 19.3403C24.7823 13.9013 33.6349 13.9013 39.0751 19.3403C44.5159 24.7817 44.5159 33.6336 39.0751 39.0739C33.6349 44.5147 24.7842 44.5147 19.3421 39.0739ZM39.3116 40.3855C39.0145 40.0884 39.0145 39.6081 39.3116 39.3104C39.6082 39.0144 40.089 39.0144 40.3856 39.3104C40.6827 39.6075 40.6827 40.0878 40.3856 40.3855C40.089 40.6821 39.6082 40.6821 39.3116 40.3855Z" fill="#999999"/>
<path d="M42.1674 29.207C42.1674 22.0488 36.3651 16.2472 29.2087 16.2466C22.0511 16.2472 16.2471 22.0494 16.2471 29.207C16.2471 36.3646 22.0505 42.1669 29.2087 42.1669C36.3651 42.1663 42.1674 36.3646 42.1674 29.207ZM39.4743 29.207C39.4743 30.0281 38.8078 30.694 37.9873 30.694C37.1662 30.694 36.501 30.0281 36.501 29.207C36.501 28.3853 37.1668 27.7201 37.9873 27.7201C38.8078 27.7207 39.4743 28.3859 39.4743 29.207ZM27.7224 20.4279C27.7224 19.6068 28.3876 18.9415 29.2087 18.9415C30.0298 18.9415 30.6957 19.6074 30.6957 20.4279C30.6957 21.2484 30.0292 21.9142 29.2087 21.9142C28.3876 21.9142 27.7224 21.2484 27.7224 20.4279ZM18.942 29.207C18.942 28.3859 19.6085 27.7207 20.4296 27.7201C21.2507 27.7207 21.9153 28.3865 21.9153 29.207C21.9153 30.0281 21.2507 30.694 20.4296 30.694C19.6079 30.6934 18.942 30.0281 18.942 29.207ZM24.2846 29.207C24.2846 26.4872 26.4895 24.2835 29.2087 24.2835C31.9267 24.2835 34.1311 26.4872 34.1311 29.207C34.1311 31.9256 31.9267 34.1306 29.2087 34.1306C26.4889 34.13 24.2846 31.9256 24.2846 29.207ZM27.7224 37.9862C27.7212 37.1651 28.3876 36.4993 29.2087 36.4993C30.0298 36.5005 30.6957 37.1651 30.6957 37.9862C30.6957 38.8079 30.0292 39.4726 29.2087 39.4726C28.3876 39.4726 27.7224 38.8061 27.7224 37.9862Z" fill="#CCCCCC"/>
<path d="M6.18867e-05 30.9628C0.00430684 32.6414 1.11467 33.0355 2.30144 31.8482L31.8476 2.30144C33.0361 1.11407 32.6426 0.00310386 30.9622 7.17452e-05C22.9817 -0.0169081 15.0466 2.98004 9.01393 9.01333C2.98124 15.046 -0.0157051 22.9811 6.18867e-05 30.9628ZM26.0847 1.83147C26.5887 2.33601 26.5887 3.15469 26.0847 3.65923C25.5796 4.16378 24.7609 4.16378 24.2564 3.65923C23.7524 3.15469 23.7524 2.33601 24.2564 1.83147C24.7621 1.32693 25.5796 1.32693 26.0847 1.83147ZM9.39112 11.2165C8.88597 10.7113 8.88597 9.89447 9.39112 9.38992C9.89506 8.88477 10.7137 8.88356 11.2177 9.38992C11.7216 9.89325 11.7216 10.7113 11.2177 11.2165C10.7131 11.721 9.89567 11.7204 9.39112 11.2165ZM1.83267 26.0829C1.32813 25.579 1.32813 24.7603 1.83267 24.2558C2.33722 23.7512 3.15589 23.7512 3.66043 24.2558C4.16498 24.7603 4.16498 25.579 3.66043 26.0829C3.15589 26.5875 2.33722 26.5875 1.83267 26.0829Z" fill="#FFD502"/>
<path d="M24.7946 3.11962C25.0032 3.32763 25.3392 3.32763 25.5478 3.11962C25.6648 3.00137 25.7139 2.84067 25.6969 2.68604C25.347 2.73212 24.9971 2.78428 24.6484 2.84431C24.6684 2.94558 24.717 3.042 24.7946 3.11962Z" fill="#999999"/>
<path d="M9.92236 10.6692C9.92479 10.6722 9.926 10.6747 9.92842 10.6771C10.1364 10.8851 10.473 10.8851 10.681 10.6771C10.8884 10.4697 10.8884 10.1325 10.681 9.92513C10.678 9.9227 10.6749 9.92149 10.6731 9.91846C10.5452 10.0403 10.4178 10.1635 10.2929 10.2896C10.1667 10.4139 10.0436 10.5425 9.92236 10.6692Z" fill="#999999"/>
<path d="M3.12267 25.5437C3.33006 25.3351 3.33006 24.9986 3.12267 24.7906C3.04383 24.7123 2.94802 24.6644 2.84674 24.645C2.7861 24.9937 2.73517 25.343 2.68848 25.6935C2.84433 25.7099 3.00381 25.6614 3.12267 25.5437Z" fill="#999999"/>
<path d="M6.55763 23.614L6.41633 23.3308C6.02822 22.5527 5.38299 21.9045 4.60859 21.5109L4.42969 21.4193L4.49822 21.2301C5.4218 18.6783 6.70863 16.2811 8.32293 14.1071L8.43329 13.9585L8.60005 14.0343C10.1519 14.7414 12.0027 14.4079 13.2077 13.2041C14.4108 12.0004 14.7443 10.149 14.0391 8.59773L13.962 8.42915L14.11 8.31999C16.2853 6.70509 18.6812 5.41887 21.2324 4.49529L21.4229 4.42676L21.5132 4.60686C21.9074 5.38066 22.5557 6.02589 23.3343 6.4134L23.6157 6.55409L6.55763 23.614Z" fill="#CCAA00"/>
</svg>
