<svg width="61" height="61" viewBox="0 0 61 61" fill="none" xmlns="http://www.w3.org/2000/svg">
<rect width="60.5" height="60.5" rx="7.84259" fill="#FFEE99"/>
<path d="M24.6481 34.4514H23.2476C21.7619 34.4514 20.337 35.0416 19.2865 36.0922C18.2359 37.1427 17.6458 38.5676 17.6458 40.0533V42.8542M35.9232 31.1127C36.0157 30.8289 36.1965 30.5821 36.4392 30.4082C36.6819 30.2344 36.9738 30.1427 37.2723 30.1464C37.5708 30.1502 37.8603 30.2492 38.0985 30.4291C38.3368 30.609 38.5113 30.8603 38.5967 31.1463L39.6288 33.1798C39.7293 33.3775 39.8752 33.5485 40.0546 33.6787C40.2341 33.809 40.4419 33.8948 40.661 33.9291L42.9493 34.2876C43.244 34.2887 43.5308 34.3828 43.7689 34.5564C44.007 34.73 44.1843 34.9743 44.2755 35.2545C44.3667 35.5347 44.3673 35.8365 44.277 36.117C44.1867 36.3975 44.0103 36.6424 43.7728 36.8168L42.1314 38.4526C41.9743 38.609 41.8566 38.8005 41.7879 39.0114C41.7192 39.2222 41.7016 39.4464 41.7365 39.6654L42.0992 41.9243C42.199 42.2074 42.2052 42.5151 42.1168 42.802C42.0285 43.0889 41.8502 43.3398 41.6085 43.5178C41.3667 43.6957 41.0741 43.7912 40.7739 43.7903C40.4737 43.7893 40.1818 43.6919 39.9411 43.5124L37.8894 42.4621C37.6918 42.3608 37.4729 42.308 37.2508 42.308C37.0288 42.308 36.8099 42.3608 36.6122 42.4621L34.5605 43.5124C34.3199 43.6904 34.0286 43.7866 33.7293 43.787C33.43 43.7873 33.1385 43.6918 32.8974 43.5143C32.6564 43.3369 32.4786 43.0869 32.39 42.801C32.3014 42.5151 32.3067 42.2083 32.4052 41.9257L32.7666 39.6668C32.8014 39.4478 32.7838 39.2236 32.7152 39.0128C32.6465 38.8019 32.5288 38.6104 32.3716 38.454L30.7527 36.8392C30.5071 36.6691 30.3224 36.4249 30.2255 36.1423C30.1286 35.8597 30.1246 35.5536 30.2141 35.2686C30.3035 34.9835 30.4818 34.7346 30.7228 34.5581C30.9639 34.3816 31.255 34.2868 31.5537 34.2876L33.8407 33.9291C34.0598 33.8948 34.2676 33.809 34.447 33.6787C34.6265 33.5485 34.7724 33.3775 34.8728 33.1798L35.9232 31.1127ZM33.0508 23.2477C33.0508 26.3415 30.5428 28.8496 27.449 28.8496C24.3552 28.8496 21.8471 26.3415 21.8471 23.2477C21.8471 20.1539 24.3552 17.6459 27.449 17.6459C30.5428 17.6459 33.0508 20.1539 33.0508 23.2477Z" stroke="black" stroke-width="2.80093" stroke-linecap="round" stroke-linejoin="round"/>
</svg>
