<svg width="64" height="49" viewBox="0 0 64 49" fill="none" xmlns="http://www.w3.org/2000/svg">
<path d="M61.6895 4.94141H2.30176V46.9699H61.6895V4.94141Z" fill="#1A1500"/>
<path d="M12.2151 0H10.6194V2.18863H12.2151V0Z" fill="#665500"/>
<path d="M53.3746 0H51.7769V2.18863H53.3746V0Z" fill="#665500"/>
<path d="M54.7381 0.000976562V1.64175H50.4142V0.000976562H13.5785V1.64175H9.25536V0.000976562H3.97241V2.98919H60.0224V0.000976562H54.7381Z" fill="#FFD502"/>
<path d="M63.3441 2.5166H0.648438V5.73158H63.3441V2.5166Z" fill="#CCAA00"/>
<path d="M62.4277 8.2334V11.3645C63.2925 11.3645 63.9922 10.6634 63.9922 9.79859C63.9915 8.9352 63.2925 8.2334 62.4277 8.2334Z" fill="#999999"/>
<path d="M0 9.79859C0 10.6634 0.70043 11.3645 1.5652 11.3645V8.2334C0.70043 8.2334 0 8.9352 0 9.79859Z" fill="#999999"/>
<path d="M61.7837 45.3623C61.7837 46.096 61.1908 46.6903 60.4564 46.6903C59.7234 46.6903 59.1291 46.096 59.1291 45.3623H37.4384C37.4384 46.096 36.844 46.6903 36.1096 46.6903C35.3766 46.6903 34.7823 46.096 34.7823 45.3623H29.2116C29.2116 46.096 28.6166 46.6903 27.8843 46.6903C27.1499 46.6903 26.5569 46.096 26.5569 45.3623H4.86342C4.86342 46.096 4.27049 46.6903 3.5361 46.6903C2.80378 46.6903 2.20877 46.096 2.20877 45.3623H0.648438V48.5773H63.3441V45.3623H61.7837Z" fill="#E6E6E6"/>
<path d="M62.1755 26.6763H1.81689V44.5085H62.1755V26.6763Z" fill="#999999"/>
<path d="M62.1755 6.58545H1.81689V25.5459H62.1755V6.58545Z" fill="#E6E6E6"/>
<path d="M12.5653 15.8418H9.3843V13.88H7.42383V10.7003H9.3843V8.73779H12.5653V10.7003H14.5272V13.88H12.5653V15.8418ZM10.0778 15.1483H11.8718V13.1865H13.8337V11.3938H11.8718V9.43127H10.0778V11.3938H8.11731V13.1865H10.0778V15.1483Z" fill="#998000"/>
<path d="M56.5691 13.8808H49.4651V10.7012H56.5691V13.8808ZM50.1586 13.1873H55.8756V11.3947H50.1586V13.1873Z" fill="#998000"/>
<path d="M14.1806 13.5336H12.2187V15.4955H9.73122V13.5336H7.77075V11.0475H9.73122V9.08496H12.2187V11.0475H14.1806V13.5336Z" fill="#FFD502"/>
<path d="M56.2221 11.0479H49.8115V13.534H56.2221V11.0479Z" fill="#FFD502"/>
<path d="M1.81666 8.23486H1.56494V11.3659H1.81666V8.23486Z" fill="#1A1500"/>
<path d="M62.4273 8.23486H62.1755V11.3659H62.4273V8.23486Z" fill="#1A1500"/>
</svg>
