<svg width="72" height="46" viewBox="0 0 72 46" fill="none" xmlns="http://www.w3.org/2000/svg">
<path d="M68.0919 3.65918H6.32104V43.7436H68.0919V3.65918Z" fill="#998000"/>
<path d="M62.3235 43.0542H55.1401V45.8897H62.3235V43.0542Z" fill="#666666"/>
<path d="M19.2755 43.0542H12.0901V45.8897H19.2755V43.0542Z" fill="#666666"/>
<path d="M63.0417 44.6733H54.4224V45.9999H63.0417V44.6733Z" fill="#B3B3B3"/>
<path d="M19.9935 44.6733H11.3713V45.9999H19.9935V44.6733Z" fill="#B3B3B3"/>
<path d="M60.3651 0H57.0986V3.68565H60.3651V0Z" fill="#FFDD33"/>
<path d="M17.3153 0.000488281H14.0496V3.68614H17.3153V0.000488281Z" fill="#FFDD33"/>
<path d="M4.59358 43.744C2.34943 43.744 0.525879 41.9198 0.525879 39.6763V9.2053C0.525879 6.96183 2.34943 5.13623 4.59358 5.13623V6.85515C3.29734 6.85515 2.24343 7.90906 2.24343 9.2053V39.6763C2.24343 40.9718 3.29734 42.0258 4.59358 42.0258V43.744Z" fill="#332B00"/>
<path d="M71.9472 41.437H68.6106V43.7452H71.9472V41.437Z" fill="#FFFBE5"/>
<path d="M2.98831 9.92432H0V39.6408H2.98831V9.92432Z" fill="#665500"/>
<path d="M67.0668 3.09082H7.34741V4.23355H67.0668V3.09082Z" fill="#FFFBE5"/>
<path d="M67.0668 42.6035H7.34741V43.7462H67.0668V42.6035Z" fill="#FFFBE5"/>
<path d="M67.0668 6.68213H7.34741V7.82486H67.0668V6.68213Z" fill="#FFFBE5"/>
<path d="M67.0668 39.0107H7.34741V40.1542H67.0668V39.0107Z" fill="#FFFBE5"/>
<path d="M41.1333 13.0305C41.1333 15.0489 36.1893 19.16 34.7622 20.587C33.3366 22.0134 33.8267 15.0489 33.8267 13.0305C33.8267 11.0129 35.4623 9.37793 37.48 9.37793C39.4977 9.37793 41.1333 11.0129 41.1333 13.0305Z" fill="#FFD502"/>
<path d="M33.2815 33.8034C33.2815 31.7857 38.2255 27.6747 39.6526 26.2476C41.0782 24.8213 40.5881 31.7857 40.5881 33.8034C40.5881 35.8211 38.9525 37.4567 36.9348 37.4567C34.9164 37.456 33.2815 35.8204 33.2815 33.8034Z" fill="#FFD502"/>
<path d="M47.5935 27.3421C45.5751 27.3421 41.464 22.3981 40.0377 20.9717C38.6113 19.5454 45.5758 20.0369 47.5935 20.0369C49.6111 20.0369 51.2468 21.6718 51.2468 23.6895C51.2468 25.7072 49.6111 27.3421 47.5935 27.3421Z" fill="#FFD502"/>
<path d="M26.8208 19.4917C28.8391 19.4917 32.9502 24.435 34.3773 25.8621C35.8036 27.2884 28.8391 26.7969 26.8208 26.7969C24.8031 26.7969 23.1675 25.162 23.1675 23.1436C23.1675 21.1266 24.8031 19.4917 26.8208 19.4917Z" fill="#FFD502"/>
<path d="M37.2076 19.2183C34.8898 19.2183 33.0105 21.0969 33.0105 23.4154C33.0105 25.7332 34.8891 27.6125 37.2076 27.6125C39.5254 27.6125 41.4047 25.7339 41.4047 23.4154C41.4041 21.0969 39.5254 19.2183 37.2076 19.2183Z" fill="#CCAA00"/>
<path d="M37.2069 24.571C36.5687 24.571 36.0518 24.054 36.0518 23.4159C36.0518 22.7777 36.5687 22.2607 37.2069 22.2607C37.845 22.2607 38.362 22.7777 38.362 23.4159C38.3613 24.054 37.8443 24.571 37.2069 24.571Z" fill="#E6E6E6"/>
<path d="M25.6765 13.8643H7.34741V15.007H24.9386C25.1685 14.6146 25.4156 14.2346 25.6765 13.8643Z" fill="#FFFBE5"/>
<path d="M48.7371 13.8643C48.998 14.2346 49.2444 14.6153 49.475 15.007H67.0662V13.8643H48.7371Z" fill="#FFFBE5"/>
<path d="M29.1095 10.2729H7.34741V11.4164H27.7844C28.205 11.0123 28.6469 10.6302 29.1095 10.2729Z" fill="#FFFBE5"/>
<path d="M45.3042 10.2729C45.7668 10.6309 46.2081 11.0123 46.6301 11.4164H67.067V10.2729H45.3042Z" fill="#FFFBE5"/>
<path d="M23.0669 17.458H7.34741V18.6007H22.6724C22.7894 18.2139 22.9223 17.8332 23.0669 17.458Z" fill="#FFFBE5"/>
<path d="M51.3472 17.458C51.4917 17.8332 51.6239 18.2139 51.7416 18.6007H67.0666V17.458H51.3472Z" fill="#FFFBE5"/>
<path d="M22.1292 21.0483H7.34668V22.1911H22.0074C22.0363 21.807 22.0755 21.4249 22.1292 21.0483Z" fill="#FFFBE5"/>
<path d="M52.2839 21.0483C52.3376 21.4249 52.3776 21.807 52.4058 22.1911H67.0665V21.0483H52.2839Z" fill="#FFFBE5"/>
<path d="M22.0081 24.6416H7.34741V25.7843H22.13C22.0756 25.4071 22.0363 25.0264 22.0081 24.6416Z" fill="#FFFBE5"/>
<path d="M52.4058 24.6416C52.3776 25.0264 52.3376 25.4071 52.2839 25.7843H67.0665V24.6416H52.4058Z" fill="#FFFBE5"/>
<path d="M22.6717 28.2329H7.34668V29.3756H23.0668C22.9229 29.0005 22.7894 28.6198 22.6717 28.2329Z" fill="#FFFBE5"/>
<path d="M51.7421 28.2329C51.6243 28.6205 51.4915 29.0005 51.3469 29.3756H67.067V28.2329H51.7421Z" fill="#FFFBE5"/>
<path d="M24.938 31.8257H7.34619V32.9684H25.676C25.4158 32.5988 25.1687 32.2174 24.938 31.8257Z" fill="#FFFBE5"/>
<path d="M49.4748 31.8257C49.2442 32.2167 48.9977 32.5981 48.7368 32.9684H67.0666V31.8257H49.4748Z" fill="#FFFBE5"/>
<path d="M27.7844 35.417H7.34668V36.559H29.1088C28.6469 36.2018 28.205 35.8204 27.7844 35.417Z" fill="#FFFBE5"/>
<path d="M46.6287 35.417C46.2081 35.8204 45.7661 36.2018 45.3042 36.559H67.0663V35.417H46.6287Z" fill="#FFFBE5"/>
<path d="M37.2068 7.82275C28.5957 7.82275 21.614 14.8044 21.614 23.4155C21.614 32.0266 28.5957 39.0083 37.2068 39.0083C45.8186 39.0083 52.7995 32.0266 52.7995 23.4155C52.7995 14.8044 45.8179 7.82275 37.2068 7.82275ZM37.2068 37.8539C29.2331 37.8539 22.7684 31.3892 22.7684 23.4155C22.7684 15.4412 29.2331 8.97719 37.2068 8.97719C45.1804 8.97719 51.6451 15.4412 51.6451 23.4155C51.6444 31.3899 45.1804 37.8539 37.2068 37.8539Z" fill="#E6E6E6"/>
<path d="M5.17773 42.0239H4.59326V43.7422H5.17773V42.0239Z" fill="#1A1500"/>
<path d="M5.17773 5.13525H4.59326V6.85348H5.17773V5.13525Z" fill="#1A1500"/>
<path d="M69.2356 1.61816H66.9495V43.7436H69.2356V1.61816Z" fill="#E6E6E6"/>
<path d="M7.46363 1.61816H5.17749V43.7436H7.46363V1.61816Z" fill="#E6E6E6"/>
</svg>
