<svg width="44" height="58" viewBox="0 0 44 58" fill="none" xmlns="http://www.w3.org/2000/svg">
<path d="M8.38448 3.77074L3.40405 8.02051L7.8473 13.2277L12.8277 8.97792L8.38448 3.77074Z" fill="#1A1500"/>
<path d="M9.39849 4.00547L3.47314 9.06152L7.37463 13.6338L13.3 8.57773L9.39849 4.00547Z" fill="#FFDD33"/>
<path d="M8.89174 3.73889L3.2931 8.51624C3.00124 8.76539 2.56169 8.73068 2.31254 8.43882L0.166341 5.92424C-0.0828037 5.63239 -0.0480964 5.19283 0.243759 4.94369L5.84238 0.166341C6.13424 -0.0828036 6.57381 -0.0480964 6.82295 0.243759L8.96915 2.75833C9.2183 3.05018 9.18359 3.48886 8.89174 3.73889Z" fill="#FFBB4D"/>
<path d="M5.13086 1.20559L6.65598 2.99321C6.9078 3.28773 7.35092 3.32332 7.64544 3.07151C7.93997 2.81969 7.97556 2.37657 7.72374 2.08205L6.19862 0.294434L5.13086 1.20559Z" fill="#D49B40"/>
<path d="M3.52173 2.57765L5.04685 4.36526C5.29867 4.66068 5.74179 4.69538 6.03631 4.44356C6.33084 4.19175 6.36643 3.74863 6.11461 3.4541L4.58949 1.6665L3.52173 2.57765Z" fill="#D49B40"/>
<path d="M1.91431 3.9512L3.43942 5.7388C3.69123 6.03332 4.13435 6.06893 4.42888 5.81711C4.7234 5.5653 4.75899 5.12216 4.50718 4.82764L2.98207 3.04004L1.91431 3.9512Z" fill="#D49B40"/>
<path d="M0.306152 5.32278L1.83128 7.11039C2.08309 7.40492 2.52621 7.44051 2.82074 7.18869C3.11526 6.93688 3.15085 6.49376 2.89904 6.19924L1.37391 4.41162L0.306152 5.32278Z" fill="#D49B40"/>
<path fill-rule="evenodd" clip-rule="evenodd" d="M16.7707 4.72628L18.3759 3.30884C18.8538 2.88708 19.4695 2.65394 20.1066 2.65394H32.3067H34.2286C34.9227 2.65394 35.5874 2.37811 36.0786 1.88783L36.1827 1.78372C36.7664 1.2009 37.5574 0.872559 38.3823 0.872559H37.0938H31.0841H19.062C18.4311 0.872559 17.8207 1.10124 17.3447 1.51589L12.1135 6.07167C12.6643 5.63033 13.345 5.38119 14.0533 5.38119H15.0419C15.6772 5.38119 16.2929 5.14805 16.7707 4.72628Z" fill="#FFDD33"/>
<path fill-rule="evenodd" clip-rule="evenodd" d="M40.881 0.207031H38.3806C37.5558 0.207031 36.7648 0.534467 36.181 1.11818L35.3117 1.98752L33.4956 3.8036C32.9128 4.38731 32.1209 4.71476 31.296 4.71476H16.0288H14.0508C13.3425 4.71476 12.6618 4.96391 12.111 5.40525C12.0763 5.43283 12.0372 5.45419 12.0033 5.48355L7.74922 9.20381L4.36975 12.1597L3.98446 12.4961C3.3091 13.0869 2.92114 13.9402 2.92114 14.8371V54.2251C2.92114 54.4574 2.9505 54.6825 2.99944 54.8996C3.1605 55.6239 3.57693 56.2458 4.14552 56.6827C4.66961 57.0858 5.31828 57.335 6.03101 57.335H40.8801C42.5974 57.335 43.9899 55.9424 43.9899 54.2251V3.31777C43.9899 2.83994 43.8734 2.39238 43.6812 1.98841C43.1829 0.937557 42.1214 0.207031 40.881 0.207031Z" fill="#FFD502"/>
<path fill-rule="evenodd" clip-rule="evenodd" d="M9.85542 12.8851C9.55289 12.4704 8.97185 12.3788 8.5572 12.6813C8.14255 12.9839 8.05091 13.5649 8.35344 13.9796L20.0152 29.9906C20.3177 30.4053 20.8987 30.4969 21.3134 30.1944C21.728 29.8919 21.8197 29.3108 21.5172 28.8962L9.85542 12.8851Z" fill="#332B00"/>
<path fill-rule="evenodd" clip-rule="evenodd" d="M26.8986 29.9906L38.5604 13.9796C38.8629 13.5649 38.7713 12.9839 38.3566 12.6813C37.942 12.3788 37.3609 12.4704 37.0584 12.8851L25.3967 28.8962C25.0941 29.3108 25.1858 29.8919 25.6004 30.1944C26.0151 30.4969 26.5961 30.4053 26.8986 29.9906Z" fill="#332B00"/>
<path fill-rule="evenodd" clip-rule="evenodd" d="M20.0152 34.3856L8.35344 50.3967C8.05091 50.8113 8.14255 51.3932 8.5572 51.6949C8.97185 51.9974 9.55378 51.9058 9.85542 51.4911L21.5172 35.48C21.8188 35.0654 21.728 34.4835 21.3134 34.1818C20.8987 33.8793 20.3177 33.9709 20.0152 34.3856Z" fill="#332B00"/>
<path fill-rule="evenodd" clip-rule="evenodd" d="M26.8986 34.3856C26.5961 33.9709 26.0151 33.8793 25.6004 34.1818C25.1858 34.4843 25.0941 35.0654 25.3967 35.48L37.0584 51.4911C37.3609 51.9058 37.942 51.9974 38.3566 51.6949C38.7713 51.3924 38.8629 50.8113 38.5604 50.3967L26.8986 34.3856Z" fill="#332B00"/>
<g opacity="0.15">
<path fill-rule="evenodd" clip-rule="evenodd" d="M43.1785 48.7405C25.6895 48.7405 10.5744 34.2296 3.41685 13.1831C3.10542 13.6752 2.92212 14.242 2.92212 14.8364V54.2243C2.92212 54.4566 2.95148 54.6817 3.00042 54.8988C3.16147 55.6231 3.5779 56.2451 4.14648 56.682C4.67057 57.085 5.31924 57.3342 6.03197 57.3342H40.8811C42.5984 57.3342 43.9909 55.9417 43.9909 54.2243V48.7262C43.7204 48.7325 43.4499 48.7405 43.1785 48.7405Z" fill="#1A1A1A"/>
</g>
</svg>
