<svg width="61" height="61" viewBox="0 0 61 61" fill="none" xmlns="http://www.w3.org/2000/svg">
<rect width="60.5" height="60.5" rx="7.84259" fill="#FFEE99"/>
<path d="M38.2498 42.2502V27.5836C38.2498 27.2299 38.1094 26.8908 37.8593 26.6408C37.6093 26.3907 37.2701 26.2502 36.9165 26.2502H23.5832C23.2295 26.2502 22.8904 26.3907 22.6404 26.6408C22.3903 26.8908 22.2498 27.2299 22.2498 27.5836V42.2502M22.2498 31.5836H38.2498M22.2498 36.9169H38.2498M43.5832 39.5836C43.5832 40.2908 43.3022 40.9691 42.8021 41.4692C42.302 41.9693 41.6237 42.2502 40.9165 42.2502H19.5832C18.8759 42.2502 18.1976 41.9693 17.6976 41.4692C17.1975 40.9691 16.9165 40.2908 16.9165 39.5836V24.9169C16.9162 24.4147 17.0577 23.9227 17.3247 23.4974C17.5917 23.0721 17.9734 22.7308 18.4258 22.5129L29.0258 17.2142C29.4044 17.0185 29.8243 16.9164 30.2505 16.9164C30.6767 16.9164 31.0966 17.0185 31.4752 17.2142L42.0725 22.5129C42.5252 22.7306 42.9071 23.0718 43.1744 23.4971C43.4416 23.9224 43.5833 24.4146 43.5832 24.9169V39.5836Z" stroke="black" stroke-width="2.66667" stroke-linecap="round" stroke-linejoin="round"/>
</svg>
