<svg width="1440" height="550" viewBox="0 0 1440 550" fill="none" xmlns="http://www.w3.org/2000/svg">
<g opacity="0.12">
<path d="M1442.66 0H-2.0874V549.71H1442.66V0Z" fill="white"/>
<mask id="mask0_250_142" style="mask-type:luminance" maskUnits="userSpaceOnUse" x="-3" y="0" width="1446" height="550">
<path d="M1442.66 0H-2.0874V549.71H1442.66V0Z" fill="white"/>
</mask>
<g mask="url(#mask0_250_142)">
<path d="M1304.79 547.538V532.705L1294.24 531.748C1293.88 530.689 1293.45 529.664 1292.96 528.672L1299.75 520.532L1289.26 510.043L1281.12 516.83C1280.13 516.342 1279.1 515.91 1278.04 515.549L1277.09 505.001H1262.25L1261.3 515.549C1260.24 515.91 1259.21 516.342 1258.22 516.83L1250.08 510.043L1239.59 520.532L1246.38 528.672C1245.89 529.664 1245.46 530.689 1245.1 531.748L1234.55 532.705V547.538L1245.1 548.495C1245.46 549.554 1245.89 550.579 1246.38 551.571L1239.59 559.711L1250.08 570.2L1258.22 563.415C1259.21 563.903 1260.24 564.324 1261.3 564.688L1262.26 575.244H1277.09L1278.05 564.688C1279.1 564.325 1280.13 563.904 1281.12 563.415L1289.26 570.2L1299.75 559.711L1292.96 551.571C1293.45 550.577 1293.88 549.554 1294.25 548.495L1304.79 547.538ZM1269.67 557.274C1260.2 557.274 1252.52 549.594 1252.52 540.121C1252.52 530.647 1260.2 522.967 1269.67 522.967C1279.14 522.967 1286.82 530.647 1286.82 540.121C1286.82 549.594 1279.14 557.274 1269.67 557.274Z" stroke="#FFD502" stroke-width="2.61588" stroke-miterlimit="10"/>
</g>
<mask id="mask1_250_142" style="mask-type:luminance" maskUnits="userSpaceOnUse" x="-3" y="0" width="1446" height="550">
<path d="M1442.66 0H-2.0874V549.71H1442.66V0Z" fill="white"/>
</mask>
<g mask="url(#mask1_250_142)">
<path d="M1258.06 -15.221C1258.06 -15.6492 1258.01 -16.065 1258 -16.4896L1264.75 -19.0038L1261.55 -33.0267L1254.4 -32.3642C1254.05 -33.1447 1253.68 -33.9112 1253.29 -34.667L1258.27 -39.8435L1249.3 -51.0896L1243.14 -47.3896C1242.5 -47.9394 1241.82 -48.4485 1241.14 -48.9595L1243.39 -55.808L1230.43 -62.0486L1226.47 -56.0264C1225.65 -56.2396 1224.83 -56.4616 1223.99 -56.6255L1223.05 -63.7312H1208.67L1207.72 -56.6255C1206.88 -56.4616 1206.07 -56.2396 1205.24 -56.0264L1201.29 -62.0486L1188.33 -55.808L1190.58 -48.9595C1189.9 -48.4503 1189.22 -47.9394 1188.57 -47.3896L1182.42 -51.0896L1173.45 -39.8435L1178.43 -34.667C1178.03 -33.9129 1177.67 -33.1447 1177.32 -32.3642L1170.17 -33.0267L1166.97 -19.0038L1173.72 -16.4896C1173.71 -16.065 1173.66 -15.6492 1173.66 -15.221C1173.66 -14.7929 1173.71 -14.3771 1173.72 -13.9525L1166.97 -11.4382L1170.17 2.58466L1177.32 1.92219C1177.67 2.70271 1178.03 3.46913 1178.43 4.22322L1173.45 9.39966L1182.42 20.6458L1188.57 16.9458C1189.22 17.4956 1189.9 18.0047 1190.57 18.5157L1188.33 25.3642L1201.29 31.6048L1205.24 25.5826C1206.06 25.7958 1206.88 26.0178 1207.72 26.1817L1208.66 33.2874H1223.05L1223.99 26.1817C1224.83 26.0178 1225.65 25.7958 1226.47 25.5826L1230.42 31.6048L1243.38 25.3642L1241.14 18.5157C1241.82 18.0065 1242.49 17.4956 1243.14 16.9458L1249.29 20.6458L1258.26 9.39966L1253.29 4.22322C1253.68 3.46913 1254.05 2.70095 1254.4 1.92219L1261.55 2.58466L1264.75 -11.4382L1257.99 -13.9525C1258.01 -14.3771 1258.06 -14.7929 1258.06 -15.221ZM1215.86 17.3493C1197.87 17.3493 1183.29 2.76614 1183.29 -15.221C1183.29 -33.2099 1197.87 -47.7931 1215.86 -47.7931C1233.85 -47.7931 1248.43 -33.2099 1248.43 -15.221C1248.43 2.7679 1233.84 17.3493 1215.86 17.3493Z" stroke="#FFD502" stroke-width="2.61588" stroke-miterlimit="10"/>
</g>
<mask id="mask2_250_142" style="mask-type:luminance" maskUnits="userSpaceOnUse" x="-3" y="0" width="1446" height="550">
<path d="M1442.66 0H-2.0874V549.71H1442.66V0Z" fill="white"/>
</mask>
<g mask="url(#mask2_250_142)">
<path d="M1487.89 354.672C1487.89 354.375 1487.86 354.086 1487.85 353.788L1501.71 347.706L1494.53 325.603L1479.75 328.827C1479.41 328.343 1479.05 327.881 1478.69 327.411L1486.34 314.33L1467.54 300.669L1457.47 311.973C1456.91 311.777 1456.35 311.566 1455.78 311.391L1454.29 296.363H1431.04L1429.55 311.391C1428.98 311.564 1428.42 311.777 1427.86 311.973L1417.8 300.669L1398.99 314.33L1406.64 327.411C1406.28 327.881 1405.92 328.343 1405.58 328.827L1390.8 325.603L1383.62 347.706L1397.48 353.788C1397.48 354.086 1397.44 354.373 1397.44 354.672C1397.44 354.97 1397.48 355.259 1397.48 355.557L1383.62 361.639L1390.8 383.742L1405.58 380.518C1405.92 381.002 1406.28 381.464 1406.64 381.934L1398.99 395.014L1417.8 408.674L1427.86 397.372C1428.42 397.567 1428.98 397.779 1429.55 397.951L1431.04 412.98H1454.29L1455.78 397.951C1456.35 397.779 1456.91 397.566 1457.47 397.372L1467.54 408.674L1486.34 395.014L1478.69 381.934C1479.05 381.464 1479.41 381.002 1479.75 380.518L1494.53 383.742L1501.71 361.639L1487.85 355.557C1487.86 355.259 1487.89 354.972 1487.89 354.672ZM1442.66 388.95C1423.73 388.95 1408.39 373.604 1408.39 354.674C1408.39 335.744 1423.73 320.398 1442.66 320.398C1461.59 320.398 1476.94 335.744 1476.94 354.674C1476.94 373.602 1461.59 388.95 1442.66 388.95Z" stroke="#0E3B65" stroke-width="2.61588" stroke-miterlimit="10"/>
</g>
<mask id="mask3_250_142" style="mask-type:luminance" maskUnits="userSpaceOnUse" x="-3" y="0" width="1446" height="550">
<path d="M1442.66 0H-2.0874V549.71H1442.66V0Z" fill="white"/>
</mask>
<g mask="url(#mask3_250_142)">
<path d="M1244.18 152.161L1250.77 151.197V144.532" stroke="#FFD502" stroke-width="2.61588" stroke-miterlimit="10"/>
<path d="M1250.77 135.074V128.408L1244.18 127.445" stroke="#FFD502" stroke-width="2.61588" stroke-miterlimit="10"/>
<path d="M1242.48 127.196L1235.88 126.233C1235.16 122.337 1234.15 118.547 1232.86 114.89L1238.09 110.756" stroke="#FFD502" stroke-width="2.61588" stroke-miterlimit="10"/>
<path d="M1239.42 109.699L1244.65 105.567L1241.32 99.7936" stroke="#FFD502" stroke-width="2.61588" stroke-miterlimit="10"/>
<path d="M1236.59 91.6042L1233.26 85.8323L1227.06 88.2936" stroke="#FFD502" stroke-width="2.61588" stroke-miterlimit="10"/>
<path d="M1225.46 88.9334L1219.27 91.3948C1216.72 88.419 1213.95 85.6475 1210.97 83.1033L1213.44 76.9103" stroke="#FFD502" stroke-width="2.61588" stroke-miterlimit="10"/>
<path d="M1214.07 75.303L1216.54 69.11L1210.76 65.7765" stroke="#FFD502" stroke-width="2.61588" stroke-miterlimit="10"/>
<path d="M1202.57 61.0496L1196.8 57.7161L1192.67 62.9454" stroke="#FFD502" stroke-width="2.61588" stroke-miterlimit="10"/>
<path d="M1191.61 64.2827L1187.48 69.512C1183.82 68.2153 1180.03 67.2039 1176.14 66.4869L1175.17 59.8921" stroke="#FFD502" stroke-width="2.61588" stroke-miterlimit="10"/>
<path d="M1174.92 58.192L1173.96 51.5955H1167.29" stroke="#FFD502" stroke-width="2.61588" stroke-miterlimit="10"/>
<path d="M1157.84 51.5955H1151.17L1150.21 58.192" stroke="#FFD502" stroke-width="2.61588" stroke-miterlimit="10"/>
<path d="M1149.96 59.8921L1148.99 66.4869C1145.1 67.2039 1141.31 68.2153 1137.65 69.512L1133.52 64.2827" stroke="#FFD502" stroke-width="2.61588" stroke-miterlimit="10"/>
<path d="M1132.46 62.9454L1128.33 57.7161L1122.56 61.0496" stroke="#FFD502" stroke-width="2.61588" stroke-miterlimit="10"/>
<path d="M1114.37 65.7765L1108.59 69.11L1111.06 75.303" stroke="#FFD502" stroke-width="2.61588" stroke-miterlimit="10"/>
<path d="M1111.69 76.9103L1114.16 83.1033C1111.18 85.6475 1108.41 88.419 1105.86 91.3948L1099.67 88.9334" stroke="#FFD502" stroke-width="2.61588" stroke-miterlimit="10"/>
<path d="M1098.07 88.2936L1091.87 85.8323L1088.54 91.6042" stroke="#FFD502" stroke-width="2.61588" stroke-miterlimit="10"/>
<path d="M1083.81 99.7936L1080.48 105.567L1085.71 109.699" stroke="#FFD502" stroke-width="2.61588" stroke-miterlimit="10"/>
<path d="M1087.04 110.756L1092.27 114.89C1090.98 118.547 1089.97 122.337 1089.25 126.233L1082.65 127.196" stroke="#FFD502" stroke-width="2.61588" stroke-miterlimit="10"/>
<path d="M1080.95 127.445L1074.36 128.408V135.074" stroke="#FFD502" stroke-width="2.61588" stroke-miterlimit="10"/>
<path d="M1074.36 144.532V151.197L1080.95 152.161" stroke="#FFD502" stroke-width="2.61588" stroke-miterlimit="10"/>
<path d="M1082.65 152.409L1089.25 153.374C1089.97 157.27 1090.98 161.06 1092.27 164.717L1087.04 168.851" stroke="#FFD502" stroke-width="2.61588" stroke-miterlimit="10"/>
<path d="M1085.71 169.906L1080.48 174.04L1083.81 179.812" stroke="#FFD502" stroke-width="2.61588" stroke-miterlimit="10"/>
<path d="M1088.54 188.001L1091.87 193.773L1098.07 191.312" stroke="#FFD502" stroke-width="2.61588" stroke-miterlimit="10"/>
<path d="M1099.67 190.674L1105.86 188.212C1108.41 191.188 1111.18 193.96 1114.16 196.504L1111.69 202.697" stroke="#FFD502" stroke-width="2.61588" stroke-miterlimit="10"/>
<path d="M1111.06 204.302L1108.59 210.495L1114.37 213.829" stroke="#FFD502" stroke-width="2.61588" stroke-miterlimit="10"/>
<path d="M1122.56 218.558L1128.33 221.889L1132.46 216.66" stroke="#FFD502" stroke-width="2.61588" stroke-miterlimit="10"/>
<path d="M1133.52 215.325L1137.65 210.095C1141.31 211.392 1145.1 212.403 1148.99 213.12L1149.96 219.715" stroke="#FFD502" stroke-width="2.61588" stroke-miterlimit="10"/>
<path d="M1150.21 221.415L1151.17 228.01H1157.84" stroke="#FFD502" stroke-width="2.61588" stroke-miterlimit="10"/>
<path d="M1167.29 228.01H1173.96L1174.92 221.415" stroke="#FFD502" stroke-width="2.61588" stroke-miterlimit="10"/>
<path d="M1175.17 219.715L1176.14 213.12C1180.03 212.403 1183.82 211.392 1187.48 210.095L1191.61 215.325" stroke="#FFD502" stroke-width="2.61588" stroke-miterlimit="10"/>
<path d="M1192.67 216.66L1196.8 221.889L1202.57 218.558" stroke="#FFD502" stroke-width="2.61588" stroke-miterlimit="10"/>
<path d="M1210.76 213.829L1216.54 210.495L1214.07 204.302" stroke="#FFD502" stroke-width="2.61588" stroke-miterlimit="10"/>
<path d="M1213.44 202.697L1210.97 196.504C1213.95 193.961 1216.72 191.188 1219.27 188.212L1225.46 190.674" stroke="#FFD502" stroke-width="2.61588" stroke-miterlimit="10"/>
<path d="M1227.06 191.312L1233.26 193.773L1236.59 188.001" stroke="#FFD502" stroke-width="2.61588" stroke-miterlimit="10"/>
<path d="M1241.32 179.812L1244.65 174.04L1239.42 169.906" stroke="#FFD502" stroke-width="2.61588" stroke-miterlimit="10"/>
<path d="M1238.09 168.851L1232.86 164.717C1234.15 161.06 1235.16 157.268 1235.88 153.374L1242.48 152.409" stroke="#FFD502" stroke-width="2.61588" stroke-miterlimit="10"/>
<path d="M1217.91 166.54C1232.67 135.967 1219.84 99.2223 1189.27 84.4687C1158.7 69.7152 1121.95 82.5395 1107.2 113.112C1092.44 143.685 1105.27 180.43 1135.84 195.183C1166.42 209.937 1203.16 197.113 1217.91 166.54Z" stroke="#FFD502" stroke-width="2.61588" stroke-miterlimit="10" stroke-dasharray="13.79 13.79"/>
<path d="M1211.8 146.163V133.444L1203.49 132.228C1203.09 130.054 1202.52 127.938 1201.8 125.896L1208.38 120.693L1202.02 109.678L1194.21 112.782C1192.79 111.121 1191.25 109.574 1189.58 108.154L1192.69 100.343L1181.67 93.9847L1176.47 100.567C1174.43 99.843 1172.31 99.2792 1170.14 98.8793L1168.92 90.5667H1156.2L1154.99 98.8793C1152.81 99.2792 1150.7 99.843 1148.66 100.567L1143.45 93.9847L1132.44 100.343L1135.54 108.154C1133.88 109.574 1132.33 111.121 1130.91 112.782L1123.1 109.678L1116.74 120.693L1123.33 125.896C1122.6 127.938 1122.04 130.054 1121.64 132.228L1113.33 133.444V146.163L1121.64 147.379C1122.04 149.553 1122.6 151.669 1123.33 153.711L1116.74 158.914L1123.1 169.929L1130.91 166.825C1132.33 168.486 1133.88 170.033 1135.54 171.453L1132.44 179.264L1143.45 185.624L1148.66 179.04C1150.7 179.764 1152.81 180.328 1154.99 180.728L1156.2 189.039H1168.92L1170.14 180.728C1172.31 180.328 1174.43 179.764 1176.47 179.04L1181.67 185.624L1192.69 179.264L1189.58 171.453C1191.25 170.033 1192.79 168.486 1194.21 166.825L1202.02 169.929L1208.38 158.914L1201.8 153.711C1202.52 151.669 1203.09 149.553 1203.49 147.379L1211.8 146.163ZM1162.57 174.114C1143.62 174.114 1128.26 158.752 1128.26 139.804C1128.26 120.855 1143.62 105.495 1162.57 105.495C1181.51 105.495 1196.88 120.855 1196.88 139.804C1196.88 158.752 1181.51 174.114 1162.57 174.114Z" stroke="#0E3B65" stroke-width="2.61588" stroke-miterlimit="10"/>
</g>
<mask id="mask4_250_142" style="mask-type:luminance" maskUnits="userSpaceOnUse" x="-3" y="0" width="1446" height="550">
<path d="M1442.66 0H-2.0874V549.71H1442.66V0Z" fill="white"/>
</mask>
<g mask="url(#mask4_250_142)">
<path d="M1255.99 272.653C1218.71 272.653 1188.39 302.982 1188.39 340.262C1188.39 377.542 1218.71 407.871 1255.99 407.871C1293.27 407.871 1323.6 377.542 1323.6 340.262C1323.6 302.982 1293.27 272.653 1255.99 272.653ZM1264.91 293.96V280.488C1280.39 282.791 1293.97 290.931 1303.3 302.647L1291.63 309.385C1288.44 311.228 1285.42 313.346 1282.62 315.703L1270.58 325.852C1268.03 323.269 1264.8 321.38 1261.18 320.435L1263.95 304.92C1264.59 301.319 1264.91 297.644 1264.91 293.96ZM1247.07 281.45V293.995C1247.07 297.658 1247.4 301.314 1248.04 304.92L1250.81 320.435C1247.19 321.38 1243.95 323.269 1241.4 325.852L1229.4 315.731C1226.57 313.354 1223.55 311.231 1220.35 309.387L1208.68 302.649C1217.83 291.176 1231.04 283.131 1246.12 280.64C1246.61 280.555 1247.07 280.95 1247.07 281.45ZM1195.49 340.262C1195.49 332.432 1197.03 324.967 1199.75 318.092L1211.43 324.837C1214.62 326.68 1217.97 328.235 1221.41 329.479L1236.23 334.835C1235.75 336.566 1235.48 338.38 1235.48 340.262C1235.48 342.144 1235.75 343.957 1236.23 345.689L1221.41 351.045C1217.97 352.289 1214.62 353.844 1211.43 355.687L1199.75 362.432C1197.03 355.557 1195.49 348.094 1195.49 340.262ZM1247.07 386.565V400.036C1231.59 397.733 1218.02 389.593 1208.68 377.877L1220.35 371.139C1223.55 369.296 1226.57 367.178 1229.36 364.821L1241.4 354.674C1243.95 357.257 1247.19 359.146 1250.81 360.09L1248.04 375.606C1247.4 379.205 1247.07 382.879 1247.07 386.565ZM1264.91 400.036V386.565C1264.91 382.879 1264.59 379.205 1263.95 375.604L1261.18 360.089C1264.8 359.144 1268.03 357.256 1270.58 354.673L1282.62 364.819C1285.42 367.177 1288.44 369.295 1291.63 371.137L1303.3 377.875C1293.97 389.593 1280.39 397.733 1264.91 400.036ZM1300.55 355.687C1297.36 353.844 1294.02 352.289 1290.58 351.045L1275.76 345.689C1276.23 343.959 1276.51 342.144 1276.51 340.262C1276.51 338.38 1276.23 336.567 1275.76 334.835L1290.58 329.479C1294.02 328.235 1297.36 326.68 1300.55 324.837L1312.24 318.09C1314.96 324.965 1316.5 332.43 1316.5 340.26C1316.5 348.092 1314.96 355.557 1312.24 362.432L1300.55 355.687Z" stroke="#FFD502" stroke-width="2.61588" stroke-miterlimit="10"/>
<path d="M1255.99 442.841C1199.43 442.841 1153.41 396.824 1153.41 340.262C1153.41 283.7 1199.43 237.683 1255.99 237.683C1312.55 237.683 1358.57 283.7 1358.57 340.262C1358.57 396.824 1312.55 442.841 1255.99 442.841ZM1255.99 262.661C1213.2 262.661 1178.39 297.473 1178.39 340.262C1178.39 383.051 1213.2 417.863 1255.99 417.863C1298.78 417.863 1333.59 383.051 1333.59 340.262C1333.59 297.473 1298.78 262.661 1255.99 262.661Z" stroke="#0E3B65" stroke-width="2.61588" stroke-miterlimit="10"/>
<path d="M1255.99 351.059C1261.95 351.059 1266.79 346.225 1266.79 340.262C1266.79 334.299 1261.95 329.465 1255.99 329.465C1250.03 329.465 1245.2 334.299 1245.2 340.262C1245.2 346.225 1250.03 351.059 1255.99 351.059Z" stroke="#0E3B65" stroke-width="2.61588" stroke-miterlimit="10"/>
<path d="M1261.21 340.262C1261.21 343.145 1258.88 345.483 1255.99 345.483C1253.11 345.483 1250.77 343.146 1250.77 340.262C1250.77 337.378 1253.11 335.042 1255.99 335.042C1258.87 335.042 1261.21 337.38 1261.21 340.262Z" stroke="#0E3B65" stroke-width="2.61588" stroke-miterlimit="10"/>
</g>
<mask id="mask5_250_142" style="mask-type:luminance" maskUnits="userSpaceOnUse" x="-3" y="0" width="1446" height="550">
<path d="M1442.66 0H-2.0874V549.71H1442.66V0Z" fill="white"/>
</mask>
<g mask="url(#mask5_250_142)">
<path d="M994.395 -38.034V54.2504C981.216 60.9086 974.655 76.4327 979.641 90.7586C983.069 100.609 991.13 107.523 1000.53 109.923L990.92 82.3121L1022.08 71.4659L1031.69 99.0765C1037.57 91.3577 1039.59 80.9343 1036.17 71.0836C1032.64 60.9509 1024.21 53.9527 1014.46 51.7521V-38.034C1024.09 -41.9876 1030.88 -51.4508 1030.88 -62.5102C1030.88 -77.1215 1019.04 -88.9685 1004.43 -88.9685C989.814 -88.9685 977.969 -77.1233 977.969 -62.5102C977.971 -51.449 984.761 -41.9859 994.395 -38.034ZM1004.43 -79.9124C1014.1 -79.9124 1021.94 -72.072 1021.94 -62.3992C1021.94 -52.7281 1014.1 -44.886 1004.43 -44.886C994.754 -44.886 986.914 -52.7264 986.914 -62.3992C986.914 -72.072 994.756 -79.9124 1004.43 -79.9124Z" stroke="#FFD502" stroke-width="2.61588" stroke-miterlimit="10"/>
</g>
<mask id="mask6_250_142" style="mask-type:luminance" maskUnits="userSpaceOnUse" x="-3" y="0" width="1446" height="550">
<path d="M1442.66 0H-2.0874V549.71H1442.66V0Z" fill="white"/>
</mask>
<g mask="url(#mask6_250_142)">
<path d="M1444.02 443.563C1443.43 442.885 1442.39 442.839 1441.73 443.445L1441.49 443.659C1428.71 429.653 1410.31 420.851 1389.9 420.851C1369.48 420.851 1351.09 429.653 1338.3 443.659L1338.06 443.445C1337.4 442.839 1336.36 442.885 1335.77 443.563C1324.36 456.64 1318.1 473.324 1318.1 490.729C1318.1 505.394 1322.47 519.429 1330.74 531.431C1331.25 532.173 1332.29 532.338 1333.02 531.81L1333.28 531.619C1345.99 549.163 1366.62 560.608 1389.89 560.608C1413.16 560.608 1433.8 549.164 1446.51 531.619L1446.77 531.81C1447.5 532.338 1448.53 532.173 1449.04 531.431C1457.32 519.431 1461.69 505.394 1461.69 490.729C1461.69 473.324 1455.43 456.64 1444.02 443.563ZM1389.89 431.382C1407.23 431.382 1422.81 438.902 1433.67 450.798L1433.31 451.129C1432.66 451.721 1432.62 452.713 1433.19 453.379C1438.77 459.835 1442.77 467.383 1445.01 475.477C1439.43 479.39 1432.36 480.909 1425.47 479.231L1406.68 474.659C1402.45 470.237 1396.5 467.469 1389.89 467.469C1383.29 467.469 1377.34 470.235 1373.1 474.659L1354.32 479.231C1347.43 480.909 1340.36 479.388 1334.78 475.477C1337.02 467.381 1341.02 459.835 1346.6 453.379C1347.17 452.715 1347.13 451.721 1346.48 451.129L1346.11 450.798C1356.98 438.902 1372.56 431.382 1389.89 431.382ZM1341.85 525.423L1342.25 525.13C1342.96 524.616 1343.12 523.634 1342.62 522.91C1338.91 517.478 1336.24 511.516 1334.61 505.249C1340.24 499.16 1350.67 494.849 1370.32 503.262C1372.3 506.341 1374.97 508.916 1378.14 510.774C1384.36 522.97 1386.21 547.348 1368.46 546.01C1357.72 541.828 1348.51 534.623 1341.85 525.423ZM1411.33 546.009C1393.58 547.346 1395.43 522.968 1401.65 510.773C1404.81 508.914 1407.49 506.34 1409.47 503.26C1429.11 494.847 1439.54 499.16 1445.18 505.247C1443.54 511.514 1440.88 517.477 1437.17 522.909C1436.67 523.633 1436.83 524.614 1437.54 525.129L1437.94 525.423C1431.28 534.623 1422.07 541.828 1411.33 546.009Z" stroke="#FFD502" stroke-width="2.61588" stroke-miterlimit="10"/>
<path d="M1389.89 506.054C1398.36 506.054 1405.22 499.193 1405.22 490.729C1405.22 482.266 1398.36 475.404 1389.89 475.404C1381.43 475.404 1374.57 482.266 1374.57 490.729C1374.57 499.193 1381.43 506.054 1389.89 506.054Z" stroke="#0E3B65" stroke-width="2.61588" stroke-miterlimit="10"/>
<path d="M1389.89 499.405C1385.11 499.405 1381.22 495.513 1381.22 490.727C1381.22 485.942 1385.11 482.05 1389.89 482.05C1394.68 482.05 1398.57 485.942 1398.57 490.727C1398.57 495.513 1394.68 499.405 1389.89 499.405Z" stroke="#FFD502" stroke-width="2.61588" stroke-miterlimit="10"/>
</g>
<mask id="mask7_250_142" style="mask-type:luminance" maskUnits="userSpaceOnUse" x="-3" y="0" width="1446" height="550">
<path d="M1442.66 0H-2.0874V549.71H1442.66V0Z" fill="white"/>
</mask>
<g mask="url(#mask7_250_142)">
<path d="M1404.89 151.629H1379.74C1379.4 151.629 1379.12 151.35 1379.12 151.008V143.184C1379.12 142.842 1379.4 142.564 1379.74 142.564H1404.89C1405.24 142.564 1405.51 142.842 1405.51 143.184V151.008C1405.51 151.352 1405.24 151.629 1404.89 151.629Z" stroke="#FFD502" stroke-width="2.61588" stroke-miterlimit="10"/>
<path d="M1468.82 200.926L1429.07 162.853C1425.65 159.58 1421.1 157.751 1416.36 157.751H1380.21C1377.86 157.751 1375.56 158.482 1373.65 159.844C1370.65 161.972 1368.87 165.42 1368.87 169.096V182.343C1368.87 184.121 1369.57 185.827 1370.83 187.083L1372.11 188.359C1372.79 189.039 1373.17 189.962 1373.17 190.926V193.272C1372.07 193.487 1371.25 194.451 1371.25 195.609V199.011C1371.25 200.169 1372.07 201.132 1373.17 201.347V202.896C1372.07 203.111 1371.25 204.075 1371.25 205.232V208.634C1371.25 209.792 1372.07 210.756 1373.17 210.971V212.519C1372.07 212.734 1371.25 213.698 1371.25 214.856V218.258C1371.25 219.415 1372.07 220.379 1373.17 220.594V222.143C1372.07 222.358 1371.25 223.322 1371.25 224.479V227.881C1371.25 229.039 1372.07 230.003 1373.17 230.218V231.766C1372.07 231.981 1371.25 232.945 1371.25 234.103V237.505C1371.25 238.662 1372.07 239.626 1373.17 239.841V243.909C1373.17 244.436 1372.96 244.94 1372.59 245.312L1369.92 247.981C1368.66 249.237 1367.95 250.943 1367.95 252.72V258.447C1367.95 264.712 1373.03 269.791 1379.3 269.791H1463.14C1469.4 269.791 1474.48 264.712 1474.48 258.447V214.19C1474.48 209.182 1472.44 204.39 1468.82 200.926ZM1446.05 206.934H1413.75C1412.18 206.934 1410.91 205.664 1410.91 204.096V171.791C1410.91 170.25 1412.14 168.992 1413.68 168.953C1414.45 168.934 1415.21 169.235 1415.75 169.783L1448.06 202.085C1449.84 203.876 1448.58 206.934 1446.05 206.934Z" stroke="#0E3B65" stroke-width="2.61588" stroke-miterlimit="10"/>
<path d="M1450.18 252.625H1392.26C1386.65 252.625 1382.1 248.076 1382.1 242.466V226.981C1382.1 221.369 1386.65 216.822 1392.26 216.822H1450.18C1455.79 216.822 1460.34 221.371 1460.34 226.981V242.466C1460.34 248.076 1455.79 252.625 1450.18 252.625Z" stroke="#FFD502" stroke-width="2.61588" stroke-miterlimit="10"/>
<path d="M1400.59 207.874H1387.63C1384.91 207.874 1382.71 205.671 1382.71 202.954V173.873C1382.71 171.156 1384.91 168.953 1387.63 168.953H1400.59C1403.31 168.953 1405.51 171.156 1405.51 173.873V202.954C1405.51 205.671 1403.31 207.874 1400.59 207.874Z" stroke="#FFD502" stroke-width="2.61588" stroke-miterlimit="10"/>
</g>
<mask id="mask8_250_142" style="mask-type:luminance" maskUnits="userSpaceOnUse" x="-3" y="0" width="1446" height="550">
<path d="M1442.66 0H-2.0874V549.71H1442.66V0Z" fill="white"/>
</mask>
<g mask="url(#mask8_250_142)">
<path d="M1098.06 -15.9696H1067.52L1052.25 10.4782L1067.52 36.9259H1098.06L1113.33 10.4782L1098.06 -15.9696ZM1082.79 25.8595C1074.3 25.8595 1067.41 18.974 1067.41 10.4782C1067.41 1.98408 1074.3 -4.90316 1082.79 -4.90316C1091.29 -4.90316 1098.17 1.98232 1098.17 10.4782C1098.17 18.974 1091.29 25.8595 1082.79 25.8595Z" stroke="#FFD502" stroke-width="2.61588" stroke-miterlimit="10"/>
</g>
<mask id="mask9_250_142" style="mask-type:luminance" maskUnits="userSpaceOnUse" x="-3" y="0" width="1446" height="550">
<path d="M1442.66 0H-2.0874V549.71H1442.66V0Z" fill="white"/>
</mask>
<g mask="url(#mask9_250_142)">
<path d="M1433.28 56.3523V29.339L1417.3 27.5894C1415.88 22.0817 1413.71 16.8841 1410.89 12.0988L1420.95 -0.43174L1401.85 -19.5342L1389.32 -9.47553C1384.53 -12.2946 1379.34 -14.4599 1373.83 -15.8871L1372.08 -31.8639H1345.06L1343.31 -15.8871C1337.81 -14.4599 1332.61 -12.2946 1327.82 -9.47553L1315.29 -19.5342L1296.19 -0.43174L1306.25 12.0988C1303.43 16.8841 1301.27 22.0817 1299.84 27.5894L1283.86 29.339V56.354L1299.84 58.1018C1301.27 63.6113 1303.43 68.8071 1306.25 73.5924L1296.19 86.123L1315.29 105.225L1327.82 95.1668C1332.61 97.9858 1337.81 100.151 1343.31 101.578L1345.06 117.557H1372.08L1373.83 101.578C1379.34 100.151 1384.53 97.9858 1389.32 95.1668L1401.85 105.225L1420.95 86.123L1410.89 73.5924C1413.71 68.8071 1415.88 63.6113 1417.3 58.1018L1433.28 56.3523ZM1358.57 91.5232C1331.69 91.5232 1309.89 69.7286 1309.89 42.8456C1309.89 15.9609 1331.69 -5.83194 1358.57 -5.83194C1385.46 -5.83194 1407.25 15.9627 1407.25 42.8456C1407.25 69.7303 1385.46 91.5232 1358.57 91.5232Z" stroke="#0E3B65" stroke-width="2.61588" stroke-miterlimit="10" stroke-dasharray="7.61 7.61"/>
</g>
<mask id="mask10_250_142" style="mask-type:luminance" maskUnits="userSpaceOnUse" x="-3" y="0" width="1446" height="550">
<path d="M1442.66 0H-2.0874V549.71H1442.66V0Z" fill="white"/>
</mask>
<g mask="url(#mask10_250_142)">
<path d="M1296.46 458.705H1277.18L1267.54 475.403L1277.18 492.1H1296.46L1306.11 475.403L1296.46 458.705ZM1286.82 485.114C1281.46 485.114 1277.11 480.766 1277.11 475.403C1277.11 470.039 1281.46 465.691 1286.82 465.691C1292.19 465.691 1296.53 470.039 1296.53 475.403C1296.53 480.768 1292.19 485.114 1286.82 485.114Z" stroke="#0E3B65" stroke-width="2.61588" stroke-miterlimit="10"/>
</g>
<mask id="mask11_250_142" style="mask-type:luminance" maskUnits="userSpaceOnUse" x="-3" y="0" width="1446" height="550">
<path d="M1442.66 0H-2.0874V549.71H1442.66V0Z" fill="white"/>
</mask>
<g mask="url(#mask11_250_142)">
<path d="M1254.53 206.85H1247.02L1243.26 213.355L1247.02 219.86H1254.53L1258.28 213.355L1254.53 206.85Z" stroke="#0E3B65" stroke-width="2.61588" stroke-miterlimit="10"/>
</g>
<mask id="mask12_250_142" style="mask-type:luminance" maskUnits="userSpaceOnUse" x="-3" y="0" width="1446" height="550">
<path d="M1442.66 0H-2.0874V549.71H1442.66V0Z" fill="white"/>
</mask>
<g mask="url(#mask12_250_142)">
<path d="M1247.02 45.0903H1239.51L1235.75 51.5952L1239.51 58.1002H1247.02L1250.77 51.5952L1247.02 45.0903Z" stroke="#0E3B65" stroke-width="2.61588" stroke-miterlimit="10"/>
</g>
<mask id="mask13_250_142" style="mask-type:luminance" maskUnits="userSpaceOnUse" x="-3" y="0" width="1446" height="550">
<path d="M1442.66 0H-2.0874V549.71H1442.66V0Z" fill="white"/>
</mask>
<g mask="url(#mask13_250_142)">
<path d="M1371.71 393.531H1364.2L1360.44 400.036L1364.2 406.541H1371.71L1375.47 400.036L1371.71 393.531Z" stroke="#FFD502" stroke-width="2.61588" stroke-miterlimit="10"/>
</g>
<mask id="mask14_250_142" style="mask-type:luminance" maskUnits="userSpaceOnUse" x="-3" y="0" width="1446" height="550">
<path d="M1442.66 0H-2.0874V549.71H1442.66V0Z" fill="white"/>
</mask>
<g mask="url(#mask14_250_142)">
<path d="M1071.17 84.0616H1063.66L1059.9 90.5666L1063.66 97.0715H1071.17L1074.92 90.5666L1071.17 84.0616Z" stroke="#FFD502" stroke-width="2.61588" stroke-miterlimit="10"/>
</g>
<mask id="mask15_250_142" style="mask-type:luminance" maskUnits="userSpaceOnUse" x="-3" y="0" width="1446" height="550">
<path d="M1442.66 0H-2.0874V549.71H1442.66V0Z" fill="white"/>
</mask>
<g mask="url(#mask15_250_142)">
<path d="M966.786 -11.7659H947.506L937.865 4.93158L947.506 21.629H966.786L976.427 4.93158L966.786 -11.7659ZM957.145 14.6431C951.782 14.6431 947.435 10.2948 947.435 4.93158C947.435 -0.431615 951.783 -4.77997 957.145 -4.77997C962.506 -4.77997 966.855 -0.431615 966.855 4.93158C966.855 10.2948 962.508 14.6431 957.145 14.6431Z" stroke="#FFD502" stroke-width="2.61588" stroke-miterlimit="10"/>
</g>
<mask id="mask16_250_142" style="mask-type:luminance" maskUnits="userSpaceOnUse" x="-3" y="0" width="1446" height="550">
<path d="M1442.66 0H-2.0874V549.71H1442.66V0Z" fill="white"/>
</mask>
<g mask="url(#mask16_250_142)">
<path d="M1447.95 120.194V114.917L1443.88 114.322C1443.67 113.633 1443.39 112.974 1443.06 112.35L1445.52 109.052L1441.79 105.32L1438.49 107.778C1437.86 107.445 1437.2 107.17 1436.52 106.961L1435.92 102.891H1430.64L1430.05 106.961C1429.36 107.17 1428.7 107.445 1428.08 107.778L1424.78 105.32L1421.04 109.052L1423.5 112.35C1423.17 112.974 1422.89 113.635 1422.68 114.322L1418.61 114.917V120.194L1422.68 120.79C1422.89 121.479 1423.17 122.138 1423.5 122.761L1421.04 126.061L1424.78 129.793L1428.08 127.335C1428.7 127.668 1429.36 127.943 1430.05 128.153L1430.64 132.223H1435.92L1436.52 128.153C1437.2 127.943 1437.86 127.668 1438.49 127.335L1441.79 129.793L1445.52 126.061L1443.06 122.761C1443.39 122.138 1443.67 121.477 1443.88 120.79L1447.95 120.194ZM1433.28 124.96C1429.19 124.96 1425.88 121.646 1425.88 117.557C1425.88 113.467 1429.19 110.153 1433.28 110.153C1437.37 110.153 1440.69 113.467 1440.69 117.557C1440.69 121.644 1437.37 124.96 1433.28 124.96Z" stroke="#0E3B65" stroke-width="2.61588" stroke-miterlimit="10"/>
</g>
<mask id="mask17_250_142" style="mask-type:luminance" maskUnits="userSpaceOnUse" x="-3" y="0" width="1446" height="550">
<path d="M1442.66 0H-2.0874V549.71H1442.66V0Z" fill="white"/>
</mask>
<g mask="url(#mask17_250_142)">
<path d="M1244.41 482.544V477.267L1240.34 476.671C1240.13 475.983 1239.86 475.324 1239.53 474.7L1241.98 471.402L1238.25 467.67L1234.95 470.128C1234.33 469.795 1233.67 469.52 1232.98 469.31L1232.38 465.24H1227.11L1226.51 469.31C1225.82 469.52 1225.16 469.795 1224.54 470.128L1221.24 467.67L1217.51 471.402L1219.97 474.7C1219.63 475.324 1219.36 475.984 1219.15 476.671L1215.08 477.267V482.544L1219.15 483.139C1219.36 483.828 1219.63 484.487 1219.97 485.111L1217.51 488.409L1221.24 492.141L1224.54 489.683C1225.16 490.016 1225.82 490.291 1226.51 490.5L1227.11 494.57H1232.38L1232.98 490.5C1233.67 490.291 1234.33 490.016 1234.95 489.683L1238.25 492.141L1241.98 488.409L1239.53 485.111C1239.86 484.487 1240.13 483.826 1240.34 483.139L1244.41 482.544ZM1229.75 487.31C1225.66 487.31 1222.34 483.996 1222.34 479.906C1222.34 475.817 1225.66 472.503 1229.75 472.503C1233.84 472.503 1237.15 475.817 1237.15 479.906C1237.15 483.996 1233.83 487.31 1229.75 487.31Z" stroke="#0E3B65" stroke-width="2.61588" stroke-miterlimit="10"/>
</g>
<mask id="mask18_250_142" style="mask-type:luminance" maskUnits="userSpaceOnUse" x="-3" y="0" width="1446" height="550">
<path d="M1442.66 0H-2.0874V549.71H1442.66V0Z" fill="white"/>
</mask>
<g mask="url(#mask18_250_142)">
<path d="M1157.59 265.299V260.022L1153.52 259.426C1153.31 258.737 1153.03 258.078 1152.7 257.455L1155.16 254.155L1151.43 250.423L1148.13 252.881C1147.5 252.548 1146.84 252.273 1146.15 252.063L1145.56 247.993H1140.28L1139.69 252.063C1139 252.273 1138.34 252.548 1137.71 252.881L1134.42 250.423L1130.68 254.155L1133.14 257.455C1132.81 258.078 1132.53 258.739 1132.32 259.426L1128.25 260.022V265.299L1132.32 265.894C1132.53 266.583 1132.81 267.242 1133.14 267.866L1130.68 271.164L1134.42 274.896L1137.71 272.438C1138.34 272.771 1139 273.046 1139.69 273.255L1140.28 277.325H1145.56L1146.15 273.255C1146.84 273.046 1147.5 272.771 1148.13 272.438L1151.43 274.896L1155.16 271.164L1152.7 267.866C1153.03 267.242 1153.31 266.581 1153.52 265.894L1157.59 265.299ZM1142.92 270.065C1138.83 270.065 1135.52 266.75 1135.52 262.661C1135.52 258.572 1138.83 255.258 1142.92 255.258C1147.01 255.258 1150.32 258.572 1150.32 262.661C1150.32 266.75 1147.01 270.065 1142.92 270.065Z" stroke="#FFD502" stroke-width="2.61588" stroke-miterlimit="10"/>
</g>
<mask id="mask19_250_142" style="mask-type:luminance" maskUnits="userSpaceOnUse" x="-3" y="0" width="1446" height="550">
<path d="M1442.66 0H-2.0874V549.71H1442.66V0Z" fill="white"/>
</mask>
<g mask="url(#mask19_250_142)">
<path d="M1285.41 105.356C1285.41 109.939 1281.69 113.654 1277.11 113.654C1272.53 113.654 1268.81 109.939 1268.81 105.356C1268.81 98.0423 1277.11 92.1294 1277.11 92.1294C1277.11 92.1294 1285.41 98.0405 1285.41 105.356Z" stroke="#FFD502" stroke-width="2.61588" stroke-miterlimit="10"/>
</g>
<mask id="mask20_250_142" style="mask-type:luminance" maskUnits="userSpaceOnUse" x="-3" y="0" width="1446" height="550">
<path d="M1442.66 0H-2.0874V549.71H1442.66V0Z" fill="white"/>
</mask>
<g mask="url(#mask20_250_142)">
<path d="M1353.1 237.907C1353.1 242.489 1349.39 246.205 1344.8 246.205C1340.22 246.205 1336.51 242.489 1336.51 237.907C1336.51 230.593 1344.8 224.68 1344.8 224.68C1344.8 224.68 1353.1 230.593 1353.1 237.907Z" stroke="#0E3B65" stroke-width="2.61588" stroke-miterlimit="10"/>
</g>
<mask id="mask21_250_142" style="mask-type:luminance" maskUnits="userSpaceOnUse" x="-3" y="0" width="1446" height="550">
<path d="M1442.66 0H-2.0874V549.71H1442.66V0Z" fill="white"/>
</mask>
<g mask="url(#mask21_250_142)">
<path d="M1303.3 215.615C1326.22 215.615 1344.8 197.034 1344.8 174.114C1344.8 151.193 1326.22 132.612 1303.3 132.612C1280.38 132.612 1261.8 151.193 1261.8 174.114C1261.8 197.034 1280.38 215.615 1303.3 215.615Z" stroke="#FFD502" stroke-width="2.61588" stroke-miterlimit="10" stroke-dasharray="7.61 7.61"/>
<path d="M1336.07 181.762C1340.3 163.677 1329.07 145.584 1310.98 141.351C1292.9 137.118 1274.81 148.348 1270.57 166.433C1266.34 184.518 1277.57 202.611 1295.65 206.844C1313.74 211.077 1331.83 199.847 1336.07 181.762Z" stroke="#0E3B65" stroke-width="2.61588" stroke-miterlimit="10"/>
</g>
<mask id="mask22_250_142" style="mask-type:luminance" maskUnits="userSpaceOnUse" x="-3" y="0" width="1446" height="550">
<path d="M1442.66 0H-2.0874V549.71H1442.66V0Z" fill="white"/>
</mask>
<g mask="url(#mask22_250_142)">
<path d="M146.333 548.495C146.694 549.554 147.125 550.579 147.613 551.571L140.827 559.711L151.315 570.2L159.455 563.415C160.445 563.903 161.474 564.324 162.531 564.688L163.49 575.244H178.323L179.282 564.688C180.337 564.325 181.366 563.904 182.358 563.415L190.498 570.2L200.986 559.711L194.2 551.571C194.689 550.577 195.119 549.554 195.481 548.495L206.029 547.538V532.705L195.481 531.748C195.119 530.689 194.689 529.664 194.2 528.672L200.986 520.532L190.498 510.043L182.358 516.83C181.366 516.342 180.341 515.91 179.282 515.549L178.325 505.001H163.492L162.535 515.549C161.476 515.91 160.451 516.342 159.459 516.83L151.319 510.043L140.83 520.532L147.617 528.672C147.127 529.664 146.697 530.689 146.336 531.748L135.788 532.705V547.538L146.333 548.495ZM153.754 540.121C153.754 530.647 161.434 522.967 170.907 522.967C180.381 522.967 188.061 530.647 188.061 540.121C188.061 549.594 180.381 557.274 170.907 557.274C161.434 557.274 153.754 549.594 153.754 540.121Z" stroke="#FFD502" stroke-width="2.61588" stroke-miterlimit="10"/>
</g>
<mask id="mask23_250_142" style="mask-type:luminance" maskUnits="userSpaceOnUse" x="-3" y="0" width="1446" height="550">
<path d="M1442.66 0H-2.0874V549.71H1442.66V0Z" fill="white"/>
</mask>
<g mask="url(#mask23_250_142)">
<path d="M182.58 -13.9525L175.827 -11.4382L179.028 2.58466L186.178 1.92219C186.525 2.70271 186.895 3.46913 187.286 4.22322L182.311 9.39966L191.279 20.6458L197.435 16.9458C198.081 17.4956 198.758 18.0047 199.438 18.5157L197.193 25.3642L210.152 31.6048L214.104 25.5826C214.925 25.7958 215.744 26.0178 216.585 26.1817L217.527 33.2874H231.911L232.854 26.1817C233.694 26.0178 234.512 25.7958 235.335 25.5826L239.287 31.6048L252.245 25.3642L250.001 18.5157C250.681 18.0065 251.357 17.4956 252.004 16.9458L258.16 20.6458L267.128 9.39966L262.153 4.22322C262.545 3.46913 262.914 2.70095 263.261 1.92219L270.411 2.58466L273.612 -11.4382L266.859 -13.9525C266.871 -14.3771 266.922 -14.7929 266.922 -15.221C266.922 -15.6492 266.871 -16.065 266.859 -16.4896L273.612 -19.0038L270.411 -33.0267L263.261 -32.3642C262.914 -33.1447 262.544 -33.9112 262.153 -34.667L267.128 -39.8435L258.16 -51.0896L252.004 -47.3896C251.357 -47.9394 250.681 -48.4485 250.001 -48.9595L252.245 -55.808L239.287 -62.0486L235.335 -56.0264C234.512 -56.2396 233.694 -56.4616 232.854 -56.6255L231.911 -63.7312H217.527L216.585 -56.6255C215.744 -56.4616 214.927 -56.2396 214.104 -56.0264L210.152 -62.0486L197.193 -55.808L199.438 -48.9595C198.758 -48.4503 198.081 -47.9394 197.435 -47.3896L191.279 -51.0896L182.311 -39.8435L187.286 -34.667C186.893 -33.9129 186.525 -33.1447 186.178 -32.3642L179.028 -33.0267L175.827 -19.0038L182.58 -16.4896C182.568 -16.065 182.517 -15.6492 182.517 -15.221C182.517 -14.7929 182.568 -14.3771 182.58 -13.9525ZM192.149 -15.221C192.149 -33.2099 206.732 -47.7931 224.721 -47.7931C242.71 -47.7931 257.293 -33.2099 257.293 -15.221C257.293 2.7679 242.71 17.3493 224.721 17.3493C206.732 17.3493 192.149 2.7679 192.149 -15.221Z" stroke="#FFD502" stroke-width="2.61588" stroke-miterlimit="10"/>
</g>
<mask id="mask24_250_142" style="mask-type:luminance" maskUnits="userSpaceOnUse" x="-3" y="0" width="1446" height="550">
<path d="M1442.66 0H-2.0874V549.71H1442.66V0Z" fill="white"/>
</mask>
<g mask="url(#mask24_250_142)">
<path d="M-47.2727 355.557L-61.1335 361.639L-53.9521 383.742L-39.1751 380.518C-38.8368 381.002 -38.4721 381.464 -38.1162 381.934L-45.7628 395.014L-26.9599 408.674L-16.8907 397.372C-16.3286 397.567 -15.7772 397.779 -15.2063 397.951L-13.7087 412.98H9.53243L11.03 397.951C11.6009 397.779 12.1541 397.566 12.7144 397.372L22.7819 408.674L41.5848 395.014L33.9382 381.934C34.2941 381.464 34.6588 381.002 34.9971 380.518L49.774 383.742L56.9573 361.639L43.0947 355.557C43.1 355.259 43.1388 354.972 43.1388 354.672C43.1388 354.375 43.1 354.086 43.0947 353.788L56.9573 347.706L49.774 325.603L34.9971 328.827C34.6588 328.343 34.2941 327.881 33.9382 327.411L41.5848 314.33L22.7819 300.669L12.7144 311.973C12.1524 311.777 11.6009 311.566 11.03 311.391L9.53243 296.363H-13.7087L-15.2063 311.391C-15.7772 311.564 -16.3304 311.777 -16.8907 311.973L-26.9599 300.669L-45.7628 314.33L-38.1162 327.411C-38.4721 327.881 -38.8368 328.343 -39.1751 328.827L-53.9521 325.603L-61.1335 347.706L-47.2727 353.788C-47.278 354.086 -47.3168 354.375 -47.3168 354.672C-47.3168 354.972 -47.278 355.259 -47.2727 355.557ZM-36.3631 354.672C-36.3631 335.743 -21.017 320.397 -2.08725 320.397C16.8425 320.397 32.1886 335.743 32.1886 354.672C32.1886 373.602 16.8425 388.948 -2.08725 388.948C-21.017 388.95 -36.3631 373.602 -36.3631 354.672Z" stroke="#0E3B65" stroke-width="2.61588" stroke-miterlimit="10"/>
</g>
<mask id="mask25_250_142" style="mask-type:luminance" maskUnits="userSpaceOnUse" x="-3" y="0" width="1446" height="550">
<path d="M1442.66 0H-2.0874V549.71H1442.66V0Z" fill="white"/>
</mask>
<g mask="url(#mask25_250_142)">
<path d="M198.101 152.409L204.696 153.374C205.413 157.27 206.424 161.06 207.721 164.717L202.491 168.851" stroke="#FFD502" stroke-width="2.61588" stroke-miterlimit="10"/>
<path d="M201.155 169.906L195.925 174.04L199.259 179.812" stroke="#FFD502" stroke-width="2.61588" stroke-miterlimit="10"/>
<path d="M203.986 188.001L207.319 193.773L213.512 191.312" stroke="#FFD502" stroke-width="2.61588" stroke-miterlimit="10"/>
<path d="M215.119 190.674L221.312 188.212C223.856 191.188 226.627 193.961 229.603 196.504L227.142 202.697" stroke="#FFD502" stroke-width="2.61588" stroke-miterlimit="10"/>
<path d="M226.502 204.302L224.041 210.495L229.813 213.829" stroke="#FFD502" stroke-width="2.61588" stroke-miterlimit="10"/>
<path d="M238.002 218.558L243.776 221.889L247.908 216.66" stroke="#FFD502" stroke-width="2.61588" stroke-miterlimit="10"/>
<path d="M248.965 215.325L253.098 210.095C256.756 211.392 260.546 212.403 264.442 213.12L265.407 219.715" stroke="#FFD502" stroke-width="2.61588" stroke-miterlimit="10"/>
<path d="M265.654 221.415L266.619 228.01H273.283" stroke="#FFD502" stroke-width="2.61588" stroke-miterlimit="10"/>
<path d="M282.74 228.01H289.406L290.369 221.415" stroke="#FFD502" stroke-width="2.61588" stroke-miterlimit="10"/>
<path d="M290.619 219.715L291.583 213.12C295.479 212.403 299.269 211.392 302.926 210.095L307.06 215.325" stroke="#FFD502" stroke-width="2.61588" stroke-miterlimit="10"/>
<path d="M308.115 216.66L312.248 221.889L318.02 218.558" stroke="#FFD502" stroke-width="2.61588" stroke-miterlimit="10"/>
<path d="M326.209 213.829L331.981 210.495L329.52 204.302" stroke="#FFD502" stroke-width="2.61588" stroke-miterlimit="10"/>
<path d="M328.883 202.697L326.421 196.504C329.397 193.96 332.168 191.188 334.713 188.212L340.906 190.674" stroke="#FFD502" stroke-width="2.61588" stroke-miterlimit="10"/>
<path d="M342.51 191.312L348.704 193.773L352.037 188.001" stroke="#FFD502" stroke-width="2.61588" stroke-miterlimit="10"/>
<path d="M356.766 179.812L360.098 174.04L354.869 169.906" stroke="#FFD502" stroke-width="2.61588" stroke-miterlimit="10"/>
<path d="M353.533 168.851L348.304 164.717C349.6 161.06 350.612 157.268 351.329 153.374L357.924 152.409" stroke="#FFD502" stroke-width="2.61588" stroke-miterlimit="10"/>
<path d="M359.624 152.161L366.219 151.197V144.532" stroke="#FFD502" stroke-width="2.61588" stroke-miterlimit="10"/>
<path d="M366.219 135.074V128.408L359.624 127.445" stroke="#FFD502" stroke-width="2.61588" stroke-miterlimit="10"/>
<path d="M357.924 127.196L351.329 126.233C350.612 122.337 349.6 118.547 348.304 114.89L353.533 110.756" stroke="#FFD502" stroke-width="2.61588" stroke-miterlimit="10"/>
<path d="M354.869 109.699L360.098 105.567L356.766 99.7936" stroke="#FFD502" stroke-width="2.61588" stroke-miterlimit="10"/>
<path d="M352.037 91.6042L348.704 85.8323L342.51 88.2936" stroke="#FFD502" stroke-width="2.61588" stroke-miterlimit="10"/>
<path d="M340.904 88.9334L334.711 91.3948C332.167 88.419 329.396 85.6475 326.42 83.1033L328.881 76.9103" stroke="#FFD502" stroke-width="2.61588" stroke-miterlimit="10"/>
<path d="M329.52 75.303L331.981 69.11L326.209 65.7765" stroke="#FFD502" stroke-width="2.61588" stroke-miterlimit="10"/>
<path d="M318.02 61.0496L312.248 57.7161L308.115 62.9454" stroke="#FFD502" stroke-width="2.61588" stroke-miterlimit="10"/>
<path d="M307.06 64.2827L302.926 69.512C299.269 68.2153 295.479 67.2039 291.583 66.4869L290.619 59.8921" stroke="#FFD502" stroke-width="2.61588" stroke-miterlimit="10"/>
<path d="M290.369 58.192L289.406 51.5955H282.74" stroke="#FFD502" stroke-width="2.61588" stroke-miterlimit="10"/>
<path d="M273.283 51.5955H266.619L265.654 58.192" stroke="#FFD502" stroke-width="2.61588" stroke-miterlimit="10"/>
<path d="M265.405 59.8921L264.439 66.4869C260.544 67.2039 256.754 68.2153 253.096 69.512L248.963 64.2827" stroke="#FFD502" stroke-width="2.61588" stroke-miterlimit="10"/>
<path d="M247.908 62.9454L243.776 57.7161L238.002 61.0496" stroke="#FFD502" stroke-width="2.61588" stroke-miterlimit="10"/>
<path d="M229.813 65.7765L224.041 69.11L226.502 75.303" stroke="#FFD502" stroke-width="2.61588" stroke-miterlimit="10"/>
<path d="M227.142 76.9103L229.603 83.1033C226.627 85.6475 223.856 88.419 221.312 91.3948L215.119 88.9334" stroke="#FFD502" stroke-width="2.61588" stroke-miterlimit="10"/>
<path d="M213.512 88.2936L207.319 85.8323L203.986 91.6042" stroke="#FFD502" stroke-width="2.61588" stroke-miterlimit="10"/>
<path d="M199.259 99.7936L195.925 105.567L201.155 109.699" stroke="#FFD502" stroke-width="2.61588" stroke-miterlimit="10"/>
<path d="M202.491 110.756L207.721 114.89C206.424 118.547 205.413 122.337 204.696 126.233L198.101 127.196" stroke="#FFD502" stroke-width="2.61588" stroke-miterlimit="10"/>
<path d="M196.399 127.445L189.804 128.408V135.074" stroke="#FFD502" stroke-width="2.61588" stroke-miterlimit="10"/>
<path d="M189.804 144.532V151.197L196.399 152.161" stroke="#FFD502" stroke-width="2.61588" stroke-miterlimit="10"/>
<path d="M321.472 183.267C345.476 159.263 345.476 120.345 321.472 96.3405C297.468 72.3364 258.549 72.3364 234.545 96.3405C210.541 120.345 210.541 159.263 234.545 183.267C258.549 207.272 297.468 207.272 321.472 183.267Z" stroke="#FFD502" stroke-width="2.61588" stroke-miterlimit="10" stroke-dasharray="13.79 13.79"/>
<path d="M237.088 147.379C237.488 149.553 238.052 151.669 238.776 153.711L232.192 158.914L238.552 169.929L246.363 166.825C247.783 168.486 249.33 170.033 250.991 171.453L247.887 179.264L258.902 185.624L264.105 179.04C266.147 179.764 268.263 180.328 270.437 180.728L271.653 189.039H284.372L285.588 180.728C287.762 180.328 289.878 179.762 291.92 179.04L297.123 185.624L308.138 179.264L305.034 171.453C306.695 170.033 308.242 168.486 309.662 166.825L317.473 169.929L323.833 158.914L317.249 153.711C317.973 151.669 318.537 149.553 318.937 147.379L327.248 146.163V133.444L318.937 132.228C318.537 130.054 317.971 127.938 317.249 125.896L323.833 120.693L317.473 109.678L309.662 112.782C308.242 111.121 306.695 109.574 305.034 108.154L308.138 100.343L297.123 93.9847L291.92 100.567C289.878 99.843 287.763 99.2792 285.588 98.8793L284.372 90.5667H271.653L270.437 98.8793C268.263 99.2792 266.147 99.843 264.105 100.567L258.902 93.9847L247.887 100.343L250.991 108.154C249.33 109.574 247.783 111.121 246.363 112.782L238.552 109.678L232.192 120.693L238.776 125.896C238.052 127.938 237.488 130.054 237.088 132.228L228.777 133.444V146.163L237.088 147.379ZM243.702 139.803C243.702 120.854 259.064 105.493 278.011 105.493C296.961 105.493 312.321 120.854 312.321 139.803C312.321 158.752 296.961 174.112 278.011 174.112C259.062 174.114 243.702 158.752 243.702 139.803Z" stroke="#0E3B65" stroke-width="2.61588" stroke-miterlimit="10"/>
</g>
<mask id="mask26_250_142" style="mask-type:luminance" maskUnits="userSpaceOnUse" x="-3" y="0" width="1446" height="550">
<path d="M1442.66 0H-2.0874V549.71H1442.66V0Z" fill="white"/>
</mask>
<g mask="url(#mask26_250_142)">
<path d="M116.976 340.262C116.976 377.542 147.305 407.871 184.585 407.871C221.865 407.871 252.194 377.542 252.194 340.262C252.194 302.982 221.865 272.653 184.585 272.653C147.305 272.653 116.976 302.982 116.976 340.262ZM176.63 304.92L179.401 320.435C175.781 321.38 172.544 323.269 169.993 325.852L157.954 315.703C155.156 313.346 152.136 311.228 148.945 309.385L137.275 302.647C146.609 290.931 160.184 282.791 175.663 280.488V293.96C175.663 297.644 175.987 301.319 176.63 304.92ZM194.46 280.638C209.542 283.129 222.751 291.172 231.893 302.647L220.223 309.385C217.028 311.23 214.003 313.353 211.182 315.729L199.175 325.85C196.624 323.267 193.387 321.378 189.767 320.434L192.538 304.918C193.183 301.312 193.505 297.658 193.505 293.993V281.448C193.505 280.95 193.967 280.555 194.46 280.638ZM240.826 362.432L229.143 355.687C225.952 353.844 222.608 352.289 219.167 351.045L204.348 345.689C204.824 343.959 205.097 342.144 205.097 340.262C205.097 338.38 204.822 336.567 204.348 334.835L219.167 329.479C222.608 328.235 225.952 326.68 229.143 324.837L240.826 318.092C243.547 324.967 245.09 332.432 245.09 340.262C245.092 348.094 243.547 355.557 240.826 362.432ZM192.538 375.604L189.767 360.089C193.387 359.144 196.624 357.256 199.175 354.673L211.214 364.819C214.012 367.177 217.03 369.295 220.223 371.137L231.893 377.875C222.559 389.592 208.984 397.731 193.505 400.034V386.563C193.505 382.879 193.181 379.205 192.538 375.604ZM137.275 377.877L148.945 371.139C152.136 369.296 155.156 367.178 157.954 364.821L169.993 354.674C172.544 357.257 175.781 359.146 179.401 360.09L176.63 375.606C175.987 379.207 175.663 382.882 175.663 386.566V400.038C160.184 397.733 146.609 389.593 137.275 377.877ZM128.342 362.432C125.621 355.557 124.078 348.092 124.078 340.26C124.078 332.429 125.621 324.965 128.342 318.09L140.025 324.837C143.216 326.68 146.562 328.235 150.001 329.479L164.82 334.835C164.346 336.566 164.071 338.38 164.071 340.262C164.071 342.144 164.346 343.957 164.82 345.689L150.001 351.045C146.56 352.289 143.216 353.844 140.025 355.687L128.342 362.432Z" stroke="#FFD502" stroke-width="2.61588" stroke-miterlimit="10"/>
<path d="M82.0059 340.262C82.0059 283.7 128.023 237.683 184.585 237.683C241.147 237.683 287.164 283.7 287.164 340.262C287.164 396.824 241.147 442.841 184.585 442.841C128.023 442.841 82.0059 396.824 82.0059 340.262ZM106.984 340.262C106.984 383.051 141.796 417.863 184.585 417.863C227.374 417.863 262.186 383.051 262.186 340.262C262.186 297.473 227.374 262.661 184.585 262.661C141.796 262.661 106.984 297.473 106.984 340.262Z" stroke="#0E3B65" stroke-width="2.61588" stroke-miterlimit="10"/>
<path d="M184.585 351.059C190.548 351.059 195.382 346.225 195.382 340.262C195.382 334.299 190.548 329.465 184.585 329.465C178.622 329.465 173.788 334.299 173.788 340.262C173.788 346.225 178.622 351.059 184.585 351.059Z" stroke="#0E3B65" stroke-width="2.61588" stroke-miterlimit="10"/>
<path d="M179.365 340.262C179.365 343.145 181.701 345.483 184.585 345.483C187.469 345.483 189.806 343.146 189.806 340.262C189.806 337.378 187.469 335.042 184.585 335.042C181.701 335.042 179.365 337.38 179.365 340.262Z" stroke="#0E3B65" stroke-width="2.61588" stroke-miterlimit="10"/>
</g>
<mask id="mask27_250_142" style="mask-type:luminance" maskUnits="userSpaceOnUse" x="-3" y="0" width="1446" height="550">
<path d="M1442.66 0H-2.0874V549.71H1442.66V0Z" fill="white"/>
</mask>
<g mask="url(#mask27_250_142)">
<path d="M462.607 -62.5082C462.607 -77.1196 450.762 -88.9666 436.149 -88.9666C421.537 -88.9666 409.69 -77.1214 409.69 -62.5082C409.69 -51.4488 416.481 -41.9857 426.115 -38.032V51.754C416.368 53.9546 407.934 60.9529 404.408 71.0855C400.979 80.9363 403.004 91.3596 408.883 99.0785L418.494 71.4678L449.655 82.3141L440.044 109.925C449.446 107.525 457.506 100.611 460.935 90.7606C465.923 76.4328 459.361 60.9106 446.181 54.2524V-38.032C455.817 -41.9857 462.607 -51.4488 462.607 -62.5082ZM453.664 -62.399C453.664 -52.728 445.823 -44.8858 436.15 -44.8858C426.478 -44.8858 418.637 -52.7262 418.637 -62.399C418.637 -72.0718 426.478 -79.9122 436.15 -79.9122C445.821 -79.9122 453.664 -72.0718 453.664 -62.399Z" stroke="#FFD502" stroke-width="2.61588" stroke-miterlimit="10"/>
</g>
<mask id="mask28_250_142" style="mask-type:luminance" maskUnits="userSpaceOnUse" x="-3" y="0" width="1446" height="550">
<path d="M1442.66 0H-2.0874V549.71H1442.66V0Z" fill="white"/>
</mask>
<g mask="url(#mask28_250_142)">
<path d="M-21.1125 490.729C-21.1125 505.394 -16.7466 519.429 -8.46921 531.431C-7.95826 532.173 -6.92403 532.338 -6.19461 531.81L-5.93208 531.619C6.77468 549.163 27.41 560.608 50.681 560.608C73.9521 560.608 94.5874 549.164 107.294 531.619L107.557 531.81C108.286 532.338 109.32 532.173 109.831 531.431C118.109 519.431 122.475 505.394 122.475 490.729C122.475 473.324 116.215 456.64 104.81 443.563C104.218 442.885 103.175 442.839 102.511 443.445L102.276 443.659C89.4885 429.653 71.0943 420.851 50.6793 420.851C30.266 420.851 11.8701 429.653 -0.917738 443.659L-1.15207 443.445C-1.8163 442.839 -2.85934 442.885 -3.44958 443.563C-14.8508 456.64 -21.1125 473.324 -21.1125 490.729ZM94.457 450.798L94.0958 451.129C93.4475 451.721 93.4034 452.713 93.9778 453.379C99.5524 459.835 103.557 467.383 105.793 475.477C100.218 479.39 93.1462 480.909 86.2554 479.231L67.4701 474.659C63.2363 470.237 57.2864 467.469 50.6793 467.469C44.0722 467.469 38.124 470.235 33.8884 474.659L15.1049 479.231C8.21415 480.909 1.14191 479.39 -4.43271 475.477C-2.19687 467.381 1.80791 459.835 7.38254 453.379C7.95692 452.715 7.91463 451.721 7.26625 451.129L6.9033 450.798C17.7636 438.902 33.3405 431.382 50.6793 431.382C68.0216 431.382 83.5967 438.902 94.457 450.798ZM72.1145 546.009C54.3687 547.346 56.2151 522.968 62.4417 510.773C65.6007 508.914 68.2806 506.34 70.2574 503.26C89.9008 494.847 100.333 499.158 105.971 505.247C104.332 511.514 101.665 517.477 97.9544 522.909C97.4593 523.633 97.6143 524.614 98.3261 525.129L98.7314 525.421C92.0697 534.623 82.8567 541.828 72.1145 546.009ZM2.63248 525.423L3.03771 525.129C3.74952 524.614 3.90456 523.633 3.40947 522.909C-0.299313 517.477 -2.96858 511.514 -4.60538 505.247C1.03092 499.158 11.4631 494.847 31.1064 503.26C33.0833 506.34 35.7613 508.914 38.9222 510.773C45.1469 522.968 46.9934 547.346 29.2476 546.009C18.5071 541.828 9.29419 534.623 2.63248 525.423Z" stroke="#FFD502" stroke-width="2.61588" stroke-miterlimit="10"/>
<path d="M50.6831 506.054C59.1468 506.054 66.008 499.193 66.008 490.729C66.008 482.266 59.1468 475.404 50.6831 475.404C42.2194 475.404 35.3582 482.266 35.3582 490.729C35.3582 499.193 42.2194 506.054 50.6831 506.054Z" stroke="#0E3B65" stroke-width="2.61588" stroke-miterlimit="10"/>
<path d="M42.0056 490.729C42.0056 485.944 45.8976 482.052 50.6829 482.052C55.4682 482.052 59.3603 485.944 59.3603 490.729C59.3603 495.512 55.4682 499.406 50.6829 499.406C45.8976 499.405 42.0056 495.512 42.0056 490.729Z" stroke="#FFD502" stroke-width="2.61588" stroke-miterlimit="10"/>
</g>
<mask id="mask29_250_142" style="mask-type:luminance" maskUnits="userSpaceOnUse" x="-3" y="0" width="1446" height="550">
<path d="M1442.66 0H-2.0874V549.71H1442.66V0Z" fill="white"/>
</mask>
<g mask="url(#mask29_250_142)">
<path d="M35.6839 151.628H60.8367C61.1785 151.628 61.4569 151.352 61.4569 151.008V143.182C61.4569 142.84 61.1803 142.562 60.8367 142.562H35.6839C35.3421 142.562 35.0637 142.838 35.0637 143.182V151.007C35.0637 151.352 35.3421 151.628 35.6839 151.628Z" stroke="#FFD502" stroke-width="2.61588" stroke-miterlimit="10"/>
<path d="M-33.9053 214.191V258.448C-33.9053 264.714 -28.8257 269.793 -22.5604 269.793H61.2774C67.5427 269.793 72.6223 264.714 72.6223 258.448V252.722C72.6223 250.945 71.9157 249.239 70.6595 247.983L67.9903 245.314C67.6185 244.942 67.4088 244.438 67.4088 243.911V239.843C68.503 239.628 69.3293 238.664 69.3293 237.507V234.104C69.3293 232.947 68.5047 231.983 67.4088 231.768V230.219C68.503 230.004 69.3293 229.041 69.3293 227.883V224.481C69.3293 223.323 68.5047 222.36 67.4088 222.145V220.596C68.503 220.381 69.3293 219.417 69.3293 218.26V214.857C69.3293 213.7 68.5047 212.736 67.4088 212.521V210.973C68.503 210.758 69.3293 209.794 69.3293 208.636V205.234C69.3293 204.076 68.5047 203.113 67.4088 202.898V201.349C68.503 201.134 69.3293 200.17 69.3293 199.013V195.611C69.3293 194.453 68.5047 193.489 67.4088 193.274V190.927C67.4088 189.965 67.7912 189.042 68.4713 188.36L69.7469 187.085C71.0031 185.827 71.7096 184.123 71.7096 182.345V169.098C71.7096 165.422 69.9283 161.974 66.9314 159.846C65.0127 158.484 62.7169 157.753 60.3648 157.753H24.2143C19.4801 157.753 14.9291 159.58 11.5093 162.855L-28.2426 200.928C-31.8597 204.39 -33.9053 209.182 -33.9053 214.191ZM-7.47865 202.087L24.8239 169.785C25.3736 169.235 26.1242 168.936 26.8994 168.955C28.4393 168.992 29.6691 170.252 29.6691 171.793V204.096C29.6691 205.664 28.3988 206.934 26.8307 206.934H-5.47185C-8.00017 206.934 -9.26697 203.876 -7.47865 202.087Z" stroke="#0E3B65" stroke-width="2.61588" stroke-miterlimit="10"/>
<path d="M-9.60167 252.625H48.3188C53.9304 252.625 58.4779 248.076 58.4779 242.466V226.981C58.4779 221.369 53.9286 216.822 48.317 216.822H-9.60167C-15.2133 216.822 -19.7607 221.371 -19.7607 226.981V242.464C-19.7607 248.076 -15.2133 252.625 -9.60167 252.625Z" stroke="#FFD502" stroke-width="2.61588" stroke-miterlimit="10"/>
<path d="M39.9829 207.874H52.9505C55.6673 207.874 57.8697 205.671 57.8697 202.954V173.873C57.8697 171.156 55.6673 168.953 52.9505 168.953H39.9829C37.2661 168.953 35.0637 171.156 35.0637 173.873V202.954C35.0637 205.671 37.2661 207.874 39.9829 207.874Z" stroke="#FFD502" stroke-width="2.61588" stroke-miterlimit="10"/>
</g>
<mask id="mask30_250_142" style="mask-type:luminance" maskUnits="userSpaceOnUse" x="-3" y="0" width="1446" height="550">
<path d="M1442.66 0H-2.0874V549.71H1442.66V0Z" fill="white"/>
</mask>
<g mask="url(#mask30_250_142)">
<path d="M327.247 10.4782L342.517 36.9259H373.056L388.327 10.4782L373.056 -15.9696H342.517L327.247 10.4782ZM342.405 10.4782C342.405 1.98408 349.29 -4.90316 357.786 -4.90316C366.28 -4.90316 373.167 1.98232 373.167 10.4782C373.167 18.9722 366.282 25.8595 357.786 25.8595C349.292 25.8595 342.405 18.974 342.405 10.4782Z" stroke="#FFD502" stroke-width="2.61588" stroke-miterlimit="10"/>
</g>
<mask id="mask31_250_142" style="mask-type:luminance" maskUnits="userSpaceOnUse" x="-3" y="0" width="1446" height="550">
<path d="M1442.66 0H-2.0874V549.71H1442.66V0Z" fill="white"/>
</mask>
<g mask="url(#mask31_250_142)">
<path d="M23.2733 58.1018C24.7004 63.6113 26.8658 68.8071 29.6848 73.5924L19.6262 86.123L38.7286 105.225L51.2592 95.1668C56.0445 97.9858 61.2403 100.151 66.7497 101.578L68.4993 117.557H95.5126L97.2622 101.578C102.77 100.151 107.967 97.9858 112.753 95.1668L125.283 105.225L144.386 86.123L134.327 73.5924C137.146 68.8071 139.312 63.6095 140.739 58.1018L156.715 56.354V29.339L140.739 27.5894C139.31 22.0817 137.146 16.8841 134.327 12.0988L144.386 -0.43174L125.283 -19.5342L112.753 -9.47553C107.967 -12.2946 102.77 -14.4599 97.2622 -15.8871L95.5126 -31.8639H68.4993L66.7497 -15.8871C61.2403 -14.4599 56.0445 -12.2946 51.2592 -9.47553L38.7286 -19.5342L19.6262 -0.43174L29.6848 12.0988C26.8658 16.8841 24.7004 22.0817 23.2733 27.5894L7.29468 29.339V56.354L23.2733 58.1018ZM33.3266 42.8456C33.3266 15.9609 55.1212 -5.83194 82.0059 -5.83194C108.891 -5.83194 130.684 15.9627 130.684 42.8456C130.684 69.7303 108.889 91.5232 82.0059 91.5232C55.1212 91.5232 33.3266 69.7303 33.3266 42.8456Z" stroke="#0E3B65" stroke-width="2.61588" stroke-miterlimit="10" stroke-dasharray="7.61 7.61"/>
</g>
<mask id="mask32_250_142" style="mask-type:luminance" maskUnits="userSpaceOnUse" x="-3" y="0" width="1446" height="550">
<path d="M1442.66 0H-2.0874V549.71H1442.66V0Z" fill="white"/>
</mask>
<g mask="url(#mask32_250_142)">
<path d="M134.472 475.404L144.113 492.102H163.393L173.034 475.404L163.393 458.707H144.113L134.472 475.404ZM144.043 475.404C144.043 470.041 148.391 465.693 153.752 465.693C159.114 465.693 163.464 470.041 163.464 475.404C163.464 480.767 159.115 485.116 153.752 485.116C148.389 485.116 144.043 480.767 144.043 475.404Z" stroke="#0E3B65" stroke-width="2.61588" stroke-miterlimit="10"/>
</g>
<mask id="mask33_250_142" style="mask-type:luminance" maskUnits="userSpaceOnUse" x="-3" y="0" width="1446" height="550">
<path d="M1442.66 0H-2.0874V549.71H1442.66V0Z" fill="white"/>
</mask>
<g mask="url(#mask33_250_142)">
<path d="M182.293 213.355L186.049 219.86H193.56L197.316 213.355L193.56 206.85H186.049L182.293 213.355Z" stroke="#0E3B65" stroke-width="2.61588" stroke-miterlimit="10"/>
</g>
<mask id="mask34_250_142" style="mask-type:luminance" maskUnits="userSpaceOnUse" x="-3" y="0" width="1446" height="550">
<path d="M1442.66 0H-2.0874V549.71H1442.66V0Z" fill="white"/>
</mask>
<g mask="url(#mask34_250_142)">
<path d="M189.804 51.5952L193.56 58.1002H201.071L204.828 51.5952L201.071 45.0903H193.56L189.804 51.5952Z" stroke="#0E3B65" stroke-width="2.61588" stroke-miterlimit="10"/>
</g>
<mask id="mask35_250_142" style="mask-type:luminance" maskUnits="userSpaceOnUse" x="-3" y="0" width="1446" height="550">
<path d="M1442.66 0H-2.0874V549.71H1442.66V0Z" fill="white"/>
</mask>
<g mask="url(#mask35_250_142)">
<path d="M65.1111 400.036L68.8674 406.541H76.3784L80.1347 400.036L76.3784 393.531H68.8674L65.1111 400.036Z" stroke="#FFD502" stroke-width="2.61588" stroke-miterlimit="10"/>
</g>
<mask id="mask36_250_142" style="mask-type:luminance" maskUnits="userSpaceOnUse" x="-3" y="0" width="1446" height="550">
<path d="M1442.66 0H-2.0874V549.71H1442.66V0Z" fill="white"/>
</mask>
<g mask="url(#mask36_250_142)">
<path d="M365.655 90.5685L369.411 97.0734H376.922L380.678 90.5685L376.922 84.0636H369.411L365.655 90.5685Z" stroke="#FFD502" stroke-width="2.61588" stroke-miterlimit="10"/>
</g>
<mask id="mask37_250_142" style="mask-type:luminance" maskUnits="userSpaceOnUse" x="-3" y="0" width="1446" height="550">
<path d="M1442.66 0H-2.0874V549.71H1442.66V0Z" fill="white"/>
</mask>
<g mask="url(#mask37_250_142)">
<path d="M464.152 4.93158L473.793 21.629H493.073L502.714 4.93158L493.073 -11.7659H473.793L464.152 4.93158ZM473.721 4.93158C473.721 -0.431615 478.069 -4.77997 483.432 -4.77997C488.795 -4.77997 493.144 -0.431615 493.144 4.93158C493.144 10.2948 488.795 14.6431 483.432 14.6431C478.069 14.6431 473.721 10.2948 473.721 4.93158Z" stroke="#FFD502" stroke-width="2.61588" stroke-miterlimit="10"/>
</g>
<mask id="mask38_250_142" style="mask-type:luminance" maskUnits="userSpaceOnUse" x="-3" y="0" width="1446" height="550">
<path d="M1442.66 0H-2.0874V549.71H1442.66V0Z" fill="white"/>
</mask>
<g mask="url(#mask38_250_142)">
<path d="M-3.30137 120.79C-3.0917 121.479 -2.81685 122.138 -2.48385 122.761L-4.94169 126.061L-1.21 129.793L2.09002 127.335C2.71373 127.668 3.37444 127.943 4.06158 128.153L4.6571 132.223H9.93397L10.5295 128.153C11.2184 127.943 11.8773 127.668 12.501 127.335L15.8011 129.793L19.5328 126.061L17.0749 122.761C17.4079 122.138 17.6828 121.477 17.8924 120.79L21.9624 120.194V114.917L17.8924 114.322C17.6828 113.633 17.4079 112.974 17.0749 112.35L19.5328 109.052L15.8011 105.32L12.501 107.778C11.8773 107.445 11.2166 107.17 10.5295 106.961L9.93397 102.891H4.6571L4.06158 106.961C3.37268 107.17 2.71373 107.445 2.09002 107.778L-1.21 105.32L-4.94169 109.052L-2.48385 112.35C-2.81685 112.974 -3.0917 113.635 -3.30137 114.322L-7.37134 114.917V120.194L-3.30137 120.79ZM-0.108817 117.557C-0.108817 113.467 3.2053 110.153 7.29465 110.153C11.384 110.153 14.6981 113.467 14.6981 117.557C14.6981 121.646 11.384 124.96 7.29465 124.96C3.20706 124.96 -0.108817 121.644 -0.108817 117.557Z" stroke="#0E3B65" stroke-width="2.61588" stroke-miterlimit="10"/>
</g>
<mask id="mask39_250_142" style="mask-type:luminance" maskUnits="userSpaceOnUse" x="-3" y="0" width="1446" height="550">
<path d="M1442.66 0H-2.0874V549.71H1442.66V0Z" fill="white"/>
</mask>
<g mask="url(#mask39_250_142)">
<path d="M200.234 483.139C200.444 483.828 200.719 484.487 201.052 485.111L198.594 488.409L202.326 492.141L205.626 489.683C206.249 490.016 206.91 490.291 207.597 490.5L208.193 494.57H213.47L214.065 490.5C214.754 490.291 215.413 490.016 216.037 489.683L219.337 492.141L223.068 488.409L220.611 485.111C220.944 484.487 221.218 483.826 221.428 483.139L225.498 482.544V477.267L221.428 476.671C221.218 475.983 220.944 475.324 220.611 474.7L223.068 471.402L219.337 467.67L216.037 470.128C215.413 469.795 214.752 469.52 214.065 469.31L213.47 465.24H208.193L207.597 469.31C206.908 469.52 206.249 469.795 205.626 470.128L202.326 467.67L198.594 471.402L201.052 474.7C200.719 475.324 200.444 475.984 200.234 476.671L196.164 477.267V482.544L200.234 483.139ZM203.427 479.906C203.427 475.817 206.741 472.503 210.83 472.503C214.92 472.503 218.234 475.817 218.234 479.906C218.234 483.996 214.92 487.31 210.83 487.31C206.741 487.31 203.427 483.996 203.427 479.906Z" stroke="#0E3B65" stroke-width="2.61588" stroke-miterlimit="10"/>
</g>
<mask id="mask40_250_142" style="mask-type:luminance" maskUnits="userSpaceOnUse" x="-3" y="0" width="1446" height="550">
<path d="M1442.66 0H-2.0874V549.71H1442.66V0Z" fill="white"/>
</mask>
<g mask="url(#mask40_250_142)">
<path d="M287.058 265.894C287.268 266.583 287.543 267.242 287.876 267.866L285.418 271.164L289.15 274.896L292.45 272.438C293.074 272.771 293.734 273.046 294.421 273.255L295.017 277.325H300.294L300.889 273.255C301.578 273.046 302.237 272.771 302.861 272.438L306.159 274.896L309.891 271.164L307.433 267.866C307.766 267.242 308.041 266.581 308.251 265.894L312.321 265.299V260.022L308.251 259.426C308.041 258.737 307.766 258.078 307.433 257.455L309.891 254.155L306.159 250.423L302.861 252.881C302.237 252.548 301.576 252.273 300.889 252.063L300.294 247.993H295.017L294.421 252.063C293.733 252.273 293.074 252.548 292.45 252.881L289.15 250.423L285.418 254.155L287.876 257.455C287.543 258.078 287.268 258.739 287.058 259.426L282.989 260.022V265.299L287.058 265.894ZM290.253 262.661C290.253 258.572 293.567 255.258 297.656 255.258C301.746 255.258 305.06 258.572 305.06 262.661C305.06 266.75 301.746 270.065 297.656 270.065C293.567 270.065 290.253 266.75 290.253 262.661Z" stroke="#FFD502" stroke-width="2.61588" stroke-miterlimit="10"/>
</g>
<mask id="mask41_250_142" style="mask-type:luminance" maskUnits="userSpaceOnUse" x="-3" y="0" width="1446" height="550">
<path d="M1442.66 0H-2.0874V549.71H1442.66V0Z" fill="white"/>
</mask>
<g mask="url(#mask41_250_142)">
<path d="M155.167 105.356C155.167 109.939 158.883 113.654 163.465 113.654C168.048 113.654 171.764 109.939 171.764 105.356C171.764 98.0423 163.465 92.1294 163.465 92.1294C163.465 92.1294 155.167 98.0405 155.167 105.356Z" stroke="#FFD502" stroke-width="2.61588" stroke-miterlimit="10"/>
</g>
<mask id="mask42_250_142" style="mask-type:luminance" maskUnits="userSpaceOnUse" x="-3" y="0" width="1446" height="550">
<path d="M1442.66 0H-2.0874V549.71H1442.66V0Z" fill="white"/>
</mask>
<g mask="url(#mask42_250_142)">
<path d="M87.4749 237.907C87.4749 242.489 91.1907 246.205 95.7734 246.205C100.356 246.205 104.072 242.489 104.072 237.907C104.072 230.593 95.7734 224.68 95.7734 224.68C95.7734 224.68 87.4749 230.593 87.4749 237.907Z" stroke="#0E3B65" stroke-width="2.61588" stroke-miterlimit="10"/>
</g>
<mask id="mask43_250_142" style="mask-type:luminance" maskUnits="userSpaceOnUse" x="-3" y="0" width="1446" height="550">
<path d="M1442.66 0H-2.0874V549.71H1442.66V0Z" fill="white"/>
</mask>
<g mask="url(#mask43_250_142)">
<path d="M137.275 215.615C160.196 215.615 178.776 197.034 178.776 174.114C178.776 151.193 160.196 132.612 137.275 132.612C114.354 132.612 95.7737 151.193 95.7737 174.114C95.7737 197.034 114.354 215.615 137.275 215.615Z" stroke="#FFD502" stroke-width="2.61588" stroke-miterlimit="10" stroke-dasharray="7.61 7.61"/>
<path d="M144.943 206.861C163.028 202.628 174.258 184.535 170.025 166.45C165.792 148.364 147.699 137.135 129.614 141.368C111.529 145.601 100.299 163.693 104.532 181.779C108.765 199.864 126.858 211.094 144.943 206.861Z" stroke="#0E3B65" stroke-width="2.61588" stroke-miterlimit="10"/>
</g>
<mask id="mask44_250_142" style="mask-type:luminance" maskUnits="userSpaceOnUse" x="-3" y="0" width="1446" height="550">
<path d="M1442.66 0H-2.0874V549.71H1442.66V0Z" fill="white"/>
</mask>
<g mask="url(#mask44_250_142)">
<mask id="mask45_250_142" style="mask-type:luminance" maskUnits="userSpaceOnUse" x="618" y="528" width="205" height="31">
<path d="M822.075 528.865H618.501V558H822.075V528.865Z" fill="white"/>
</mask>
<g mask="url(#mask45_250_142)">
<path d="M607.385 558L618.501 528.865H631.53L620.414 558H607.385Z" fill="#0E3B65"/>
<path d="M636.193 558L647.309 528.865H660.338L649.223 558H636.193Z" fill="#0E3B65"/>
<path d="M665.002 558L676.117 528.865H689.147L678.031 558H665.002Z" fill="#0E3B65"/>
<path d="M693.813 558L704.927 528.865H717.956L706.84 558H693.813Z" fill="#0E3B65"/>
<path d="M722.621 558L733.735 528.865H746.765L735.649 558H722.621Z" fill="#0E3B65"/>
<path d="M751.43 558L762.544 528.865H775.573L764.457 558H751.43Z" fill="#0E3B65"/>
<path d="M780.239 558L791.353 528.865H804.382L793.266 558H780.239Z" fill="#0E3B65"/>
<path d="M809.047 558L820.161 528.865H833.191L822.075 558H809.047Z" fill="#0E3B65"/>
</g>
</g>
<mask id="mask46_250_142" style="mask-type:luminance" maskUnits="userSpaceOnUse" x="-3" y="0" width="1446" height="550">
<path d="M1442.66 0H-2.0874V549.71H1442.66V0Z" fill="white"/>
</mask>
<g mask="url(#mask46_250_142)">
<path d="M535.921 449.122H319.818V518.292H262.186" stroke="#0E3B65" stroke-width="1.30803" stroke-miterlimit="10" stroke-dasharray="7.61 7.61"/>
</g>
<mask id="mask47_250_142" style="mask-type:luminance" maskUnits="userSpaceOnUse" x="-3" y="0" width="1446" height="550">
<path d="M1442.66 0H-2.0874V549.71H1442.66V0Z" fill="white"/>
</mask>
<g mask="url(#mask47_250_142)">
<path d="M381.94 449.122V575.244" stroke="#0E3B65" stroke-width="1.30803" stroke-miterlimit="10" stroke-dasharray="7.61 7.61"/>
</g>
<mask id="mask48_250_142" style="mask-type:luminance" maskUnits="userSpaceOnUse" x="-3" y="0" width="1446" height="550">
<path d="M1442.66 0H-2.0874V549.71H1442.66V0Z" fill="white"/>
</mask>
<g mask="url(#mask48_250_142)">
<path d="M392.953 345.482H355.064V449.122" stroke="#0E3B65" stroke-width="1.30803" stroke-miterlimit="10" stroke-dasharray="7.61 7.61"/>
</g>
<mask id="mask49_250_142" style="mask-type:luminance" maskUnits="userSpaceOnUse" x="-3" y="0" width="1446" height="550">
<path d="M1442.66 0H-2.0874V549.71H1442.66V0Z" fill="white"/>
</mask>
<g mask="url(#mask49_250_142)">
<path d="M608.396 86.0385H552.882V-7.75586" stroke="#0E3B65" stroke-width="1.30803" stroke-miterlimit="10" stroke-dasharray="7.61 7.61"/>
</g>
</g>
</svg>
