<svg width="574" height="574" viewBox="0 0 574 574" fill="none" xmlns="http://www.w3.org/2000/svg">
<path d="M418.098 80.5459C376.551 56.2611 327.071 52.9755 281.611 68.3163C266.103 73.55 251.305 80.9236 237.881 90.297C223.974 100.007 213.541 113.257 201.184 124.712C188.685 136.297 175.745 147.572 161.057 156.328C140.343 168.676 116.221 176.057 98.9429 192.878C79.9297 211.387 72.1072 238.851 70.9144 265.359C69.9088 287.707 73.2013 310.596 83.2417 330.586C93.7413 351.489 111.127 368.298 130.429 381.51C155.447 398.636 184.169 410.323 214.037 415.531C273.355 425.875 335.175 410.328 387.859 381.17C419.086 363.888 447.998 341.57 469.366 312.984C490.733 284.397 504.185 249.181 503.209 213.504C501.707 158.571 465.543 108.278 418.098 80.5459Z" fill="#FFF6CC"/>
<path d="M197.51 113.449C201.389 108.01 204.991 102.064 205.79 95.4309C206.587 88.7966 203.893 81.3358 197.908 78.3636C191.949 75.4029 184.409 77.7265 179.594 82.3196C174.779 86.9128 172.167 93.3186 170.099 99.6429C166.126 111.797 163.193 125.208 153.704 133.78C151.511 135.761 148.996 137.445 147.261 139.838C143.163 145.491 147.316 151.399 153.755 152.071C159.375 152.658 164.158 147.34 168.167 144.137C179.294 135.247 189.231 125.059 197.51 113.449Z" fill="#FFF6CC"/>
<path d="M392.808 114.575C394.48 114.586 396.207 114.589 397.746 113.934C400.42 112.798 401.951 109.907 402.524 107.06C403.145 103.974 402.838 100.605 401.144 97.9518C399.451 95.2988 396.225 93.5366 393.124 94.075C390.022 94.6135 387.459 97.7705 388.033 100.865C386.848 98.5224 382.868 98.4753 381.628 100.789C381.248 97.0794 376.359 94.9889 373.054 96.712C369.748 98.4363 368.445 102.833 369.53 106.4C367.052 104.599 362.914 106.362 362.497 109.396C361.467 108.453 360.613 107.252 359.338 106.684C358.062 106.115 356.162 106.622 355.987 108.006C354.623 106.749 352.554 106.313 350.799 106.914C349.044 107.515 347.676 109.128 347.37 110.958C346.638 115.319 349.984 114.683 352.623 114.314C356.895 113.718 361.697 114.351 366.013 114.382C374.944 114.447 383.876 114.511 392.808 114.575Z" fill="#998000"/>
<path d="M116.282 175.81C117.955 175.822 119.683 175.824 121.221 175.17C123.895 174.033 125.426 171.143 125.999 168.296C126.62 165.21 126.312 161.84 124.619 159.187C122.926 156.534 119.7 154.772 116.599 155.311C113.498 155.849 110.934 159.006 111.508 162.101C110.323 159.758 106.343 159.711 105.103 162.024C104.723 158.315 99.8336 156.224 96.5285 157.948C93.2223 159.672 91.9193 164.069 93.0042 167.636C90.5268 165.834 86.3883 167.598 85.9715 170.632C84.9418 169.688 84.0877 168.487 82.8122 167.919C81.5368 167.351 79.6369 167.857 79.4612 169.242C78.0974 167.985 76.0287 167.548 74.2734 168.15C72.5181 168.75 71.1508 170.363 70.8443 172.193C70.1131 176.554 73.4583 175.918 76.0964 175.55C80.3681 174.954 85.1702 175.587 89.4867 175.618C98.4181 175.683 107.35 175.746 116.282 175.81Z" fill="#FFF6CC"/>
<path d="M117.645 230.525C115.752 230.539 113.798 230.54 112.056 229.8C109.031 228.514 107.298 225.243 106.649 222.021C105.947 218.53 106.294 214.716 108.21 211.714C110.126 208.712 113.777 206.718 117.286 207.326C120.796 207.935 123.697 211.509 123.047 215.011C124.388 212.359 128.892 212.306 130.294 214.925C130.725 210.728 136.257 208.362 139.997 210.312C143.739 212.263 145.213 217.239 143.986 221.276C146.789 219.238 151.472 221.233 151.943 224.667C153.108 223.599 154.075 222.241 155.518 221.597C156.961 220.953 159.112 221.527 159.31 223.094C160.853 221.671 163.194 221.178 165.18 221.858C167.166 222.537 168.713 224.362 169.06 226.433C169.887 231.368 166.102 230.648 163.117 230.231C158.284 229.556 152.849 230.273 147.966 230.308C137.859 230.381 127.752 230.453 117.645 230.525Z" fill="#998000"/>
<path d="M227.111 328.186C187.882 328.186 168.557 292.587 167.755 291.072C165.932 287.633 167.242 283.367 170.68 281.545C174.117 279.724 178.373 281.027 180.2 284.456C180.878 285.715 196.504 314.092 227.111 314.092C231.003 314.092 234.159 317.246 234.159 321.139C234.159 325.03 231.003 328.186 227.111 328.186Z" fill="#DDA38C"/>
<path d="M252.381 421.125C252.381 421.125 253.947 435.977 282.404 435.977C310.859 435.977 314.573 421.125 314.573 421.125H252.381Z" stroke="#244E80" stroke-width="1.148" stroke-miterlimit="10"/>
<path d="M310.011 426.231H254.795C248.538 426.231 243.417 421.111 243.417 414.853V387.485C243.417 381.227 248.538 376.107 254.795 376.107H310.011C316.268 376.107 321.388 381.227 321.388 387.485V414.853C321.388 421.111 316.268 426.231 310.011 426.231Z" fill="white" stroke="#244E80" stroke-width="1.148" stroke-miterlimit="10"/>
<path d="M318.949 380.482L243.417 392.926V396.837L320.863 384.078C320.445 382.759 319.787 381.547 318.949 380.482Z" fill="#DEEEFC"/>
<path d="M321.388 388.535L243.417 401.381V405.292L321.388 392.446V388.535Z" fill="#DEEEFC"/>
<path d="M243.417 413.746L321.388 400.901V396.99L243.417 409.836V413.746Z" fill="#DEEEFC"/>
<path d="M245.819 421.806L321.388 409.356V405.445L243.926 418.207C244.336 419.526 244.989 420.737 245.819 421.806Z" fill="#DEEEFC"/>
<path d="M254.795 426.231H270.277L320.964 417.88C321.232 416.913 321.387 415.902 321.387 414.853V413.899L250.875 425.515C252.101 425.97 253.418 426.231 254.795 426.231Z" fill="#DEEEFC"/>
<path d="M318.949 380.482L243.417 392.926V396.837L320.863 384.078C320.445 382.759 319.787 381.547 318.949 380.482Z" stroke="#244E80" stroke-width="1.148" stroke-miterlimit="10"/>
<path d="M321.388 388.535L243.417 401.381V405.292L321.388 392.446V388.535Z" stroke="#244E80" stroke-width="1.148" stroke-miterlimit="10"/>
<path d="M243.417 413.746L321.388 400.901V396.99L243.417 409.836V413.746Z" stroke="#244E80" stroke-width="1.148" stroke-miterlimit="10"/>
<path d="M245.819 421.806L321.388 409.356V405.445L243.926 418.207C244.336 419.526 244.989 420.737 245.819 421.806Z" stroke="#244E80" stroke-width="1.148" stroke-miterlimit="10"/>
<path d="M254.795 426.231H270.277L320.964 417.88C321.232 416.913 321.387 415.902 321.387 414.853V413.899L250.875 425.515C252.101 425.97 253.418 426.231 254.795 426.231Z" stroke="#244E80" stroke-width="1.148" stroke-miterlimit="10"/>
<path d="M310.011 426.231H254.795C248.538 426.231 243.417 421.111 243.417 414.853V387.485C243.417 381.227 248.538 376.107 254.795 376.107H310.011C316.268 376.107 321.388 381.227 321.388 387.485V414.853C321.388 421.111 316.268 426.231 310.011 426.231Z" stroke="#244E80" stroke-width="1.148" stroke-miterlimit="10"/>
<path d="M382.953 224.136C380.731 192.774 361.368 131.601 286.011 127.927V127.752C284.794 127.752 283.593 127.768 282.402 127.796C281.213 127.768 280.011 127.752 278.794 127.752V127.927C203.437 131.601 184.074 192.773 181.851 224.136C179.56 256.476 196.367 281.686 210.372 306.896C224.378 332.106 229.47 365.847 231.635 378.07C233.801 390.292 244.878 389.911 244.878 389.911H278.795H282.404L286.012 389.912L319.929 389.911C319.929 389.911 331.006 390.294 333.17 378.07C335.334 365.847 340.428 332.106 354.434 306.896C368.439 281.686 385.246 256.476 382.953 224.136Z" fill="#FFD502"/>
<path d="M301.274 136.503C298.856 137.847 297.076 139.879 297.59 142.453C297.881 143.909 298.792 145.163 299.8 146.253C303.275 150.01 308.053 152.314 312.921 153.897C314.755 154.494 316.66 155.005 318.586 154.903C320.513 154.801 322.486 153.996 323.593 152.415C324.83 150.649 324.774 148.268 324.229 146.181C323.394 142.986 321.248 141.086 318.609 139.249C315.631 137.177 312.477 135.038 308.866 134.688C306.817 134.489 303.718 135.145 301.274 136.503Z" fill="#CCAA00"/>
<path d="M235.297 315.632C212.597 278.089 210.542 247.046 210.542 247.046C205.658 185.338 233.228 149.517 253.942 131.612C199.03 145.912 183.807 196.551 181.852 224.135C179.561 256.476 196.368 281.686 210.373 306.896C224.379 332.106 229.471 365.847 231.636 378.07C233.802 390.292 244.879 389.911 244.879 389.911H245.065C246.236 360.263 244.488 330.832 235.297 315.632Z" fill="#CCAA00"/>
<path d="M222.087 278.263L198.997 286.609C201.231 290.73 203.541 294.803 205.841 298.855C217.512 289.895 222.087 278.263 222.087 278.263Z" fill="#E29A3B"/>
<path d="M444.592 200.158H297.788V346.962H444.592V200.158Z" fill="white"/>
<path d="M382.953 224.136C382.466 217.267 381.158 208.969 378.618 200.158H297.788V346.962H339.461C342.752 333.945 347.499 319.376 354.433 306.895C368.439 281.686 385.246 256.476 382.953 224.136Z" fill="#DEEEFC"/>
<path d="M378.619 200.158C378.619 200.158 395.18 238.838 365.251 287.633C365.251 287.633 352.233 311.045 344.778 329.004" stroke="#244E80" stroke-width="1.148" stroke-miterlimit="10" stroke-linejoin="round"/>
<path d="M388.916 233.55L352.007 322.558" stroke="#244E80" stroke-width="1.148" stroke-miterlimit="10" stroke-linecap="round" stroke-linejoin="round"/>
<path d="M392.062 232.248C391.552 233.477 390.143 234.06 388.915 233.55C387.687 233.04 387.103 231.632 387.613 230.403C388.123 229.175 389.531 228.592 390.76 229.102C391.988 229.611 392.571 231.021 392.062 232.248Z" fill="white" stroke="#244E80" stroke-width="1.148" stroke-miterlimit="10" stroke-linecap="round" stroke-linejoin="round"/>
<path d="M353.309 325.705C352.799 326.933 351.39 327.516 350.162 327.006C348.934 326.497 348.35 325.088 348.86 323.86C349.37 322.631 350.779 322.048 352.007 322.558C353.235 323.068 353.818 324.476 353.309 325.705Z" fill="white" stroke="#244E80" stroke-width="1.148" stroke-miterlimit="10" stroke-linecap="round" stroke-linejoin="round"/>
<path d="M374.32 276.778L369.166 274.103L366.49 279.257L371.645 281.933L374.32 276.778Z" fill="white" stroke="#244E80" stroke-width="1.148" stroke-miterlimit="10" stroke-linejoin="round"/>
<path d="M376.04 278.854C375.511 278.656 375.097 279.334 375.516 279.715L384.664 288.037C385.036 288.375 385.064 288.951 384.725 289.325C384.386 289.697 383.81 289.724 383.437 289.385L374.29 281.065C373.872 280.685 373.236 281.16 373.482 281.669L380.009 295.104C380.075 295.24 380.199 295.341 380.346 295.377L389.025 297.54C389.209 297.586 389.402 297.527 389.529 297.387L391.249 295.496L391.485 295.237L393.205 293.346C393.333 293.206 393.373 293.009 393.31 292.829L390.337 284.394C390.287 284.25 390.176 284.137 390.033 284.084L376.04 278.854Z" fill="#244E80"/>
<path d="M394.793 293.666L389.967 298.971L392.415 301.198L397.241 295.893L394.793 293.666Z" fill="#244E80"/>
<path d="M444.593 345.336V346.963H442.965" stroke="#244E80" stroke-width="1.148" stroke-miterlimit="10"/>
<path d="M439.776 346.964H301.01" stroke="#244E80" stroke-width="1.148" stroke-miterlimit="10" stroke-dasharray="3.19 3.19"/>
<path d="M299.415 346.963H297.788V345.336" stroke="#244E80" stroke-width="1.148" stroke-miterlimit="10"/>
<path d="M297.788 342.146V203.381" stroke="#244E80" stroke-width="1.148" stroke-miterlimit="10" stroke-dasharray="3.19 3.19"/>
<path d="M297.788 201.786V200.158H299.415" stroke="#244E80" stroke-width="1.148" stroke-miterlimit="10"/>
<path d="M302.604 200.158H441.37" stroke="#244E80" stroke-width="1.148" stroke-miterlimit="10" stroke-dasharray="3.19 3.19"/>
<path d="M442.965 200.158H444.593V201.786" stroke="#244E80" stroke-width="1.148" stroke-miterlimit="10"/>
<path d="M444.593 204.975V343.741" stroke="#244E80" stroke-width="1.148" stroke-miterlimit="10" stroke-dasharray="3.19 3.19"/>
<path d="M263.122 389.679C264.609 367.65 265.396 356.004 266.56 338.775C268.347 312.305 269.369 283.163 253.073 262.228C252.079 260.952 250.911 259.645 249.332 259.301C246.09 258.593 243.612 262.141 242.47 265.257C240.069 271.807 239.198 279.491 242.746 285.498C245.736 290.563 251.326 293.526 256.927 295.324C270.117 299.558 284.914 298.545 297.404 292.553" stroke="#244E80" stroke-width="1.148" stroke-miterlimit="10" stroke-linejoin="round"/>
<path d="M331.654 127.752H235.297" stroke="#244E80" stroke-width="1.148" stroke-miterlimit="10" stroke-linecap="round" stroke-linejoin="round"/>
<path d="M334.062 130.16C332.733 130.16 331.655 129.082 331.655 127.753C331.655 126.424 332.733 125.346 334.062 125.346C335.392 125.346 336.469 126.424 336.469 127.753C336.469 129.082 335.392 130.16 334.062 130.16Z" fill="white" stroke="#244E80" stroke-width="1.148" stroke-miterlimit="10" stroke-linecap="round" stroke-linejoin="round"/>
<path d="M232.89 130.16C231.561 130.16 230.483 129.082 230.483 127.753C230.483 126.424 231.561 125.346 232.89 125.346C234.22 125.346 235.298 126.424 235.298 127.753C235.298 129.082 234.22 130.16 232.89 130.16Z" fill="white" stroke="#244E80" stroke-width="1.148" stroke-miterlimit="10" stroke-linecap="round" stroke-linejoin="round"/>
<path d="M209.144 158.069C209.144 158.069 231.395 129.583 278.794 127.752C278.794 127.752 324.049 125.455 354.959 157.316" stroke="#244E80" stroke-width="1.148" stroke-miterlimit="10" stroke-linecap="round" stroke-linejoin="round"/>
<path d="M206.903 444.827L208.276 448.018C208.276 448.018 220.028 448.683 231.037 438.727L226.379 438.383L206.903 444.827Z" fill="#171C27"/>
<path d="M155.511 352.077C155.511 352.077 148.52 401.884 131.64 437.904C131.64 437.904 141.452 443.724 150.964 443.169C150.964 443.169 169.344 403.547 175.994 354.505L155.511 352.077Z" fill="#665500"/>
<path d="M146.09 334.577C146.09 334.577 145.534 350.985 152.676 355.521C159.817 360.056 198.238 417.232 207.043 444.674C207.043 444.674 218.516 445.435 226.52 438.232C226.52 438.232 201.973 381.984 181.696 352.078C181.696 352.078 186.637 342.425 186.063 332.996L146.09 334.577Z" fill="#998000"/>
<path d="M131.64 437.903L130.103 440.493C130.103 440.493 140.443 447.291 153.367 446.238L150.966 443.168C150.966 443.168 135.763 439.622 131.64 437.903Z" fill="#171C27"/>
<path d="M183.467 290.28L186.063 332.995C186.063 332.995 177.241 339.515 163.553 339.818C149.866 340.12 146.09 334.578 146.09 334.578C146.09 334.578 142.664 292.788 143 292.323C143.335 291.858 143.038 278.011 162.914 278.091C182.789 278.168 183.467 290.28 183.467 290.28Z" fill="#332B00"/>
<path d="M183.293 289.249C170.852 290.143 152.228 291.721 148.894 293.343C148.894 293.343 165.152 305.34 184.325 304.4L183.467 290.28C183.467 290.28 183.443 289.887 183.293 289.249Z" fill="#665500"/>
<path d="M156.763 266.848L158.39 278.574L164.475 282.744L169.279 278.818L168.301 271.766L156.763 266.848Z" fill="#EEB399"/>
<path d="M159.047 272.558L168.656 274.327L169.177 278.081C163.955 278.108 159.047 272.558 159.047 272.558Z" fill="#CC957F"/>
<path d="M166.524 276.389L169.872 275.924C174.425 275.293 177.633 271.051 177.002 266.497L175.351 254.594C174.72 250.041 170.478 246.833 165.924 247.464L162.576 247.929C158.023 248.56 154.815 252.802 155.446 257.355L157.097 269.258C157.729 273.812 161.971 277.02 166.524 276.389Z" fill="#EEB399"/>
<path d="M158.503 256.258C159.564 256.651 160.851 256.565 161.71 255.831C162.57 255.096 162.814 253.656 162.074 252.8C163.035 253.14 164.08 253.381 165.069 253.132C166.057 252.882 166.95 252.012 166.924 250.994C167.481 251.373 168.064 251.762 168.731 251.853C169.398 251.943 170.17 251.632 170.379 250.993C171.115 251.559 172.037 251.879 172.965 251.892C173.504 251.899 174.069 251.793 174.487 251.451C174.891 251.119 175.107 250.607 175.209 250.094C175.52 248.53 174.824 246.813 173.513 245.908C173.184 245.68 172.805 245.497 172.403 245.493C172.003 245.488 171.58 245.699 171.43 246.07C170.601 244.717 169.18 243.688 167.6 243.538C166.02 243.386 164.337 244.216 163.67 245.656C163.35 245.082 162.677 244.77 162.02 244.735C161.363 244.702 160.717 244.907 160.111 245.161C159.308 245.495 158.526 245.929 157.942 246.573C157.359 247.218 156.994 248.101 157.127 248.961C156.469 248.72 155.755 249.103 155.202 249.533C154.398 250.157 153.67 250.962 153.438 251.953C153.206 252.943 153.612 254.133 154.545 254.538C153.644 255.169 153.102 256.283 153.162 257.383C153.221 258.482 153.88 259.531 154.845 260.061C153.546 260.765 153.249 262.793 154.291 263.84C153.658 264.119 153.364 264.927 153.545 265.595C153.727 266.264 154.295 266.779 154.935 267.042C155.552 267.296 156.298 267.335 156.859 266.974C157.42 266.615 157.664 265.84 157.327 265.252C157.382 265.349 158.542 263.991 158.601 263.778C158.771 263.156 158.702 262.316 158.756 261.658C158.906 259.855 158.821 258.036 158.503 256.258Z" fill="#171C27"/>
<path d="M154.256 265.82C154.443 267.168 155.687 268.108 157.034 267.921C158.382 267.734 159.322 266.491 159.135 265.143C158.948 263.795 157.705 262.855 156.357 263.042C155.009 263.229 154.069 264.473 154.256 265.82Z" fill="#EEB399"/>
<path d="M160.268 267.129C160.839 267.84 161.518 268.455 162.196 269.065C162.905 269.702 163.657 270.358 164.584 270.575C165.885 270.881 167.229 270.251 168.293 269.442C169.358 268.634 170.284 267.63 171.461 266.995C173.024 266.152 174.912 266.049 176.647 266.427C177.089 266.523 177.544 266.66 177.868 266.975C178.232 267.331 178.371 267.852 178.475 268.351C178.791 269.858 178.933 271.401 178.899 272.939C178.876 273.955 178.769 275 178.299 275.901C177.676 277.097 176.463 277.911 175.168 278.291C173.873 278.671 172.495 278.66 171.152 278.531C167.473 278.181 163.695 276.847 161.365 273.977C160.464 272.867 159.817 271.574 159.222 270.272C158.354 268.371 157.581 266.427 156.911 264.447C156.63 263.619 156.299 262.527 156.762 261.698C157.26 260.805 157.988 260.878 158.305 261.787C158.615 262.677 158.546 263.692 158.871 264.607C159.192 265.521 159.663 266.377 160.268 267.129Z" fill="#171C27"/>
<path d="M210.821 269.842C185.926 292.703 157.975 281.847 156.73 281.346C153.135 279.881 149.031 281.587 147.547 285.175C146.059 288.771 147.768 292.893 151.366 294.382C152.123 294.694 161.494 298.449 174.649 298.449C187.731 298.449 204.555 294.733 220.354 280.224C218.297 273.346 210.821 269.842 210.821 269.842Z" fill="#EEB399"/>
<path d="M169.729 283.788C162.21 283.052 157.178 281.1 156.652 280.889C152.856 279.342 148.521 281.144 146.953 284.934C145.381 288.733 147.187 293.087 150.987 294.658C151.63 294.923 158.169 297.54 167.936 298.553C170.07 293.423 169.882 286.321 169.729 283.788Z" fill="#998000"/>
<path d="M216.415 264.888C216.894 264.532 217.41 264.177 218.004 264.112C218.598 264.048 219.277 264.387 219.384 264.973C219.547 265.874 218.404 266.443 218.08 267.3C217.838 267.943 218.102 268.679 218.527 269.219C218.953 269.757 219.526 270.159 220.024 270.631C222.415 272.899 222.782 276.985 220.835 279.642C220.468 280.143 219.987 280.618 219.375 280.72C218.601 280.848 217.877 280.353 217.249 279.883C215.563 278.622 213.861 277.345 212.503 275.737C211.279 274.288 209.445 271.699 210.783 269.938C212.241 268.02 214.495 266.314 216.415 264.888Z" fill="#EEB399"/>
<path d="M397.088 139.969L388.323 145.931L401.956 149.547V161.07L408.611 152.955L423.708 156.793L438.641 123.737L397.088 139.969Z" fill="#A7A9AC"/>
<path d="M400.484 145.932V156.793L409.805 146.928L400.484 145.932Z" fill="white"/>
<path d="M402.822 146.928L439.527 117.353L422.032 151.859L402.822 146.928Z" fill="white"/>
<path d="M439.527 117.353L387.708 140.489L402.822 146.928L439.527 117.353Z" fill="white"/>
<path d="M402.822 146.928L400.484 145.931L439.527 117.353L402.822 146.928Z" fill="#662D91"/>
<path d="M398.969 160.624C398.645 161.06 398.308 161.483 397.954 161.897" stroke="#244E80" stroke-width="0.976259" stroke-linecap="round" stroke-linejoin="round"/>
<path d="M395.683 164.217C392.909 166.694 389.569 168.54 385.984 169.533C382.194 170.584 377.945 170.643 374.512 168.72C371.081 166.798 368.811 162.544 370.007 158.797C371.204 155.05 376.431 152.98 379.452 155.498C381.855 157.5 381.96 161.355 380.447 164.093C378.935 166.831 376.207 168.662 373.468 170.173C365.634 174.494 356.695 177.084 347.763 176.57C339.913 176.119 332.097 173.122 326.379 167.78" stroke="#244E80" stroke-width="0.976259" stroke-linecap="round" stroke-linejoin="round" stroke-dasharray="3.25 3.25"/>
<path d="M325.23 166.645C324.855 166.253 324.491 165.852 324.14 165.438" stroke="#244E80" stroke-width="0.976259" stroke-linecap="round" stroke-linejoin="round"/>
<path d="M224.275 226.278C224.275 216.144 216.06 207.929 205.926 207.929C195.793 207.929 187.578 216.144 187.578 226.278C187.578 234.123 192.512 240.8 199.439 243.424L197.03 249.908L206.405 244.602C216.316 244.346 224.275 236.249 224.275 226.278Z" fill="white"/>
<path d="M209.231 221.367L200.19 225.898L205.548 226.669L207.616 231.051L209.231 221.367Z" fill="#244E80"/>
<path d="M214.081 233.926H197.771V217.616H214.081V233.926ZM198.231 233.467H213.623V218.074H198.231V233.467Z" fill="#244E80"/>
<path d="M213.852 218.91C214.44 218.91 214.917 218.433 214.917 217.845C214.917 217.256 214.44 216.779 213.852 216.779C213.264 216.779 212.787 217.256 212.787 217.845C212.787 218.433 213.264 218.91 213.852 218.91Z" fill="#244E80"/>
<path d="M198.001 218.91C198.59 218.91 199.067 218.433 199.067 217.845C199.067 217.256 198.59 216.779 198.001 216.779C197.413 216.779 196.936 217.256 196.936 217.845C196.936 218.433 197.413 218.91 198.001 218.91Z" fill="#244E80"/>
<path d="M198.001 234.761C198.59 234.761 199.067 234.284 199.067 233.696C199.067 233.108 198.59 232.631 198.001 232.631C197.413 232.631 196.936 233.108 196.936 233.696C196.936 234.284 197.413 234.761 198.001 234.761Z" fill="#244E80"/>
<path d="M213.852 234.761C214.44 234.761 214.917 234.284 214.917 233.696C214.917 233.108 214.44 232.631 213.852 232.631C213.264 232.631 212.787 233.108 212.787 233.696C212.787 234.284 213.264 234.761 213.852 234.761Z" fill="#244E80"/>
<path d="M441.65 384.617C441.65 394.75 433.435 402.965 423.301 402.965C413.168 402.965 404.953 394.75 404.953 384.617C404.953 376.771 409.887 370.095 416.814 367.471L414.405 360.988L423.78 366.294C433.689 366.548 441.65 374.644 441.65 384.617Z" fill="white"/>
<path d="M441.65 384.617C441.65 394.75 433.435 402.965 423.301 402.965C413.168 402.965 404.953 394.75 404.953 384.617C404.953 376.771 409.887 370.095 416.814 367.471L414.405 360.988L423.78 366.294C433.689 366.548 441.65 374.644 441.65 384.617Z" fill="white" stroke="#244E80" stroke-width="1.148" stroke-miterlimit="10" stroke-linecap="round" stroke-linejoin="round"/>
<path d="M435.114 392.102H412.408C412.062 392.102 411.779 391.819 411.779 391.473V378.973C411.779 378.627 412.062 378.344 412.408 378.344H435.114C435.46 378.344 435.743 378.627 435.743 378.973V391.473C435.744 391.821 435.461 392.102 435.114 392.102ZM435.068 378.975L412.408 379.02L412.454 391.473L435.068 391.427V378.975Z" fill="#244E80"/>
<path d="M423.761 385.561C423.703 385.561 423.644 385.546 423.592 385.516L412.24 378.975L412.577 378.389L423.767 384.836L435.246 378.676L435.565 379.271L423.921 385.52C423.87 385.548 423.815 385.561 423.761 385.561Z" fill="#244E80"/>
<path d="M413.054 380.195V390.365H433.981C433.981 390.365 434.064 388.859 431.176 388.9C428.288 388.941 414.895 388.9 414.895 388.9V383.082C414.895 383.082 415.188 380.571 413.054 380.195Z" fill="#DEEEFC"/>
<path d="M258.013 451.01C258.013 451.01 246.339 451.085 246.779 440.295C246.779 440.295 246.365 430.019 258.848 430.528C258.848 430.528 261.039 445.206 258.013 451.01Z" fill="#FF5252"/>
<path d="M270.81 431.014L258.846 430.527C258.846 430.527 251.464 440.443 258.012 451.01L270.255 451.508L270.81 431.014Z" fill="#674A6C"/>
<path d="M436.399 437.758L270.81 431.013C270.81 431.013 262.718 441.639 269.975 451.496L435.564 458.24L455.548 448.796L436.399 437.758Z" fill="#FBB040"/>
<path d="M268.233 435.884L438.883 442.834L438.583 450.178L266.972 443.189C266.844 440.448 267.459 437.921 268.233 435.884Z" fill="#EFA33F"/>
<path d="M269.976 451.497C267.919 448.703 267.097 445.848 266.972 443.19L438.583 450.179C442.582 447.768 449.228 448.576 453.862 449.593L435.564 458.241L269.976 451.497Z" fill="#DB9037"/>
<path d="M260.263 431.224C260.263 431.224 254.289 439.756 259.281 450.325C259.281 450.325 255.254 440.555 260.263 431.224Z" fill="#36253A"/>
<path d="M262.618 431.32C262.618 431.32 256.644 439.852 261.635 450.42C261.635 450.42 257.608 440.652 262.618 431.32Z" fill="#36253A"/>
<path d="M264.971 431.416C264.971 431.416 258.997 439.948 263.989 450.516C263.989 450.516 259.961 440.747 264.971 431.416Z" fill="#36253A"/>
<path d="M267.324 431.511C267.324 431.511 261.35 440.043 266.342 450.612C266.342 450.612 262.316 440.843 267.324 431.511Z" fill="#36253A"/>
<path d="M435.548 451.623C435.834 451.157 436.21 450.598 435.948 450.118C435.862 449.96 435.718 449.844 435.588 449.717C434.864 449.016 434.576 447.948 434.651 446.943C434.726 445.937 435.126 444.983 435.614 444.1C435.86 443.655 436.139 443.154 435.993 442.666C435.928 442.446 435.781 442.26 435.654 442.067C434.63 440.499 435.136 439.111 435.984 437.742L436.398 437.759L455.548 448.797L435.564 458.241L435.486 458.238C435.415 458.076 435.351 457.91 435.296 457.747C434.618 455.748 434.447 453.423 435.548 451.623Z" fill="#F2966C"/>
<path d="M435.564 458.24L435.486 458.237C435.415 458.075 435.351 457.908 435.296 457.745C434.618 455.747 434.447 453.423 435.548 451.623C435.77 451.259 436.044 450.84 436.032 450.445C446.586 451.425 452.404 449.877 455.238 448.618L455.549 448.797L435.564 458.24Z" fill="#E28661"/>
<path d="M449.159 445.113L455.548 448.796L448.958 451.91C447.424 448.892 448.572 446.174 449.159 445.113Z" fill="#674A6C"/>
<path d="M394.6 445.799L400.309 436.288L319.819 433.01L317.36 453.426L387.086 456.266C390.995 450.653 394.6 445.799 394.6 445.799Z" fill="#D1D3D4"/>
<path d="M336.136 477.545V481.029C336.136 481.029 322.259 483.729 309.704 481.029L315.423 477.545H336.136Z" fill="#171C27"/>
<path d="M424.208 456.748H427.989C427.989 456.748 430.42 470.306 427.989 476.169C427.989 476.169 426.274 478.67 422.699 478.313C422.699 478.313 424.786 476.846 424.208 474.148V456.748Z" fill="#171C27"/>
<path d="M385.271 422.18L385.857 454.614L424.208 456.747C424.208 456.747 426.716 468.794 424.208 474.147H385.857C385.857 474.147 366.169 477.673 365.08 458.776C363.991 439.879 363.898 427.322 363.898 427.322C363.898 427.322 377.278 420.565 385.271 422.18Z" fill="#A05E47"/>
<path d="M385.852 454.304L385.488 434.201L364.07 435.56C364.202 440.224 364.434 446.673 364.84 454.406C369.369 455.334 377.169 456.246 385.852 454.304Z" fill="#82493A"/>
<path d="M385.885 417.408C385.885 417.408 390.37 431.772 382.012 434.814C373.653 437.856 334.399 434.814 334.399 434.814L336.137 477.546C336.137 477.546 324.983 481.022 315.422 477.546L314.118 427.282C314.118 427.282 311.029 412.895 339.033 415.252L385.885 417.408Z" fill="#A05E47"/>
<path d="M326.661 416.711C326.661 416.711 325.391 430.905 334.786 444.375L334.397 434.814C334.397 434.814 342.635 435.451 352.364 435.851C352.143 432.789 351.836 430.606 351.836 430.606L326.661 416.711Z" fill="#82493A"/>
<path d="M326.717 415.252C326.717 415.252 324.081 443.067 354.923 446.24C383.528 449.184 382.876 450.9 393.073 448.746C394.4 448.466 395.147 447.04 394.6 445.799C392.366 440.739 387.329 428.441 385.884 417.408L349.918 415.252C349.918 415.252 336.974 414.501 326.717 415.252Z" fill="#0D314C"/>
<path d="M326.464 335.427C326.143 334.986 325.792 334.535 325.293 334.318C324.793 334.1 324.109 334.209 323.856 334.691C323.468 335.431 324.309 336.239 324.356 337.072C324.391 337.698 323.96 338.267 323.442 338.62C322.924 338.972 322.317 339.165 321.753 339.441C319.053 340.762 317.618 344.218 318.587 347.063C318.77 347.6 319.059 348.145 319.564 348.4C320.202 348.722 320.968 348.489 321.643 348.252C323.455 347.613 325.285 346.968 326.907 345.938C328.368 345.011 330.671 343.259 329.987 341.361C329.242 339.294 327.745 337.193 326.464 335.427Z" fill="#A05E47"/>
<path d="M381.548 406.193C381.658 406.193 381.767 406.191 381.877 406.185C387.427 405.913 391.624 404.163 394.351 400.978C396.802 398.116 397.42 394.684 397.182 392.427C397.156 392.19 397.119 391.956 397.07 391.724C394.613 380.34 385.397 365.701 385.004 365.085C383.046 361.987 378.944 361.063 375.843 363.027C372.746 364.988 371.823 369.091 373.783 372.19C375.904 375.546 381.43 385.194 383.587 392.574C383.08 392.719 382.311 392.865 381.231 392.918C377.568 393.097 374.742 396.212 374.92 399.876C375.094 403.429 378.029 406.193 381.548 406.193Z" fill="#E54C64"/>
<path d="M381.23 392.918C377.567 393.097 374.742 396.212 374.92 399.876C375.093 403.428 378.028 406.193 381.547 406.193C381.657 406.193 381.766 406.191 381.876 406.185C386.085 405.98 389.512 404.918 392.113 403.031C386.097 393.413 384.597 374.762 384.597 374.762L376.879 377.499C379.287 381.882 382.165 387.715 383.585 392.574C383.08 392.721 382.31 392.865 381.23 392.918Z" fill="#CC3754"/>
<path d="M340.963 361.358L360.788 360.752C364.445 360.597 367.517 363.521 367.628 367.188C367.74 370.853 364.858 373.916 361.193 374.029L337.271 374.76C337.202 374.762 337.135 374.764 337.066 374.764C334.634 374.764 332.388 373.431 331.225 371.279L318.481 347.698C322.286 345.223 330.166 341.383 330.166 341.383L340.963 361.358Z" fill="#E54C64"/>
<path d="M376.379 348.916L375.773 360.518L370.174 365.108L365.146 361.672L365.509 354.694L376.379 348.916Z" fill="#A05E47"/>
<path d="M367.475 359.057L364.484 358.9C359.89 358.66 356.328 354.707 356.568 350.112L357.166 338.657C357.406 334.063 361.359 330.501 365.954 330.74L368.944 330.896C373.538 331.136 377.101 335.09 376.861 339.684L376.263 351.14C376.023 355.733 372.068 359.296 367.475 359.057Z" fill="#A05E47"/>
<path d="M360.592 335.996C359.498 336.081 359.133 337.722 359.853 338.551C360.573 339.38 361.825 339.492 362.907 339.308C362.601 339.9 362.287 340.578 362.503 341.209C362.718 341.84 363.767 342.104 364.023 341.489C363.817 342.847 363.613 344.206 363.407 345.564C363.312 346.199 363.219 346.869 363.458 347.465C363.697 348.061 364.393 348.525 364.985 348.273C366.325 347.706 365.044 345.081 366.331 344.399C366.558 344.278 366.825 344.257 367.082 344.274C368.497 344.37 369.684 345.781 369.535 347.193C369.386 348.604 367.931 349.737 366.526 349.536C366.084 349.977 366.026 350.749 366.395 351.251C366.765 351.754 367.518 351.929 368.072 351.638C367.69 352.735 368.282 354.075 369.348 354.532C370.415 354.989 371.795 354.493 372.325 353.462C373.321 354.629 374.957 355.21 376.467 354.934C377.977 354.659 379.301 353.537 379.822 352.095C381.674 352.359 383.671 352.029 385.145 350.877C386.619 349.727 387.441 347.673 386.852 345.898C388.586 345.177 389.911 343.544 390.255 341.697C390.6 339.849 389.954 337.847 388.594 336.55C391.4 332.802 390.618 326.866 386.937 323.973C386.7 320.663 384.734 317.265 381.55 316.329C380.185 315.927 378.412 316.182 377.808 317.469C376.287 316.463 374.569 315.592 372.747 315.633C370.925 315.675 369.023 316.901 368.771 318.707C367.546 317.657 365.662 317.46 364.245 318.231C362.829 319.003 361.973 320.693 362.189 322.291C360.79 321.744 359.085 322.091 358.012 323.141C356.937 324.192 356.551 325.887 357.066 327.298C357.068 327.305 355.804 329.692 355.799 330.26C355.791 331.331 356.27 332.29 356.515 333.307C356.92 334.992 358.303 338.466 360.592 335.996Z" fill="#171C27"/>
<path d="M375.434 359.957C375.434 359.957 386.694 359.957 385.839 372.069C384.984 384.182 383.416 391.383 384.841 399.24C386.267 407.097 385.886 417.408 385.886 417.408C385.886 417.408 362.606 425.033 349.92 416.686C349.92 416.686 351.773 377.307 352.201 371.251C352.629 365.195 358.321 359.896 367.31 359.957C376.299 360.017 376.299 360.017 376.299 360.017" fill="#E54C64"/>
<path d="M366.555 416.92C377.835 416.92 385.916 412.877 386.031 412.817C386.14 412.762 386.182 412.628 386.127 412.52C386.071 412.412 385.934 412.369 385.83 412.424C385.666 412.507 369.205 420.735 350.468 413.511C350.353 413.467 350.226 413.523 350.182 413.637C350.137 413.752 350.195 413.879 350.31 413.923C356.07 416.145 361.62 416.92 366.555 416.92Z" fill="#0D314C"/>
<path d="M385.711 407.114C385.715 407.114 385.717 407.114 385.722 407.114C385.843 407.108 385.939 407.006 385.933 406.883C385.76 402.966 385.065 399.237 385.058 399.199C384.039 393.583 384.547 388.414 385.251 381.262C385.517 378.558 385.819 375.492 386.06 372.084C386.068 371.962 385.976 371.857 385.855 371.848C385.756 371.843 385.628 371.93 385.618 372.053C385.378 375.453 385.076 378.516 384.811 381.219C384.131 388.137 383.592 393.6 384.623 399.279C384.631 399.317 385.32 403.018 385.491 406.901C385.494 407.021 385.592 407.114 385.711 407.114Z" fill="#0D314C"/>
<path d="M384.82 417.607C384.941 417.607 385.041 417.508 385.041 417.385V414.295C385.041 414.173 384.943 414.073 384.82 414.073C384.698 414.073 384.598 414.172 384.598 414.295V417.385C384.598 417.508 384.698 417.607 384.82 417.607Z" fill="#0D314C"/>
<path d="M383.362 417.435C383.484 417.435 383.584 417.335 383.584 417.213V415.024C383.584 414.902 383.485 414.802 383.362 414.802C383.24 414.802 383.141 414.901 383.141 415.024V417.213C383.141 417.336 383.239 417.435 383.362 417.435Z" fill="#0D314C"/>
<path d="M381.79 418.22C381.912 418.22 382.012 418.121 382.012 417.998V415.472C382.012 415.35 381.913 415.251 381.79 415.251C381.669 415.251 381.569 415.35 381.569 415.472V417.998C381.569 418.121 381.669 418.22 381.79 418.22Z" fill="#0D314C"/>
<path d="M379.939 418.559C380.061 418.559 380.161 418.46 380.161 418.337V416.314C380.161 416.193 380.062 416.093 379.939 416.093C379.818 416.093 379.718 416.191 379.718 416.314V418.337C379.718 418.46 379.818 418.559 379.939 418.559Z" fill="#0D314C"/>
<path d="M378.256 418.956C378.377 418.956 378.477 418.857 378.477 418.734V416.483C378.477 416.361 378.379 416.261 378.256 416.261C378.134 416.261 378.034 416.36 378.034 416.483V418.734C378.035 418.856 378.134 418.956 378.256 418.956Z" fill="#0D314C"/>
<path d="M376.629 419.357C376.75 419.357 376.85 419.259 376.85 419.136V416.875C376.85 416.754 376.752 416.654 376.629 416.654C376.507 416.654 376.407 416.753 376.407 416.875V419.136C376.408 419.259 376.507 419.357 376.629 419.357Z" fill="#0D314C"/>
<path d="M374.722 419.347C374.843 419.347 374.943 419.249 374.943 419.126V416.987C374.943 416.865 374.844 416.765 374.722 416.765C374.6 416.765 374.5 416.864 374.5 416.987V419.126C374.5 419.249 374.6 419.347 374.722 419.347Z" fill="#0D314C"/>
<path d="M373.095 419.454C373.217 419.454 373.317 419.355 373.317 419.232V417.381C373.317 417.259 373.218 417.159 373.095 417.159C372.973 417.159 372.874 417.258 372.874 417.381V419.232C372.874 419.355 372.973 419.454 373.095 419.454Z" fill="#0D314C"/>
<path d="M371.636 420.033C371.758 420.033 371.858 419.934 371.858 419.811V417.606C371.858 417.484 371.759 417.384 371.636 417.384C371.514 417.384 371.415 417.483 371.415 417.606V419.811C371.415 419.934 371.514 420.033 371.636 420.033Z" fill="#0D314C"/>
<path d="M369.673 419.624C369.794 419.624 369.894 419.525 369.894 419.402V417.997C369.894 417.876 369.796 417.776 369.673 417.776C369.551 417.776 369.451 417.874 369.451 417.997V419.402C369.451 419.524 369.551 419.624 369.673 419.624Z" fill="#0D314C"/>
<path d="M368.327 420.072C368.448 420.072 368.548 419.973 368.548 419.85V418.11C368.548 417.988 368.449 417.888 368.327 417.888C368.205 417.888 368.105 417.987 368.105 418.11V419.85C368.105 419.973 368.204 420.072 368.327 420.072Z" fill="#0D314C"/>
<path d="M367.036 420.251C367.158 420.251 367.258 420.152 367.258 420.03V417.831C367.258 417.709 367.158 417.609 367.036 417.609C366.914 417.609 366.814 417.709 366.814 417.831V420.03C366.816 420.151 366.914 420.251 367.036 420.251Z" fill="#0D314C"/>
<path d="M365.634 420.321C365.756 420.321 365.856 420.222 365.856 420.099V417.83C365.856 417.708 365.757 417.608 365.634 417.608C365.513 417.608 365.413 417.708 365.413 417.83V420.099C365.413 420.222 365.511 420.321 365.634 420.321Z" fill="#0D314C"/>
<path d="M364.119 419.854C364.241 419.854 364.341 419.755 364.341 419.632V417.83C364.341 417.708 364.242 417.608 364.119 417.608C363.997 417.608 363.897 417.708 363.897 417.83V419.632C363.899 419.755 363.997 419.854 364.119 419.854Z" fill="#0D314C"/>
<path d="M362.66 419.624C362.782 419.624 362.882 419.525 362.882 419.402V417.83C362.882 417.708 362.783 417.608 362.66 417.608C362.538 417.608 362.438 417.708 362.438 417.83V419.402C362.44 419.524 362.538 419.624 362.66 419.624Z" fill="#0D314C"/>
<path d="M360.921 420.033C361.043 420.033 361.142 419.934 361.142 419.811V417.662C361.142 417.54 361.043 417.44 360.921 417.44C360.799 417.44 360.7 417.539 360.7 417.662V419.811C360.7 419.934 360.799 420.033 360.921 420.033Z" fill="#0D314C"/>
<path d="M359.295 419.655C359.416 419.655 359.516 419.556 359.516 419.433V417.099C359.516 416.978 359.418 416.878 359.295 416.878C359.173 416.878 359.073 416.977 359.073 417.099V419.433C359.073 419.556 359.172 419.655 359.295 419.655Z" fill="#0D314C"/>
<path d="M358.061 419.277C358.183 419.277 358.283 419.178 358.283 419.056V416.932C358.283 416.81 358.184 416.71 358.061 416.71C357.94 416.71 357.84 416.809 357.84 416.932V419.056C357.84 419.178 357.939 419.277 358.061 419.277Z" fill="#0D314C"/>
<path d="M356.49 419.067C356.611 419.067 356.711 418.968 356.711 418.846V416.539C356.711 416.417 356.612 416.318 356.49 416.318C356.368 416.318 356.268 416.417 356.268 416.539V418.846C356.269 418.967 356.368 419.067 356.49 419.067Z" fill="#0D314C"/>
<path d="M355.143 418.731C355.265 418.731 355.364 418.632 355.364 418.509V416.258C355.364 416.136 355.266 416.036 355.143 416.036C355.021 416.036 354.921 416.135 354.921 416.258V418.509C354.923 418.632 355.021 418.731 355.143 418.731Z" fill="#0D314C"/>
<path d="M353.572 418.335C353.694 418.335 353.794 418.236 353.794 418.113V416.09C353.794 415.969 353.695 415.869 353.572 415.869C353.45 415.869 353.351 415.967 353.351 416.09V418.113C353.351 418.235 353.45 418.335 353.572 418.335Z" fill="#0D314C"/>
<path d="M352.058 417.491C352.18 417.491 352.28 417.392 352.28 417.269V415.192C352.28 415.07 352.181 414.97 352.058 414.97C351.936 414.97 351.837 415.069 351.837 415.192V417.269C351.837 417.392 351.936 417.491 352.058 417.491Z" fill="#0D314C"/>
<path d="M350.935 417.1C351.057 417.1 351.157 417.002 351.157 416.879V414.687C351.157 414.566 351.058 414.466 350.935 414.466C350.814 414.466 350.714 414.566 350.714 414.687V416.879C350.715 417.002 350.814 417.1 350.935 417.1Z" fill="#0D314C"/>
<path d="M383.845 430.965C381.913 432.706 379.391 433.611 376.935 434.468C370.725 436.634 364.419 438.767 357.865 439.32" stroke="#074368" stroke-width="0.325458" stroke-miterlimit="10" stroke-linecap="round" stroke-linejoin="round"/>
</svg>
