<svg width="467" height="467" viewBox="0 0 467 467" fill="none" xmlns="http://www.w3.org/2000/svg">
<path d="M411.093 398.469C401.545 408.363 392.51 414.743 385.372 419.785C301.467 479.041 202.185 461.768 181.085 457.55C149.926 451.321 89.6977 439.28 46.1535 388.878C-19.7251 312.625 -9.46688 192.489 41.6331 113.185C50.98 98.6793 100.354 18.168 200.705 5.2565C261.437 -2.5574 332.23 13.2023 383.497 55.4783C491.11 144.219 483.449 323.492 411.093 398.469Z" fill="#FFF6CC"/>
<path d="M88.9656 132.441C89.0088 130.199 90.8929 128.395 93.2021 128.395H233.269C235.61 128.395 238.095 130.255 238.095 132.528V449.996C238.095 451.692 237.106 453.319 235.869 454.517C234.632 455.715 232.808 456.386 231.061 456.381L89.4597 456.006C87.6976 456.001 85.9748 455.309 84.7421 454.086C83.5095 452.863 82.8156 451.207 82.8488 449.496L88.9656 132.441Z" fill="#FFE666"/>
<g opacity="0.52">
<path d="M169.404 150.893L215.224 150.739L215.206 145.172L169.438 145.312L169.404 150.893Z" fill="white"/>
<path d="M169.278 171.401L215.286 171.197L215.269 165.583L169.313 165.773L169.278 171.401Z" fill="white"/>
<path d="M169.152 192.077L215.35 191.823L215.333 186.163L169.187 186.404L169.152 192.077Z" fill="white"/>
<path d="M169.024 212.926L215.414 212.62L215.396 206.913L169.059 207.205L169.024 212.926Z" fill="white"/>
<path d="M168.896 233.949L215.478 233.59L215.46 227.836L168.931 228.18L168.896 233.949Z" fill="white"/>
<path d="M168.635 276.523L215.608 276.057L215.59 270.206L168.671 270.657L168.635 276.523Z" fill="white"/>
<path d="M168.235 341.744L215.808 341.11L215.789 335.109L168.272 335.727L168.235 341.744Z" fill="white"/>
<path d="M168.766 255.147L215.543 254.735L215.525 248.933L168.801 249.33L168.766 255.147Z" fill="white"/>
<path d="M168.503 298.08L215.674 297.559L215.656 291.659L168.539 292.165L168.503 298.08Z" fill="white"/>
<path d="M168.37 319.819L215.741 319.242L215.723 313.292L168.407 313.854L168.37 319.819Z" fill="white"/>
<path d="M168.101 363.855L215.876 363.163L215.858 357.111L168.138 357.787L168.101 363.855Z" fill="white"/>
<path d="M167.964 386.157L215.945 385.406L215.926 379.302L168.002 380.037L167.964 386.157Z" fill="white"/>
<path d="M167.825 408.651L216.012 407.841L215.994 401.684L167.863 402.478L167.825 408.651Z" fill="white"/>
<path d="M167.687 431.339L216.082 430.468L216.063 424.259L167.725 425.113L167.687 431.339Z" fill="white"/>
<path d="M109.332 151.095L155.439 150.94L155.489 145.355L109.434 145.496L109.332 151.095Z" fill="white"/>
<path d="M108.957 171.668L155.255 171.463L155.305 165.831L109.06 166.023L108.957 171.668Z" fill="white"/>
<path d="M108.58 192.411L155.07 192.155L155.12 186.477L108.683 186.719L108.58 192.411Z" fill="white"/>
<path d="M108.201 213.328L154.885 213.02L154.936 207.295L108.306 207.588L108.201 213.328Z" fill="white"/>
<path d="M107.817 234.419L154.697 234.058L154.748 228.285L107.923 228.631L107.817 234.419Z" fill="white"/>
<path d="M107.041 277.134L154.317 276.665L154.369 270.794L107.148 271.248L107.041 277.134Z" fill="white"/>
<path d="M105.852 342.575L153.734 341.937L153.788 335.915L105.961 336.537L105.852 342.575Z" fill="white"/>
<path d="M107.43 255.687L154.506 255.272L154.558 249.451L107.536 249.851L107.43 255.687Z" fill="white"/>
<path d="M106.646 298.763L154.123 298.239L154.175 292.319L106.754 292.828L106.646 298.763Z" fill="white"/>
<path d="M106.25 320.576L153.928 319.995L153.982 314.025L106.359 314.59L106.25 320.576Z" fill="white"/>
<path d="M105.447 364.762L153.535 364.066L153.59 357.993L105.558 358.673L105.447 364.762Z" fill="white"/>
<path d="M105.04 387.141L153.336 386.385L153.39 380.26L105.152 380.999L105.04 387.141Z" fill="white"/>
<path d="M104.63 409.713L153.135 408.898L153.19 402.72L104.742 403.519L104.63 409.713Z" fill="white"/>
<path d="M104.217 432.481L152.933 431.605L152.989 425.373L104.33 426.233L104.217 432.481Z" fill="white"/>
</g>
<path d="M8.58876 220.008C8.65019 217.415 11.3128 215.281 14.5766 215.281H137.941C141.249 215.281 144.497 217.527 144.497 220.155V455.083C144.497 456.348 143.58 457.56 142.454 458.453C141.327 459.346 139.658 459.846 138.067 459.842L9.08221 459.563C7.47716 459.559 5.90576 459.044 4.78321 458.132C3.66067 457.22 3.0277 455.961 3.05766 454.685L8.58876 220.008Z" fill="#FFE666"/>
<path d="M99.4395 242.965L134.583 242.927L134.862 228.613H99.6842L99.4395 242.965Z" fill="url(#paint0_linear_194_350)"/>
<path d="M60.0479 242.958L95.1565 242.92L95.3971 228.613H60.2544L60.0479 242.958Z" fill="url(#paint1_linear_194_350)"/>
<path d="M20.6943 242.951L55.7678 242.913L55.9701 228.613H20.8628L20.6943 242.951Z" fill="#FFF6CC"/>
<path d="M99.001 268.66L134.084 268.677L134.361 254.456L99.2448 254.444L99.001 268.66Z" fill="url(#paint2_linear_194_350)"/>
<path d="M59.6768 268.64L94.7243 268.657L94.9641 254.443L59.8826 254.432L59.6768 268.64Z" fill="url(#paint3_linear_194_350)"/>
<path d="M20.3916 268.62L55.4039 268.637L55.6056 254.43L20.5594 254.419L20.3916 268.62Z" fill="#FFF6CC"/>
<path d="M98.5635 294.178L133.585 294.207L133.862 280.035L98.8065 280.012L98.5635 294.178Z" fill="url(#paint4_linear_194_350)"/>
<path d="M59.3076 294.145L94.2942 294.174L94.533 280.009L59.5126 279.986L59.3076 294.145Z" fill="url(#paint5_linear_194_350)"/>
<path d="M20.0928 294.112L55.0442 294.141L55.245 279.983L20.2599 279.961L20.0928 294.112Z" fill="#FFF6CC"/>
<path d="M98.1279 319.608L133.089 319.648L133.365 305.525L98.3699 305.491L98.1279 319.608Z" fill="#FFF6CC"/>
<path d="M58.9395 319.562L93.8655 319.602L94.1034 305.486L59.1438 305.452L58.9395 319.562Z" fill="#FFF6CC"/>
<path d="M19.792 319.517L54.6828 319.557L54.8831 305.448L19.9584 305.414L19.792 319.517Z" fill="#FFF6CC"/>
<path d="M97.6924 344.949L132.593 345.001L132.867 330.927L97.9337 330.881L97.6924 344.949Z" fill="#FFF6CC"/>
<path d="M58.5723 344.891L93.4377 344.943L93.6748 330.876L58.7759 330.83L58.5723 344.891Z" fill="url(#paint6_linear_194_350)"/>
<path d="M19.4922 344.833L54.3228 344.885L54.5222 330.825L19.6581 330.779L19.4922 344.833Z" fill="#FFF6CC"/>
<path d="M97.2588 370.204L132.098 370.267L132.372 356.241L97.4991 356.184L97.2588 370.204Z" fill="url(#paint7_linear_194_350)"/>
<path d="M58.207 370.133L93.0122 370.196L93.2485 356.178L58.41 356.121L58.207 370.133Z" fill="url(#paint8_linear_194_350)"/>
<path d="M19.1953 370.063L53.9657 370.126L54.1644 356.114L19.3608 356.057L19.1953 370.063Z" fill="#FFF6CC"/>
<path d="M96.8281 395.371L131.608 395.445L131.881 381.468L97.0678 381.4L96.8281 395.371Z" fill="url(#paint9_linear_194_350)"/>
<path d="M57.8438 395.289L92.5888 395.363L92.8243 381.392L58.0459 381.324L57.8438 395.289Z" fill="url(#paint10_linear_194_350)"/>
<path d="M18.8975 395.206L53.6079 395.28L53.8061 381.316L19.0624 381.248L18.8975 395.206Z" fill="#FFF6CC"/>
<path d="M96.3975 420.452L131.117 420.537L131.389 406.608L96.6363 406.529L96.3975 420.452Z" fill="#FFF6CC"/>
<path d="M57.4805 420.357L92.1655 420.442L92.4003 406.519L57.6819 406.441L57.4805 420.357Z" fill="url(#paint11_linear_194_350)"/>
<path d="M18.6016 420.262L53.2522 420.347L53.4495 406.431L18.7658 406.353L18.6016 420.262Z" fill="#FFF6CC"/>
<path d="M95.9678 445.447L130.628 445.543L130.899 431.662L96.2057 431.572L95.9678 445.447Z" fill="#FFF6CC"/>
<path d="M57.1182 445.34L91.7436 445.436L91.9777 431.561L57.3189 431.471L57.1182 445.34Z" fill="#FFF6CC"/>
<path d="M18.3076 445.232L52.8985 445.328L53.0954 431.46L18.4712 431.371L18.3076 445.232Z" fill="#FFF6CC"/>
<path d="M330.607 225.619C330.668 223.025 333.331 220.892 336.595 220.892H459.96C463.267 220.892 466.515 223.137 466.515 225.765V460.693C466.515 461.958 465.599 463.17 464.472 464.063C463.346 464.956 461.676 465.456 460.085 465.453L331.101 465.173C329.496 465.169 327.924 464.654 326.802 463.742C325.679 462.831 325.046 461.571 325.076 460.296L330.607 225.619Z" fill="#FFE666"/>
<g opacity="0.5">
<path d="M421.459 248.575L456.603 248.537L456.882 234.223H421.704L421.459 248.575Z" fill="white"/>
<path d="M382.065 248.568L417.174 248.53L417.415 234.223H382.272L382.065 248.568Z" fill="white"/>
<path d="M342.714 248.56L377.787 248.523L377.989 234.223H342.882L342.714 248.56Z" fill="white"/>
<path d="M421.019 274.27L456.101 274.287L456.379 260.066L421.262 260.055L421.019 274.27Z" fill="white"/>
<path d="M381.696 274.25L416.744 274.267L416.984 260.053L381.902 260.042L381.696 274.25Z" fill="white"/>
<path d="M342.411 274.23L377.423 274.247L377.625 260.04L342.579 260.029L342.411 274.23Z" fill="white"/>
<path d="M420.581 299.788L455.603 299.817L455.88 285.645L420.824 285.622L420.581 299.788Z" fill="white"/>
<path d="M381.326 299.755L416.313 299.784L416.552 285.619L381.531 285.596L381.326 299.755Z" fill="white"/>
<path d="M342.109 299.722L377.061 299.751L377.262 285.593L342.276 285.571L342.109 299.722Z" fill="white"/>
<path d="M420.145 325.217L455.105 325.258L455.381 311.135L420.387 311.101L420.145 325.217Z" fill="white"/>
<path d="M380.958 325.172L415.884 325.212L416.122 311.096L381.162 311.062L380.958 325.172Z" fill="white"/>
<path d="M341.811 325.127L376.702 325.167L376.902 311.058L341.977 311.024L341.811 325.127Z" fill="white"/>
<path d="M419.711 350.559L454.611 350.611L454.886 336.537L419.952 336.491L419.711 350.559Z" fill="white"/>
<path d="M380.592 350.501L415.457 350.553L415.694 336.486L380.795 336.44L380.592 350.501Z" fill="white"/>
<path d="M341.511 350.444L376.341 350.495L376.541 336.435L341.677 336.39L341.511 350.444Z" fill="white"/>
<path d="M419.277 375.814L454.117 375.877L454.391 361.851L419.518 361.794L419.277 375.814Z" fill="white"/>
<path d="M380.227 375.743L415.032 375.806L415.268 361.787L380.429 361.731L380.227 375.743Z" fill="white"/>
<path d="M341.213 375.673L375.983 375.736L376.182 361.724L341.378 361.667L341.213 375.673Z" fill="white"/>
<path d="M418.846 400.981L453.625 401.055L453.898 387.078L419.085 387.01L418.846 400.981Z" fill="white"/>
<path d="M379.862 400.899L414.607 400.972L414.843 387.002L380.064 386.934L379.862 400.899Z" fill="white"/>
<path d="M340.916 400.816L375.626 400.89L375.825 386.926L341.081 386.858L340.916 400.816Z" fill="white"/>
<path d="M418.416 426.062L453.136 426.147L453.408 412.218L418.655 412.139L418.416 426.062Z" fill="white"/>
<path d="M379.498 425.967L414.183 426.052L414.418 412.13L379.7 412.051L379.498 425.967Z" fill="white"/>
<path d="M340.621 425.872L375.272 425.957L375.469 412.041L340.786 411.963L340.621 425.872Z" fill="white"/>
<path d="M417.987 451.057L452.647 451.153L452.918 437.272L418.225 437.182L417.987 451.057Z" fill="white"/>
<path d="M379.138 450.95L413.763 451.046L413.997 437.171L379.338 437.081L379.138 450.95Z" fill="white"/>
<path d="M340.325 450.843L374.916 450.938L375.113 437.07L340.489 436.981L340.325 450.843Z" fill="white"/>
</g>
<path d="M207.967 289.527C197.899 257.916 178.419 232.724 155.345 217.914C134.718 204.675 119.857 184.056 114.354 160.239C113.776 157.736 113.089 155.225 112.289 152.716C100.18 114.698 66.969 91.3304 38.1093 100.522C9.24926 109.714 -4.33036 147.985 7.7785 186.002C10.2542 193.776 13.613 200.936 17.6367 207.329C30.4782 227.731 35.5032 252.202 30.7784 275.871C26.5553 297.023 27.7013 320.838 35.2496 344.538C46.5074 379.884 69.5325 407.207 96.1931 420.962C106.277 426.165 115.371 433.161 122.9 441.616C135.414 455.664 153.049 462.268 169.252 457.108C186.731 451.54 197.651 433.841 198.437 413.19C198.881 401.504 201.629 390.049 206.108 379.221C216.68 353.657 218.147 321.487 207.967 289.527Z" fill="#CCAA00"/>
<path opacity="0.57" d="M61.096 137.747C72.8688 161.671 83.8598 185.956 94.5955 210.355C97.2821 216.454 99.8702 222.595 102.478 228.728L106.388 237.928L110.221 247.16C112.752 253.325 115.369 259.455 117.83 265.649L125.214 284.229C129.979 296.679 134.849 309.088 139.38 321.627C141.654 327.892 144.052 334.112 146.198 340.425L152.725 359.327C161.17 384.618 168.981 410.134 175.481 435.996L174.364 436.289L168.762 417.125L167.372 412.333L165.862 407.575L162.824 398.067L159.805 388.555C158.805 385.382 157.686 382.247 156.632 379.092C154.481 372.794 152.381 366.481 150.19 360.198C141.262 335.123 131.999 310.166 122.22 285.404C117.236 273.061 112.358 260.676 107.287 248.366L103.51 239.124L99.654 229.913C97.0875 223.771 94.5206 217.63 91.8917 211.514C86.7387 199.237 81.4969 186.997 76.1551 174.799C70.8773 162.574 65.4827 150.396 60.0527 138.24L61.096 137.747Z" fill="white"/>
<path d="M292.194 226.693C287.489 192.171 271.936 162.582 250.819 143.08C231.941 125.647 220.327 101.626 218.928 75.9936C218.781 73.2993 218.523 70.5776 218.149 67.8367C212.491 26.3174 182.464 -3.87335 151.082 0.403768C119.701 4.68072 98.8488 41.806 104.508 83.3253C105.665 91.8152 107.842 99.8294 110.841 107.172C120.412 130.603 121.203 156.827 112.091 180.452C103.948 201.566 100.858 226.408 104.386 252.29C109.647 290.892 128.47 323.328 153.472 342.389C162.928 349.598 171.042 358.483 177.285 368.592C187.658 385.393 204.643 395.42 222.261 393.019C241.267 390.428 255.691 374.099 260.203 352.881C262.756 340.873 267.641 329.523 274.197 319.134C289.673 294.608 296.951 261.597 292.194 226.693Z" fill="#998000"/>
<path opacity="0.57" d="M168.09 43.0747C175.929 69.9559 182.899 97.0674 189.585 124.251C191.259 131.047 192.824 137.868 194.412 144.684L196.79 154.909L199.084 165.154C200.586 171.99 202.183 178.805 203.608 185.658L207.885 206.215C210.561 219.957 213.354 233.675 215.774 247.466C216.994 254.359 218.348 261.228 219.428 268.146L222.763 288.882C226.93 316.573 230.403 344.381 232.462 372.311L231.259 372.412L228.923 351.573L228.35 346.364L227.648 341.17L226.223 330.784L224.818 320.397C224.356 316.935 223.765 313.489 223.245 310.034C222.159 303.13 221.127 296.219 219.996 289.323C215.293 261.767 210.225 234.274 204.59 206.888C201.667 193.217 198.862 179.522 195.845 165.87L193.61 155.625L191.289 145.399C189.746 138.581 188.203 131.763 186.591 124.96C183.483 111.328 180.277 97.716 176.961 84.1313C173.715 70.5293 170.341 56.9544 166.926 43.3963L168.09 43.0747Z" fill="white"/>
<path d="M436.428 463.972H162.498C160.357 463.972 158.621 462.236 158.621 460.095V89.9252C158.621 87.7842 160.357 86.0486 162.498 86.0486H436.429C438.57 86.0486 440.305 87.7842 440.305 89.9252V460.095C440.305 462.236 438.569 463.972 436.428 463.972Z" fill="#FFD502"/>
<path d="M392.351 414.189H205.973C198.908 414.189 193.181 408.462 193.181 401.397V155.618C193.181 148.553 198.908 142.826 205.973 142.826H392.351C399.416 142.826 405.143 148.553 405.143 155.618V401.397C405.143 408.462 399.416 414.189 392.351 414.189Z" fill="#CCAA00"/>
<path d="M385.299 395.311H213.194C211.075 395.311 209.356 393.592 209.356 391.473V168.986C209.356 166.866 211.075 165.148 213.194 165.148H385.299C387.418 165.148 389.137 166.866 389.137 168.986V391.473C389.137 393.593 387.418 395.311 385.299 395.311Z" fill="#FFD502"/>
<path d="M298.949 123.454C303.603 123.454 307.376 119.681 307.376 115.027C307.376 110.373 303.603 106.6 298.949 106.6C294.295 106.6 290.522 110.373 290.522 115.027C290.522 119.681 294.295 123.454 298.949 123.454Z" fill="url(#paint12_linear_194_350)"/>
<path d="M353.39 251.064L244.977 252.867C236.726 253.004 230.013 259.42 230.013 267.197V335.472C230.013 343.249 236.726 349.284 244.977 348.953L353.39 344.599C361.177 344.286 367.468 337.941 367.468 330.424V264.44C367.468 256.923 361.177 250.935 353.39 251.064Z" fill="#1A1500"/>
<path d="M358.877 238.716C355.593 238.765 352.928 236.231 352.928 233.056V218.113C352.928 203.122 340.247 190.963 324.55 191.008L289.232 191.11C273.131 191.157 259.937 203.675 259.937 219.016V234.308C259.937 237.557 257.141 240.233 253.687 240.284C250.228 240.336 247.419 237.735 247.419 234.476V219.138C247.419 197.242 266.283 179.428 289.233 179.428H324.55C346.849 179.428 364.809 196.73 364.809 217.997V232.896C364.809 236.061 362.155 238.667 358.877 238.716Z" fill="#1A1500"/>
<path d="M316.723 288.902C316.723 281.315 310.1 275.358 302.047 275.905C294.927 276.389 289.038 282.091 288.654 288.9C288.355 294.183 291.259 298.75 295.673 301.059C297.55 302.042 298.482 304.112 298.117 306.161L295.022 323.531C294.628 325.743 296.406 327.687 298.745 327.603L306.7 327.318C309.028 327.235 310.794 325.172 310.402 322.996L307.309 305.787C306.94 303.734 308.007 301.695 309.889 300.57C313.983 298.122 316.723 293.782 316.723 288.902Z" fill="#998000"/>
<path d="M98.9844 464.632C98.9868 464.483 98.9769 464.333 98.9387 464.181C96.6905 455.268 85.5324 449.717 85.5324 449.717L81.1109 450.063C78.5687 457.919 78.8954 462.737 79.3037 464.883C79.315 464.943 79.3333 465 79.3493 465.058C82.9966 465.384 90.5037 465.597 98.9844 464.632Z" fill="url(#paint13_linear_194_350)"/>
<path d="M79.3496 465.058C79.5465 465.775 80.0756 466.333 80.7527 466.475C85.9412 467.566 94.1876 466.688 97.65 466.236C98.4139 466.136 98.9723 465.429 98.9849 464.632C90.5041 465.597 82.997 465.384 79.3496 465.058Z" fill="#91B3FA"/>
<path d="M79.332 443.478L81.2047 452.493C81.3418 453.153 81.8494 453.648 82.4642 453.705C83.2167 453.776 84.2881 453.818 85.3655 453.659C86.3315 453.517 87.0044 452.536 86.8331 451.482L85.5315 443.478H79.332Z" fill="url(#paint14_linear_194_350)"/>
<path d="M118.133 464.944C113.25 464.808 110.724 464.232 109.418 463.699C109.415 464.184 109.418 464.678 109.434 465.19C109.45 465.737 109.855 466.174 110.354 466.171L137.166 465.998C138.021 465.992 138.521 465 138.151 464.215C134.635 464.506 125.682 465.155 118.133 464.944Z" fill="#91B3FA"/>
<path d="M138.151 464.215C138.118 464.147 138.091 464.077 138.045 464.013C135.677 460.704 129.646 454.116 117.729 451.259L112.012 451.078C112.012 451.078 109.466 455.503 109.418 463.699C110.724 464.232 113.249 464.808 118.133 464.944C125.682 465.155 134.635 464.506 138.151 464.215Z" fill="url(#paint15_linear_194_350)"/>
<path d="M110.698 442.68C110.788 443.101 111.978 449.516 112.439 452.003C112.548 452.594 113.009 453.028 113.557 453.058C114.535 453.113 116.114 453.12 117.472 452.751C118.204 452.552 118.697 451.805 118.644 450.976L118.005 440.83L110.698 442.68Z" fill="url(#paint16_linear_194_350)"/>
<path d="M106.366 324.241C106.366 324.241 114.23 378.281 119.906 442.587C120.011 443.785 119.057 444.827 117.881 445.075C116.147 445.44 113.598 445.874 111.488 445.815C110.362 445.783 109.421 444.948 109.231 443.837C107.298 432.499 93.5016 371.648 89.8807 358.255C89.8807 358.255 85.7214 415.144 87.0509 444.659C87.0841 445.392 86.5467 446.029 85.817 446.113C84.7099 446.241 82.9391 446.338 80.6852 446.099C79.8298 446.008 79.1396 445.361 79.0172 444.51C77.64 434.914 69.7134 377.796 70.0505 336.65C70.0695 334.33 72.7729 315.265 72.7729 315.265L106.366 324.241Z" fill="url(#paint17_linear_194_350)"/>
<path d="M109.412 233.364L110.465 261.642C113.456 262.671 116.303 263.472 119.014 264.07C120.71 258.61 124.444 251.908 127.502 246.926C116.267 242.954 109.412 233.364 109.412 233.364Z" fill="url(#paint18_linear_194_350)"/>
<path d="M71.5903 327.356C70.7816 327.068 70.218 326.335 70.13 325.482C69.0842 315.335 64.0206 252.425 95.9884 226.547C95.9884 226.547 97.8217 221.75 112.891 233.541C127.959 245.331 119.892 257.69 116.284 274.735C111.918 295.362 104.259 312.223 107.648 324.916C107.882 325.792 107.421 326.712 106.57 327.026C94.8647 331.34 83.2042 331.483 71.5903 327.356Z" fill="url(#paint19_linear_194_350)"/>
<path d="M108.458 207.697C108.448 208.593 95.6826 226.724 95.6826 226.724C95.6826 226.724 97.9738 231.236 108.912 234.9L118.354 215.487L108.458 207.697Z" fill="url(#paint20_linear_194_350)"/>
<path d="M102.134 269.738C102.054 269.738 101.973 269.716 101.902 269.667C91.7046 262.777 86.9074 251.657 86.86 251.545C86.7709 251.333 86.8692 251.091 87.0798 251.002C87.2912 250.912 87.5337 251.01 87.6235 251.221C87.6698 251.33 92.3778 262.232 102.366 268.981C102.556 269.108 102.606 269.366 102.477 269.556C102.398 269.674 102.267 269.738 102.134 269.738Z" fill="url(#paint21_linear_194_350)"/>
<path d="M117.324 254.325C117.188 254.325 117.054 254.258 116.975 254.135C116.944 254.087 113.829 249.237 107.895 238.612C106.071 235.345 103.673 233.276 100.768 232.463C95.9575 231.119 91.3214 233.698 91.2756 233.724C91.076 233.834 90.8237 233.768 90.7104 233.569C90.5975 233.37 90.6667 233.117 90.8658 233.004C91.0657 232.89 95.8343 230.222 100.984 231.663C104.112 232.536 106.682 234.738 108.619 238.207C114.538 248.806 117.641 253.638 117.672 253.686C117.796 253.878 117.741 254.135 117.548 254.259C117.479 254.304 117.401 254.325 117.324 254.325Z" fill="url(#paint22_linear_194_350)"/>
<path d="M118.508 197.308C118.508 197.308 123.05 207.742 123.355 213.218C123.66 218.695 124.84 222.248 118.508 223.351C112.176 224.454 106.842 221.299 103.952 215.844C103.952 215.844 99.4238 207.439 100.439 203.996C101.455 200.553 118.508 197.308 118.508 197.308Z" fill="url(#paint23_linear_194_350)"/>
<path d="M106.116 211.922L106.477 211.763C106.935 211.561 107.132 211.015 106.901 210.569C106.009 208.844 104.268 204.89 106.516 203.968C109.415 202.78 120.894 200.439 123.371 196.365C125.751 192.45 123.642 187.397 120.473 185.96C120.26 185.863 120.01 185.94 119.902 186.146L119.637 186.646C119.457 186.988 118.951 186.936 118.844 186.564C118.74 186.207 118.266 186.138 118.069 186.453C117.307 187.672 115.252 189.648 109.755 190.662C101.943 192.104 96.7788 195.265 96.6502 200.663C96.6421 201.006 96.2772 201.197 95.9842 201.018C95.4075 200.667 94.4845 200.502 93.2509 201.539C91.1054 203.343 91.9835 208.022 96.6865 211.872C96.91 212.055 96.9082 212.403 96.6662 212.561C95.8136 213.116 94.5426 214.436 97.8358 216.197C101.242 218.018 103.786 217.868 104.765 217.707C105.009 217.667 105.166 217.431 105.113 217.19L104.068 212.445C104.008 212.177 104.213 211.922 104.488 211.922H106.116V211.922Z" fill="url(#paint24_linear_194_350)"/>
<path d="M106.313 212.923C106.313 212.923 104.581 206.258 101.592 208.127C98.6043 209.996 103.143 215.595 105.546 215.844L106.313 212.923Z" fill="url(#paint25_linear_194_350)"/>
<path d="M165.126 231.237C165.126 231.237 162.85 227.201 162.994 225.24C163.139 223.279 161.917 220.399 163.217 220.612C164.518 220.825 164.786 220.651 165.139 223.004C165.492 225.357 169.596 235.636 165.126 231.237Z" fill="url(#paint26_linear_194_350)"/>
<path d="M165.555 224.819L165.503 232.883C150.092 249.522 137.618 250.502 127.503 246.926C124.445 251.908 120.711 258.61 119.015 264.07C160.17 273.143 169.861 235.308 169.861 235.308C175.435 232.999 176.559 231.649 176.32 230.136L165.555 224.819Z" fill="url(#paint27_linear_194_350)"/>
<path d="M177.407 216.82C176.092 216.286 173.518 211.378 173.025 212.993C172.532 214.607 173.233 216.82 173.025 217.506C172.817 218.193 169.608 226.09 170.249 227.845C170.711 229.111 173.259 228.924 173.647 230.995C173.777 231.682 174.326 232.176 174.963 232.176C175.601 232.176 176.15 231.684 176.28 230.997C176.332 230.721 178.723 217.354 177.407 216.82Z" fill="url(#paint28_linear_194_350)"/>
<path d="M135.401 200.026C125.009 220.58 133.246 245.666 153.8 256.058C170.507 264.505 190.207 260.644 202.578 247.866L273.991 283.972C275.177 284.572 276.588 284.523 277.73 283.843L284.714 279.683C284.835 279.611 284.948 279.532 285.058 279.45C285.089 279.426 285.118 279.402 285.148 279.378C285.23 279.313 285.308 279.245 285.383 279.175C285.408 279.151 285.434 279.127 285.458 279.103C285.551 279.011 285.64 278.916 285.722 278.816C285.723 278.814 285.725 278.813 285.726 278.811C286.603 277.744 286.87 276.254 286.334 274.908L280.658 260.681C280.307 259.802 279.648 259.082 278.803 258.655L271.65 255.038L269.758 258.782L263.613 255.675L265.506 251.931L259.757 249.025L258.016 252.469L250.547 248.693L252.289 245.249L249.506 243.842L248.61 245.615L242.349 242.45L243.246 240.677L238.376 238.215L236.483 241.958L233.005 240.2L234.898 236.456L231.884 234.932L229.991 238.676L223.962 235.628L225.855 231.884L217.381 227.599L213.752 225.765C216.709 208.227 208.14 190.073 191.433 181.626C170.879 171.234 145.793 179.472 135.401 200.026ZM159.732 202.865C163.894 204.969 165.562 210.049 163.458 214.211C161.353 218.374 156.273 220.041 152.112 217.937C147.95 215.833 146.281 210.753 148.386 206.591C150.49 202.429 155.57 200.761 159.732 202.865Z" fill="url(#paint29_linear_194_350)"/>
<path d="M193.285 212.621L227.139 229.738L225.247 233.482L231.275 236.53L233.168 232.786L236.183 234.31L234.29 238.054L237.768 239.812L239.661 236.069L244.53 238.531L243.634 240.304L249.894 243.469L250.791 241.696L253.573 243.103L251.832 246.547L259.3 250.323L261.041 246.879L266.79 249.785L264.897 253.529L271.042 256.636L272.935 252.892L280.088 256.509C280.932 256.936 281.592 257.656 281.942 258.535L287.618 272.762C288.325 274.535 287.639 276.559 285.999 277.536L279.014 281.697C277.873 282.377 276.462 282.426 275.276 281.826L189.067 238.239L193.285 212.621Z" fill="url(#paint30_linear_194_350)"/>
<path d="M155.086 253.912C175.64 264.304 200.726 256.066 211.118 235.513C221.51 214.959 213.273 189.872 192.719 179.48C172.165 169.088 147.078 177.326 136.686 197.879C126.294 218.433 134.531 243.52 155.086 253.912ZM153.397 215.791C149.235 213.687 147.566 208.607 149.671 204.444C151.775 200.282 156.855 198.614 161.017 200.719C165.179 202.823 166.847 207.903 164.743 212.065C162.639 216.227 157.559 217.895 153.397 215.791Z" fill="url(#paint31_linear_194_350)"/>
<path d="M203.864 245.719L275.277 281.826C276.463 282.426 277.874 282.377 279.016 281.697L286 277.536C287.054 276.909 287.707 275.849 287.857 274.701C281.348 267.649 219.479 240.633 217.165 235.072C216.342 233.095 216.2 230.099 218.667 225.454L215.038 223.619C217.995 206.081 209.426 187.927 192.72 179.48C172.166 169.088 147.079 177.326 136.687 197.879C126.295 218.433 134.532 243.52 155.086 253.912C171.792 262.359 191.493 258.497 203.864 245.719ZM161.018 200.719C165.18 202.823 166.848 207.903 164.744 212.065C162.64 216.227 157.559 217.895 153.398 215.791C149.236 213.687 147.567 208.607 149.672 204.445C151.776 200.283 156.856 198.615 161.018 200.719Z" fill="url(#paint32_linear_194_350)"/>
<path d="M158.779 246.608C175.299 254.961 195.462 248.34 203.814 231.82C212.167 215.3 205.546 195.137 189.026 186.784C172.506 178.431 152.343 185.052 143.99 201.572C135.638 218.092 142.259 238.255 158.779 246.608ZM153.397 215.791C149.235 213.687 147.567 208.607 149.671 204.444C151.775 200.282 156.856 198.614 161.017 200.719C165.179 202.823 166.848 207.903 164.743 212.065C162.639 216.227 157.559 217.895 153.397 215.791Z" fill="url(#paint33_linear_194_350)"/>
<path d="M102.135 269.739C102.135 269.739 141.407 282.885 163.374 266.161C164.736 265.123 166.455 264.671 168.145 264.946L176.537 266.313C180.06 266.887 183.415 264.604 184.175 261.117C184.608 259.128 184.816 256.953 184.375 255.084L168.532 254.128L168.985 252.073C168.985 252.073 161.983 253.785 161.842 259.264C161.842 259.264 145.417 270.023 115.459 253.323C115.459 253.323 103.793 262.453 102.135 269.739Z" fill="url(#paint34_linear_194_350)"/>
<g opacity="0.3">
<path d="M405.464 72.8472C404.549 72.8099 403.838 72.0379 403.876 71.1237C403.949 69.3471 403.946 67.5413 403.867 65.7556C403.826 64.8522 404.518 64.0858 405.416 64.0287C405.427 64.0281 405.437 64.0274 405.449 64.0267C406.363 63.9862 407.137 64.6945 407.177 65.6091C407.26 67.4884 407.264 69.3899 407.187 71.2598C407.152 72.115 406.474 72.7922 405.639 72.8452C405.581 72.8487 405.523 72.8499 405.464 72.8472ZM402.885 57.091C402.563 55.3336 402.163 53.5737 401.695 51.8581C401.455 50.9759 401.975 50.0646 402.858 49.8237C403.745 49.5853 404.652 50.1041 404.892 50.9872C405.384 52.792 405.806 54.6448 406.144 56.4935C406.309 57.3936 405.713 58.2571 404.813 58.4219C404.747 58.4339 404.682 58.4418 404.617 58.446C403.791 58.4985 403.037 57.9258 402.885 57.091ZM398.824 43.6294C398.121 41.9923 397.339 40.3661 396.497 38.7948C396.065 37.9882 396.369 36.9838 397.176 36.5519C397.982 36.1213 398.986 36.424 399.419 37.2307C400.305 38.8852 401.129 40.5983 401.869 42.3219C402.23 43.1627 401.841 44.137 401 44.4985C400.821 44.5754 400.635 44.6183 400.451 44.6299C399.772 44.673 399.108 44.2909 398.824 43.6294ZM391.855 31.414C390.802 29.9735 389.675 28.5625 388.505 27.219C387.904 26.5288 387.976 25.482 388.666 24.8812C389.356 24.2808 390.402 24.3532 391.004 25.042C392.236 26.4568 393.422 27.9427 394.53 29.458C395.07 30.1968 394.909 31.2337 394.17 31.7735C393.906 31.9667 393.603 32.0702 393.299 32.0895C392.753 32.1242 392.201 31.8881 391.855 31.414ZM382.338 21.0556C380.995 19.8878 379.583 18.7607 378.142 17.707C377.403 17.1664 377.242 16.1297 377.782 15.3912C378.322 14.652 379.359 14.4915 380.098 15.0322C381.614 16.1409 383.1 17.3269 384.513 18.5557C385.203 19.1558 385.276 20.2026 384.675 20.8932C384.373 21.2412 383.957 21.4324 383.53 21.4595C383.11 21.4859 382.68 21.3536 382.338 21.0556ZM370.766 13.0613C369.196 12.2179 367.571 11.432 365.934 10.7244C365.094 10.3614 364.707 9.3858 365.071 8.54633C365.434 7.70619 366.408 7.31928 367.249 7.6823C368.971 8.42651 370.682 9.25437 372.334 10.1418C373.14 10.5752 373.443 11.5794 373.01 12.3857C372.729 12.9095 372.206 13.2201 371.654 13.2553C371.355 13.2743 371.049 13.2134 370.766 13.0613ZM309.24 12.29C308.81 11.4826 309.115 10.4787 309.923 10.0481C311.577 9.16618 313.292 8.34438 315.02 7.60622C315.862 7.24674 316.836 7.63753 317.195 8.47935C317.554 9.32034 317.164 10.2941 316.322 10.6536C314.681 11.3544 313.052 12.1349 311.482 12.9726C311.266 13.0875 311.037 13.15 310.808 13.1644C310.18 13.2043 309.556 12.882 309.24 12.29ZM357.718 7.8341C356.001 7.36135 354.242 6.95727 352.491 6.63397C351.591 6.46736 350.996 5.60297 351.162 4.70325C351.329 3.80286 352.193 3.21298 353.093 3.37505C354.937 3.71585 356.789 4.14114 358.598 4.6393C359.48 4.88232 359.998 5.79433 359.755 6.67689C359.562 7.37667 358.949 7.84756 358.263 7.89099C358.084 7.90226 357.901 7.88408 357.718 7.8341ZM322.526 6.63044C322.288 5.74738 322.81 4.83739 323.694 4.59841C325.503 4.10933 327.358 3.69195 329.206 3.35687C330.106 3.18942 330.968 3.79175 331.132 4.69181C331.295 5.59204 330.697 6.45423 329.796 6.61781C328.04 6.93623 326.278 7.33274 324.558 7.79792C324.448 7.82754 324.338 7.84487 324.229 7.85194C323.459 7.90075 322.735 7.40393 322.526 6.63044ZM343.832 5.65431C342.053 5.57773 340.248 5.57689 338.466 5.65246C337.551 5.69167 336.779 4.98196 336.74 4.06726C336.702 3.16501 337.392 2.4006 338.29 2.34355C338.301 2.34288 338.313 2.34204 338.325 2.34204C340.201 2.26193 342.102 2.26243 343.974 2.34271C344.888 2.3826 345.597 3.15542 345.558 4.06978C345.522 4.92356 344.844 5.59893 344.01 5.65195C343.951 5.65582 343.892 5.65633 343.832 5.65431Z" fill="#665500"/>
<path d="M301.08 19.5456C301.406 19.5249 301.729 19.4085 302.004 19.19C302.673 18.6585 303.364 18.1328 304.058 17.6257C304.797 17.0864 304.959 16.0496 304.42 15.3107C303.881 14.5712 302.844 14.4082 302.105 14.9492C301.374 15.4821 300.647 16.0353 299.943 16.5943C299.227 17.1632 299.107 18.206 299.676 18.9221C300.026 19.3642 300.557 19.5789 301.08 19.5456Z" fill="#665500"/>
</g>
<g opacity="0.3">
<path d="M276.923 63.913C277.721 63.8624 278.387 63.239 278.466 62.4175C278.547 61.5673 278.648 60.7043 278.765 59.853C278.89 58.9462 278.256 58.1103 277.349 57.9856C276.439 57.8605 275.607 58.495 275.482 59.4013C275.359 60.2975 275.253 61.2065 275.167 62.1016C275.08 63.0126 275.747 63.8216 276.658 63.9092C276.748 63.9176 276.836 63.9186 276.923 63.913Z" fill="#665500"/>
<path d="M341.923 134.65C341.008 134.664 340.255 133.933 340.242 133.017C340.229 132.102 340.959 131.352 341.875 131.337C343.617 131.312 345.385 131.212 347.15 131.04C348.056 130.949 348.871 131.618 348.96 132.529C349.049 133.44 348.382 134.25 347.471 134.339C346.707 134.414 345.943 134.475 345.183 134.523C344.097 134.592 343 134.635 341.923 134.65ZM354.384 131.627C354.174 130.737 354.724 129.844 355.615 129.633C357.324 129.227 359.035 128.746 360.699 128.2C361.567 127.913 362.505 128.389 362.79 129.259C363.075 130.128 362.601 131.064 361.731 131.349C359.979 131.923 358.178 132.431 356.379 132.857C356.286 132.879 356.192 132.893 356.1 132.899C355.309 132.949 354.574 132.424 354.384 131.627ZM332.907 134.162C331.077 133.936 329.232 133.629 327.422 133.248C326.527 133.06 325.954 132.181 326.142 131.286C326.33 130.39 327.209 129.818 328.105 130.005C329.823 130.367 331.575 130.658 333.312 130.873C334.22 130.985 334.866 131.812 334.754 132.72C334.655 133.524 333.996 134.121 333.216 134.171C333.115 134.177 333.011 134.175 332.907 134.162ZM367.886 127.192C367.485 126.37 367.826 125.377 368.648 124.976C370.224 124.207 371.787 123.361 373.291 122.462C374.077 121.992 375.094 122.248 375.564 123.034C376.033 123.82 375.777 124.837 374.992 125.306C373.407 126.253 371.762 127.144 370.102 127.954C369.901 128.052 369.691 128.106 369.481 128.12C368.83 128.161 368.189 127.814 367.886 127.192ZM318.742 130.789C317.008 130.167 315.276 129.461 313.594 128.693C312.762 128.312 312.396 127.33 312.776 126.497C313.157 125.664 314.14 125.298 314.972 125.679C316.569 126.409 318.214 127.079 319.861 127.669C320.723 127.979 321.17 128.928 320.861 129.789C320.631 130.431 320.045 130.843 319.406 130.883C319.187 130.897 318.961 130.868 318.742 130.789ZM305.66 124.391C304.1 123.403 302.564 122.337 301.093 121.223C300.364 120.67 300.22 119.631 300.773 118.901C301.327 118.171 302.366 118.028 303.094 118.581C304.491 119.639 305.951 120.652 307.434 121.592C308.207 122.082 308.436 123.106 307.946 123.879C307.651 124.344 307.161 124.613 306.65 124.645C306.313 124.667 305.967 124.586 305.66 124.391ZM294.282 115.294C292.974 113.989 291.706 112.613 290.515 111.207C289.923 110.508 290.01 109.463 290.707 108.872C291.407 108.279 292.452 108.367 293.043 109.064C294.175 110.401 295.38 111.707 296.623 112.948C297.271 113.595 297.272 114.644 296.626 115.291C296.329 115.589 295.947 115.75 295.558 115.775C295.1 115.804 294.633 115.644 294.282 115.294ZM285.161 103.932C284.169 102.372 283.234 100.752 282.379 99.1162C281.955 98.3052 282.269 97.304 283.081 96.8802C283.89 96.4571 284.892 96.771 285.316 97.582C286.128 99.1351 287.016 100.674 287.958 102.155C288.449 102.928 288.22 103.951 287.448 104.442C287.204 104.597 286.935 104.68 286.666 104.697C286.082 104.734 285.497 104.461 285.161 103.932ZM278.755 90.8367C278.133 89.101 277.578 87.3157 277.104 85.5301C276.869 84.6455 277.396 83.7377 278.281 83.5033C279.163 83.2695 280.072 83.7949 280.307 84.6795C280.757 86.3761 281.285 88.0715 281.875 89.7203C282.183 90.5815 281.735 91.5302 280.873 91.8385C280.724 91.8922 280.571 91.9234 280.419 91.933C279.701 91.9784 279.01 91.5482 278.755 90.8367ZM275.385 76.669C275.216 75.3209 275.087 73.951 275.001 72.5977C274.97 72.1075 274.945 71.6189 274.924 71.1303C274.886 70.2165 275.584 69.4268 276.511 69.4063C277.425 69.3677 278.197 70.0781 278.236 70.9928C278.255 71.4567 278.279 71.922 278.309 72.3877C278.39 73.6745 278.513 74.9761 278.673 76.2579C278.787 77.1657 278.142 77.9939 277.235 78.1073C277.2 78.1113 277.166 78.1149 277.132 78.117C276.265 78.1722 275.494 77.5428 275.385 76.669Z" fill="#665500"/>
<path d="M381.51 120.486C381.839 120.465 382.165 120.347 382.441 120.125C383.141 119.564 383.842 118.977 384.525 118.381C385.215 117.78 385.286 116.733 384.684 116.043C384.083 115.354 383.037 115.282 382.347 115.884C381.698 116.45 381.032 117.007 380.367 117.54C379.654 118.112 379.539 119.155 380.111 119.869C380.463 120.307 380.99 120.519 381.51 120.486Z" fill="#665500"/>
</g>
<path d="M384.64 92.2526C384.833 91.9837 384.833 91.6228 384.642 91.3534L379.183 83.6694C380.861 79.5998 381.901 75.2335 382.199 70.7133L390.482 66.2272C390.772 66.0698 390.931 65.7453 390.877 65.4195L389.027 54.2661C388.973 53.9401 388.718 53.6843 388.392 53.6292L379.105 52.0568C377.364 47.8748 374.97 44.0778 372.068 40.7678L374.754 31.7332C374.849 31.4165 374.731 31.075 374.463 30.8828L365.268 24.3038C365 24.1116 364.638 24.111 364.369 24.3023L356.685 29.7611C352.616 28.0835 348.249 27.0427 343.729 26.7452L339.243 18.4626C339.086 18.1719 338.761 18.0132 338.435 18.0674L327.281 19.917C326.955 19.9712 326.7 20.226 326.645 20.5516L325.072 29.8392C320.89 31.5799 317.093 33.9742 313.783 36.8757L304.748 34.1893C304.432 34.0953 304.09 34.2122 303.898 34.481L297.319 43.6756C297.127 43.9442 297.126 44.3054 297.317 44.5747L302.776 52.2588C301.099 56.3282 300.058 60.6946 299.761 65.2149L291.478 69.701C291.187 69.8582 291.029 70.1827 291.083 70.5085L292.932 81.6623C292.987 81.9883 293.241 82.2439 293.567 82.2991L302.855 83.8717C304.595 88.0537 306.99 91.8505 309.891 95.1608L307.205 104.195C307.111 104.512 307.228 104.854 307.497 105.046L316.691 111.625C316.96 111.817 317.321 111.818 317.59 111.626L325.274 106.167C329.344 107.845 333.71 108.886 338.23 109.183L342.716 117.466C342.874 117.756 343.198 117.915 343.524 117.861L354.678 116.011C355.004 115.957 355.259 115.703 355.315 115.377L356.887 106.089C361.069 104.348 364.866 101.954 368.176 99.0528L377.211 101.739C377.527 101.833 377.869 101.716 378.061 101.447L384.64 92.2526Z" fill="#665500"/>
<path d="M340.039 79.2892C333.794 78.7698 329.136 73.2675 329.655 67.0222C329.906 63.997 331.321 61.2507 333.638 59.2897C335.954 57.3287 338.896 56.3864 341.921 56.6387C348.166 57.158 352.824 62.6604 352.305 68.9057C351.833 74.5871 347.236 78.9551 341.708 79.306C341.159 79.3407 340.602 79.3358 340.039 79.2892ZM335.35 61.3133C333.574 62.8172 332.49 64.9225 332.297 67.2423C331.899 72.0299 335.47 76.2496 340.258 76.6474C345.047 77.0472 349.265 73.4737 349.663 68.6856C350.061 63.898 346.49 59.6783 341.702 59.2805C341.268 59.2444 340.836 59.2407 340.409 59.2678C338.555 59.3853 336.794 60.0913 335.35 61.3133Z" fill="#CCAA00"/>
<path d="M342.515 95.7019C343.464 95.6416 344.417 95.5332 345.368 95.3755C345.667 95.3261 345.966 95.2714 346.264 95.2123C347.732 94.92 349.175 94.5113 350.57 93.9928C350.589 93.9857 350.608 93.9787 350.627 93.9718C350.681 93.9516 350.735 93.9312 350.788 93.9103C350.893 93.8706 350.997 93.8296 351.102 93.7887C351.376 93.6805 351.537 93.4102 351.52 93.1311C351.515 93.0633 351.5 92.9948 351.474 92.9285C351.34 92.588 350.954 92.4226 350.614 92.5564C348.863 93.2493 347.025 93.7577 345.151 94.0679C335.846 95.6125 326.85 92.1054 320.971 85.5599C317.701 81.9196 315.395 77.3387 314.537 72.1634C314.386 71.2559 314.282 70.3475 314.225 69.4417C313.839 63.3466 315.547 57.3539 319.149 52.3202C323.286 46.5379 329.427 42.7126 336.441 41.5495C350.927 39.1488 364.655 48.9752 367.055 63.454C367.204 64.3468 367.306 65.2437 367.362 66.1409C367.609 70.0289 367.001 73.9277 365.57 77.555C365.533 77.6487 365.519 77.7457 365.525 77.8399C365.541 78.088 365.697 78.3174 365.944 78.4145C366.285 78.5478 366.669 78.3827 366.803 78.0409C368.306 74.2326 368.944 70.1393 368.685 66.0576C368.626 65.1158 368.518 64.1745 368.363 63.2374C365.843 48.0359 351.42 37.7216 336.224 40.2413C328.861 41.4623 322.414 45.4781 318.071 51.5486C314.289 56.833 312.497 63.1243 312.902 69.523C312.962 70.4739 313.071 71.4274 313.229 72.3798C314.45 79.7437 318.466 86.191 324.536 90.5343C329.822 94.3161 336.115 96.108 342.515 95.7019Z" fill="#CCAA00"/>
<g opacity="0.3">
<path d="M464.836 112.841C465.278 112.813 465.667 112.499 465.769 112.045C465.96 111.198 466.129 110.333 466.269 109.475C466.36 108.917 465.983 108.391 465.424 108.299C464.866 108.206 464.341 108.587 464.249 109.144C464.115 109.962 463.955 110.786 463.772 111.595C463.648 112.146 463.994 112.693 464.545 112.819C464.643 112.84 464.741 112.847 464.836 112.841Z" fill="#665500"/>
<path d="M465.754 105.037C465.189 105.015 464.749 104.54 464.771 103.975C464.825 102.55 464.807 101.105 464.716 99.6814C464.697 99.3811 464.675 99.08 464.649 98.7783C464.602 98.2155 465.02 97.7204 465.583 97.6726C466.117 97.6487 466.641 98.0432 466.689 98.6068C466.715 98.9225 466.739 99.2376 466.759 99.5518C466.854 101.044 466.873 102.559 466.815 104.054C466.796 104.583 466.377 105.003 465.859 105.036C465.825 105.038 465.79 105.038 465.754 105.037ZM463.897 93.6358C463.542 91.9429 463.08 90.2567 462.523 88.6247C462.34 88.0895 462.625 87.5087 463.16 87.3255C463.692 87.1444 464.277 87.4278 464.459 87.963C465.044 89.6734 465.529 91.4412 465.9 93.2162C466.016 93.7696 465.661 94.3118 465.108 94.4281C465.059 94.4382 465.01 94.4443 464.962 94.4473C464.462 94.4791 464.002 94.1398 463.897 93.6358ZM460.538 83.8206C459.781 82.2684 458.919 80.7479 457.974 79.2997C457.666 78.8266 457.799 78.1923 458.272 77.8838C458.747 77.5743 459.38 77.7074 459.689 78.1815C460.679 79.6997 461.584 81.2957 462.378 82.9228C462.626 83.4307 462.415 84.044 461.907 84.2915C461.783 84.3515 461.653 84.3848 461.524 84.393C461.122 84.4186 460.726 84.2044 460.538 83.8206ZM454.871 75.1306C453.755 73.8094 452.546 72.5454 451.279 71.3759C450.864 70.9916 450.838 70.3444 451.222 69.9295C451.605 69.5157 452.252 69.4886 452.668 69.8718C453.997 71.0993 455.263 72.4239 456.435 73.8096C456.799 74.2411 456.745 74.8874 456.313 75.2524C456.139 75.3987 455.93 75.478 455.718 75.4914C455.406 75.5111 455.088 75.3881 454.871 75.1306ZM447.254 68.0873C445.85 67.0779 444.371 66.1462 442.858 65.317C442.362 65.046 442.181 64.4236 442.452 63.9278C442.724 63.4319 443.346 63.2493 443.841 63.5222C445.428 64.3908 446.978 65.368 448.449 66.4254C448.908 66.7558 449.012 67.3951 448.683 67.8536C448.496 68.1127 448.211 68.259 447.916 68.2778C447.688 68.2921 447.453 68.2309 447.254 68.0873ZM438.158 63.1067C436.552 62.4695 434.893 61.927 433.223 61.4943C432.677 61.3527 432.348 60.7938 432.49 60.247C432.632 59.7002 433.188 59.3725 433.738 59.5129C435.488 59.9666 437.229 60.5361 438.913 61.2043C439.438 61.4133 439.695 62.0079 439.487 62.5328C439.335 62.9128 438.982 63.1527 438.6 63.1771C438.453 63.1862 438.303 63.1646 438.158 63.1067ZM428.124 60.503C426.417 60.28 424.673 60.1612 422.94 60.1511C422.375 60.1469 421.92 59.6861 421.924 59.1211C421.927 58.5561 422.387 58.1093 422.953 58.1034C424.77 58.1153 426.598 58.2395 428.389 58.4735C428.949 58.547 429.344 59.0607 429.271 59.6211C429.207 60.1139 428.801 60.4791 428.322 60.5095C428.257 60.5136 428.191 60.5119 428.124 60.503ZM411.399 60.6073C411.265 60.0582 411.601 59.505 412.15 59.3708C413.67 58.9999 415.237 58.7062 416.802 58.4977C417.04 58.4647 417.277 58.4356 417.514 58.4075C418.071 58.3261 418.584 58.7441 418.648 59.3069C418.714 59.8685 418.311 60.3757 417.75 60.4414C417.527 60.4666 417.304 60.4947 417.077 60.5262C415.579 60.7253 414.085 61.0055 412.635 61.3589C412.575 61.3738 412.515 61.3825 412.456 61.3862C411.97 61.4172 411.518 61.0964 411.399 60.6073Z" fill="#665500"/>
</g>
<g opacity="0.3">
<path d="M424.827 146.458C423.046 146.548 421.243 146.529 419.47 146.405C418.906 146.364 418.481 145.875 418.521 145.311C418.561 144.747 419.054 144.328 419.615 144.362C421.306 144.482 423.025 144.499 424.724 144.414C425.289 144.385 425.769 144.82 425.798 145.384C425.826 145.944 425.398 146.422 424.841 146.457C424.836 146.458 424.831 146.458 424.827 146.458ZM428.973 145.031C428.877 144.475 429.251 143.945 429.808 143.85C431.483 143.561 433.158 143.168 434.786 142.681C435.325 142.522 435.898 142.827 436.059 143.37C436.221 143.911 435.914 144.481 435.372 144.643C433.666 145.153 431.911 145.565 430.155 145.867C430.118 145.873 430.081 145.877 430.044 145.88C429.53 145.912 429.062 145.552 428.973 145.031ZM414.155 145.699C412.404 145.356 410.658 144.903 408.968 144.352C408.431 144.177 408.137 143.599 408.312 143.062C408.487 142.524 409.062 142.232 409.602 142.405C411.214 142.931 412.878 143.363 414.549 143.692C415.104 143.8 415.465 144.339 415.356 144.892C415.265 145.358 414.87 145.688 414.417 145.717C414.332 145.722 414.244 145.717 414.155 145.699ZM439.058 142.268C438.831 141.751 439.067 141.147 439.584 140.92C441.141 140.237 442.671 139.452 444.132 138.585C444.618 138.298 445.246 138.458 445.534 138.943C445.822 139.429 445.662 140.057 445.176 140.346C443.644 141.255 442.039 142.079 440.406 142.794C440.293 142.844 440.176 142.871 440.06 142.878C439.643 142.905 439.235 142.672 439.058 142.268ZM403.987 142.385C402.373 141.632 400.789 140.773 399.277 139.83C398.797 139.531 398.651 138.899 398.95 138.42C399.249 137.94 399.88 137.793 400.36 138.093C401.802 138.993 403.313 139.812 404.852 140.53C405.364 140.769 405.586 141.377 405.347 141.89C405.183 142.241 404.845 142.456 404.483 142.479C404.318 142.489 404.147 142.46 403.987 142.385ZM394.909 136.728C393.52 135.608 392.186 134.394 390.946 133.12C390.551 132.715 390.56 132.068 390.965 131.673C391.369 131.279 392.018 131.287 392.412 131.693C393.595 132.907 394.868 134.065 396.193 135.134C396.633 135.489 396.702 136.133 396.348 136.573C396.16 136.805 395.892 136.935 395.615 136.952C395.369 136.968 395.116 136.895 394.909 136.728ZM387.446 129.059C386.364 127.638 385.361 126.139 384.463 124.603C384.178 124.115 384.342 123.488 384.831 123.203C385.318 122.918 385.945 123.083 386.23 123.57C387.086 125.035 388.043 126.464 389.074 127.818C389.417 128.267 389.33 128.91 388.88 129.252C388.713 129.38 388.52 129.447 388.326 129.459C387.996 129.48 387.662 129.341 387.446 129.059Z" fill="#665500"/>
<path d="M449.092 137.517C449.289 137.505 449.485 137.435 449.653 137.306C450.346 136.77 451.026 136.211 451.675 135.645C452.1 135.274 452.145 134.627 451.773 134.201C451.401 133.777 450.756 133.732 450.329 134.102C449.71 134.642 449.061 135.175 448.4 135.687C447.953 136.033 447.871 136.676 448.217 137.122C448.433 137.401 448.765 137.538 449.092 137.517Z" fill="#665500"/>
</g>
<path d="M451.807 118.224C451.936 118.044 451.936 117.803 451.808 117.623L448.156 112.481C449.278 109.758 449.974 106.836 450.174 103.811L455.716 100.809C455.91 100.704 456.017 100.487 455.98 100.269L454.743 92.8055C454.707 92.5874 454.536 92.416 454.318 92.3793L448.103 91.3271C446.939 88.5287 445.336 85.9879 443.395 83.7729L445.192 77.7273C445.255 77.5154 445.177 77.2869 444.997 77.1582L438.844 72.7558C438.665 72.6272 438.423 72.6267 438.243 72.7548L433.101 76.4075C430.378 75.285 427.456 74.5886 424.431 74.3895L421.429 68.8471C421.324 68.6527 421.107 68.5465 420.889 68.5827L413.426 69.8204C413.207 69.8565 413.036 70.0272 412.999 70.2452L411.947 76.4599C409.149 77.6247 406.608 79.2269 404.393 81.1685L398.348 79.3709C398.136 79.308 397.907 79.3862 397.779 79.5662L393.376 85.719C393.248 85.8987 393.247 86.1402 393.375 86.3204L397.028 91.4624C395.906 94.1855 395.209 97.1073 395.01 100.132L389.468 103.134C389.273 103.239 389.167 103.456 389.203 103.674L390.441 111.138C390.477 111.356 390.648 111.527 390.866 111.564L397.08 112.616C398.245 115.415 399.848 117.955 401.789 120.17L399.992 126.216C399.929 126.428 400.007 126.656 400.187 126.785L406.34 131.187C406.519 131.316 406.761 131.316 406.941 131.188L412.083 127.536C414.806 128.658 417.728 129.354 420.753 129.554L423.755 135.096C423.86 135.29 424.077 135.397 424.295 135.36L431.759 134.123C431.977 134.086 432.148 133.916 432.185 133.698L433.237 127.483C436.035 126.318 438.576 124.716 440.791 122.775L446.837 124.572C447.048 124.635 447.277 124.557 447.406 124.377L451.807 118.224Z" fill="#665500"/>
<path d="M421.951 109.686C419.889 109.515 418.018 108.552 416.683 106.973C415.347 105.396 414.705 103.391 414.877 101.33C415.23 97.0771 418.973 93.9104 423.233 94.2569C427.487 94.6117 430.66 98.36 430.306 102.612C430.134 104.673 429.171 106.544 427.593 107.88C426.31 108.966 424.746 109.593 423.098 109.697C422.719 109.721 422.336 109.718 421.951 109.686ZM416.916 101.499C416.79 103.016 417.262 104.49 418.245 105.651C419.227 106.812 420.604 107.52 422.119 107.647C423.635 107.771 425.109 107.3 426.271 106.317C427.431 105.336 428.14 103.959 428.266 102.443C428.526 99.3144 426.192 96.5574 423.063 96.2965C422.781 96.2734 422.502 96.2711 422.227 96.2884C419.457 96.4643 417.153 98.6535 416.916 101.499Z" fill="#CCAA00"/>
<path d="M423.677 121.109C424.323 121.068 424.972 120.994 425.624 120.886C426.919 120.672 428.193 120.326 429.415 119.856C429.47 119.834 429.524 119.813 429.579 119.791C430.002 119.624 430.251 119.206 430.225 118.776C430.218 118.671 430.195 118.565 430.154 118.463C429.947 117.937 429.352 117.683 428.826 117.888C427.69 118.338 426.5 118.667 425.291 118.867H425.29C425.224 118.878 425.157 118.888 425.091 118.898C422.223 119.346 419.351 119.061 416.689 118.109C415.243 117.591 413.859 116.876 412.571 115.972C412.56 115.964 412.55 115.957 412.539 115.95C412.507 115.927 412.475 115.904 412.444 115.881C408.701 113.203 406.224 109.227 405.471 104.686C405.373 104.099 405.306 103.511 405.269 102.925C405.019 98.9789 406.125 95.0993 408.457 91.8399C411.135 88.0968 415.111 85.6213 419.651 84.8683C424.189 84.1176 428.754 85.1758 432.498 87.8534C436.241 90.5319 438.717 94.5076 439.47 99.0484C439.567 99.626 439.632 100.207 439.669 100.787C439.828 103.305 439.435 105.828 438.509 108.176C438.452 108.321 438.43 108.471 438.44 108.617C438.464 109 438.704 109.354 439.085 109.504C439.611 109.71 440.205 109.454 440.413 108.927C441.449 106.3 441.89 103.476 441.712 100.66C441.671 100.01 441.597 99.3605 441.49 98.7144C440.647 93.6336 437.877 89.1858 433.688 86.1891C429.501 83.1933 424.399 82.0029 419.317 82.8493C414.237 83.6914 409.789 86.4613 406.792 90.6502C404.183 94.2959 402.947 98.6363 403.226 103.051C403.268 103.706 403.343 104.364 403.452 105.021C405.083 114.857 413.933 121.728 423.677 121.109Z" fill="#CCAA00"/>
<defs>
<linearGradient id="paint0_linear_194_350" x1="99.4395" y1="235.789" x2="134.862" y2="235.789" gradientUnits="userSpaceOnUse">
<stop stop-color="#DAE3FE"/>
<stop offset="1" stop-color="#E9EFFD"/>
</linearGradient>
<linearGradient id="paint1_linear_194_350" x1="60.0478" y1="235.785" x2="95.3971" y2="235.785" gradientUnits="userSpaceOnUse">
<stop stop-color="#DAE3FE"/>
<stop offset="1" stop-color="#E9EFFD"/>
</linearGradient>
<linearGradient id="paint2_linear_194_350" x1="99.0009" y1="261.561" x2="134.361" y2="261.561" gradientUnits="userSpaceOnUse">
<stop stop-color="#DAE3FE"/>
<stop offset="1" stop-color="#E9EFFD"/>
</linearGradient>
<linearGradient id="paint3_linear_194_350" x1="59.6768" y1="261.544" x2="94.9641" y2="261.544" gradientUnits="userSpaceOnUse">
<stop stop-color="#DAE3FE"/>
<stop offset="1" stop-color="#E9EFFD"/>
</linearGradient>
<linearGradient id="paint4_linear_194_350" x1="98.5635" y1="287.109" x2="133.862" y2="287.109" gradientUnits="userSpaceOnUse">
<stop stop-color="#DAE3FE"/>
<stop offset="1" stop-color="#E9EFFD"/>
</linearGradient>
<linearGradient id="paint5_linear_194_350" x1="59.3076" y1="287.08" x2="94.533" y2="287.08" gradientUnits="userSpaceOnUse">
<stop stop-color="#DAE3FE"/>
<stop offset="1" stop-color="#E9EFFD"/>
</linearGradient>
<linearGradient id="paint6_linear_194_350" x1="58.5723" y1="337.887" x2="93.6748" y2="337.887" gradientUnits="userSpaceOnUse">
<stop stop-color="#DAE3FE"/>
<stop offset="1" stop-color="#E9EFFD"/>
</linearGradient>
<linearGradient id="paint7_linear_194_350" x1="97.2588" y1="363.226" x2="132.372" y2="363.226" gradientUnits="userSpaceOnUse">
<stop stop-color="#DAE3FE"/>
<stop offset="1" stop-color="#E9EFFD"/>
</linearGradient>
<linearGradient id="paint8_linear_194_350" x1="58.207" y1="363.159" x2="93.2485" y2="363.159" gradientUnits="userSpaceOnUse">
<stop stop-color="#DAE3FE"/>
<stop offset="1" stop-color="#E9EFFD"/>
</linearGradient>
<linearGradient id="paint9_linear_194_350" x1="96.8282" y1="388.423" x2="131.881" y2="388.423" gradientUnits="userSpaceOnUse">
<stop stop-color="#DAE3FE"/>
<stop offset="1" stop-color="#E9EFFD"/>
</linearGradient>
<linearGradient id="paint10_linear_194_350" x1="57.8438" y1="388.343" x2="92.8243" y2="388.343" gradientUnits="userSpaceOnUse">
<stop stop-color="#DAE3FE"/>
<stop offset="1" stop-color="#E9EFFD"/>
</linearGradient>
<linearGradient id="paint11_linear_194_350" x1="57.4804" y1="413.441" x2="92.4003" y2="413.441" gradientUnits="userSpaceOnUse">
<stop stop-color="#DAE3FE"/>
<stop offset="1" stop-color="#E9EFFD"/>
</linearGradient>
<linearGradient id="paint12_linear_194_350" x1="313.247" y1="82.0325" x2="367.943" y2="-44.188" gradientUnits="userSpaceOnUse">
<stop stop-color="#FFD502"/>
<stop offset="1" stop-color="#625306"/>
</linearGradient>
<linearGradient id="paint13_linear_194_350" x1="79.0244" y1="457.525" x2="98.9847" y2="457.525" gradientUnits="userSpaceOnUse">
<stop stop-color="#FFD502"/>
<stop offset="1" stop-color="#1A0F91"/>
</linearGradient>
<linearGradient id="paint14_linear_194_350" x1="84.5741" y1="434.801" x2="80.7613" y2="468.076" gradientUnits="userSpaceOnUse">
<stop stop-color="#FEBBBA"/>
<stop offset="1" stop-color="#FF928E"/>
</linearGradient>
<linearGradient id="paint15_linear_194_350" x1="109.418" y1="458.032" x2="138.151" y2="458.032" gradientUnits="userSpaceOnUse">
<stop stop-color="#09005D"/>
<stop offset="1" stop-color="#1A0F91"/>
</linearGradient>
<linearGradient id="paint16_linear_194_350" x1="115.113" y1="438.315" x2="113.401" y2="471.764" gradientUnits="userSpaceOnUse">
<stop stop-color="#FEBBBA"/>
<stop offset="1" stop-color="#FF928E"/>
</linearGradient>
<linearGradient id="paint17_linear_194_350" x1="109.848" y1="466.192" x2="70.383" y2="278.011" gradientUnits="userSpaceOnUse">
<stop stop-color="#09005D"/>
<stop offset="1" stop-color="#1A0F91"/>
</linearGradient>
<linearGradient id="paint18_linear_194_350" x1="150.152" y1="209.068" x2="62.9516" y2="305.27" gradientUnits="userSpaceOnUse">
<stop stop-color="#4042E2"/>
<stop offset="1" stop-color="#4F52FF"/>
</linearGradient>
<linearGradient id="paint19_linear_194_350" x1="133.2" y1="214.41" x2="6.08866" y2="447.715" gradientUnits="userSpaceOnUse">
<stop stop-color="#4042E2"/>
<stop offset="1" stop-color="#4F52FF"/>
</linearGradient>
<linearGradient id="paint20_linear_194_350" x1="99.7849" y1="240.858" x2="108.64" y2="216.677" gradientUnits="userSpaceOnUse">
<stop stop-color="#FEBBBA"/>
<stop offset="1" stop-color="#FF928E"/>
</linearGradient>
<linearGradient id="paint21_linear_194_350" x1="107.448" y1="162.915" x2="103.334" y2="194.332" gradientUnits="userSpaceOnUse">
<stop stop-color="#4042E2"/>
<stop offset="1" stop-color="#4F52FF"/>
</linearGradient>
<linearGradient id="paint22_linear_194_350" x1="114.644" y1="163.858" x2="110.53" y2="195.274" gradientUnits="userSpaceOnUse">
<stop stop-color="#4042E2"/>
<stop offset="1" stop-color="#4F52FF"/>
</linearGradient>
<linearGradient id="paint23_linear_194_350" x1="121.55" y1="204.585" x2="68.7889" y2="246.608" gradientUnits="userSpaceOnUse">
<stop stop-color="#FEBBBA"/>
<stop offset="1" stop-color="#FF928E"/>
</linearGradient>
<linearGradient id="paint24_linear_194_350" x1="101.182" y1="190.761" x2="125.365" y2="221.896" gradientUnits="userSpaceOnUse">
<stop stop-color="#09005D"/>
<stop offset="1" stop-color="#1A0F91"/>
</linearGradient>
<linearGradient id="paint25_linear_194_350" x1="116.241" y1="202.283" x2="90.2753" y2="222.15" gradientUnits="userSpaceOnUse">
<stop stop-color="#FEBBBA"/>
<stop offset="1" stop-color="#FF928E"/>
</linearGradient>
<linearGradient id="paint26_linear_194_350" x1="177.693" y1="215.409" x2="122.717" y2="262.898" gradientUnits="userSpaceOnUse">
<stop stop-color="#FEBBBA"/>
<stop offset="1" stop-color="#FF928E"/>
</linearGradient>
<linearGradient id="paint27_linear_194_350" x1="178.841" y1="219.836" x2="125.326" y2="266.062" gradientUnits="userSpaceOnUse">
<stop stop-color="#FEBBBA"/>
<stop offset="1" stop-color="#FF928E"/>
</linearGradient>
<linearGradient id="paint28_linear_194_350" x1="179.729" y1="217.765" x2="124.753" y2="265.254" gradientUnits="userSpaceOnUse">
<stop stop-color="#FEBBBA"/>
<stop offset="1" stop-color="#FF928E"/>
</linearGradient>
<linearGradient id="paint29_linear_194_350" x1="110.335" y1="120.664" x2="249.365" y2="304.186" gradientUnits="userSpaceOnUse">
<stop stop-color="#E1473D"/>
<stop offset="1" stop-color="#E9605A"/>
</linearGradient>
<linearGradient id="paint30_linear_194_350" x1="259.036" y1="153.143" x2="233.206" y2="279.821" gradientUnits="userSpaceOnUse">
<stop stop-color="#FE7062"/>
<stop offset="1" stop-color="#FF928E"/>
</linearGradient>
<linearGradient id="paint31_linear_194_350" x1="125.473" y1="213.075" x2="343.489" y2="229.375" gradientUnits="userSpaceOnUse">
<stop stop-color="#FF9085"/>
<stop offset="1" stop-color="#FB6FBB"/>
</linearGradient>
<linearGradient id="paint32_linear_194_350" x1="224.621" y1="204.799" x2="277.356" y2="70.7182" gradientUnits="userSpaceOnUse">
<stop stop-color="#FE7062"/>
<stop offset="1" stop-color="#FF928E"/>
</linearGradient>
<linearGradient id="paint33_linear_194_350" x1="253.669" y1="62.1483" x2="244.693" y2="79.5396" gradientUnits="userSpaceOnUse">
<stop stop-color="#FE7062"/>
<stop offset="1" stop-color="#FF928E"/>
</linearGradient>
<linearGradient id="paint34_linear_194_350" x1="144.901" y1="256.728" x2="118.755" y2="387.151" gradientUnits="userSpaceOnUse">
<stop stop-color="#FEBBBA"/>
<stop offset="1" stop-color="#FF928E"/>
</linearGradient>
</defs>
</svg>
