<svg width="25" height="19" viewBox="0 0 25 19" fill="none" xmlns="http://www.w3.org/2000/svg">
<g clip-path="url(#clip0_187_556)">
<mask id="mask0_187_556" style="mask-type:luminance" maskUnits="userSpaceOnUse" x="0" y="0" width="25" height="19">
<path d="M0.000976562 0H24.4986V18.375H0.000976562V0Z" fill="white"/>
</mask>
<g mask="url(#mask0_187_556)">
<path fill-rule="evenodd" clip-rule="evenodd" d="M-1.53125 0H26.0312V18.375H-1.53125V0Z" fill="#165D31"/>
<path fill-rule="evenodd" clip-rule="evenodd" d="M5.4137 5.20734C5.38499 5.63801 5.34192 6.39167 5.71158 6.47063C6.15301 6.51369 5.90896 5.72414 6.07046 5.58059C6.09917 5.50881 6.15301 5.50881 6.1566 5.59853V6.26965C6.1566 6.48498 6.30015 6.54958 6.40782 6.59265C6.52266 6.58547 6.60162 6.59265 6.64468 6.70031L6.7021 7.85952C6.7021 7.85952 6.96768 7.93847 6.98204 7.20993C6.9928 6.77927 6.8959 6.42397 6.95333 6.34143C6.95333 6.25888 7.06099 6.25529 7.13277 6.29477C7.24761 6.37373 7.29786 6.47421 7.4773 6.43833C7.75005 6.35937 7.91514 6.22658 7.91873 6.01843C7.91334 5.81387 7.87078 5.612 7.79312 5.42268C7.80748 5.38679 7.74288 5.28989 7.75723 5.254C7.80389 5.33295 7.87925 5.32578 7.89361 5.254C7.84695 5.10327 7.77518 4.95612 7.66033 4.89511C7.56343 4.80898 7.41988 4.82333 7.37322 5.00278C7.34451 5.20734 7.445 5.4478 7.59214 5.64877C7.62444 5.72414 7.66751 5.85334 7.64957 5.96818C7.56822 6.01125 7.49285 5.99689 7.42347 5.92512C7.42347 5.92512 7.20813 5.76362 7.20813 5.72414C7.26556 5.35808 7.2189 5.31501 7.1866 5.21093C7.16507 5.07097 7.09688 5.02431 7.04305 4.931C6.98921 4.87358 6.91744 4.87358 6.88155 4.931C6.78465 5.09609 6.8313 5.45139 6.89949 5.61289C6.94974 5.76003 7.0251 5.85334 6.98921 5.85334C6.9605 5.93588 6.89949 5.91435 6.85284 5.81745C6.80048 5.6135 6.77514 5.40354 6.77747 5.19299C6.75953 5.0279 6.73799 4.67619 6.62674 4.58288C6.56214 4.49675 6.46524 4.53981 6.42935 4.61877C6.41981 4.7791 6.42341 4.93994 6.44012 5.09968C6.51189 5.36525 6.53702 5.60212 6.57291 5.87128C6.58367 6.23376 6.36475 6.02919 6.37552 5.84616C6.4226 5.61606 6.41892 5.37846 6.36475 5.14992C6.32886 5.05661 6.28938 5.03508 6.19966 5.04943C6.13147 5.04943 5.95562 5.23964 5.90538 5.56264C5.90538 5.56264 5.86231 5.72773 5.84436 5.87487C5.81924 6.03996 5.71158 6.16198 5.63262 5.85334C5.56802 5.62724 5.52496 5.07814 5.41729 5.20734H5.4137Z" fill="white"/>
<path fill-rule="evenodd" clip-rule="evenodd" d="M6.61523 6.96978L5.4668 7.52246C5.47756 7.26047 6.00872 6.79033 6.37478 6.78674C6.60806 6.79033 6.55063 6.87646 6.61165 6.96978H6.61523Z" fill="white"/>
<path fill-rule="evenodd" clip-rule="evenodd" d="M6.41101 7.32825C5.80808 8.88941 7.82861 9.10833 8.05471 7.39285C8.07624 7.32107 8.16237 7.25289 8.17673 7.36773C8.13008 8.92171 6.61198 9.02579 6.35359 8.5377C6.29287 8.36974 6.26249 8.19232 6.26386 8.01373C6.22798 7.70867 6.06648 7.8271 6.04135 8.12857C6.01623 8.29725 6.02341 8.3439 6.02341 8.5054C6.10237 9.73279 8.0583 9.20523 8.37771 8.19317C8.54638 7.63331 8.349 7.22059 8.43872 7.22059C8.63252 7.42874 8.90527 7.2493 8.96628 7.17752C8.9914 7.14163 9.056 7.11651 9.09907 7.16316C9.2498 7.27083 9.51538 7.22059 9.5728 7.03038C9.6063 6.83897 9.62783 6.64517 9.6374 6.44898C9.51179 6.48487 9.42207 6.50999 9.4113 6.56382L9.38618 6.72891C9.37541 6.78274 9.27133 6.78274 9.26416 6.71456C9.2175 6.49922 9.0237 6.4741 8.90527 6.80428C8.8299 6.86888 8.68635 6.88323 8.67199 6.78633C8.68994 6.56382 8.60022 6.53511 8.42077 6.63919L8.24851 5.34002C8.32029 5.34002 8.39206 5.39385 8.46025 5.30772C8.38847 5.07444 8.22697 4.60071 8.13725 4.56482C8.09778 4.51458 8.06189 4.54688 8.00446 4.56124C7.91115 4.58995 7.82502 4.6689 7.85373 4.82681C7.9614 5.50152 8.03318 6.01473 8.14443 6.69302C8.16238 6.76839 8.09778 6.87247 8.01164 6.8617C7.86809 6.7648 7.8322 6.56741 7.58098 6.57459C7.40154 6.57459 7.20056 6.77198 7.17544 6.9586C7.14314 7.10933 7.13237 7.27083 7.17544 7.40003C7.30105 7.55076 7.45178 7.53641 7.58457 7.50411C7.69223 7.45745 7.78196 7.34979 7.82143 7.37491C7.84655 7.40721 7.82502 7.76609 7.30822 8.03885C6.99599 8.1824 6.74477 8.21111 6.61198 7.9563C6.52944 7.7948 6.61916 7.18829 6.41101 7.32825Z" fill="white"/>
<path fill-rule="evenodd" clip-rule="evenodd" d="M8.98423 5.74216C9.10266 5.69909 9.67688 5.03874 9.67688 5.03874L9.59075 4.96696C9.55964 4.94065 9.55964 4.91433 9.59075 4.88801C9.7343 4.80188 9.68765 4.62243 9.61587 4.5363C9.56692 4.51334 9.51341 4.50174 9.45934 4.50236C9.40528 4.50298 9.35205 4.51581 9.30364 4.53989C9.20315 4.63679 9.18162 4.79111 9.26057 4.88442C9.33594 4.92031 9.4113 4.99926 9.36106 5.04233C9.12419 5.29355 8.48179 5.7278 8.55715 5.74216C8.57151 5.76369 8.96987 5.76369 8.98064 5.74216H8.98423ZM5.50303 8.07492C5.2877 8.41945 5.26975 8.93266 5.38818 9.08698C5.45278 9.15876 5.55686 9.19106 5.63223 9.16594C5.7686 9.10852 5.82961 8.83217 5.79731 8.73527C5.75425 8.6635 5.71118 8.65512 5.66812 8.71015C5.57481 8.90395 5.53533 8.77116 5.52456 8.6635C5.51427 8.48116 5.5239 8.29824 5.55327 8.11799C5.57839 7.96726 5.55327 8.01032 5.50303 8.07492ZM14.73 7.52583C14.5219 7.07363 14.2312 6.62861 14.1414 6.45993C13.8617 6.01781 13.5648 5.58681 13.2514 5.16794C13.0289 4.90236 13.6175 5.2792 13.1796 4.74804L12.8602 4.47888C12.7884 4.42863 12.6162 4.33532 12.5875 4.48606C12.5731 4.62243 12.5803 4.69421 12.6018 4.80546C12.6198 4.87724 12.7274 5.00285 12.7812 5.07463C13.517 6.04917 14.1632 7.08818 14.7121 8.179C14.8054 8.13234 14.7838 7.60119 14.73 7.52583Z" fill="white"/>
<path fill-rule="evenodd" clip-rule="evenodd" d="M13.8153 9.02609C13.7722 9.07275 13.9158 9.27014 14.1024 9.27014C14.4111 9.23425 14.6838 9.06198 14.935 8.60261C15.0371 8.44979 15.1022 8.27532 15.1252 8.09299C15.1556 7.22176 15.0858 6.34993 14.9171 5.49465C14.9063 5.42287 14.9171 5.33674 14.9243 5.31521C14.9458 5.29008 15.014 5.31521 15.0499 5.25419C15.1037 5.20036 14.9063 4.75175 14.7987 4.58308C14.7628 4.50412 14.7448 4.45388 14.6802 4.59025C14.6023 4.74073 14.5651 4.90903 14.5726 5.07834C14.7197 6.10117 14.7664 6.99479 14.8597 8.01762C14.8704 8.11811 14.8561 8.26167 14.7879 8.31909C14.5172 8.62076 14.1858 8.86171 13.8153 9.02609ZM17.9963 9.0225C17.7738 9.1517 17.7738 9.29885 17.9533 9.30244C18.2619 9.26655 18.628 9.24143 18.8792 8.86101C18.9679 8.68183 19.0192 8.48645 19.0299 8.28679C19.0751 7.42897 19.0185 6.56883 18.8613 5.72434C18.8541 5.65256 18.8218 5.48388 18.8325 5.46235C18.8541 5.4121 18.9546 5.46594 18.9905 5.40852C19.0407 5.35468 18.7285 4.95273 18.6172 4.78046C18.5813 4.70151 18.567 4.65126 18.4988 4.78764C18.4258 4.93929 18.4031 5.11031 18.4342 5.27573C18.5993 6.38828 18.7213 7.22089 18.7464 8.20424C18.7321 8.29755 18.7285 8.3478 18.6854 8.46623C18.5885 8.58825 18.4808 8.74616 18.3803 8.82153C18.2799 8.89331 18.0645 8.96508 17.9963 9.0225Z" fill="white"/>
<path fill-rule="evenodd" clip-rule="evenodd" d="M18.1605 8.02834C18.1629 7.76755 18.1617 7.54025 18.1569 7.34646C18.1546 7.17929 18.118 7.01438 18.0493 6.86196C17.9847 6.71482 18.0241 6.59638 17.9918 6.43847C17.9631 6.28056 17.9703 6.0437 17.9272 5.86067C17.9129 5.78889 17.877 5.55561 17.8878 5.53049C17.9057 5.48025 17.9739 5.53049 18.0098 5.47307C18.06 5.41923 17.8303 4.82707 17.7155 4.65839C17.676 4.58303 17.5971 4.60815 17.5073 4.73017C17.4176 4.81272 17.4499 4.99575 17.4858 5.1716C17.7047 6.33081 17.8734 7.38234 17.8375 8.48413C17.8232 8.57744 18.1605 8.2042 18.1605 8.02834ZM16.5204 6.59279C16.3804 6.58562 16.0897 6.31645 16.0036 6.16213C15.9895 6.12441 15.9835 6.08415 15.986 6.04396C15.9884 6.00378 15.9993 5.96456 16.018 5.92885C16.0718 5.89296 16.1507 5.85708 16.2118 5.89296C16.2118 5.89296 16.2728 5.9791 16.262 5.98986C16.3338 6.02575 16.3697 6.00781 16.3768 5.97551C16.3804 5.92168 16.3553 5.88938 16.3553 5.83195C16.3876 5.66687 16.5706 5.64174 16.6424 5.74582C16.6927 5.81042 16.7142 5.94321 16.7178 6.03293C16.7178 6.07959 16.646 6.02575 16.5994 6.03293C16.5599 6.04729 16.5491 6.09753 16.5455 6.1406C16.5383 6.25903 16.524 6.44924 16.5204 6.58921V6.59279ZM13.9436 8.31545C13.9795 7.96374 13.9292 7.33569 13.9257 7.12754C13.9065 6.59221 13.8621 6.05807 13.7929 5.5269C13.7498 5.22544 13.9149 5.5592 13.8934 5.38335C13.8395 5.08547 13.6744 4.8809 13.477 4.61174C13.416 4.52202 13.416 4.50407 13.3191 4.63327C13.2115 4.87373 13.3048 5.0424 13.3335 5.23261C13.4735 5.8499 13.556 6.41694 13.5955 6.98039C13.6368 7.5657 13.6416 8.15303 13.6098 8.73894C13.7175 8.74253 13.8826 8.57026 13.9436 8.31545Z" fill="white"/>
<path fill-rule="evenodd" clip-rule="evenodd" d="M18.6379 7.75229C18.3902 7.33598 18.0206 6.89096 17.9201 6.72229C17.5873 6.25756 17.2378 5.80506 16.8722 5.36569C16.5671 5.0427 17.0157 5.31186 16.8147 5.06064C16.6461 4.87761 16.5994 4.8166 16.4523 4.70534C16.3805 4.65869 16.3374 4.56897 16.3087 4.72329C16.2973 4.85696 16.2949 4.99125 16.3015 5.12524C16.3015 5.18625 16.3661 5.30468 16.4235 5.37646C17.1664 6.29162 17.9811 7.22473 18.6343 8.39829C18.7276 8.35163 18.6953 7.82407 18.6343 7.75229H18.6379Z" fill="white"/>
<path fill-rule="evenodd" clip-rule="evenodd" d="M7.46216 6.98785C7.44422 7.02015 7.40474 7.05963 7.4191 7.09911C7.44302 7.1326 7.47413 7.14815 7.51241 7.14576C7.55188 7.14576 7.60931 7.15653 7.62007 7.135C7.644 7.10628 7.65118 7.06681 7.64161 7.01656C7.59854 6.9089 7.4837 6.95196 7.46216 6.98785Z" fill="#165D31"/>
<path fill-rule="evenodd" clip-rule="evenodd" d="M15.7743 13.0097C16.1045 13.0241 16.3198 13.0276 16.6105 13.0599L16.9551 13.0241C17.3355 12.9882 17.3498 13.566 17.3498 13.566C17.3498 13.9069 17.217 13.9249 17.0484 13.9608C16.9515 13.9751 16.9048 13.9033 16.851 13.8316C16.7698 13.8576 16.6834 13.8625 16.5998 13.8459C16.461 13.8411 16.3234 13.8351 16.187 13.828C16.0435 13.8172 15.9645 13.8459 15.8174 13.8316C15.7887 13.8782 15.7456 13.9428 15.6595 13.9249C15.5877 13.9141 15.498 13.7095 15.5231 13.548C15.5769 13.4332 15.559 13.4727 15.559 13.4224C14.2096 13.3865 12.8494 13.3255 11.5287 13.3435C10.4951 13.3471 9.47585 13.3901 8.45303 13.4332C7.90752 13.426 7.49121 13.3399 7.2041 12.92C7.23281 12.92 8.59658 12.9953 8.99495 12.9702C9.73066 12.963 10.4054 12.902 11.1554 12.8805C12.6341 12.9056 14.1019 12.9056 15.5805 13.0097C15.437 12.9128 15.437 12.6867 15.6523 12.6293C15.6702 12.6149 15.681 12.7405 15.7133 12.7369C15.8892 12.7262 15.8102 12.963 15.7743 13.0097ZM9.83115 4.8558C9.60864 5.49461 9.96035 6.19803 10.2044 6.12984C10.3838 6.20162 10.4915 5.86427 10.5633 5.4982C10.6171 5.39413 10.653 5.38336 10.6781 5.43719C10.6709 5.92528 10.714 6.03653 10.8396 6.18368C11.1196 6.39901 11.3528 6.21239 11.3708 6.19444L11.5861 5.97552C11.6387 5.92289 11.6998 5.9193 11.7691 5.96476C11.8373 6.02577 11.8266 6.12984 11.9701 6.20162C12.0921 6.25187 12.3469 6.21598 12.408 6.1119C12.4869 5.97193 12.5084 5.92528 12.5443 5.87503C12.6018 5.79967 12.6987 5.83197 12.6987 5.85709C12.6879 5.90016 12.6305 5.93963 12.6699 6.01859C12.7417 6.06883 12.7561 6.03653 12.7956 6.02577C12.9391 5.95399 13.0468 5.64535 13.0468 5.64535C13.0504 5.5305 12.9858 5.53768 12.9427 5.56639L12.8314 5.64176C12.7597 5.65252 12.6269 5.69918 12.5587 5.5951C12.4905 5.47308 12.4905 5.29723 12.4403 5.17162C12.4403 5.16444 12.3469 4.97423 12.4331 4.96346C12.4761 4.97064 12.5659 4.99576 12.5802 4.9204C12.6233 4.84503 12.4869 4.63329 12.39 4.52562C12.3075 4.4359 12.1926 4.42513 12.0814 4.51844C12.0024 4.59022 12.0132 4.66917 11.9988 4.74454C11.9858 4.79859 11.9855 4.85493 11.9979 4.90911C12.0104 4.96329 12.0353 5.01384 12.0706 5.05677C12.1496 5.2075 12.2895 5.40489 12.2429 5.68482C12.2429 5.68482 12.1603 5.81402 12.0168 5.79608C11.9558 5.78531 11.8589 5.76019 11.8086 5.37259C11.7691 5.08548 11.8158 4.67635 11.6938 4.48614C11.6471 4.36771 11.6148 4.25645 11.5072 4.45384C11.4784 4.5328 11.3528 4.65123 11.4426 4.89168C11.5275 5.10837 11.5523 5.34396 11.5143 5.57357C11.4605 5.65252 11.4497 5.67765 11.3815 5.75301C11.2882 5.86068 11.1842 5.83197 11.1052 5.79249C11.0334 5.74583 10.976 5.72071 10.9401 5.55921C10.9473 5.30799 10.9616 4.89527 10.915 4.80914C10.8468 4.67276 10.7355 4.72301 10.6889 4.76607C10.4759 5.00356 10.333 5.29554 10.2762 5.60946C10.2116 5.81761 10.1434 5.7566 10.0967 5.67406C9.98188 5.56639 9.97112 4.71583 9.83115 4.8558Z" fill="white"/>
<path fill-rule="evenodd" clip-rule="evenodd" d="M10.5065 6.24816C10.6106 6.17638 10.5639 6.12614 10.7147 6.27687C10.9092 6.62111 11.0222 7.00542 11.0448 7.40019C11.0377 7.4935 11.1023 7.55092 11.1346 7.52939C11.1489 7.31405 11.6765 7.01259 12.161 6.96952C12.2327 6.95158 12.1969 6.81161 12.2076 6.73983C12.1789 6.47067 12.3584 6.22663 12.6096 6.20868C12.9541 6.25893 13.0689 6.44196 13.0761 6.7183C13.0367 7.25663 12.4768 7.34635 12.1646 7.38942C12.1179 7.40736 12.0964 7.4289 12.1646 7.45402L13.4781 7.4612L13.5463 7.49709C13.5534 7.53297 13.5247 7.50426 13.4745 7.5904C13.4027 7.71754 13.3575 7.85796 13.3417 8.00312C12.9505 8.13232 12.545 8.18256 12.1358 8.23639C11.9923 8.30817 11.9205 8.40507 11.9492 8.51273C11.9995 8.63117 12.3153 8.75319 12.3153 8.75678C12.3763 8.79267 12.4445 8.88239 12.2973 9.06542C11.6585 9.03671 11.1597 8.76396 10.9874 8.37995C10.9372 8.34047 10.8797 8.37995 10.8439 8.43019C10.5926 8.75319 10.3486 9.0403 9.92151 9.19821C9.67029 9.26281 9.40831 9.15873 9.28628 8.99364C9.20374 8.89674 9.20733 8.79267 9.17862 8.77113C9.03865 8.83214 7.85433 9.33459 8.00506 9.09772C8.29217 8.79267 8.79461 8.56298 9.23245 8.26151C9.26475 8.15744 9.32217 7.81291 9.49444 7.70165C9.50521 7.70165 9.46932 7.90263 9.47291 7.98876C9.47291 8.06054 9.46573 8.08566 9.48008 8.06772C9.51238 8.04977 10.0435 7.62987 10.0902 7.50067C10.1404 7.4289 10.101 7.24228 10.101 7.2351C10.0005 6.9767 9.8605 6.95517 9.81026 6.82597C9.7636 6.65729 9.78514 6.46349 9.88204 6.40607C9.97056 6.3319 10.0651 6.33788 10.1656 6.42401C10.2732 6.52091 10.3665 6.71112 10.3952 6.85109C10.3773 6.90492 10.2517 6.8152 10.2158 6.84032C10.2849 6.9197 10.3308 7.01654 10.3486 7.12025C10.4204 7.41454 10.3988 7.52939 10.3271 7.7196C10.0902 8.21845 9.78873 8.36559 9.52315 8.55221C9.51597 8.55221 9.51238 8.67782 9.60928 8.74601C9.64517 8.7819 9.78514 8.79984 9.94664 8.74601C10.291 8.55351 10.5697 8.26225 10.747 7.90981C10.7774 7.64113 10.748 7.36903 10.6608 7.11308C10.5567 6.87262 10.4347 6.53168 10.4347 6.5245C10.4311 6.37377 10.4419 6.32353 10.5065 6.24816ZM7.06836 4.86286C7.2191 4.93463 7.50621 4.90233 7.49185 4.65829L7.48467 4.54704C7.45596 4.47526 7.36983 4.4932 7.35189 4.56498C7.34471 4.5901 7.36265 4.62958 7.34112 4.64035C7.32676 4.6547 7.28011 4.64752 7.28011 4.57934C7.27772 4.55541 7.26934 4.53627 7.25499 4.52191C7.2502 4.51713 7.23943 4.51474 7.22269 4.51474C7.20115 4.51474 7.20115 4.51833 7.19039 4.53627C7.1856 4.55302 7.18201 4.57216 7.17962 4.59369C7.17723 4.61522 7.16766 4.62719 7.15091 4.62958C7.12938 4.62958 7.13296 4.62958 7.11502 4.6224C7.10545 4.61522 7.09947 4.60326 7.09708 4.58651L7.08631 4.52909C7.07913 4.51952 7.06717 4.51234 7.05042 4.50756C6.96788 4.50756 6.9607 4.60446 6.96788 4.64035C6.9607 4.64752 6.95711 4.8162 7.06836 4.86286Z" fill="white"/>
<path fill-rule="evenodd" clip-rule="evenodd" d="M11.4999 6.73627C11.6506 6.80805 12.0131 6.76857 11.9233 6.5353L11.9162 6.42045C11.8839 6.34868 11.8013 6.36662 11.7834 6.44199C11.7762 6.46352 11.7941 6.503 11.769 6.51376C11.7583 6.52812 11.708 6.52094 11.7116 6.45634C11.7092 6.43242 11.7008 6.41208 11.6865 6.39533C11.6793 6.39055 11.6673 6.38815 11.6506 6.38815C11.6326 6.38815 11.6326 6.39533 11.6219 6.41327C11.6147 6.43002 11.6111 6.44916 11.6111 6.4707C11.6063 6.48984 11.5956 6.5018 11.5788 6.50659C11.5609 6.50659 11.5645 6.50659 11.5501 6.49582C11.5381 6.48864 11.531 6.47787 11.5286 6.46352L11.5178 6.4061C11.5106 6.39413 11.4987 6.38696 11.4819 6.38456C11.3994 6.38456 11.3922 6.47787 11.3958 6.51376C11.3922 6.52094 11.3886 6.69321 11.5034 6.73627H11.4999ZM14.0838 5.96108C14.2346 6.03286 14.5181 6.00056 14.5073 5.7601L14.5002 5.64526C14.4679 5.57348 14.3853 5.59142 14.3674 5.6632C14.3602 5.68832 14.3781 5.7278 14.353 5.74216C14.3422 5.75292 14.292 5.74575 14.2956 5.67756C14.2932 5.65363 14.2848 5.63449 14.2705 5.62014C14.2633 5.61535 14.2513 5.61296 14.2346 5.61296C14.2178 5.61296 14.2083 5.62133 14.2059 5.63808L14.1951 5.69191C14.1927 5.71584 14.1819 5.7278 14.1628 5.7278C14.1341 5.7278 14.1484 5.7278 14.1341 5.72062C14.1221 5.71345 14.1149 5.70268 14.1126 5.68832C14.1126 5.6644 14.109 5.64406 14.1018 5.62731C14.0922 5.61774 14.0803 5.61176 14.0659 5.60937C13.9834 5.60937 13.9762 5.70268 13.9798 5.73857C13.9762 5.74575 13.9726 5.91442 14.0874 5.96108H14.0838ZM15.4225 7.90983C15.1605 8.20771 15.2753 8.69938 15.3364 8.80705C15.4225 8.97931 15.4907 9.09057 15.6594 9.1767C15.8137 9.28796 15.9357 9.21977 16.0003 9.14081C16.1546 8.97931 16.1582 8.5666 16.23 8.48764C16.2802 8.33691 16.4094 8.36203 16.4704 8.43022C16.5281 8.51074 16.6044 8.57602 16.6929 8.62043C16.8365 8.74604 17.0088 8.77116 17.181 8.65632C17.2959 8.58813 17.3712 8.50558 17.4394 8.33691C17.5112 8.13593 17.4753 7.20283 17.4574 6.65014L17.3066 5.87853C17.3066 5.87136 17.2887 5.51247 17.2708 5.42993C17.2708 5.39404 17.26 5.38327 17.2959 5.38686C17.3354 5.42275 17.3389 5.42275 17.3677 5.43351C17.4035 5.44069 17.4394 5.3725 17.4143 5.31508L17.0554 4.64755C17.0267 4.61884 16.9872 4.59013 16.9406 4.65473C16.9125 4.67919 16.8902 4.70959 16.8753 4.74373C16.8604 4.77786 16.8533 4.81489 16.8544 4.85212C16.8688 5.01242 16.8844 5.17153 16.9011 5.32944L17.0447 6.14052C17.0913 6.71474 17.1021 7.18847 17.1487 7.76628C17.1416 8.01032 17.0662 8.22206 16.9944 8.25436C16.9944 8.25436 16.8867 8.31537 16.815 8.24719C16.7611 8.22565 16.5494 7.89189 16.5494 7.89189C16.4417 7.79499 16.37 7.82011 16.2946 7.89189C16.0793 8.10004 15.9859 8.48046 15.8388 8.74604C15.8029 8.80705 15.6952 8.8537 15.5804 8.74245C15.2861 8.33691 15.4584 7.76269 15.4225 7.90983ZM14.152 4.54706C14.2884 4.6009 14.3817 4.87724 14.353 5.01362C14.3243 5.17512 14.2525 5.35456 14.2023 5.33303C14.1449 5.31149 14.2382 5.16794 14.1843 5.01721C14.1556 4.91672 13.969 4.73727 13.9905 4.68703C13.9546 4.57578 14.0695 4.52553 14.152 4.54348V4.54706Z" fill="white"/>
<path fill-rule="evenodd" clip-rule="evenodd" d="M15.8611 8.07519C15.8862 7.74501 15.8395 7.54404 15.8324 7.35024C15.8252 7.15644 15.6135 5.67783 15.5704 5.53427C15.5166 5.25434 15.7749 5.49838 15.7462 5.3333C15.6565 5.13232 15.4376 4.83444 15.3694 4.65859C15.3263 4.58681 15.3443 4.51503 15.251 4.64064C15.1702 4.86078 15.142 5.09672 15.1684 5.32971C15.3909 6.48891 15.617 7.45073 15.5812 8.55251C15.6888 8.55251 15.8072 8.31206 15.8611 8.07519ZM18.1723 5.01389C18.2979 5.0749 18.3697 5.41943 18.3553 5.51633C18.3302 5.69577 18.2656 5.88957 18.219 5.86445C18.1651 5.84291 18.2297 5.59887 18.2046 5.5235C18.1759 5.41584 18.0072 5.22204 18.0252 5.16462C17.9893 5.0426 18.0969 4.99235 18.1723 5.01389ZM8.99558 7.45073C9.11401 7.49738 9.18579 7.7486 9.17502 7.82038C9.14631 7.95317 9.0853 8.09672 9.03865 8.07519C8.99199 8.06083 9.04941 7.88139 9.02788 7.82397C9.01711 7.69118 8.85202 7.6194 8.85561 7.56198C8.8269 7.45432 8.92739 7.43637 8.99917 7.45073H8.99558Z" fill="white"/>
<path fill-rule="evenodd" clip-rule="evenodd" d="M11.852 7.83071C12.0027 7.83789 12.0781 7.95991 11.9381 8.01016C11.7946 8.05681 11.6618 8.09629 11.6582 8.29727C11.712 8.58438 11.5864 8.48389 11.5147 8.448C11.4285 8.3834 11.1845 8.23267 11.1486 7.90967C11.145 7.8343 11.206 7.76611 11.3029 7.76611C11.4465 7.80559 11.6618 7.80918 11.852 7.83071Z" fill="#165D31"/>
<path fill-rule="evenodd" clip-rule="evenodd" d="M5.84036 4.46478C6.01263 4.51503 6.0234 4.77343 6.01263 4.84879C5.98751 4.98517 5.9265 5.13231 5.88343 5.11437C5.83319 5.09643 5.88343 4.9098 5.85831 4.85238C5.83319 4.77343 5.68604 4.62269 5.7004 4.57963C5.6681 4.48991 5.77217 4.44684 5.84036 4.46478ZM9.28209 5.67064C9.14571 5.74242 9.09547 5.95775 9.17801 6.08695C9.25696 6.19462 9.37899 6.15514 9.39334 6.15514C9.52613 6.1695 9.60509 5.90751 9.60509 5.90751C9.60509 5.90751 9.60867 5.83573 9.45435 5.9757C9.38616 5.98646 9.38258 5.96134 9.36463 5.92545C9.3482 5.85713 9.3545 5.78531 9.38258 5.72089C9.4077 5.65629 9.35745 5.62758 9.28209 5.67064ZM10.287 4.3643C10.2152 4.41095 10.0824 4.55092 10.0788 4.70883C10.0752 4.79855 10.0573 4.79855 10.1147 4.85238C10.1614 4.91698 10.2008 4.91339 10.287 4.86674C10.3086 4.8534 10.3271 4.83562 10.3413 4.81459C10.3556 4.79355 10.3652 4.76974 10.3695 4.74472C10.391 4.64423 10.2618 4.79496 10.2475 4.68012C10.2188 4.57245 10.3013 4.52938 10.3803 4.4289C10.3803 4.35712 10.3803 4.31046 10.2834 4.3643H10.287ZM11.0909 4.50785C11.0593 4.63855 11.0401 4.77193 11.0335 4.90622C11.0119 5.0067 11.1411 5.04977 11.195 4.92057C11.2811 4.68729 11.2811 4.58681 11.2883 4.48991C11.2631 4.33559 11.1591 4.33917 11.0909 4.50785ZM16.1871 7.1026C16.2014 7.08466 16.9048 6.5858 16.9048 6.5858C16.9766 6.56068 16.9587 6.8442 16.9264 6.84061C16.7081 7.05076 16.4572 7.22408 16.1835 7.35382C16.1476 7.37894 16.1153 7.16361 16.1835 7.1026H16.1871ZM16.8223 7.09542C16.9479 7.15643 16.9982 7.51891 16.9838 7.61581C16.9838 7.80961 16.8654 7.96034 16.8151 7.93881C16.7649 7.91369 16.8223 7.69835 16.7972 7.62299C16.7685 7.51532 16.6644 7.31793 16.6823 7.26051C16.6464 7.13849 16.7469 7.07389 16.8259 7.09542H16.8223ZM12.6592 8.65299C12.7174 8.58504 12.7851 8.52582 12.8602 8.47714C12.932 8.44125 12.9966 8.50585 12.993 8.50226C13.0037 8.57404 12.9499 8.63505 12.9679 8.72836C12.9822 8.76425 12.993 8.80731 13.0612 8.79296C13.1724 8.70324 13.2765 8.69606 13.3842 8.69247C13.4739 8.69606 13.4775 8.8432 13.4201 8.8432C13.2155 8.88627 13.1258 8.94369 12.9786 8.99752C12.9068 9.04059 12.8494 8.98676 12.8494 8.98317C12.8494 8.97958 12.8099 8.94369 12.8351 8.85038C12.8422 8.77382 12.8135 8.73793 12.7489 8.74271C12.7059 8.77143 12.6628 8.78578 12.6413 8.73195C12.6269 8.69845 12.6329 8.67213 12.6592 8.65299ZM17.5616 8.84679C17.5903 8.88268 17.6118 8.91857 17.558 8.98317L17.4252 9.09801C17.4037 9.1339 17.3893 9.1985 17.4611 9.21644C17.5903 9.25233 17.8918 9.05495 17.8918 9.05136C17.942 9.01547 17.9277 8.94369 17.9205 8.94369C17.8918 8.91139 17.8272 8.93292 17.7841 8.92575C17.7626 8.92575 17.6944 8.91857 17.7267 8.85397C17.751 8.82237 17.7703 8.78728 17.7841 8.74989C17.8056 8.70922 17.7817 8.67692 17.7123 8.65299C17.637 8.63864 17.6047 8.64581 17.5221 8.65299C17.4838 8.65778 17.4611 8.68529 17.4539 8.73554C17.4575 8.81808 17.5078 8.81449 17.5616 8.8432V8.84679Z" fill="white"/>
<path fill-rule="evenodd" clip-rule="evenodd" d="M12.6839 6.80832C12.666 6.84421 12.6014 6.84421 12.5403 6.80832C12.4793 6.77243 12.4434 6.71501 12.465 6.68271C12.4865 6.65041 12.5475 6.65041 12.6085 6.68271C12.6695 6.71501 12.7018 6.77602 12.6839 6.80832ZM9.48981 4.88469C9.45392 4.89545 9.40368 4.86315 9.38214 4.81291C9.36061 4.76267 9.37138 4.7196 9.40726 4.70883C9.44315 4.69807 9.48981 4.73395 9.51493 4.78061C9.54005 4.82726 9.5257 4.87751 9.48622 4.88828L9.48981 4.88469ZM15.8098 13.4585C16.1472 13.4728 16.463 13.4585 16.7967 13.4764C16.8578 13.5303 16.8147 13.6559 16.7752 13.6487L16.4953 13.6379C16.4917 13.5303 16.2189 13.5482 16.2261 13.6415C16.079 13.6595 15.9462 13.6379 15.7954 13.6308C15.7524 13.5769 15.7596 13.48 15.8098 13.4585Z" fill="#165D31"/>
</g>
</g>
<defs>
<clipPath id="clip0_187_556">
<rect width="24.5" height="18.375" rx="4.45455" fill="white"/>
</clipPath>
</defs>
</svg>
