<svg width="644" height="960" viewBox="0 0 644 960" fill="none" xmlns="http://www.w3.org/2000/svg">
<g clip-path="url(#clip0_187_1270)">
<path d="M0 16C0 7.16343 7.16344 0 16 0H628C636.837 0 644 7.16344 644 16V944C644 952.837 636.837 960 628 960H16C7.16343 960 0 952.837 0 944V16Z" fill="#FFFBE5"/>
<g clip-path="url(#clip1_187_1270)">
<path d="M628.206 173.839H15.7959V786.16H628.206V173.839Z" fill="#FFFBE5"/>
<path d="M129.399 554.135L258.223 662.131L512.786 677.56L129.399 554.135Z" stroke="#FFDD33" stroke-width="2.31422" stroke-miterlimit="10" stroke-linecap="round" stroke-linejoin="round" stroke-dasharray="2.31 10.6"/>
<path d="M393.99 340.458L393.199 341.304" stroke="#FFDD33" stroke-width="2.31422" stroke-linecap="round" stroke-linejoin="round"/>
<path d="M386.024 348.977L109.864 644.335" stroke="#FFDD33" stroke-width="2.31422" stroke-linecap="round" stroke-linejoin="round" stroke-dasharray="2.29 10.51"/>
<path d="M106.277 648.173L105.486 649.017L106.592 648.676" stroke="#FFDD33" stroke-width="2.31422" stroke-linecap="round" stroke-linejoin="round"/>
<path d="M116.583 645.59L488.942 530.565" stroke="#FFDD33" stroke-width="2.31422" stroke-linecap="round" stroke-linejoin="round" stroke-dasharray="2.28 10.46"/>
<path d="M493.937 529.021L495.042 528.68L494.491 527.663" stroke="#FFDD33" stroke-width="2.31422" stroke-linecap="round" stroke-linejoin="round"/>
<path d="M489.346 518.163L397.885 349.311" stroke="#FFDD33" stroke-width="2.31422" stroke-linecap="round" stroke-linejoin="round" stroke-dasharray="2.36 10.8"/>
<path d="M395.312 344.561L394.762 343.544" stroke="#FFDD33" stroke-width="2.31422" stroke-linecap="round" stroke-linejoin="round"/>
<path d="M421.805 676.534C421.805 699.324 403.331 717.797 380.543 717.797C357.753 717.797 339.279 699.324 339.279 676.534C339.279 653.745 357.753 635.272 380.543 635.272C403.33 635.272 421.805 653.745 421.805 676.534Z" fill="#998000"/>
<path d="M385.285 640.906C385.285 643.274 383.365 645.195 380.997 645.195H380.599C378.231 645.195 376.312 643.274 376.312 640.906V629.196C376.312 626.827 378.231 624.907 380.599 624.907H380.997C383.365 624.907 385.285 626.827 385.285 629.196V640.906Z" fill="#998000"/>
<path d="M385.285 722.058C385.285 724.425 383.365 726.346 380.997 726.346H380.599C378.231 726.346 376.312 724.425 376.312 722.058V710.346C376.312 707.977 378.231 706.058 380.599 706.058H380.997C383.365 706.058 385.285 707.979 385.285 710.346V722.058Z" fill="#998000"/>
<path d="M350.562 676.759C350.562 679.12 348.609 681.088 346.19 681.088H334.853C332.436 681.088 330.274 679.119 330.274 676.759V676.442C330.274 674.081 332.436 672.115 334.853 672.115H346.19C348.609 672.115 350.562 674.081 350.562 676.442V676.759Z" fill="#998000"/>
<path d="M431.323 676.752C431.323 679.121 429.536 681.088 427.167 681.088H415.536C413.168 681.088 411.036 679.121 411.036 676.752V676.349C411.036 673.981 413.168 672.115 415.536 672.115H427.167C429.536 672.115 431.323 673.981 431.323 676.349V676.752Z" fill="#998000"/>
<path d="M356.162 657.878C354.485 659.555 351.767 659.555 350.09 657.878L341.993 649.782C340.316 648.105 340.316 645.387 341.993 643.71C343.67 642.034 346.388 642.034 348.065 643.71L356.161 651.807C357.839 653.483 357.839 656.202 356.162 657.878Z" fill="#998000"/>
<path d="M413.803 715.561C412.127 717.236 409.412 717.236 407.737 715.561L399.652 707.476C397.977 705.801 397.977 703.085 399.652 701.412C401.327 699.737 404.042 699.737 405.716 701.412L413.803 709.498C415.476 711.172 415.476 713.887 413.803 715.561Z" fill="#998000"/>
<path d="M401.558 653.185C403.232 654.859 405.947 654.859 407.621 653.185L415.708 645.099C417.383 643.425 417.383 640.71 415.708 639.035C414.033 637.36 411.318 637.36 409.642 639.035L401.558 647.12C399.883 648.796 399.883 651.512 401.558 653.185Z" fill="#998000"/>
<path d="M344.865 713.248C346.54 714.922 349.254 714.922 350.929 713.248L359.015 705.162C360.689 703.488 360.689 700.773 359.015 699.1C357.34 697.424 354.625 697.424 352.95 699.1L344.865 707.184C343.191 708.857 343.191 711.573 344.865 713.248Z" fill="#998000"/>
<path d="M406.874 677.673C406.874 692.309 395.01 704.173 380.374 704.173C365.739 704.173 353.876 692.309 353.876 677.673C353.876 663.039 365.739 651.175 380.374 651.175C395.01 651.175 406.874 663.039 406.874 677.673Z" fill="#61F7DA"/>
<path d="M396.882 677.674C396.882 686.79 389.492 694.182 380.374 694.182C371.256 694.182 363.867 686.791 363.867 677.674C363.867 668.557 371.258 661.166 380.374 661.166C389.492 661.167 396.882 668.557 396.882 677.674Z" fill="#998000"/>
<path d="M389.517 677.673C389.517 682.722 385.424 686.817 380.373 686.817C375.323 686.817 371.231 682.724 371.231 677.673C371.231 672.624 375.324 668.531 380.373 668.531C385.422 668.531 389.517 672.624 389.517 677.673Z" fill="#998000"/>
<path d="M325.166 414.019L350.382 467.07C354.329 475.376 362.107 480.049 367.676 477.464C373.241 474.88 374.571 465.979 370.622 457.672L345.406 404.621C343.022 399.605 339.235 395.923 335.383 394.356C335.356 394.345 335.329 394.335 335.302 394.324C333.207 393.488 331.095 393.267 329.182 393.823L329.169 393.829C328.81 393.936 328.458 394.067 328.114 394.226C325.332 395.517 323.608 398.394 323.075 401.979C322.956 402.779 322.896 403.621 322.9 404.491C322.898 407.492 323.635 410.8 325.166 414.019Z" fill="#332B00"/>
<path d="M348.134 472.629C346.514 465.21 350.96 458.073 358.064 456.685C365.168 455.299 372.24 460.188 373.86 467.606C374.317 469.701 374.276 471.769 373.843 473.696L373.893 473.699L370.705 516.561L363.652 517.938L349.178 475.678C348.73 474.72 348.369 473.705 348.134 472.629Z" fill="#332B00"/>
<path d="M358.967 486.093C362.668 480 367.736 472.81 373.964 468.261C374.281 470.131 374.23 471.971 373.842 473.697L373.892 473.699L370.705 516.561L363.651 517.938L355.074 492.897C356.321 490.578 357.623 488.306 358.967 486.093Z" fill="#EDC29F"/>
<path d="M292.954 389.341L236.88 371.851C228.1 369.113 219.39 371.651 217.509 377.496C215.63 383.337 221.264 390.354 230.044 393.093L286.118 410.582C291.419 412.236 296.694 411.953 300.459 410.188C300.486 410.176 300.511 410.162 300.536 410.15C302.573 409.179 304.168 407.778 305.058 405.996L305.063 405.981C305.227 405.646 305.371 405.298 305.488 404.937C306.428 402.016 305.485 398.8 303.215 395.975C302.708 395.343 302.13 394.729 301.489 394.141C299.288 392.106 296.358 390.402 292.954 389.341Z" fill="#332B00"/>
<path d="M238.16 370.5C241.09 378.787 237.976 387.687 231.205 390.376C224.434 393.065 216.569 388.527 213.64 380.238C212.813 377.896 212.483 375.511 212.566 373.225L212.517 373.23L207.984 323.412L214.708 320.742L236.582 367.15C237.195 368.185 237.734 369.296 238.16 370.5Z" fill="#332B00"/>
<path d="M228.551 350.115L214.706 320.742L207.982 323.412L212.515 373.23L212.564 373.225C212.481 375.511 212.811 377.896 213.639 380.238C213.897 380.968 214.206 381.659 214.537 382.328C224.268 376.449 227.815 363.332 228.551 350.115Z" fill="#EDC29F"/>
<path d="M217.535 331.836L208.513 334.48L197.735 308.816L199.728 291.953L206.33 290.41L208.825 307.256L215.787 319.596L216.666 311.892L213.53 301.295L216.797 299.584L222.135 315.023L217.535 331.836Z" fill="#EDC29F"/>
<path d="M384.663 604.769C384.663 606.138 382.908 606.946 380.343 606.946H355.948C353.382 606.946 351.397 606.138 351.397 604.769V529.142C351.397 527.774 353.382 526.739 355.948 526.739H380.343C382.909 526.739 384.663 527.773 384.663 529.142V604.769Z" fill="#998000"/>
<path d="M351.397 546.833V529.142C351.397 527.774 353.382 526.739 355.948 526.739H379.352C370.033 533.436 360.7 540.113 351.397 546.833Z" fill="#1DA9EF"/>
<path d="M410.23 627.132H351.392C351.332 627.606 351.263 625.193 351.309 623.437C351.323 622.873 351.354 622.381 351.399 622.07C351.656 620.235 352.358 618.472 353.173 616.696C353.263 616.488 353.354 616.294 353.444 616.094C354.041 614.79 354.562 613.663 355.008 612.568C355.853 610.409 356.366 608.341 356.366 605.289H379.167C379.114 605.328 379.514 607.979 380.299 609.671C381.107 611.421 381.703 612.536 383.1 613.547C383.395 613.761 383.734 613.975 384.126 614.188C384.746 614.525 385.38 614.791 386.036 614.985C387.032 615.264 388.075 615.412 389.124 615.465C390.77 615.556 392.462 615.445 394.114 615.42C394.794 615.4 395.473 615.414 396.138 615.439C401.865 615.704 413.16 620.591 410.23 627.132Z" fill="#1B211C"/>
<path d="M409.81 622.141C410.762 623.636 411.045 625.323 410.233 627.137H351.389C351.314 627.753 351.221 623.502 351.389 622.141H409.81Z" fill="#1B211C"/>
<path d="M309.628 546.821H370.026C378.067 546.821 384.646 540.242 384.646 532.2C384.646 524.158 378.067 517.579 370.026 517.579H309.628C301.587 517.579 295.008 524.158 295.008 532.2C295.008 540.24 301.587 546.821 309.628 546.821Z" fill="#998000"/>
<path d="M309.555 519.716V695.578C309.555 698.763 307.21 701.155 304.373 701.155H277.466C274.638 701.155 271.916 698.763 271.916 695.578V519.716C271.916 518.962 272.07 518.238 272.341 517.553C273.2 515.332 275.304 513.645 277.466 513.645H304.373C307.21 513.645 309.555 516.531 309.555 519.716Z" fill="#998000"/>
<path d="M275.288 555.624H305.698C311.356 552.027 316.614 547.933 321.304 543.314C332.904 531.893 340.362 517.665 342.086 502.287V420.637C342.086 418.007 340.197 416.059 337.866 416.059H275.288C272.959 416.059 271.07 418.007 271.07 420.637V550.859C271.07 553.49 272.959 555.624 275.288 555.624Z" fill="#1DA9EF"/>
<path d="M342.083 420.632V502.289C340.362 517.66 332.908 531.895 321.303 543.309C316.614 547.931 311.352 552.024 305.696 555.621H275.292C272.964 555.621 271.075 553.485 271.075 550.854V420.632C271.075 418.001 272.964 416.056 275.292 416.056H337.868C340.194 416.056 342.083 418.002 342.083 420.632Z" fill="#332B00"/>
<path d="M271.075 499.945V550.855C271.075 553.486 272.964 555.622 275.292 555.622H305.697C311.353 552.024 316.615 547.931 321.304 543.31C332.909 531.898 340.363 517.661 342.084 502.29V499.945H271.075Z" fill="#998000"/>
<path d="M348.748 422.674C348.748 425.891 348.366 428.992 347.659 431.954C347.613 432.105 347.579 432.255 347.544 432.394C347.475 432.683 347.394 432.984 347.313 433.274C346.596 435.854 345.624 438.33 344.409 440.679C341.759 445.863 337.986 450.363 333.428 453.881C327.4 458.521 319.995 461.449 311.941 461.912C311.177 461.958 310.402 461.982 309.626 461.982C308.712 461.982 307.821 461.958 306.908 461.888C299.827 461.403 293.265 459.019 287.712 455.235C285.223 453.546 282.944 451.579 280.907 449.368C280.294 448.697 279.715 448.025 279.149 447.32C275.007 442.171 272.136 435.935 271.026 429.107C271.014 429.05 271.003 428.992 271.003 428.934C270.91 428.39 270.829 427.845 270.771 427.302C270.771 427.255 270.76 427.198 270.76 427.151C270.587 425.681 270.506 424.189 270.506 422.673C270.506 413.555 273.595 405.166 278.802 398.489C278.917 398.338 279.033 398.188 279.15 398.037C286.324 389.105 297.316 383.377 309.627 383.377C322.124 383.377 333.255 389.267 340.418 398.431C345.209 404.553 348.218 412.132 348.691 420.405C348.724 421.157 348.748 421.91 348.748 422.674Z" fill="#332B00"/>
<path d="M270.632 504.628C270.632 504.628 304.939 504.32 308.927 546.699C311.036 569.106 309.391 605.722 309.391 605.722L271.669 632.355L270.632 504.628Z" fill="#998000"/>
<path d="M334.878 728.389H271.402C271.337 728.984 271.264 725.953 271.313 723.746C271.329 723.037 271.362 722.418 271.411 722.027C271.687 719.723 272.445 717.507 273.325 715.276C273.423 715.015 273.521 714.77 273.618 714.518C274.261 712.882 274.823 711.464 275.304 710.087C276.216 707.375 276.771 704.776 276.771 700.94H301.369C301.313 700.989 301.744 704.321 302.591 706.446C303.462 708.646 304.106 710.046 305.613 711.316C305.931 711.586 306.297 711.854 306.721 712.123C307.389 712.546 308.073 712.881 308.782 713.125C309.857 713.475 310.981 713.663 312.114 713.728C313.89 713.841 315.713 713.703 317.498 713.67C318.231 713.646 318.964 713.661 319.68 713.695C325.852 714.029 338.038 720.171 334.878 728.389Z" fill="#1B211C"/>
<path d="M334.425 722.118C335.45 723.998 335.756 726.117 334.88 728.396H271.398C271.318 729.17 271.217 723.828 271.398 722.118H334.425Z" fill="#1B211C"/>
<path d="M291.634 350.679V324.421C291.634 323.322 294.595 322.431 298.248 322.431H304.425C308.078 322.431 311.039 323.322 311.039 324.421V350.433C304.57 350.507 298.103 350.6 291.634 350.679Z" fill="#512C12"/>
<path d="M329.391 349.522V320.855H323.243C321.488 320.855 320.064 321.76 320.064 322.875V349.271C323.175 349.348 326.282 349.442 329.391 349.522Z" fill="#512C12"/>
<path d="M328.427 351.697H328.962C331.219 351.697 333.065 349.851 333.065 347.594V340.555C333.065 338.298 331.218 336.452 328.962 336.452H328.427C326.17 336.452 324.324 338.298 324.324 340.555V347.595C324.324 349.851 326.17 351.697 328.427 351.697Z" fill="#DB774F"/>
<path d="M291.34 351.471H291.875C294.132 351.471 295.978 349.626 295.978 347.369V340.328C295.978 338.071 294.132 336.225 291.875 336.225H291.34C289.083 336.225 287.237 338.071 287.237 340.328V347.369C287.237 349.624 289.084 351.471 291.34 351.471Z" fill="#DB774F"/>
<path d="M302.759 387.867H317.969V356.357H302.759V387.867Z" fill="#DE9371"/>
<path d="M320.331 361.924C320.475 361.587 320.675 361.271 320.946 361C321.135 360.811 321.352 360.664 321.579 360.538V356.356H306.369V361.924H320.331Z" fill="#FFDD33"/>
<path d="M317.967 370.949H302.758V387.867H317.967V370.949Z" fill="#DE9371"/>
<path d="M303.478 321.99C304.745 327.06 302.211 332.129 302.211 337.198C302.211 332.129 304.745 327.059 303.478 321.99C302.461 328.089 300.621 336.623 295.356 340.42V322.624C295.356 314.268 302.192 307.432 310.549 307.432C318.905 307.432 325.741 314.268 325.741 322.624V353.861C325.741 362.217 318.905 369.053 310.549 369.053C302.194 369.053 295.356 362.217 295.356 353.861V340.42C300.621 336.623 302.461 328.089 303.478 321.99Z" fill="#DE9371"/>
<path d="M310.551 307.432C302.194 307.432 295.358 314.268 295.358 322.624V323.397C297.903 321.767 300.791 320.725 303.962 320.447C304.436 319.946 305.083 319.583 305.926 319.503C314.756 318.668 322.233 321.952 325.744 328.701V322.624C325.743 314.268 318.906 307.432 310.551 307.432Z" fill="#3A1D09"/>
<path d="M306.377 326.723C309.153 324.109 311.66 318.907 311.641 316.193C311.618 312.576 319.624 311.942 319.313 317.898C319.253 319.053 319.433 320.94 319.263 322.06C321.401 322.235 323.59 322.22 325.728 322.335C325.572 314.113 318.809 307.432 310.551 307.432C302.196 307.432 295.358 314.268 295.358 322.624V330.567C299.161 330.198 303.038 329.868 306.377 326.723Z" fill="#512C12"/>
<path d="M316.515 323.503C314.637 323.065 312.727 322.845 310.866 322.83C310.845 322.83 310.823 322.831 310.802 322.832C310.781 322.832 310.759 322.83 310.738 322.834C308.878 322.843 306.967 323.065 305.09 323.503C299.622 324.778 297.217 329.783 296.899 335.613C296.899 340.993 295.239 344.276 299.349 347.923C302.099 350.364 303.752 351.823 304.119 355.605C304.361 358.099 303.969 362.893 305.473 364.933C307.297 367.402 312.77 367.248 315.146 365.713C317.841 363.972 316.644 358.146 316.906 355.454C317.273 351.672 320.023 349.922 322.773 347.481C326.883 343.832 324.706 340.992 324.706 335.612C324.387 329.783 321.982 324.778 316.515 323.503Z" fill="#EDC29F"/>
<path d="M317.227 341.769H321.346C321.782 341.769 322.138 341.413 322.138 340.977C322.138 340.541 321.782 340.185 321.346 340.185H317.227C316.792 340.185 316.436 340.541 316.436 340.977C316.436 341.411 316.792 341.769 317.227 341.769Z" fill="#3A1D09"/>
<path d="M300.19 341.618H304.309C304.745 341.618 305.101 341.262 305.101 340.826C305.101 340.391 304.745 340.034 304.309 340.034H300.19C299.755 340.034 299.398 340.391 299.398 340.826C299.398 341.262 299.755 341.618 300.19 341.618Z" fill="#3A1D09"/>
<path d="M297.803 339.523L306.567 334.482C307.54 333.923 307.878 332.67 307.318 331.697C306.759 330.723 305.506 330.386 304.533 330.945L295.769 335.985C294.796 336.545 294.458 337.798 295.017 338.771C295.578 339.744 296.83 340.082 297.803 339.523Z" fill="#3A1D09"/>
<path d="M314.937 333.805L324.132 338.009C325.153 338.475 326.369 338.022 326.836 337.001C327.302 335.98 326.849 334.764 325.828 334.297L316.634 330.094C315.613 329.628 314.397 330.081 313.93 331.102C313.463 332.122 313.916 333.339 314.937 333.805Z" fill="#3A1D09"/>
<path d="M281.327 318.901C281.455 318.902 281.286 318.755 281.303 318.951C281.704 323.263 284.85 325.302 287.192 326.496C288.221 327.021 289.328 327.4 290.467 327.598C291.031 327.696 291.604 327.751 292.177 327.758C292.588 327.761 293.537 327.86 293.888 327.627C291.733 329.064 289.793 329.316 287.97 328.906C290.266 330.375 292.989 331.237 295.919 331.237C303.254 331.237 309.329 325.901 310.513 318.902C310.515 318.901 281.416 318.901 281.327 318.901Z" fill="#512C12"/>
<path d="M292.035 325.814C287.859 325.814 284.336 323.834 282.336 320.103C282.226 319.897 282.303 319.641 282.509 319.532C282.717 319.421 282.969 319.501 283.081 319.705C285.833 324.843 291.765 326.37 298.191 323.595C301.016 322.373 303.354 320.084 304.607 317.313C304.787 316.914 304.963 316.496 305.143 316.07C306.214 313.527 307.427 310.647 310.433 309.602C312.846 308.764 316.424 308.873 318.59 310.702C321.791 313.404 321.703 316.843 321.61 320.485C321.594 321.092 321.578 321.706 321.578 322.324C321.578 322.557 321.389 322.747 321.157 322.747C320.924 322.747 320.736 322.558 320.736 322.324C320.736 321.7 320.752 321.078 320.766 320.464C320.858 316.882 320.938 313.788 318.047 311.348C316.345 309.912 313.259 309.513 310.71 310.399C308.059 311.321 306.971 313.901 305.92 316.398C305.738 316.831 305.558 317.256 305.376 317.662C304.038 320.623 301.541 323.069 298.526 324.372C296.274 325.34 294.077 325.814 292.035 325.814Z" fill="#723710"/>
<path d="M304.954 348.836C304.811 349.108 304.722 349.411 304.722 349.738C304.722 350.814 305.602 351.694 306.678 351.694H313.448C314.523 351.694 315.404 350.814 315.404 349.738C315.404 349.411 315.314 349.107 315.171 348.836H304.954Z" fill="#DE9371"/>
<path d="M310.287 350.792C308.881 350.792 307.73 349.641 307.73 348.234V342.819C307.73 341.413 308.881 340.262 310.287 340.262C311.694 340.262 312.844 341.413 312.844 342.819V348.234C312.844 349.641 311.694 350.792 310.287 350.792Z" fill="#DE9371"/>
<path d="M315.115 403.095C312.642 405.568 308.631 405.568 306.157 403.095C303.683 400.621 303.683 396.61 306.157 394.136C308.631 391.663 312.642 391.663 315.115 394.136C317.589 396.61 317.589 400.621 315.115 403.095Z" fill="#998000"/>
<path d="M308.666 401.608L302.527 449.175L310.711 462.985L311.223 400.586L308.666 401.608Z" fill="#998000"/>
<path d="M312.758 402.119L318.895 449.686L310.712 463.496L310.2 401.096L312.758 402.119Z" fill="#998000"/>
<path d="M302.528 397.005C307.612 397.005 311.735 392.883 311.735 387.798H293.322C293.322 392.883 297.443 397.005 302.528 397.005Z" fill="#665500"/>
<path d="M319.407 397.516C324.492 397.516 328.614 393.393 328.614 388.309H310.2C310.2 393.395 314.323 397.516 319.407 397.516Z" fill="#665500"/>
<path d="M355.074 492.897C355.074 492.897 365.062 469.86 376.633 465.81" stroke="#665500" stroke-width="9.25674" stroke-miterlimit="10" stroke-linecap="round" stroke-linejoin="round"/>
<path d="M229.682 346.05C229.682 346.05 229.682 375.556 212.325 383.656" stroke="#665500" stroke-width="9.25674" stroke-miterlimit="10" stroke-linecap="round" stroke-linejoin="round"/>
<path d="M280.594 432.254V443.536C280.594 448.469 284.629 452.503 289.561 452.503C294.492 452.503 298.528 448.467 298.528 443.536V432.254H280.594Z" fill="#665500"/>
<path d="M323.984 430.519V441.8C323.984 446.733 328.02 450.767 332.951 450.767C337.884 450.767 341.918 446.732 341.918 441.8V430.519H323.984Z" fill="#665500"/>
<path d="M342.104 505.731H269.996C267.552 505.731 265.552 503.731 265.552 501.286V500.918C265.552 498.474 267.552 496.474 269.996 496.474H342.104C344.549 496.474 346.549 498.474 346.549 500.918V501.286C346.548 503.731 344.549 505.731 342.104 505.731Z" fill="#665500"/>
<path d="M462.575 641.935C462.632 642.048 462.57 641.931 462.544 641.941C463.266 642.389 463.598 642.094 464.049 642.035C463.733 641.266 464.136 640.539 464.889 640.153C465.686 639.745 466.701 640.147 467.109 640.942C467.329 641.371 467.357 641.893 467.196 642.31L466.997 642.436C467.473 642.487 468.105 642.512 468.21 642.799C468.882 641.712 468.617 641.285 469.271 640.95C470.067 640.542 471.241 640.986 471.648 641.783C471.994 642.459 471.624 642.676 471.44 643.881L471.455 643.874C471.61 643.798 471.877 643.94 472.125 644.078C472.275 643.802 472.465 643.476 472.766 643.322C473.562 642.914 474.418 642.994 474.826 643.791C475.15 644.424 475 645.14 474.429 645.415L474.423 645.419C474.513 645.375 475.205 645.973 475.338 646.23L475.372 646.295C475.306 646.166 475.675 645.923 475.945 645.786C476.741 645.378 477.688 645.729 478.095 646.525C478.503 647.322 478.42 648.195 477.623 648.602C477.508 648.662 477.509 648.657 477.499 648.63C477.499 648.632 477.499 648.632 477.5 648.633C477.551 648.769 477.586 648.908 477.652 649.038C477.737 649.203 477.777 649.384 477.839 649.553C477.839 649.553 477.839 649.555 477.841 649.556C477.831 649.528 477.848 649.501 477.965 649.439C478.761 649.033 479.641 649.398 480.049 650.195C480.456 650.991 480.094 651.993 479.297 652.399C479.019 652.541 478.695 652.607 478.404 652.583C478.471 652.916 478.511 653.256 478.551 653.592C478.552 653.594 478.544 653.597 478.544 653.599C479.324 653.253 480.243 653.573 480.637 654.343C481.045 655.14 480.728 656.115 479.931 656.523C479.481 656.754 478.981 656.744 478.551 656.556C478.504 656.965 478.248 657.462 478.36 657.765V657.766C479.016 657.61 479.846 657.917 480.199 658.606C480.607 659.402 480.287 660.383 479.491 660.791C478.798 661.146 477.968 660.954 477.494 660.372C477.323 660.752 477.132 661.124 476.923 661.486C477.393 661.579 477.816 661.876 478.052 662.337C478.46 663.134 478.036 663.911 477.241 664.318C476.453 664.721 475.75 664.939 474.967 663.441H474.965C475.071 664.474 474.506 664.219 474.199 664.487C474.32 664.607 474.481 664.846 474.563 665.006C474.97 665.803 474.683 666.829 473.886 667.236C473.089 667.644 472.125 667.268 471.717 666.471C471.699 666.435 471.787 666.513 471.634 666.217L471.661 666.268L471.585 666.307C471.327 666.44 471.148 666.738 471.138 666.717L470.034 664.56C470.041 664.574 470.358 664.424 470.57 664.315C475.672 661.704 477.636 655.48 475.027 650.379C472.416 645.278 466.247 643.217 461.147 645.827C460.934 645.936 460.598 646.118 460.605 646.132L459.501 643.974C459.493 643.958 459.605 643.823 459.827 643.71L460.058 643.591C460.058 643.591 460.094 643.66 460.091 643.656C459.684 642.859 459.798 641.76 460.596 641.352C461.391 640.945 462.167 641.138 462.575 641.935Z" fill="#998000"/>
<path d="M469.846 653.517C468.595 654.121 468.068 655.615 468.667 656.853C469.266 658.092 470.764 658.607 472.015 658.003C473.265 657.398 473.794 655.904 473.194 654.665C472.595 653.427 471.096 652.912 469.846 653.517Z" fill="#998000"/>
<path d="M464.249 648.104C463 648.709 462.476 650.212 463.08 651.462C463.685 652.711 465.188 653.235 466.438 652.631C467.688 652.026 468.211 650.523 467.607 649.273C467.003 648.022 465.499 647.5 464.249 648.104Z" fill="#998000"/>
<path d="M452.468 678.981C452.474 679.107 452.464 678.976 452.437 678.974H452.438C452.916 679.677 453.338 679.542 453.774 679.671C453.798 678.84 454.461 678.34 455.307 678.294C456.201 678.247 456.966 679.025 457.013 679.918C457.04 680.4 456.854 680.888 456.537 681.202L456.306 681.237C456.72 681.477 457.286 681.757 457.267 682.062C458.323 681.342 458.255 680.844 458.989 680.805C459.883 680.757 460.772 681.638 460.821 682.533C460.862 683.291 460.436 683.338 459.777 684.365H459.793C459.966 684.359 460.152 684.597 460.322 684.824C460.572 684.633 460.878 684.412 461.215 684.393C462.109 684.344 462.859 684.766 462.907 685.659C462.945 686.369 462.518 686.961 461.884 686.982H461.876C461.977 686.979 462.366 687.807 462.382 688.096L462.387 688.169C462.378 688.025 462.816 687.953 463.118 687.937C464.011 687.889 464.733 688.594 464.781 689.488C464.829 690.381 464.398 691.145 463.504 691.193C463.375 691.2 463.378 691.198 463.379 691.168C463.379 691.17 463.379 691.169 463.379 691.171C463.37 691.315 463.345 691.457 463.354 691.603C463.364 691.788 463.327 691.97 463.315 692.15C463.315 692.15 463.315 692.151 463.315 692.152C463.317 692.123 463.344 692.106 463.476 692.097C464.369 692.05 465.023 692.741 465.072 693.635C465.12 694.528 464.382 695.296 463.488 695.343C463.176 695.36 462.853 695.288 462.599 695.147C462.525 695.479 462.424 695.806 462.322 696.129C462.322 696.13 462.313 696.132 462.313 696.133C463.167 696.135 463.876 696.801 463.923 697.664C463.971 698.558 463.285 699.32 462.392 699.369C461.886 699.397 461.435 699.184 461.118 698.838C460.908 699.193 460.473 699.542 460.452 699.865V699.866C461.115 699.99 461.748 700.609 461.791 701.381C461.84 702.275 461.148 703.041 460.255 703.089C459.477 703.13 458.797 702.618 458.601 701.895C458.29 702.172 457.965 702.434 457.627 702.68C458.018 702.955 458.284 703.401 458.312 703.916C458.36 704.81 457.657 705.347 456.765 705.396C455.88 705.444 455.151 705.357 455.044 703.67C454.721 704.657 454.306 704.194 453.918 704.314C453.98 704.473 454.029 704.756 454.039 704.936C454.087 705.829 453.406 706.649 452.513 706.698C451.619 706.746 450.891 706.011 450.843 705.117C450.841 705.077 450.889 705.184 450.871 704.85L450.875 704.908L450.791 704.913C450.502 704.929 450.217 705.128 450.215 705.106L450.084 702.685C450.086 702.701 450.436 702.692 450.674 702.679C456.398 702.369 460.723 697.483 460.414 691.761C460.104 686.038 455.307 681.646 449.585 681.955C449.346 681.969 448.966 681.997 448.967 682.014L448.836 679.593C448.835 679.575 448.994 679.497 449.241 679.484L449.501 679.469C449.501 679.469 449.504 679.546 449.504 679.541C449.455 678.648 450.007 677.691 450.902 677.643C451.789 677.595 452.419 678.087 452.468 678.981Z" fill="#998000"/>
<path d="M454.398 692.519C453.009 692.564 451.92 693.713 451.964 695.089C452.007 696.464 453.166 697.544 454.554 697.5C455.942 697.457 457.032 696.307 456.989 694.931C456.945 693.555 455.786 692.475 454.398 692.519Z" fill="#998000"/>
<path d="M451.488 685.298C450.1 685.342 449.011 686.502 449.054 687.89C449.098 689.278 450.258 690.368 451.646 690.324C453.034 690.281 454.124 689.12 454.081 687.732C454.037 686.343 452.876 685.254 451.488 685.298Z" fill="#998000"/>
<path d="M425.053 626.848C425.141 627.033 425.045 626.842 425.002 626.857L425.005 626.856C426.157 627.616 426.707 627.151 427.441 627.077C426.963 625.814 427.649 624.652 428.89 624.06C430.201 623.435 431.831 624.13 432.457 625.441C432.794 626.146 432.818 626.995 432.536 627.662L432.209 627.858C432.979 627.962 434.004 628.032 434.163 628.502C435.301 626.768 434.89 626.064 435.968 625.55C437.279 624.924 439.162 625.697 439.788 627.009C440.32 628.121 439.709 628.457 439.356 630.405L439.38 630.394C439.635 630.279 440.063 630.519 440.457 630.757C440.713 630.316 441.036 629.794 441.531 629.557C442.841 628.932 444.229 629.098 444.853 630.41C445.35 631.451 445.075 632.606 444.136 633.028L444.125 633.033C444.273 632.967 445.371 633.968 445.573 634.392L445.626 634.5C445.524 634.288 446.136 633.91 446.578 633.699C447.889 633.074 449.41 633.686 450.036 634.996C450.661 636.307 450.487 637.72 449.175 638.347C448.986 638.438 448.989 638.432 448.973 638.387C448.975 638.389 448.975 638.389 448.975 638.391C449.049 638.613 449.101 638.841 449.203 639.055C449.333 639.327 449.389 639.622 449.484 639.9C449.484 639.901 449.485 639.902 449.485 639.904C449.469 639.858 449.5 639.814 449.694 639.721C451.004 639.097 452.416 639.73 453.041 641.041C453.666 642.351 453.032 643.961 451.721 644.585C451.263 644.804 450.733 644.896 450.263 644.844C450.358 645.387 450.409 645.941 450.457 646.489C450.458 646.491 450.446 646.497 450.447 646.498C451.729 645.973 453.206 646.533 453.811 647.8C454.436 649.11 453.879 650.68 452.567 651.306C451.826 651.66 451.016 651.622 450.326 651.298C450.232 651.96 449.793 652.754 449.961 653.251L449.962 653.254C451.035 653.028 452.367 653.565 452.91 654.698C453.535 656.008 452.973 657.585 451.661 658.212C450.52 658.757 449.183 658.407 448.441 657.445C448.145 658.052 447.819 658.648 447.464 659.226C448.223 659.397 448.897 659.9 449.258 660.658C449.884 661.969 449.162 663.212 447.852 663.836C446.555 664.456 445.404 664.776 444.201 662.31C444.2 662.31 444.198 662.311 444.198 662.311C444.325 663.992 443.419 663.555 442.908 663.975C443.101 664.175 443.349 664.57 443.474 664.833C444.099 666.144 443.585 667.795 442.276 668.421C440.965 669.047 439.415 668.395 438.791 667.082C438.761 667.022 438.901 667.155 438.668 666.665L438.709 666.749L438.584 666.809C438.159 667.011 437.854 667.488 437.84 667.456L436.145 663.904C436.156 663.928 436.677 663.697 437.026 663.53C445.424 659.522 448.89 649.509 444.884 641.114C440.875 632.717 430.957 629.096 422.561 633.102C422.211 633.269 421.657 633.548 421.668 633.573L419.974 630.021C419.961 629.994 420.151 629.78 420.514 629.606L420.895 629.424C420.895 629.424 420.949 629.536 420.945 629.53C420.319 628.219 420.553 626.441 421.868 625.815C423.176 625.189 424.426 625.536 425.053 626.848Z" fill="#998000"/>
<path d="M424.73 654.261C428.219 657.093 433.342 656.562 436.175 653.074C439.007 649.585 438.476 644.462 434.987 641.629C431.499 638.797 426.375 639.328 423.543 642.817C420.711 646.304 421.242 651.429 424.73 654.261Z" fill="#998000"/>
<path d="M456.821 673.148C459.4 675.243 463.187 674.85 465.282 672.271C467.376 669.692 466.983 665.905 464.404 663.811C461.825 661.716 458.038 662.109 455.944 664.688C453.851 667.267 454.244 671.054 456.821 673.148Z" fill="#998000"/>
<g opacity="0.75">
<path d="M128.342 423.848C128.309 423.992 128.347 423.843 128.379 423.847H128.377C127.681 424.561 127.221 424.318 126.692 424.379C126.834 423.415 126.172 422.701 125.204 422.475C124.182 422.236 123.14 422.978 122.902 423.998C122.773 424.548 122.887 425.15 123.188 425.579L123.449 425.665C122.921 425.858 122.21 426.064 122.17 426.421V426.422C121.099 425.374 121.28 424.814 120.44 424.618C119.419 424.379 118.21 425.215 117.97 426.236C117.767 427.102 118.251 427.244 118.799 428.565L118.781 428.561C118.582 428.52 118.318 428.755 118.077 428.984C117.828 428.712 117.52 428.394 117.133 428.303C116.112 428.065 115.16 428.396 114.921 429.417C114.732 430.229 115.104 431.001 115.831 431.154L115.839 431.155C115.724 431.131 115.105 432.007 115.028 432.337L115.007 432.422C115.046 432.257 114.557 432.084 114.211 432.003C113.189 431.765 112.211 432.431 111.973 433.453C111.734 434.473 112.074 435.444 113.096 435.684C113.244 435.719 113.241 435.715 113.244 435.68C113.244 435.681 113.244 435.681 113.244 435.683C113.226 435.852 113.225 436.021 113.186 436.187C113.135 436.399 113.142 436.615 113.118 436.826C113.118 436.827 113.118 436.827 113.118 436.83C113.122 436.795 113.094 436.77 112.943 436.733C111.924 436.494 111.024 437.159 110.785 438.181C110.547 439.202 111.242 440.24 112.264 440.478C112.62 440.562 113.008 440.546 113.333 440.435C113.35 440.833 113.4 441.232 113.45 441.626C113.45 441.628 113.459 441.63 113.459 441.633C112.475 441.46 111.517 442.083 111.286 443.07C111.047 444.092 111.683 445.112 112.705 445.351C113.282 445.487 113.848 445.334 114.285 445C114.454 445.453 114.885 445.945 114.844 446.322C114.053 446.328 113.195 446.914 112.987 447.797C112.749 448.817 113.389 449.844 114.411 450.083C115.299 450.291 116.189 449.838 116.564 449.044C116.866 449.427 117.188 449.797 117.528 450.15C117.019 450.388 116.621 450.847 116.483 451.437C116.244 452.458 116.946 453.224 117.967 453.463C118.978 453.699 119.839 453.748 120.307 451.822C120.478 453.027 121.05 452.579 121.475 452.797C121.371 452.968 121.255 453.284 121.208 453.489C120.969 454.511 121.586 455.597 122.608 455.837C123.63 456.076 124.621 455.377 124.86 454.355C124.871 454.308 124.793 454.422 124.882 454.041L124.866 454.108L124.963 454.131C125.293 454.208 125.582 454.497 125.588 454.472L126.236 451.705C126.231 451.723 125.828 451.641 125.557 451.578C119.014 450.046 115.023 443.518 116.553 436.976C118.084 430.434 124.522 426.348 131.065 427.878C131.338 427.942 131.771 428.053 131.767 428.073L132.413 425.306C132.42 425.285 132.252 425.162 131.969 425.096L131.673 425.027C131.673 425.027 131.652 425.113 131.653 425.11C131.892 424.089 131.453 422.87 130.429 422.631C129.41 422.388 128.582 422.826 128.342 423.848Z" fill="#1A1500"/>
<path d="M123.337 439.078C124.931 439.413 125.953 440.964 125.62 442.543C125.289 444.122 123.728 445.131 122.136 444.795C120.542 444.46 119.52 442.909 119.852 441.33C120.183 439.751 121.744 438.744 123.337 439.078Z" fill="#1A1500"/>
<path d="M128.177 431.339C129.77 431.674 130.79 433.237 130.455 434.83C130.119 436.422 128.556 437.442 126.964 437.108C125.37 436.772 124.351 435.21 124.686 433.617C125.021 432.024 126.584 431.005 128.177 431.339Z" fill="#1A1500"/>
<path d="M150.298 463.153C150.327 463.299 150.301 463.147 150.332 463.137L150.329 463.138C149.984 464.073 149.465 464.039 149.007 464.31C148.744 463.371 147.849 462.988 146.873 463.175C145.842 463.372 145.192 464.475 145.389 465.504C145.494 466.059 145.844 466.563 146.294 466.831L146.568 466.805C146.165 467.196 145.598 467.674 145.707 468.016C144.302 467.494 144.24 466.908 143.393 467.071C142.363 467.268 141.598 468.523 141.795 469.554C141.963 470.428 142.461 470.362 143.5 471.345L143.482 471.349C143.284 471.392 143.139 471.714 143.011 472.021C142.673 471.874 142.263 471.709 141.872 471.783C140.843 471.98 140.107 472.671 140.306 473.701C140.462 474.52 141.116 475.073 141.843 474.918L141.852 474.917C141.737 474.941 141.527 475.994 141.591 476.327L141.606 476.412C141.574 476.246 141.056 476.288 140.708 476.354C139.678 476.551 139.056 477.558 139.253 478.588C139.45 479.618 140.156 480.365 141.187 480.168C141.336 480.14 141.331 480.137 141.322 480.104C141.322 480.105 141.322 480.105 141.323 480.107C141.374 480.269 141.443 480.422 141.475 480.591C141.515 480.804 141.609 481.001 141.673 481.203C141.673 481.203 141.673 481.204 141.674 481.206C141.663 481.173 141.628 481.16 141.475 481.189C140.445 481.386 139.896 482.359 140.093 483.388C140.29 484.419 141.347 485.083 142.377 484.885C142.737 484.816 143.084 484.644 143.335 484.411C143.513 484.768 143.721 485.113 143.928 485.451C143.928 485.452 143.937 485.451 143.937 485.452C142.968 485.694 142.347 486.652 142.537 487.649C142.734 488.679 143.731 489.354 144.761 489.157C145.344 489.045 145.799 488.677 146.062 488.192C146.4 488.537 146.995 488.812 147.11 489.173V489.174C146.389 489.502 145.844 490.384 146.013 491.276C146.21 492.305 147.213 492.983 148.243 492.786C149.141 492.615 149.769 491.839 149.788 490.961C150.22 491.187 150.664 491.394 151.119 491.579C150.75 492.004 150.574 492.585 150.688 493.18C150.885 494.211 151.837 494.624 152.866 494.427C153.886 494.231 154.693 493.927 154.338 491.977C154.984 493.007 155.324 492.366 155.802 492.393C155.776 492.591 155.8 492.927 155.84 493.135C156.037 494.165 157.043 494.906 158.073 494.709C159.104 494.512 159.726 493.469 159.527 492.438C159.519 492.391 159.494 492.528 159.42 492.143L159.432 492.209L159.53 492.191C159.863 492.127 160.245 492.274 160.24 492.249L159.706 489.457C159.71 489.475 159.308 489.564 159.034 489.617C152.434 490.879 146.132 486.539 144.87 479.941C143.608 473.343 147.827 466.99 154.426 465.727C154.701 465.674 155.143 465.6 155.147 465.619L154.612 462.827C154.608 462.807 154.406 462.762 154.12 462.818L153.821 462.874C153.821 462.874 153.838 462.962 153.837 462.957C153.64 461.928 152.743 460.993 151.711 461.191C150.679 461.385 150.101 462.122 150.298 463.153Z" fill="#1A1500"/>
<path d="M151.921 479.103C153.512 478.761 155.078 479.761 155.416 481.339C155.755 482.917 154.74 484.472 153.147 484.814C151.556 485.157 149.991 484.154 149.652 482.576C149.314 481.001 150.33 479.445 151.921 479.103Z" fill="#1A1500"/>
<path d="M153.194 470.064C154.785 469.722 156.353 470.734 156.696 472.327C157.037 473.918 156.025 475.486 154.432 475.828C152.841 476.17 151.273 475.157 150.932 473.566C150.589 471.973 151.603 470.406 153.194 470.064Z" fill="#1A1500"/>
<path d="M166.786 396.091C166.739 396.326 166.794 396.083 166.845 396.086H166.841C165.745 397.277 164.988 396.903 164.133 397.025C164.319 395.452 163.212 394.325 161.632 394.001C159.964 393.659 158.305 394.91 157.964 396.578C157.779 397.475 157.992 398.449 158.5 399.129L158.927 399.259C158.08 399.595 156.934 399.963 156.887 400.543V400.544C155.101 398.892 155.37 397.974 153.998 397.693C152.331 397.352 150.406 398.762 150.063 400.431C149.773 401.846 150.562 402.056 151.512 404.174L151.483 404.17C151.158 404.111 150.741 404.505 150.359 404.886C149.943 404.456 149.429 403.953 148.797 403.823C147.13 403.48 145.599 404.063 145.257 405.731C144.986 407.057 145.625 408.293 146.812 408.509L146.825 408.511C146.638 408.477 145.671 409.926 145.561 410.466L145.532 410.604C145.588 410.334 144.785 410.077 144.222 409.961C142.554 409.62 140.995 410.745 140.653 412.413C140.311 414.081 140.907 415.64 142.577 415.982C142.819 416.033 142.813 416.026 142.818 415.97C142.818 415.973 142.818 415.974 142.818 415.974C142.796 416.249 142.802 416.522 142.746 416.795C142.675 417.14 142.693 417.493 142.665 417.835C142.665 417.835 142.665 417.838 142.665 417.84C142.67 417.784 142.623 417.744 142.376 417.692C140.709 417.351 139.281 418.47 138.939 420.138C138.598 421.806 139.773 423.459 141.441 423.799C142.024 423.919 142.653 423.875 143.173 423.681C143.219 424.326 143.317 424.971 143.418 425.608C143.418 425.61 143.432 425.614 143.432 425.616C141.827 425.38 140.303 426.434 139.971 428.046C139.629 429.714 140.707 431.344 142.375 431.686C143.319 431.881 144.229 431.608 144.923 431.045C145.217 431.772 145.94 432.552 145.889 433.165V433.167C144.605 433.214 143.239 434.2 142.943 435.642C142.6 437.309 143.686 438.947 145.355 439.29C146.807 439.587 148.232 438.812 148.803 437.508C149.311 438.115 149.851 438.701 150.418 439.259C149.603 439.668 148.977 440.431 148.78 441.394C148.439 443.062 149.611 444.273 151.278 444.614C152.929 444.952 154.33 444.994 155.003 441.848H155.005C155.337 443.797 156.244 443.043 156.943 443.378C156.781 443.659 156.61 444.178 156.541 444.514C156.199 446.182 157.25 447.916 158.918 448.26C160.587 448.602 162.166 447.422 162.506 445.754C162.522 445.678 162.401 445.866 162.528 445.244L162.506 445.352L162.665 445.385C163.205 445.495 163.686 445.952 163.695 445.91L164.622 441.389C164.616 441.42 163.958 441.303 163.515 441.213C152.828 439.02 146.057 428.605 148.248 417.92C150.44 407.234 160.705 400.314 171.39 402.504C171.837 402.595 172.544 402.757 172.538 402.788L173.463 398.267C173.472 398.233 173.194 398.042 172.731 397.948L172.248 397.848C172.248 397.848 172.218 397.991 172.22 397.983C172.561 396.315 171.794 394.358 170.122 394.016C168.452 393.672 167.13 394.422 166.786 396.091Z" fill="#1A1500"/>
<path d="M174.887 427.196C171.717 431.404 165.736 432.245 161.528 429.074C157.32 425.904 156.479 419.924 159.649 415.716C162.82 411.508 168.8 410.667 173.008 413.837C177.216 417.007 178.057 422.987 174.887 427.196Z" fill="#1A1500"/>
<path d="M143.698 457.743C141.354 460.853 136.932 461.475 133.822 459.132C130.712 456.789 130.09 452.367 132.433 449.257C134.776 446.147 139.198 445.525 142.308 447.868C145.418 450.212 146.04 454.633 143.698 457.743Z" fill="#1A1500"/>
</g>
<g opacity="0.75">
<path d="M252.785 485.261C252.79 485.373 252.783 485.256 252.758 485.255H252.759C253.183 485.887 253.561 485.769 253.949 485.887C253.976 485.143 254.572 484.7 255.33 484.663C256.13 484.625 256.81 485.328 256.846 486.127C256.867 486.558 256.697 486.994 256.412 487.273L256.204 487.302C256.572 487.52 257.079 487.774 257.058 488.047C258.008 487.409 257.949 486.963 258.606 486.932C259.406 486.894 260.198 487.689 260.236 488.49C260.267 489.168 259.886 489.208 259.291 490.124H259.305C259.46 490.12 259.625 490.333 259.775 490.539C259.999 490.368 260.275 490.173 260.578 490.159C261.378 490.121 262.047 490.503 262.084 491.302C262.114 491.938 261.728 492.465 261.16 492.48H261.154C261.243 492.477 261.587 493.22 261.599 493.48L261.603 493.546C261.597 493.416 261.988 493.355 262.258 493.343C263.058 493.305 263.7 493.941 263.738 494.741C263.775 495.54 263.385 496.222 262.584 496.26C262.468 496.266 262.472 496.263 262.473 496.236C262.473 496.238 262.473 496.238 262.473 496.239C262.463 496.369 262.44 496.495 262.447 496.626C262.455 496.791 262.42 496.954 262.409 497.115C262.409 497.115 262.409 497.116 262.409 497.118C262.412 497.091 262.436 497.076 262.554 497.07C263.353 497.032 263.935 497.656 263.973 498.455C264.01 499.255 263.345 499.938 262.544 499.974C262.265 499.988 261.976 499.922 261.749 499.793C261.68 500.09 261.588 500.382 261.495 500.671C261.495 500.672 261.488 500.672 261.488 500.673C262.25 500.681 262.882 501.28 262.919 502.054C262.957 502.855 262.337 503.533 261.538 503.571C261.086 503.593 260.682 503.399 260.401 503.087C260.211 503.403 259.819 503.714 259.797 504.001C260.391 504.116 260.953 504.675 260.986 505.366C261.024 506.165 260.401 506.847 259.6 506.885C258.904 506.918 258.299 506.454 258.128 505.807C257.848 506.052 257.555 506.285 257.25 506.503C257.599 506.753 257.834 507.152 257.856 507.615C257.894 508.414 257.261 508.891 256.462 508.929C255.67 508.966 255.018 508.884 254.933 507.374C254.638 508.255 254.27 507.839 253.921 507.943C253.976 508.086 254.018 508.339 254.025 508.5C254.063 509.299 253.449 510.028 252.649 510.068C251.849 510.106 251.201 509.442 251.165 508.643C251.162 508.606 251.205 508.703 251.192 508.404L251.194 508.456L251.118 508.459C250.86 508.471 250.603 508.648 250.602 508.628L250.499 506.46C250.5 506.475 250.813 506.469 251.026 506.459C256.15 506.218 260.052 501.87 259.811 496.749C259.569 491.626 255.303 487.666 250.18 487.907C249.966 487.917 249.626 487.94 249.626 487.956L249.524 485.788C249.523 485.771 249.665 485.703 249.887 485.693L250.119 485.681C250.119 485.681 250.123 485.749 250.122 485.745C250.084 484.946 250.583 484.092 251.385 484.055C252.187 484.016 252.747 484.46 252.785 485.261Z" fill="#1A1500"/>
<path d="M254.43 497.388C253.187 497.419 252.204 498.441 252.235 499.672C252.266 500.903 253.296 501.877 254.539 501.846C255.781 501.815 256.764 500.793 256.733 499.562C256.703 498.331 255.672 497.358 254.43 497.388Z" fill="#1A1500"/>
<path d="M251.87 490.907C250.628 490.938 249.645 491.969 249.676 493.212C249.706 494.454 250.738 495.436 251.98 495.406C253.223 495.376 254.206 494.344 254.175 493.102C254.144 491.859 253.112 490.876 251.87 490.907Z" fill="#1A1500"/>
<path d="M230.852 511.718C230.81 511.823 230.85 511.713 230.83 511.7L230.831 511.702C230.959 512.452 231.355 512.497 231.661 512.764C231.989 512.096 232.713 511.933 233.421 512.208C234.166 512.5 234.502 513.417 234.21 514.163C234.054 514.565 233.722 514.895 233.347 515.033L233.145 514.976C233.394 515.325 233.753 515.763 233.624 516.004C234.75 515.808 234.879 515.376 235.492 515.616C236.237 515.907 236.638 516.955 236.346 517.702C236.099 518.335 235.734 518.216 234.819 518.809L234.832 518.814C234.975 518.874 235.039 519.136 235.093 519.385C235.367 519.321 235.697 519.254 235.98 519.364C236.726 519.654 237.182 520.275 236.891 521.021C236.66 521.614 236.092 521.939 235.568 521.721L235.562 521.719C235.644 521.753 235.656 522.572 235.562 522.813L235.538 522.876C235.585 522.754 235.968 522.858 236.22 522.956C236.967 523.248 237.294 524.09 237.003 524.835C236.712 525.581 236.079 526.045 235.333 525.753C235.224 525.712 235.229 525.71 235.241 525.687C235.241 525.688 235.241 525.688 235.24 525.688C235.178 525.803 235.106 525.909 235.059 526.031C234.999 526.185 234.901 526.32 234.825 526.462C234.825 526.462 234.825 526.463 234.824 526.464C234.836 526.441 234.865 526.437 234.975 526.479C235.721 526.77 235.999 527.577 235.707 528.322C235.416 529.068 234.531 529.42 233.784 529.129C233.524 529.027 233.287 528.85 233.131 528.641C232.948 528.883 232.744 529.113 232.542 529.338C232.542 529.34 232.535 529.337 232.535 529.338C233.229 529.655 233.562 530.461 233.28 531.182C232.989 531.927 232.148 532.295 231.401 532.004C230.979 531.84 230.689 531.5 230.559 531.1C230.258 531.311 229.773 531.435 229.636 531.69C230.132 532.036 230.418 532.775 230.167 533.42C229.876 534.166 229.03 534.535 228.284 534.244C227.634 533.991 227.27 533.321 227.378 532.66C227.023 532.77 226.659 532.865 226.293 532.939C226.511 533.309 226.563 533.769 226.395 534.2C226.104 534.945 225.333 535.124 224.586 534.834C223.848 534.545 223.285 534.205 223.822 532.791C223.194 533.475 223.027 532.947 222.666 532.9C222.657 533.053 222.592 533.302 222.535 533.451C222.243 534.196 221.386 534.614 220.64 534.322C219.894 534.031 219.571 533.162 219.864 532.417C219.877 532.382 219.876 532.488 219.985 532.21L219.967 532.258L219.896 532.231C219.655 532.136 219.347 532.194 219.355 532.176L220.143 530.153C220.138 530.167 220.427 530.289 220.625 530.366C225.404 532.229 230.737 529.846 232.6 525.069C234.462 520.291 232.177 514.938 227.399 513.074C227.199 512.997 226.879 512.879 226.872 512.893L227.662 510.872C227.668 510.856 227.826 510.852 228.032 510.933L228.248 511.017C228.248 511.017 228.224 511.081 228.225 511.077C228.515 510.332 229.319 509.754 230.066 510.047C230.81 510.337 231.142 510.971 230.852 511.718Z" fill="#1A1500"/>
<path d="M227.419 523.464C226.271 522.987 224.959 523.521 224.485 524.659C224.011 525.796 224.557 527.105 225.705 527.582C226.852 528.059 228.166 527.524 228.639 526.388C229.112 525.251 228.566 523.942 227.419 523.464Z" fill="#1A1500"/>
<path d="M227.718 516.503C226.572 516.026 225.254 516.568 224.776 517.716C224.299 518.863 224.841 520.18 225.989 520.658C227.136 521.135 228.453 520.593 228.931 519.445C229.408 518.298 228.865 516.981 227.718 516.503Z" fill="#1A1500"/>
<path d="M227.78 459.092C227.783 459.275 227.776 459.084 227.736 459.079H227.738C228.397 460.125 229.016 459.95 229.641 460.16C229.72 458.953 230.706 458.261 231.938 458.236C233.238 458.212 234.309 459.381 234.334 460.68C234.349 461.379 234.054 462.081 233.578 462.521L233.239 462.559C233.827 462.929 234.638 463.365 234.592 463.807C236.162 462.814 236.087 462.089 237.156 462.068C238.454 462.044 239.704 463.37 239.73 464.669C239.75 465.772 239.129 465.82 238.122 467.278H238.146C238.397 467.279 238.656 467.632 238.89 467.972C239.262 467.707 239.717 467.401 240.209 467.392C241.508 467.366 242.578 468.015 242.601 469.315C242.622 470.346 241.971 471.186 241.049 471.184H241.039C241.185 471.184 241.709 472.406 241.717 472.826L241.721 472.934C241.716 472.723 242.355 472.641 242.793 472.633C244.093 472.608 245.107 473.668 245.131 474.968C245.156 476.268 244.492 477.355 243.191 477.381C243.003 477.384 243.007 477.381 243.012 477.338C243.012 477.34 243.012 477.34 243.012 477.342C242.992 477.551 242.949 477.755 242.952 477.968C242.957 478.238 242.895 478.499 242.868 478.76C242.868 478.761 242.868 478.763 242.868 478.764C242.872 478.721 242.913 478.697 243.105 478.693C244.404 478.667 245.321 479.706 245.345 481.006C245.371 482.306 244.26 483.383 242.96 483.408C242.506 483.417 242.039 483.296 241.677 483.078C241.553 483.556 241.389 484.027 241.227 484.491C241.227 484.493 241.214 484.493 241.214 484.496C242.453 484.541 243.451 485.545 243.475 486.801C243.5 488.101 242.465 489.174 241.165 489.2C240.431 489.214 239.785 488.884 239.342 488.364C239.02 488.868 238.37 489.354 238.322 489.82V489.823C239.279 490.036 240.168 490.966 240.19 492.09C240.216 493.388 239.174 494.467 237.873 494.492C236.742 494.514 235.78 493.735 235.531 492.676C235.066 493.061 234.579 493.426 234.076 493.766C234.632 494.186 234.994 494.846 235.01 495.596C235.034 496.896 233.987 497.642 232.688 497.667C231.402 497.692 230.345 497.529 230.277 495.074C230.275 495.074 230.274 495.074 230.274 495.074C229.755 496.49 229.179 495.798 228.607 495.952C228.689 496.186 228.747 496.6 228.752 496.861C228.777 498.161 227.748 499.317 226.448 499.343C225.148 499.369 224.127 498.263 224.103 496.964C224.102 496.904 224.166 497.063 224.157 496.578L224.159 496.661L224.035 496.665C223.614 496.673 223.191 496.949 223.19 496.917L223.121 493.394C223.121 493.418 223.632 493.422 223.978 493.415C232.304 493.252 238.831 486.373 238.67 478.05C238.507 469.725 231.761 463.106 223.437 463.268C223.089 463.275 222.535 463.297 222.536 463.322L222.469 459.8C222.468 459.773 222.701 459.668 223.062 459.662L223.439 459.654C223.439 459.654 223.442 459.765 223.442 459.759C223.416 458.459 224.266 457.097 225.567 457.072C226.864 457.045 227.754 457.791 227.78 459.092Z" fill="#1A1500"/>
<path d="M217.383 481.315C219.179 484.913 223.551 486.375 227.15 484.579C230.748 482.783 232.21 478.41 230.413 474.813C228.617 471.214 224.245 469.753 220.646 471.548C217.048 473.344 215.588 477.716 217.383 481.315Z" fill="#1A1500"/>
<path d="M236.557 508.573C237.884 511.233 241.117 512.314 243.776 510.986C246.436 509.659 247.516 506.426 246.189 503.766C244.861 501.107 241.629 500.027 238.97 501.354C236.31 502.681 235.229 505.913 236.557 508.573Z" fill="#1A1500"/>
</g>
<path d="M395.653 585.319C395.653 599.254 406.95 610.552 420.885 610.552C434.821 610.552 446.118 599.255 446.118 585.319C446.118 571.385 434.821 560.087 420.885 560.087C406.95 560.087 395.653 571.384 395.653 585.319Z" fill="#998000"/>
<path d="M417.984 563.533C417.984 564.981 419.158 566.156 420.606 566.156H420.85C422.298 566.156 423.472 564.982 423.472 563.533V556.373C423.472 554.925 422.298 553.75 420.85 553.75H420.606C419.158 553.75 417.984 554.923 417.984 556.373V563.533Z" fill="#998000"/>
<path d="M417.984 613.156C417.984 614.604 419.158 615.778 420.606 615.778H420.85C422.298 615.778 423.472 614.604 423.472 613.156V605.995C423.472 604.547 422.298 603.373 420.85 603.373H420.606C419.158 603.373 417.984 604.547 417.984 605.995V613.156Z" fill="#998000"/>
<path d="M439.217 585.456C439.217 586.899 440.411 588.104 441.89 588.104H448.822C450.3 588.104 451.622 586.899 451.622 585.456V585.263C451.622 583.819 450.3 582.618 448.822 582.618H441.89C440.411 582.618 439.217 583.819 439.217 585.263V585.456Z" fill="#998000"/>
<path d="M389.832 585.452C389.832 586.902 390.925 588.104 392.373 588.104H399.486C400.934 588.104 402.237 586.9 402.237 585.452V585.206C402.237 583.758 400.934 582.618 399.486 582.618H392.373C390.925 582.618 389.832 583.758 389.832 585.206V585.452Z" fill="#998000"/>
<path d="M435.792 573.911C436.818 574.937 438.48 574.937 439.504 573.911L444.455 568.961C445.481 567.936 445.481 566.273 444.455 565.248C443.43 564.223 441.767 564.223 440.742 565.248L435.792 570.199C434.767 571.223 434.767 572.887 435.792 573.911Z" fill="#998000"/>
<path d="M400.546 609.183C401.57 610.208 403.231 610.208 404.254 609.183L409.198 604.24C410.223 603.215 410.223 601.555 409.198 600.531C408.175 599.508 406.514 599.508 405.491 600.531L400.546 605.476C399.523 606.499 399.523 608.159 400.546 609.183Z" fill="#998000"/>
<path d="M408.032 571.041C407.009 572.066 405.348 572.066 404.324 571.041L399.379 566.097C398.356 565.073 398.356 563.413 399.379 562.39C400.403 561.365 402.063 561.365 403.087 562.39L408.031 567.334C409.057 568.357 409.057 570.018 408.032 571.041Z" fill="#998000"/>
<path d="M442.7 607.768C441.677 608.792 440.016 608.792 438.991 607.768L434.048 602.823C433.023 601.799 433.023 600.139 434.048 599.116C435.072 598.091 436.732 598.091 437.756 599.116L442.7 604.06C443.725 605.084 443.725 606.745 442.7 607.768Z" fill="#998000"/>
<path d="M410.346 586.016C410.346 591.892 415.11 596.656 420.986 596.656C426.862 596.656 431.626 591.892 431.626 586.016C431.626 580.139 426.862 575.375 420.986 575.375C415.11 575.375 410.346 580.139 410.346 586.016Z" fill="#61F7DA"/>
<path d="M34.6482 307.281C34.6482 307.441 34.5834 307.57 34.5038 307.57C34.4242 307.57 34.3594 307.442 34.3594 307.281C34.3594 307.122 34.4242 306.994 34.5038 306.994C34.5834 306.994 34.6482 307.122 34.6482 307.281Z" fill="#F9F1E4"/>
<path d="M184.013 289.243C184.013 289.243 192.878 254.117 194.287 253.948C195.696 253.779 208.755 289.16 208.755 289.16L197.243 292.837L184.013 289.243Z" fill="#E7B26A"/>
<path d="M184.013 289.027L183.634 461.288L207.749 461.057L208.755 289.044C208.755 289.044 205.902 285.999 203.966 289.317C203.966 289.317 201.841 285.631 199.097 289.543C199.097 289.543 197.059 286.052 193.592 289.391C193.592 289.391 191.573 285.93 189.061 289.122C189.061 289.122 187.745 286.287 184.013 289.027Z" fill="#FF8C1A"/>
<path d="M183.476 480.071L183.618 455.961L207.782 455.913L207.641 480.023C207.59 488.71 202.111 495.829 195.466 495.842C188.821 495.856 183.426 488.759 183.476 480.071Z" fill="#252A26"/>
<path d="M190.122 267.33C190.122 267.33 193.47 253.941 194.199 253.98C195.109 254.03 199.749 266.422 199.749 266.422L190.122 267.33Z" fill="#282928"/>
<path d="M196.948 445.1L196.707 373.328C196.7 371.243 198.401 369.53 200.487 369.523C202.572 369.516 204.286 371.217 204.292 373.303L204.533 445.074C204.541 447.16 202.839 448.872 200.754 448.88C198.668 448.887 196.956 447.186 196.948 445.1Z" fill="#EFAB48"/>
<path d="M182.956 495.135V526.203C182.956 533.398 188.422 539.286 195.103 539.286H195.609C202.289 539.286 207.756 533.399 207.756 526.203V495.135H182.956Z" fill="#F987E4"/>
<path d="M208.017 477.279H183.132V508.126H208.017V477.279Z" fill="#F9D9F4"/>
<path d="M228.525 431.788L231.145 436.577L235.934 439.197L231.145 441.816L228.525 446.605L225.905 441.816L221.115 439.197L225.905 436.577L228.525 431.788Z" fill="#FFDD33"/>
<path d="M154.471 366.417L158.52 373.822L165.925 377.871L158.52 381.921L154.471 389.326L150.421 381.921L143.016 377.871L150.421 373.822L154.471 366.417Z" fill="#FFDD33"/>
<path d="M176.455 290.579L180.727 298.388L188.536 302.659L180.727 306.93L176.455 314.74L172.184 306.93L164.374 302.659L172.184 298.388L176.455 290.579Z" fill="#FFDD33"/>
<path d="M166.041 325.52L167.777 328.694L170.951 330.43L167.777 332.165L166.041 335.339L164.306 332.165L161.132 330.43L164.306 328.694L166.041 325.52Z" fill="#FFDD33"/>
<path d="M130.17 371.539L132 374.884L135.345 376.714L132 378.544L130.17 381.889L128.341 378.544L124.996 376.714L128.341 374.884L130.17 371.539Z" fill="#FFDD33"/>
<path d="M117.444 398.898L118.601 401.013L120.716 402.169L118.601 403.327L117.444 405.442L116.286 403.327L114.171 402.169L116.286 401.013L117.444 398.898Z" fill="#FFDD33"/>
<path d="M159.099 509.234L160.929 512.579L164.274 514.409L160.929 516.238L159.099 519.583L157.269 516.238L153.924 514.409L157.269 512.579L159.099 509.234Z" fill="#FFDD33"/>
<path d="M126.699 488.672L128.435 491.844L131.609 493.58L128.435 495.316L126.699 498.49L124.964 495.316L121.791 493.58L124.964 491.844L126.699 488.672Z" fill="#FFDD33"/>
<path d="M169.512 467.579L171.342 470.924L174.687 472.753L171.342 474.583L169.512 477.928L167.682 474.583L164.337 472.753L167.682 470.924L169.512 467.579Z" fill="#FFDD33"/>
<path d="M395.147 452.7L397.533 457.061L401.894 459.447L397.533 461.832L395.147 466.193L392.762 461.832L388.4 459.447L392.762 457.061L395.147 452.7Z" fill="#FFDD33"/>
<path d="M558.295 413.215L560.68 417.576L565.041 419.962L560.68 422.347L558.295 426.708L555.909 422.347L551.548 419.962L555.909 417.576L558.295 413.215Z" fill="#FFDD33"/>
<path d="M226.211 405.641L228.256 409.381L231.996 411.427L228.256 413.472L226.211 417.213L224.165 413.472L220.425 411.427L224.165 409.381L226.211 405.641Z" fill="#FFDD33"/>
<path d="M402.79 478.873L406.516 485.684L413.326 489.409L406.516 493.134L402.79 499.945L399.065 493.134L392.254 489.409L399.065 485.684L402.79 478.873Z" fill="#FFDD33"/>
<path d="M466.886 591.61L469.864 597.056L475.31 600.034L469.864 603.012L466.886 608.458L463.908 603.012L458.463 600.034L463.908 597.056L466.886 591.61Z" fill="#FFDD33"/>
<path d="M422.34 521.229L423.813 523.926L426.511 525.401L423.813 526.876L422.34 529.573L420.863 526.876L418.167 525.401L420.863 523.926L422.34 521.229Z" fill="#FFDD33"/>
<path d="M329.192 624.333L331.237 628.073L334.978 630.119L331.237 632.164L329.192 635.904L327.147 632.164L323.407 630.119L327.147 628.073L329.192 624.333Z" fill="#FFDD33"/>
<path d="M334.978 602.805L336.453 605.502L339.151 606.977L336.453 608.451L334.978 611.148L333.503 608.451L330.807 606.977L333.503 605.502L334.978 602.805Z" fill="#FFDD33"/>
<path d="M427.545 693.293L430.165 698.083L434.955 700.702L430.165 703.321L427.545 708.111L424.925 703.321L420.136 700.702L424.925 698.083L427.545 693.293Z" fill="#FFDD33"/>
<path d="M483.087 620.674L484.38 623.039L486.745 624.333L484.38 625.627L483.087 627.993L481.793 625.627L479.427 624.333L481.793 623.039L483.087 620.674Z" fill="#FFDD33"/>
<path d="M456.473 612.215L458.303 615.561L461.648 617.39L458.303 619.22L456.473 622.565L454.643 619.22L451.298 617.39L454.643 615.561L456.473 612.215Z" fill="#FFDD33"/>
<path d="M541.52 448.454L542.434 450.127L544.108 451.041L542.434 451.956L541.52 453.629L540.605 451.956L538.933 451.041L540.605 450.127L541.52 448.454Z" fill="#FFDD33"/>
<path d="M399.775 540.321L401.25 543.017L403.948 544.492L401.25 545.969L399.775 548.665L398.3 545.969L395.604 544.492L398.3 543.017L399.775 540.321Z" fill="#FFDD33"/>
<path d="M305.819 353.861C305.782 354.048 305.761 354.241 305.761 354.44C305.761 356.031 307.063 357.332 308.653 357.332H312.78C314.372 357.332 315.673 356.031 315.673 354.44C315.673 354.241 315.652 354.048 315.614 353.861H305.819Z" fill="#FFDD33"/>
<path d="M109.218 655.189H108.697C105.234 655.189 102.4 652.355 102.4 648.892V648.371C102.4 644.908 105.234 642.075 108.697 642.075H109.218C112.681 642.075 115.514 644.908 115.514 648.371V648.892C115.514 652.356 112.681 655.189 109.218 655.189Z" fill="#FFDD33"/>
<path d="M494.548 535.622H493.995C490.328 535.622 487.329 532.622 487.329 528.956V528.403C487.329 524.736 490.329 521.737 493.995 521.737H494.548C498.214 521.737 501.214 524.737 501.214 528.403V528.956C501.214 532.622 498.214 535.622 494.548 535.622Z" fill="#FFDD33"/>
<path d="M392.723 345.858H392.17C388.504 345.858 385.504 342.858 385.504 339.192V338.639C385.504 334.973 388.504 331.973 392.17 331.973H392.723C396.389 331.973 399.389 334.973 399.389 338.639V339.192C399.389 342.858 396.389 345.858 392.723 345.858Z" fill="#FFDD33"/>
<path d="M135.571 552.978C135.571 556.6 132.636 559.535 129.014 559.535C125.392 559.535 122.457 556.6 122.457 552.978C122.457 549.358 125.392 546.422 129.014 546.422C132.636 546.422 135.571 549.357 135.571 552.978Z" fill="#FFDD33"/>
<path d="M520.114 677.56C520.114 681.181 517.179 684.117 513.557 684.117C509.935 684.117 507 681.181 507 677.56C507 673.939 509.935 671.003 513.557 671.003C517.179 671.003 520.114 673.938 520.114 677.56Z" fill="#FFDD33"/>
<path d="M363.837 518.356L366.346 509.295L393.836 513.666L407.115 524.249L404.945 530.674L389.316 523.912L375.159 523.323L381.242 528.131L391.902 531.053L391.633 534.731L375.7 531.129L363.837 518.356Z" fill="#EDC29F"/>
<path d="M533.229 490.782C533.229 495.208 536.689 498.887 541.136 499.465V499.773H443.489C431.277 499.773 421.382 490.255 421.382 478.519V321.71H551.227V460.67H533.229V490.782Z" fill="#FFDD33"/>
<g opacity="0.63">
<path d="M512.977 365.88H445.661C444.696 365.88 443.908 366.669 443.908 367.633V367.779C443.908 368.743 444.696 369.532 445.661 369.532H512.977C513.942 369.532 514.73 368.743 514.73 367.779V367.633C514.73 366.67 513.942 365.88 512.977 365.88Z" fill="#AAAAA3"/>
<path d="M513.348 358.123H446.032C445.068 358.123 444.279 358.911 444.279 359.875V360.021C444.279 360.986 445.068 361.774 446.032 361.774H513.348C514.313 361.774 515.101 360.986 515.101 360.021V359.875C515.101 358.911 514.313 358.123 513.348 358.123Z" fill="#AAAAA3"/>
<path d="M474.274 349.908H445.547C444.646 349.908 443.908 350.645 443.908 351.547V352.262C443.908 353.163 444.645 353.901 445.547 353.901H474.274C475.175 353.901 475.912 353.164 475.912 352.263V351.549C475.912 350.645 475.175 349.908 474.274 349.908Z" fill="#AAAAA3"/>
</g>
<g opacity="0.63">
<path d="M512.977 396.914H445.661C444.696 396.914 443.908 397.703 443.908 398.667V398.812C443.908 399.777 444.696 400.565 445.661 400.565H512.977C513.942 400.565 514.73 399.777 514.73 398.812V398.667C514.73 397.702 513.942 396.914 512.977 396.914Z" fill="#AAAAA3"/>
<path d="M513.348 389.156H446.032C445.068 389.156 444.279 389.944 444.279 390.909V391.055C444.279 392.019 445.068 392.807 446.032 392.807H513.348C514.313 392.807 515.101 392.019 515.101 391.055V390.909C515.101 389.944 514.313 389.156 513.348 389.156Z" fill="#AAAAA3"/>
<path d="M474.274 380.941H445.547C444.646 380.941 443.908 381.677 443.908 382.579V383.294C443.908 384.195 444.645 384.933 445.547 384.933H474.274C475.175 384.933 475.912 384.196 475.912 383.294V382.579C475.912 381.679 475.175 380.941 474.274 380.941Z" fill="#AAAAA3"/>
</g>
<g opacity="0.63">
<path d="M512.977 426.121H445.661C444.696 426.121 443.908 426.909 443.908 427.873V428.019C443.908 428.984 444.696 429.772 445.661 429.772H512.977C513.942 429.772 514.73 428.984 514.73 428.019V427.873C514.73 426.91 513.942 426.121 512.977 426.121Z" fill="#AAAAA3"/>
<path d="M513.348 418.363H446.032C445.068 418.363 444.279 419.151 444.279 420.116V420.262C444.279 421.226 445.068 422.014 446.032 422.014H513.348C514.313 422.014 515.101 421.226 515.101 420.262V420.116C515.101 419.151 514.313 418.363 513.348 418.363Z" fill="#AAAAA3"/>
<path d="M474.274 410.149H445.547C444.646 410.149 443.908 410.886 443.908 411.788V412.503C443.908 413.403 444.645 414.141 445.547 414.141H474.274C475.175 414.141 475.912 413.405 475.912 412.503V411.788C475.912 410.886 475.175 410.149 474.274 410.149Z" fill="#AAAAA3"/>
</g>
<g opacity="0.63">
<path d="M512.977 455.938H445.661C444.696 455.938 443.908 456.726 443.908 457.69V457.836C443.908 458.8 444.696 459.589 445.661 459.589H512.977C513.942 459.589 514.73 458.8 514.73 457.836V457.69C514.73 456.726 513.942 455.938 512.977 455.938Z" fill="#AAAAA3"/>
<path d="M513.348 448.178H446.032C445.068 448.178 444.279 448.967 444.279 449.931V450.077C444.279 451.041 445.068 451.83 446.032 451.83H513.348C514.313 451.83 515.101 451.04 515.101 450.077V449.931C515.101 448.968 514.313 448.178 513.348 448.178Z" fill="#AAAAA3"/>
<path d="M474.274 439.964H445.547C444.646 439.964 443.908 440.701 443.908 441.603V442.318C443.908 443.219 444.645 443.957 445.547 443.957H474.274C475.175 443.957 475.912 443.22 475.912 442.318V441.603C475.912 440.701 475.175 439.964 474.274 439.964Z" fill="#AAAAA3"/>
</g>
<path d="M551.48 313.655H533.475V473.627H551.48V313.655Z" fill="#61F7DA"/>
<path d="M559.456 474.296H439.117V499.753H559.456V474.296Z" fill="#DBDBD9"/>
<path d="M439.117 500.137C449.341 500.137 457.63 491.849 457.63 481.624C457.63 471.4 449.341 463.111 439.117 463.111C428.892 463.111 420.604 471.4 420.604 481.624C420.604 491.849 428.892 500.137 439.117 500.137Z" fill="#FFDD33"/>
<path d="M556.69 499.934C563.828 499.934 569.614 494.148 569.614 487.01C569.614 479.872 563.828 474.086 556.69 474.086C549.552 474.086 543.766 479.872 543.766 487.01C543.766 494.148 549.552 499.934 556.69 499.934Z" fill="#DBDBD9"/>
<path d="M228.878 719.215H126.345C118.267 719.215 111.657 712.605 111.657 704.527V671.42C111.657 663.342 118.267 656.732 126.345 656.732H228.878C236.957 656.732 243.566 663.342 243.566 671.42V704.527C243.566 712.605 236.957 719.215 228.878 719.215Z" fill="#FFD502"/>
<path d="M194.969 661.36C194.969 661.36 230.84 644.004 223.897 613.919C223.897 613.919 243.568 638.218 223.897 662.517C223.897 662.517 192.076 658.468 194.969 661.36Z" fill="#FFD502"/>
<path d="M396.615 254.4L333.223 253.728C325.145 253.642 318.465 260.181 318.38 268.259L318.225 282.827C318.14 290.906 324.678 297.585 332.757 297.671L396.149 298.343C404.227 298.428 410.907 291.89 410.991 283.811L411.145 269.243C411.232 261.165 404.692 254.485 396.615 254.4Z" fill="#FFD502"/>
<path d="M332.719 291.636C332.719 291.636 352.66 311.328 341.214 329.78C341.214 329.78 359.822 318.066 352.239 297.427C352.239 297.427 330.136 292.907 332.719 291.636Z" fill="#FFD502"/>
<path d="M493.594 547.145L556.986 546.473C565.064 546.387 571.744 552.926 571.829 561.004L571.984 575.572C572.069 583.651 565.531 590.33 557.452 590.416L494.06 591.088C485.982 591.174 479.302 584.635 479.217 576.557L479.062 561.989C478.977 553.91 485.515 547.231 493.594 547.145Z" fill="#FFD502"/>
<path d="M499.009 579.831C499.009 579.831 514.356 603.281 499.279 618.908C499.279 618.908 519.936 611.377 516.871 589.604C516.871 589.604 496.219 580.527 499.009 579.831Z" fill="#FFD502"/>
<path d="M341.434 749.258C340.906 749.8 340.452 750.397 340.078 751.036L339.509 750.741C339.427 750.377 339.082 750.126 338.702 750.171C338.297 750.219 338.007 750.586 338.055 750.991C338.103 751.396 338.47 751.686 338.875 751.639C338.955 751.629 339.03 751.607 339.1 751.575L339.653 751.861C339.346 752.539 339.123 753.256 338.994 753.996L339.907 754.158C340.188 752.559 340.947 751.089 342.1 749.908L341.434 749.258Z" fill="#F9F5E4"/>
<path d="M348.151 746.44C347.942 746.44 347.734 746.448 347.527 746.461L347.437 745.695C347.667 745.513 347.799 745.219 347.762 744.905C347.706 744.424 347.27 744.08 346.789 744.137C346.308 744.193 345.964 744.629 346.02 745.11C346.057 745.421 346.252 745.674 346.516 745.8L346.605 746.564C345.731 746.706 344.888 746.97 344.084 747.355L344.484 748.192C345.627 747.645 346.861 747.368 348.15 747.368C348.757 747.368 349.366 747.433 349.956 747.562L350.153 746.655C349.498 746.513 348.825 746.44 348.151 746.44Z" fill="#F9F5E4"/>
<path d="M356.232 749.558C356.637 749.509 356.925 749.141 356.876 748.735C356.826 748.33 356.457 748.043 356.054 748.092C355.675 748.138 355.399 748.464 355.405 748.837L354.896 749.281C354.384 748.755 353.807 748.286 353.172 747.887L352.678 748.672C354.066 749.547 355.151 750.784 355.815 752.252L356.659 751.869C356.352 751.191 355.964 750.557 355.506 749.978L355.998 749.548C356.074 749.564 356.153 749.568 356.232 749.558Z" fill="#F9F5E4"/>
<path d="M347.481 758.935C347.009 758.963 346.533 758.978 346.065 758.978C344.988 758.978 343.944 758.903 343.032 758.759C342.555 758.683 341.997 758.569 341.478 758.401C342.758 760.679 345.234 762.226 348.072 762.226C351.567 762.226 354.513 759.881 355.355 756.713C354.52 757.263 353.513 757.723 352.345 758.088C350.902 758.538 349.218 758.831 347.481 758.935Z" fill="#F9F5E4"/>
<path d="M348.152 748.296C344.049 748.296 340.71 751.559 340.71 755.571C340.71 756.092 340.766 756.611 340.878 757.115C341.701 757.706 344.19 758.204 347.424 758.01C350.947 757.798 353.907 756.838 355.59 755.368C355.584 755.13 355.564 754.891 355.535 754.656C355.07 751.03 351.895 748.296 348.152 748.296ZM345.508 756.27C344.26 756.27 343.244 755.254 343.244 754.006C343.244 752.757 344.26 751.742 345.508 751.742C346.757 751.742 347.772 752.757 347.772 754.006C347.772 755.254 346.757 756.27 345.508 756.27ZM351.307 755.159C350.389 755.159 349.643 754.412 349.643 753.494C349.643 752.576 350.389 751.828 351.307 751.828C352.225 751.828 352.973 752.575 352.973 753.494C352.973 754.414 352.225 755.159 351.307 755.159Z" fill="#F9F5E4"/>
<path d="M367.739 750.581C367.378 750.439 366.753 750.203 366.048 750.291C365.373 750.374 365.015 750.707 365.015 751.524V752.584H367.742V754.685H365.015V761.362H362.65V754.685H361.01V752.584H362.65V751.497C362.65 749.44 363.747 748.09 365.793 748.09C366.579 748.09 367.209 748.24 367.739 748.467V750.581Z" fill="#F9F5E4"/>
<path d="M373.495 754.66C373.279 754.623 373.057 754.603 372.852 754.603C371.755 754.603 371.003 755.274 371.003 756.578V761.361H368.639V752.582H370.931V753.543C371.483 752.719 372.327 752.347 373.405 752.347C373.912 752.347 374.443 752.504 374.744 752.76L373.495 754.66Z" fill="#F9F5E4"/>
<path d="M382.88 756.958C382.88 757.23 382.862 757.557 382.835 757.755H376.611C376.864 759.023 377.753 759.576 378.867 759.576C379.628 759.576 380.452 759.268 381.086 758.734L382.473 760.256C381.476 761.171 380.208 761.587 378.731 761.587C376.04 761.587 374.174 759.757 374.174 756.994C374.174 754.23 375.985 752.346 378.613 752.346C381.141 752.347 382.872 754.222 382.88 756.958ZM376.621 756.143H380.507C380.29 755.019 379.61 754.385 378.595 754.385C377.481 754.386 376.829 755.056 376.621 756.143Z" fill="#F9F5E4"/>
<path d="M392.247 756.958C392.247 757.23 392.229 757.557 392.202 757.755H385.978C386.231 759.023 387.119 759.576 388.234 759.576C388.995 759.576 389.819 759.268 390.454 758.734L391.84 760.256C390.843 761.171 389.575 761.587 388.098 761.587C385.408 761.587 383.541 759.757 383.541 756.994C383.541 754.23 385.353 752.346 387.98 752.346C390.508 752.347 392.239 754.222 392.247 756.958ZM385.988 756.143H389.874C389.656 755.019 388.977 754.385 387.962 754.385C386.848 754.386 386.196 755.056 385.988 756.143Z" fill="#F9F5E4"/>
<path d="M402.462 756.968C402.462 759.605 400.632 761.589 398.214 761.589C397.036 761.589 396.203 761.126 395.632 760.447V764.985H393.277V752.582H395.587V753.552C396.157 752.836 397.001 752.347 398.205 752.347C400.632 752.347 402.462 754.332 402.462 756.968ZM395.514 756.968C395.514 758.354 396.428 759.387 397.769 759.387C399.165 759.387 400.034 758.308 400.034 756.968C400.034 755.628 399.164 754.549 397.769 754.549C396.429 754.549 395.514 755.581 395.514 756.968Z" fill="#F9F5E4"/>
<path d="M406.261 749.711C406.261 750.563 405.6 751.215 404.748 751.215C403.897 751.215 403.244 750.563 403.244 749.711C403.244 748.859 403.897 748.189 404.748 748.189C405.6 748.189 406.261 748.86 406.261 749.711ZM405.944 761.362H403.58V752.584H405.944V761.362Z" fill="#F9F5E4"/>
<path d="M409.89 755.709L413.197 752.582H416.096L411.838 756.713L416.123 761.361H413.215L409.89 757.81V761.361H407.525V748.316H409.89V755.709Z" fill="#F9F5E4"/>
<path d="M248.788 761.283V759.991C248.143 760.87 247.085 761.498 245.866 761.498C243.607 761.498 242.012 759.777 242.012 756.962C242.012 754.201 243.589 752.407 245.866 752.407C247.031 752.407 248.089 752.981 248.788 753.931V749.323H250.133V761.281H248.788V761.283ZM248.788 758.934V755.007C248.304 754.254 247.264 753.608 246.188 753.608C244.449 753.608 243.41 755.043 243.41 756.961C243.41 758.879 244.45 760.295 246.188 760.295C247.265 760.296 248.304 759.686 248.788 758.934Z" fill="#F9F5E4"/>
<path d="M251.872 756.943C251.872 754.433 253.665 752.407 256.139 752.407C258.757 752.407 260.298 754.451 260.298 757.051V757.393H253.288C253.396 759.024 254.543 760.387 256.408 760.387C257.395 760.387 258.398 759.992 259.079 759.294L259.724 760.172C258.864 761.033 257.698 761.499 256.282 761.499C253.718 761.497 251.872 759.651 251.872 756.943ZM256.122 753.519C254.275 753.519 253.36 755.078 253.289 756.405H258.973C258.954 755.115 258.094 753.519 256.122 753.519Z" fill="#F9F5E4"/>
<path d="M261.267 760.134L261.966 759.166C262.54 759.83 263.633 760.404 264.816 760.404C266.143 760.404 266.86 759.776 266.86 758.915C266.86 756.817 261.499 758.109 261.499 754.899C261.499 753.555 262.664 752.407 264.726 752.407C266.196 752.407 267.236 752.963 267.935 753.663L267.307 754.596C266.788 753.968 265.837 753.502 264.726 753.502C263.542 753.502 262.808 754.093 262.808 754.864C262.808 756.764 268.169 755.509 268.169 758.88C268.169 760.333 267.003 761.498 264.762 761.498C263.346 761.497 262.145 761.067 261.267 760.134Z" fill="#F9F5E4"/>
<path d="M269.675 750.489C269.675 749.987 270.087 749.575 270.571 749.575C271.073 749.575 271.485 749.987 271.485 750.489C271.485 750.991 271.073 751.385 270.571 751.385C270.087 751.385 269.675 750.991 269.675 750.489ZM269.907 761.283V752.623H271.253V761.283H269.907Z" fill="#F9F5E4"/>
<path d="M273.476 763.505L274.156 762.502C274.874 763.362 275.734 763.685 276.972 763.685C278.406 763.685 279.75 762.986 279.75 761.086V759.848C279.122 760.727 278.065 761.39 276.846 761.39C274.587 761.39 272.991 759.705 272.991 756.908C272.991 754.13 274.569 752.407 276.846 752.407C278.011 752.407 279.051 752.981 279.75 753.931V752.623H281.095V761.032C281.095 763.901 279.087 764.797 276.972 764.797C275.502 764.797 274.498 764.509 273.476 763.505ZM279.751 758.791V755.007C279.285 754.254 278.246 753.608 277.17 753.608C275.431 753.608 274.391 754.989 274.391 756.907C274.391 758.808 275.431 760.205 277.17 760.205C278.245 760.207 279.285 759.543 279.751 758.791Z" fill="#F9F5E4"/>
<path d="M289.181 761.283V755.617C289.181 754.093 288.41 753.608 287.244 753.608C286.187 753.608 285.182 754.253 284.68 754.953V761.281H283.335V752.622H284.68V753.876C285.29 753.159 286.472 752.406 287.763 752.406C289.575 752.406 290.525 753.32 290.525 755.203V761.281H289.181V761.283Z" fill="#F9F5E4"/>
<path d="M292.265 756.943C292.265 754.433 294.058 752.407 296.532 752.407C299.15 752.407 300.691 754.451 300.691 757.051V757.393H293.681C293.789 759.024 294.935 760.387 296.801 760.387C297.787 760.387 298.791 759.992 299.473 759.294L300.118 760.172C299.257 761.033 298.092 761.499 296.676 761.499C294.112 761.497 292.265 759.651 292.265 756.943ZM296.514 753.519C294.667 753.519 293.753 755.078 293.682 756.405H299.365C299.347 755.115 298.486 753.519 296.514 753.519Z" fill="#F9F5E4"/>
<path d="M308.687 761.283V759.991C308.042 760.87 306.985 761.498 305.765 761.498C303.505 761.498 301.91 759.777 301.91 756.962C301.91 754.201 303.488 752.407 305.765 752.407C306.93 752.407 307.989 752.981 308.687 753.931V749.323H310.033V761.281H308.687V761.283ZM308.687 758.934V755.007C308.203 754.254 307.164 753.608 306.088 753.608C304.348 753.608 303.309 755.043 303.309 756.961C303.309 758.879 304.348 760.295 306.088 760.295C307.164 760.296 308.203 759.686 308.687 758.934Z" fill="#F9F5E4"/>
<path d="M316.45 761.283V749.324H317.794V753.932C318.494 752.983 319.533 752.409 320.717 752.409C322.975 752.409 324.571 754.202 324.571 756.963C324.571 759.777 322.975 761.499 320.717 761.499C319.498 761.499 318.44 760.871 317.794 759.992V761.284H316.45V761.283ZM320.377 760.296C322.134 760.296 323.175 758.88 323.175 756.962C323.175 755.043 322.134 753.609 320.377 753.609C319.319 753.609 318.262 754.254 317.795 755.008V758.935C318.26 759.686 319.319 760.296 320.377 760.296Z" fill="#F9F5E4"/>
<path d="M326.043 763.451C326.24 763.541 326.563 763.595 326.779 763.595C327.37 763.595 327.764 763.398 328.07 762.68L328.644 761.372L325.022 752.623H326.475L329.362 759.723L332.231 752.623H333.701L329.362 763.039C328.841 764.294 327.963 764.778 326.816 764.795C326.529 764.795 326.08 764.742 325.83 764.669L326.043 763.451Z" fill="#F9F5E4"/>
</g>
</g>
<defs>
<clipPath id="clip0_187_1270">
<rect width="644" height="960" fill="white"/>
</clipPath>
<clipPath id="clip1_187_1270">
<rect width="612" height="612" fill="white" transform="translate(16 174)"/>
</clipPath>
</defs>
</svg>
