<?xml version="1.0" encoding="UTF-8"?>
<svg version="1.1" xmlns="http://www.w3.org/2000/svg" width="2048" height="2048">
<path d="M0 0 C6.30722961 0.71175334 8.81226276 4.55646016 12.64306641 9.28759766 C38.76894387 42.2575337 57.53717842 81.02805462 63 123 C63.08400055 123.63157013 63.1680011 124.26314026 63.25454712 124.91384888 C64.74978974 136.36272129 65.3676448 147.64592098 65.3125 159.1875 C65.30976578 160.38948532 65.30976578 160.38948532 65.30697632 161.61575317 C65.25625833 174.9364119 64.47696999 187.88546152 62 201 C61.76651855 202.30420898 61.76651855 202.30420898 61.52832031 203.63476562 C55.40045382 236.97720888 41.27285441 269.96958141 21.0703125 297.18359375 C18.80104866 300.27064889 16.61040864 303.40741828 14.4375 306.5625 C14.05513184 307.11711914 13.67276367 307.67173828 13.27880859 308.24316406 C12.90320801 308.78811523 12.52760742 309.33306641 12.140625 309.89453125 C6.22154298 318.48152067 0.18996016 326.99009326 -5.828125 335.5078125 C-7.88334849 338.41707316 -9.93544821 341.3284891 -11.984375 344.2421875 C-17.08511433 351.4907398 -22.22699103 358.70488996 -27.4375 365.875 C-32.58075855 372.95721604 -37.55362813 380.1435204 -42.47412109 387.38183594 C-45.87391704 392.37648289 -49.34895252 397.29972681 -52.93359375 402.1640625 C-55.54265286 405.74473719 -58.08108953 409.37289195 -60.625 413 C-64.97323541 419.19357059 -69.42272673 425.30196427 -73.9375 431.375 C-79.24296798 438.51908328 -84.32483975 445.78741716 -89.31616211 453.15356445 C-93.90509714 459.90932173 -98.7023797 466.48990505 -103.5625 473.05175781 C-110.89729858 482.99260236 -118.0782294 493.03538012 -125.04467773 503.23754883 C-129.19818746 509.31435863 -133.46834507 515.30255334 -137.76611328 521.27783203 C-139.01637226 523.02285118 -140.25743802 524.77407275 -141.49609375 526.52734375 C-143.56064835 529.44750128 -145.64081916 532.3557448 -147.73681641 535.25341797 C-148.59347685 536.4379075 -149.44722848 537.62450521 -150.29833984 538.81298828 C-151.58066273 540.59444469 -152.8812635 542.36102893 -154.1875 544.125 C-154.94417969 545.15882813 -155.70085937 546.19265625 -156.48046875 547.2578125 C-160.38803884 551.51070273 -164.01260698 553.90536224 -169.9375 554.1875 C-178.3625253 552.48629297 -183.14347589 544.79010518 -187.64648438 538.11230469 C-188.77260352 536.413468 -189.88846365 534.70840795 -191 533 C-195.49283113 526.13326593 -200.10530476 519.45724071 -205.15258789 512.98730469 C-209.96765138 506.79899204 -214.48519446 500.40900426 -219 494 C-220.52225548 491.8407902 -222.04456103 489.68161572 -223.56689453 487.52246094 C-224.60458599 486.05063658 -225.64202143 484.57863169 -226.67919922 483.10644531 C-230.04029396 478.34137637 -233.45168933 473.61655665 -236.89453125 468.91015625 C-240.04793833 464.55155091 -243.13439772 460.1462363 -246.22875977 455.74560547 C-249.92009187 450.5054426 -253.66814239 445.30921515 -257.4375 440.125 C-261.98600841 433.86440108 -266.40458901 427.52809464 -270.75 421.125 C-274.91585462 414.98752893 -279.18508887 408.99234203 -283.68359375 403.09375 C-289.92077478 394.76348461 -295.79742382 386.15974393 -301.75 377.625 C-304.09996351 374.25652931 -306.50643533 370.93538593 -308.9375 367.625 C-310.293122 365.75105194 -311.64723157 363.87600905 -313 362 C-313.76570312 360.95972656 -314.53140625 359.91945313 -315.3203125 358.84765625 C-316.43019531 357.28337891 -316.43019531 357.28337891 -317.5625 355.6875 C-318.24441406 354.74261719 -318.92632813 353.79773437 -319.62890625 352.82421875 C-321.3444992 349.29039054 -321.12918168 347.72284791 -320 344 C-318.7578125 341.5703125 -318.7578125 341.5703125 -317.125 339.125 C-316.49464844 338.17367188 -315.86429688 337.22234375 -315.21484375 336.2421875 C-311.76528556 331.19256969 -308.30854325 326.14829519 -304.83203125 321.1171875 C-302.14741453 317.22444746 -299.49918176 313.30870193 -296.875 309.375 C-296.46765625 308.76438721 -296.0603125 308.15377441 -295.640625 307.5246582 C-293.5801558 304.42202278 -291.54790664 301.30397179 -289.55078125 298.16015625 C-289.1532666 297.53512207 -288.75575195 296.91008789 -288.34619141 296.26611328 C-287.26133428 294.55402312 -286.18315422 292.8377072 -285.10546875 291.12109375 C-278.47684087 281.29498304 -278.47684087 281.29498304 -273 279 C-269.98932802 278.55782626 -267.0391696 278.52369057 -264 278.5625 C-263.15131348 278.57224854 -262.30262695 278.58199707 -261.42822266 278.59204102 C-243.69939842 279.08758803 -226.13303962 288.24589071 -214 301 C-213.28457031 301.73089844 -212.56914063 302.46179688 -211.83203125 303.21484375 C-204.58576187 310.9505422 -197.30673199 320.5340156 -197.6328125 331.56640625 C-198.33795192 336.23983025 -200.63066045 339.96933531 -203 344 C-203.62003906 345.06605469 -204.24007812 346.13210938 -204.87890625 347.23046875 C-207.20586609 351.18238823 -209.60002335 355.0921264 -212 359 C-212.4959668 359.80969238 -212.99193359 360.61938477 -213.50292969 361.45361328 C-220.83589769 373.41209626 -228.32212017 385.26007553 -236 397 C-217.43330179 403.36718046 -196.10083192 398.20839932 -179 390 C-155.06473581 378.23423158 -138.15591452 360.67456574 -128.8359375 335.54980469 C-125.82545102 326.36711753 -123.89154288 316.61027822 -122.60058594 307.03857422 C-121.97463532 302.69976337 -121.49451262 299.70820258 -118.95703125 296.07421875 C-115.07463782 293.35090183 -111.06070503 291.60791182 -106.6875 289.8125 C-92.75394835 283.80065183 -80.97391026 276.53654427 -70 266 C-68.67091404 264.89072441 -67.33772324 263.78634409 -66 262.6875 C-40.86782545 240.63376451 -23.73867718 202.15957057 -21.12451172 169.11083984 C-19.56514895 142.6750546 -23.86613624 116.16604641 -35.796875 92.33984375 C-36.3007373 91.32696289 -36.80459961 90.31408203 -37.32373047 89.27050781 C-38.33784118 87.25505454 -39.37258691 85.24981818 -40.43017578 83.25683594 C-43.5168622 77.15897837 -45.04271621 72.68211917 -43 66 C-41.43359375 62.48046875 -41.43359375 62.48046875 -39.4375 59.1875 C-39.08107422 58.59275879 -38.72464844 57.99801758 -38.35742188 57.38525391 C-35.4168322 52.53121374 -32.30335917 47.78757995 -29.10766602 43.09814453 C-27.1545267 40.22714512 -25.22546082 37.34193451 -23.3046875 34.44921875 C-18.95401724 27.91615386 -14.54488125 21.42386959 -10.125 14.9375 C-8.62738324 12.73843158 -7.13009308 10.53914111 -5.6328125 8.33984375 C-4.98199707 7.38456787 -4.33118164 6.42929199 -3.66064453 5.44506836 C-2.43185185 3.63584186 -1.21316268 1.81974402 0 0 Z " fill="#FFD501" transform="translate(1193,688)"/>
<path d="M0 0 C1.0445482 3.22632101 1.15325099 4.64034016 -0.1965332 7.80810547 C-0.80843506 8.81760254 -1.42033691 9.82709961 -2.05078125 10.8671875 C-2.72496094 11.99294189 -3.39914062 13.11869629 -4.09375 14.27856445 C-4.83282425 15.47769022 -5.57241767 16.67649614 -6.3125 17.875 C-7.05691473 19.10385085 -7.80040163 20.33326423 -8.54296875 21.56323242 C-12.75252297 28.5025842 -17.08997437 35.34837871 -21.68603516 42.0390625 C-24.42213802 46.04004462 -26.8399519 50.14160523 -29.1875 54.375 C-38.30680783 70.60957423 -38.30680783 70.60957423 -45 73 C-50.21933454 73.60339128 -54.86199474 72.94540744 -59.88208008 71.53295898 C-93.29484088 63.12488327 -129.58297168 73.35534524 -159 89 C-160.53914063 89.79664063 -160.53914063 89.79664063 -162.109375 90.609375 C-195.02630263 108.58023819 -217.75935205 141.83519444 -228.22021484 177.21337891 C-235.85835635 204.50885391 -235.37979399 233.01033418 -226.07861328 259.72485352 C-221.40377156 273.31741488 -221.40377156 273.31741488 -223.94140625 279.171875 C-225.48707102 281.58504962 -227.2052169 283.76525061 -229 286 C-230.67211238 288.25206021 -232.30627888 290.53070299 -233.9375 292.8125 C-234.36869141 293.41425049 -234.79988281 294.01600098 -235.24414062 294.63598633 C-248.91648292 313.86336212 -255.17204285 334.80217805 -255.1875 358.3125 C-255.19974609 359.28123047 -255.21199219 360.24996094 -255.22460938 361.24804688 C-255.23818816 368.03291452 -254.43154639 374.37108859 -253 381 C-254.32 381 -255.64 381 -257 381 C-258.4296875 379.48046875 -258.4296875 379.48046875 -259.875 377.1875 C-262.79571348 372.74977801 -265.85236575 368.46613897 -269.03491211 364.21142578 C-275.40614694 355.68883197 -281.48249025 347.09868589 -287 338 C-287.35868164 337.4234668 -287.71736328 336.84693359 -288.08691406 336.25292969 C-304.15062092 310.28209084 -312.4834773 279.97864023 -317 250 C-317.11714355 249.25830566 -317.23428711 248.51661133 -317.35498047 247.75244141 C-325.96795907 191.68489423 -310.66612428 130.64641938 -277.66015625 84.71484375 C-275.48407549 81.77248498 -273.25981111 78.87837255 -271 76 C-270.03320312 74.74316406 -270.03320312 74.74316406 -269.046875 73.4609375 C-258.18174802 59.54827491 -245.86613637 46.91589459 -232 36 C-230.989375 35.195625 -229.97875 34.39125 -228.9375 33.5625 C-207.35038745 16.54375305 -184.37624426 4.42496412 -158.3125 -4.1875 C-157.13519821 -4.57878082 -157.13519821 -4.57878082 -155.93411255 -4.97796631 C-143.74857265 -9.00666574 -131.75425208 -12.33628174 -119 -14 C-118.26281738 -14.10989258 -117.52563477 -14.21978516 -116.76611328 -14.33300781 C-76.34544129 -20.33108521 -38.05762201 -13.21965301 0 0 Z " fill="#FFD501" transform="translate(1109,628)"/>
<path d="M0 0 C11.06796237 -0.26931318 22.14109714 -0.29477736 33.21179581 -0.34263992 C36.96994615 -0.36060541 40.72736764 -0.39572486 44.48523331 -0.44517899 C49.07075338 -0.50538146 53.6555874 -0.53610615 58.24148369 -0.54581261 C59.9746274 -0.55433909 61.70775396 -0.57308761 63.44066811 -0.60255623 C78.5839139 -0.84682904 78.5839139 -0.84682904 83.1300087 2.93079758 C85.52100101 5.58252496 87.27021545 8.46840196 88.81897354 11.68738937 C91.75696203 17.47155422 94.94779034 23.01967098 98.31897354 28.56238937 C102.98751125 36.27346791 107.51769155 44.05085658 111.96985245 51.88856125 C115.99836481 58.97368597 120.08475049 66.02378757 124.19397354 73.06238937 C124.79000381 74.08364914 125.38603409 75.10490891 126.00012589 76.15711594 C129.09128505 81.48050769 129.09128505 81.48050769 132.34363174 86.70521164 C133.63147354 89.06238937 133.63147354 89.06238937 133.17053604 91.77723312 C131.07415474 96.25199626 128.59244531 100.41802066 126.00647354 104.62488937 C125.46232803 105.52183517 124.91818253 106.41878098 124.35754776 107.34290695 C121.52641418 112.00148483 118.65134886 116.63067528 115.75647354 121.24988937 C111.06715224 128.79831164 106.82580533 136.60505926 102.55383682 144.39515305 C101.68734512 145.96293503 101.68734512 145.96293503 100.80334854 147.56238937 C100.28869034 148.50082687 99.77403214 149.43926437 99.24377823 150.40613937 C97.56984801 153.16391659 95.66750842 155.56422479 93.63147354 158.06238937 C92.86227024 159.2415052 92.1187488 160.43814258 91.41272354 161.65613937 C91.03760635 162.29422531 90.66248917 162.93231125 90.27600479 163.58973312 C89.89830948 164.24070969 89.52061417 164.89168625 89.13147354 165.56238937 C88.00751383 167.49958956 86.87665607 169.42603313 85.69592667 171.32923508 C84.76881393 172.83877023 83.91223668 174.39117947 83.06897354 175.94910812 C79.01540008 179.46350435 74.33416633 179.11444094 69.13147354 179.37488937 C68.12471573 179.44772141 67.11795792 179.52055344 66.08069229 179.5955925 C50.08363001 180.63116065 33.97928542 180.10766011 17.96667862 179.69007492 C15.43380157 179.62462653 12.90083105 179.56497382 10.36780167 179.50574875 C6.25708998 179.40618031 2.14775825 179.28146301 -1.96172714 179.14033127 C-3.5816732 179.08787086 -5.20186455 179.04255145 -6.82220078 179.00397873 C-9.16806767 178.94671068 -11.51190243 178.8648209 -13.85680771 178.77723312 C-14.90822197 178.75929451 -14.90822197 178.75929451 -15.98087692 178.7409935 C-19.20530625 178.59566858 -21.0662801 178.29397823 -23.65563583 176.30994797 C-25.36872843 174.06212436 -26.86993982 171.83236234 -28.28649521 169.38660812 C-29.07806015 168.03176315 -29.07806015 168.03176315 -29.8856163 166.64954758 C-30.43685165 165.69266037 -30.98808701 164.73577316 -31.55602646 163.74988937 C-32.71843293 161.75749533 -33.88119456 159.76530845 -35.04430771 157.77332687 C-35.61101181 156.79847336 -36.17771591 155.82361984 -36.76159286 154.81922531 C-38.89696077 151.15581384 -41.06155952 147.5106978 -43.24352646 143.87488937 C-43.78106552 142.97758102 -43.78106552 142.97758102 -44.32946396 142.06214523 C-46.51075728 138.43797503 -48.76193258 134.86598577 -51.05602646 131.31238937 C-53.80887123 127.02248711 -56.29719857 122.64798221 -58.69665146 118.15223312 C-60.35327528 115.09057554 -62.06647281 112.06746327 -63.79357529 109.04529953 C-65.67930394 105.73270926 -67.52996144 102.40134012 -69.36852646 99.06238937 C-69.87512802 98.14586594 -70.38172958 97.2293425 -70.90368271 96.28504562 C-71.28395615 95.53094406 -71.66422958 94.7768425 -72.05602646 93.99988937 C-72.36926865 93.39016281 -72.68251083 92.78043625 -73.00524521 92.15223312 C-74.08429874 85.94477461 -69.91246804 80.13138217 -66.80602646 75.06238937 C-66.3598497 74.31964767 -65.91367294 73.57690598 -65.45397568 72.81165695 C-64.53648611 71.28592022 -63.61559386 69.76222441 -62.69128036 68.24061203 C-61.49642296 66.27300077 -60.31069266 64.30038676 -59.13024521 62.32410812 C-56.41052162 57.77241744 -53.67570023 53.22986277 -50.93737411 48.6893425 C-43.41190701 36.22526593 -43.41190701 36.22526593 -36.11852646 23.62488937 C-33.49627015 19.0140887 -30.85042605 14.4214781 -28.11852646 9.87488937 C-27.49462021 8.82945969 -26.87071396 7.78403 -26.22790146 6.70692062 C-24.32325699 3.99800402 -23.2162755 2.70470462 -20.36852646 1.06238937 C-17.61993672 0.68542739 -15.07757888 0.47236206 -12.32043076 0.39417648 C-11.52667132 0.36144355 -10.73291189 0.32871061 -9.91509914 0.29498577 C-6.61069133 0.16826168 -3.30563634 0.08707379 0 0 Z M-6.22008896 64.10145187 C-7.56975208 66.04728521 -8.48292099 67.86593177 -9.36852646 70.06238937 C-9.94667099 71.47584641 -9.94667099 71.47584641 -10.53649521 72.91785812 C-14.35471571 83.61669442 -15.58283553 95.33459826 -10.63415146 105.85926437 C-8.52080747 109.53804835 -6.08993068 112.81426175 -3.36852646 116.06238937 C-2.85934677 116.69274094 -2.35016708 117.3230925 -1.82555771 117.97254562 C4.4383492 125.55686479 11.05587089 130.52072672 21.01819229 131.64051437 C33.65679212 132.71494812 44.27727358 131.97232232 54.98694229 124.56238937 C56.90355626 123.05915609 56.90355626 123.05915609 57.63147354 120.06238937 C58.25022354 119.75430344 58.86897354 119.4462175 59.50647354 119.12879562 C63.55324362 117.09797167 65.38081437 112.84758888 67.63147354 109.06238937 C68.05170792 108.42688156 68.47194229 107.79137375 68.90491104 107.13660812 C73.86133456 98.36619913 73.00583168 84.85670914 70.44397354 75.37488937 C67.89546603 68.50708041 64.05875732 62.97278899 58.63147354 58.06238937 C58.14162979 57.56867844 57.65178604 57.0749675 57.14709854 56.56629562 C50.40997837 50.13394993 41.77272659 47.64278639 32.63147354 47.06238937 C31.88639542 46.99922531 31.14131729 46.93606125 30.37366104 46.87098312 C15.49180871 46.12928309 3.50159448 53.39529416 -6.22008896 64.10145187 Z " fill="#FFD501" transform="translate(994.3685264587402,753.9376106262207)"/>
<path d="M0 0 C4.25414623 -0.02465622 8.50825498 -0.04283899 12.76245117 -0.05493164 C14.21070073 -0.05997101 15.65894517 -0.06680253 17.10717773 -0.07543945 C19.18474588 -0.08752247 21.26224697 -0.09323211 23.33984375 -0.09765625 C24.59144287 -0.10289307 25.84304199 -0.10812988 27.13256836 -0.11352539 C30 0 30 0 31 1 C31.09326716 2.56547048 31.11745582 4.13512772 31.11352539 5.70336914 C31.11344986 6.70433121 31.11337433 7.70529327 31.11329651 8.73658752 C31.10813522 9.8251152 31.10297394 10.91364288 31.09765625 12.03515625 C31.0962413 13.14354355 31.09482635 14.25193085 31.09336853 15.39390564 C31.08775033 18.95013069 31.07519475 22.50629383 31.0625 26.0625 C31.05748734 28.46679597 31.05292403 30.87109292 31.04882812 33.27539062 C31.0386239 39.18363706 31.01905205 45.09174885 31 51 C47.17 51 63.34 51 80 51 C79.98839844 47.40222656 79.97679687 43.80445313 79.96484375 40.09765625 C79.95705443 36.62931405 79.95097696 33.16097281 79.94506836 29.69262695 C79.94002651 27.27432828 79.93319322 24.85603267 79.92456055 22.43774414 C79.91248843 18.97020717 79.90677037 15.50271034 79.90234375 12.03515625 C79.89718246 10.94662857 79.89202118 9.85810089 79.88670349 8.73658752 C79.88662796 7.73562546 79.88655243 6.73466339 79.88647461 5.70336914 C79.884254 4.81734512 79.88203339 3.93132111 79.87974548 3.01844788 C80 1 80 1 81 0 C83.29151417 -0.08790975 85.58572524 -0.10694038 87.87890625 -0.09765625 C88.90889992 -0.09553383 88.90889992 -0.09553383 89.95970154 -0.09336853 C92.16067801 -0.08775479 94.36155409 -0.07520007 96.5625 -0.0625 C98.05143083 -0.05748676 99.54036324 -0.05292355 101.02929688 -0.04882812 C104.68623075 -0.03778093 108.34310558 -0.02050713 112 0 C112.7267272 3.9166258 113.12663815 7.6238233 113.13371277 11.60540771 C113.14011024 13.24158302 113.14011024 13.24158302 113.14663696 14.91081238 C113.14595718 16.68310966 113.14595718 16.68310966 113.14526367 18.49121094 C113.14862228 19.74708511 113.1519809 21.00295929 113.15544128 22.29689026 C113.16329601 25.72839655 113.16661766 29.15984233 113.16725707 32.59135342 C113.16796902 34.73519333 113.17010596 36.87902695 113.17275429 39.0228653 C113.18199124 46.50108746 113.18609073 53.97929185 113.18530273 61.45751953 C113.18470049 68.43199823 113.19528511 75.40639994 113.2110464 82.38085914 C113.22410133 88.3707744 113.22948758 94.36066441 113.22884732 100.35059381 C113.22859198 103.92764261 113.23146376 107.50462277 113.24202538 111.08165741 C113.25346258 115.06325837 113.2489722 119.04475243 113.24291992 123.02636719 C113.24853943 124.21599564 113.25415894 125.40562408 113.25994873 126.63130188 C113.25575424 127.71080612 113.25155975 128.79031036 113.24723816 129.90252686 C113.24778293 130.84418072 113.24832769 131.78583458 113.24888897 132.75602341 C113 135 113 135 111 137 C108.03491211 137.24291992 108.03491211 137.24291992 104.27734375 137.23046875 C103.61666397 137.23001053 102.95598419 137.22955231 102.27528381 137.2290802 C100.87906091 137.22605921 99.48284133 137.21817742 98.08666992 137.20581055 C95.94242502 137.18754196 93.79861151 137.18530094 91.65429688 137.18554688 C81.14743212 137.14743212 81.14743212 137.14743212 80 136 C79.90634994 134.2507128 79.88255562 132.49763746 79.88647461 130.74584961 C79.88658791 129.06421974 79.88658791 129.06421974 79.88670349 127.34861755 C79.89186478 126.1288472 79.89702606 124.90907684 79.90234375 123.65234375 C79.9037587 122.41078018 79.90517365 121.16921661 79.90663147 119.89002991 C79.91129409 116.58394509 79.92028503 113.27792854 79.93133545 109.97186279 C79.94155173 106.60038861 79.94618426 103.22890718 79.95117188 99.85742188 C79.96137721 93.23824261 79.98094894 86.61918347 80 80 C63.83 80 47.66 80 31 80 C31 98.48 31 116.96 31 136 C28.14164514 137.42917743 25.68742281 137.12980809 22.49609375 137.1328125 C21.19865234 137.13410156 19.90121094 137.13539063 18.56445312 137.13671875 C17.54943726 137.13357666 17.54943726 137.13357666 16.51391602 137.13037109 C14.44214585 137.12501202 12.37059161 137.13032518 10.29882812 137.13671875 C8.35459961 137.13478516 8.35459961 137.13478516 6.37109375 137.1328125 C5.17411865 137.13168457 3.97714355 137.13055664 2.74389648 137.12939453 C0 137 0 137 -1 136 C-1.11271463 134.31617263 -1.15574506 132.627645 -1.17167664 130.94012451 C-1.18435577 129.84372147 -1.19703491 128.74731842 -1.21009827 127.61769104 C-1.21899582 126.40419479 -1.22789337 125.19069855 -1.23706055 123.94042969 C-1.25017273 122.67059738 -1.26328491 121.40076508 -1.27679443 120.092453 C-1.31248907 116.59851922 -1.34167949 113.10455961 -1.36918616 109.61055279 C-1.38666689 107.42834836 -1.40554649 105.24616072 -1.42493629 103.06397247 C-1.49255006 95.45267673 -1.55495321 87.84135845 -1.61254883 80.22998047 C-1.66638332 73.13346632 -1.73148137 66.03711629 -1.80188721 58.94074893 C-1.86180515 52.85158097 -1.91385989 46.76237854 -1.95981437 40.67308927 C-1.98740332 37.03491177 -2.01816796 33.39682906 -2.05682945 29.75875092 C-2.09965523 25.69824934 -2.12614162 21.63779899 -2.15112305 17.57714844 C-2.16609329 16.37174911 -2.18106354 15.16634979 -2.19648743 13.92442322 C-2.20070709 12.81674088 -2.20492676 11.70905853 -2.20927429 10.56781006 C-2.2171934 9.60767879 -2.22511251 8.64754753 -2.2332716 7.65832138 C-1.9804239 4.7769143 -1.20047182 2.61766776 0 0 Z " fill="#FFD501" transform="translate(1049,1298)"/>
<path d="M0 0 C4.39656173 -0.02465504 8.7930872 -0.04283842 13.18969727 -0.05493164 C14.68644918 -0.05997121 16.18319616 -0.06680287 17.67993164 -0.07543945 C19.82699807 -0.08752159 21.97399962 -0.09323191 24.12109375 -0.09765625 C26.06133423 -0.10551147 26.06133423 -0.10551147 28.04077148 -0.11352539 C31 0 31 0 32 1 C32.09326716 2.56547048 32.11745582 4.13512772 32.11352539 5.70336914 C32.11344986 6.70433121 32.11337433 7.70529327 32.11329651 8.73658752 C32.10813522 9.8251152 32.10297394 10.91364288 32.09765625 12.03515625 C32.0962413 13.14354355 32.09482635 14.25193085 32.09336853 15.39390564 C32.08775033 18.95013069 32.07519475 22.50629383 32.0625 26.0625 C32.05748734 28.46679597 32.05292403 30.87109292 32.04882812 33.27539062 C32.0386239 39.18363706 32.01905205 45.09174885 32 51 C47.84 51 63.68 51 80 51 C79.98839844 47.40222656 79.97679687 43.80445313 79.96484375 40.09765625 C79.95705443 36.62931405 79.95097696 33.16097281 79.94506836 29.69262695 C79.94002651 27.27432828 79.93319322 24.85603267 79.92456055 22.43774414 C79.91248843 18.97020717 79.90677037 15.50271034 79.90234375 12.03515625 C79.89718246 10.94662857 79.89202118 9.85810089 79.88670349 8.73658752 C79.88662796 7.73562546 79.88655243 6.73466339 79.88647461 5.70336914 C79.884254 4.81734512 79.88203339 3.93132111 79.87974548 3.01844788 C80 1 80 1 81 0 C83.20650656 -0.10012401 85.41622386 -0.1308118 87.625 -0.1328125 C88.28709473 -0.13376923 88.94918945 -0.13472595 89.63134766 -0.13571167 C91.03352961 -0.13639326 92.4357147 -0.13454042 93.83789062 -0.13037109 C95.99095713 -0.12502246 98.14381502 -0.1303167 100.296875 -0.13671875 C101.65625046 -0.13605796 103.0156258 -0.13477679 104.375 -0.1328125 C106.24285156 -0.13112061 106.24285156 -0.13112061 108.1484375 -0.12939453 C111 0 111 0 112 1 C112.09847473 2.74395071 112.12632065 4.49191883 112.12698364 6.23864746 C112.13121338 7.94240791 112.13121338 7.94240791 112.13552856 9.68058777 C112.13249222 11.56636284 112.13249222 11.56636284 112.12939453 13.49023438 C112.13202301 15.46314201 112.13202301 15.46314201 112.13470459 17.47590637 C112.13927865 21.09357682 112.13748948 24.71121888 112.1343255 28.32888985 C112.13180176 32.10675256 112.13413948 35.88461278 112.13571167 39.66247559 C112.13753332 46.00789834 112.13512717 52.35330948 112.13037109 58.69873047 C112.12492848 66.04516643 112.12669114 73.39157464 112.1321975 80.73800993 C112.13672875 87.03438667 112.13737912 93.33075504 112.13475883 99.62713289 C112.13319612 103.3925551 112.13300212 107.15796424 112.13629532 110.92338562 C112.13970802 115.11886247 112.13498411 119.31429113 112.12939453 123.50976562 C112.13141876 124.76694901 112.13344299 126.02413239 112.13552856 127.31941223 C112.13270874 128.45525253 112.12988892 129.59109283 112.12698364 130.76135254 C112.1264181 132.25132626 112.1264181 132.25132626 112.12584114 133.77140045 C112 136 112 136 111 137 C106.88422411 137.21789186 102.76535077 137.18579188 98.64428711 137.18530273 C96.57449736 137.18748734 94.50524207 137.20563491 92.43554688 137.22460938 C91.13810547 137.22654297 89.84066406 137.22847656 88.50390625 137.23046875 C86.70675171 137.23663208 86.70675171 137.23663208 84.87329102 137.24291992 C82 137 82 137 80 135 C79.75949097 132.67147827 79.75949097 132.67147827 79.77294922 129.72412109 C79.77310028 128.6231308 79.77325134 127.5221405 79.77340698 126.38778687 C79.78889084 124.59868393 79.78889084 124.59868393 79.8046875 122.7734375 C79.8075174 121.55548492 79.81034729 120.33753235 79.81326294 119.08267212 C79.82448744 115.18001617 79.84959628 111.27758697 79.875 107.375 C79.88502686 104.73437831 79.89415322 102.09375303 79.90234375 99.453125 C79.92273536 92.96859166 79.9618805 86.48455063 80 80 C64.16 80 48.32 80 32 80 C32.01160156 84.03089844 32.02320313 88.06179688 32.03515625 92.21484375 C32.04158328 95.42077859 32.04700747 98.62671163 32.05175018 101.83264923 C32.05703969 105.22137231 32.0641128 108.61007056 32.07543945 111.9987793 C32.08834267 115.88329777 32.09322924 119.76780597 32.09765625 123.65234375 C32.10281754 124.87211411 32.10797882 126.09188446 32.11329651 127.34861755 C32.11337204 128.46970413 32.11344757 129.59079071 32.11352539 130.74584961 C32.115746 131.73846298 32.11796661 132.73107635 32.12025452 133.75376892 C32 136 32 136 31 137 C28.79349344 137.10012401 26.58377614 137.1308118 24.375 137.1328125 C23.71290527 137.13376923 23.05081055 137.13472595 22.36865234 137.13571167 C20.96647039 137.13639326 19.5642853 137.13454042 18.16210938 137.13037109 C16.00904287 137.12502246 13.85618498 137.1303167 11.703125 137.13671875 C10.34374954 137.13605796 8.9843742 137.13477679 7.625 137.1328125 C6.37976562 137.13168457 5.13453125 137.13055664 3.8515625 137.12939453 C1 137 1 137 0 136 C-0.09632045 134.2410657 -0.1218751 132.47822841 -0.12025452 130.71665955 C-0.12162918 129.57095993 -0.12300385 128.42526031 -0.12442017 127.24484253 C-0.12082489 125.97673737 -0.11722961 124.7086322 -0.11352539 123.40209961 C-0.11324352 122.06206769 -0.11340125 120.72203561 -0.1139679 119.38200378 C-0.11425587 115.73340562 -0.1083592 112.08484005 -0.10139394 108.43624949 C-0.09516034 104.62722484 -0.0945566 100.8181995 -0.09336853 97.00917053 C-0.09025523 89.79142246 -0.08204186 82.57368946 -0.07201904 75.35594803 C-0.06085786 67.14084743 -0.05534744 58.92574612 -0.05032361 50.71063983 C-0.03985925 33.80708449 -0.02225983 16.90354384 0 0 Z " fill="#FFD501" transform="translate(1495,1298)"/>
<path d="M0 0 C1.33338526 0.00094364 2.66702117 0.03449336 3.99902344 0.09521484 C5.05594391 0.10794937 5.05594391 0.10794937 6.13421631 0.12094116 C8.37718925 0.15443926 10.61651943 0.22969186 12.85839844 0.30615234 C14.38178387 0.3362575 15.90522588 0.36363237 17.42871094 0.38818359 C21.15645031 0.45421215 24.88206868 0.55770105 28.60839844 0.68115234 C34.36438993 11.84218344 39.53135911 23.15292476 44.35839844 34.74365234 C44.70189331 35.56374786 45.04538818 36.38384338 45.39929199 37.22879028 C51.58670318 52.005413 57.45392496 66.89043279 63.15087891 81.86181641 C65.45624138 87.91341734 67.80243347 93.94925609 70.14385986 99.98696899 C70.90810981 101.96062603 71.66959399 103.9353272 72.43017578 105.91040039 C74.57147151 111.46593149 76.72802843 117.01214196 78.98730469 122.52099609 C79.50200317 123.78979614 79.50200317 123.78979614 80.02709961 125.08422852 C80.64191653 126.59309628 81.26753035 128.09763367 81.90649414 129.59643555 C82.69433594 131.54052734 82.69433594 131.54052734 83.60839844 134.68115234 C82.94839844 135.67115234 82.28839844 136.66115234 81.60839844 137.68115234 C78.58325195 138.03759766 78.58325195 138.03759766 74.73730469 138.00927734 C73.72010597 138.00646759 73.72010597 138.00646759 72.68235779 138.00360107 C71.24741708 137.99687603 69.81249485 137.98295237 68.37768555 137.96240234 C66.18293179 137.93132275 63.98889705 137.92143901 61.79394531 137.91552734 C51.10039526 137.84515128 51.10039526 137.84515128 47.60839844 136.68115234 C46.45751953 134.41210938 46.45751953 134.41210938 45.38183594 131.43896484 C44.98996094 130.37291016 44.59808594 129.30685547 44.19433594 128.20849609 C43.59492187 126.52433594 43.59492187 126.52433594 42.98339844 124.80615234 C42.57605469 123.69111328 42.16871094 122.57607422 41.74902344 121.42724609 C40.32738517 117.52480198 38.92182013 113.62141741 37.60839844 109.68115234 C20.44839844 109.35115234 3.28839844 109.02115234 -14.39160156 108.68115234 C-14.72160156 110.66115234 -15.05160156 112.64115234 -15.39160156 114.68115234 C-16.38819844 118.30626491 -17.58517543 121.86246431 -18.76660156 125.43115234 C-19.07082031 126.38892578 -19.37503906 127.34669922 -19.68847656 128.33349609 C-19.99011719 129.24744141 -20.29175781 130.16138672 -20.60253906 131.10302734 C-20.87372559 131.93415039 -21.14491211 132.76527344 -21.42431641 133.62158203 C-22.39160156 135.68115234 -22.39160156 135.68115234 -25.39160156 137.68115234 C-28.34667969 137.93994141 -28.34667969 137.93994141 -31.92285156 137.94677734 C-33.20804688 137.94935547 -34.49324219 137.95193359 -35.81738281 137.95458984 C-36.48592285 137.95040039 -37.15446289 137.94621094 -37.84326172 137.94189453 C-39.88441704 137.93119002 -41.92469231 137.94179897 -43.96582031 137.95458984 C-45.25101563 137.95201172 -46.53621094 137.94943359 -47.86035156 137.94677734 C-49.04048828 137.94452148 -50.220625 137.94226562 -51.43652344 137.93994141 C-54.39160156 137.68115234 -54.39160156 137.68115234 -57.39160156 135.68115234 C-54.65820615 125.98105238 -51.17657183 116.57250499 -47.70410156 107.11865234 C-47.37691132 106.22666138 -47.04972107 105.33467041 -46.71261597 104.41564941 C-36.64990363 77.02013265 -26.18131245 49.80422171 -14.64160156 22.99365234 C-14.30299103 22.20325562 -13.96438049 21.41285889 -13.61550903 20.59851074 C-12.65753768 18.36890301 -11.69056473 16.14346436 -10.71972656 13.91943359 C-10.4412236 13.27136246 -10.16272064 12.62329132 -9.8757782 11.95558167 C-5.04734595 1.01368379 -5.04734595 1.01368379 0 0 Z M11.60839844 36.68115234 C11.30772461 37.47827637 11.30772461 37.47827637 11.00097656 38.29150391 C10.03878084 40.83881345 9.07391964 43.38510138 8.10839844 45.93115234 C7.75326172 46.86886475 7.398125 47.80657715 7.03222656 48.77270508 C5.17004267 53.66584688 3.27424414 58.54073195 1.29589844 63.38818359 C0.92916016 64.28827148 0.56242188 65.18835937 0.18457031 66.11572266 C-0.52163119 67.8402129 -1.2336846 69.56232068 -1.95214844 71.28173828 C-2.27248047 72.06452148 -2.5928125 72.84730469 -2.92285156 73.65380859 C-3.20708984 74.33709229 -3.49132812 75.02037598 -3.78417969 75.72436523 C-4.58924351 77.97636582 -4.58924351 77.97636582 -4.39160156 81.68115234 C6.49839844 81.68115234 17.38839844 81.68115234 28.60839844 81.68115234 C27.93220601 77.62399779 27.4314286 74.79751563 26.00683594 71.13427734 C25.68457031 70.29727295 25.36230469 69.46026855 25.03027344 68.59790039 C24.68480469 67.71787354 24.33933594 66.83784668 23.98339844 65.93115234 C23.63019531 65.01825439 23.27699219 64.10535645 22.91308594 63.16479492 C21.81682328 60.33482225 20.71284893 57.50793802 19.60839844 54.68115234 C18.91254768 52.88839242 18.2172165 51.09543073 17.52246094 49.30224609 C15.89037522 45.09288273 14.2514193 40.88625887 12.60839844 36.68115234 C12.27839844 36.68115234 11.94839844 36.68115234 11.60839844 36.68115234 Z " fill="#FFD501" transform="translate(836.3916015625,1297.31884765625)"/>
<path d="M0 0 C2.24752825 -0.0344096 4.48914367 -0.12212064 6.73510742 -0.21044922 C17.03117857 -0.44323121 17.03117857 -0.44323121 20.39599609 2.00463867 C21.79969312 4.14311997 22.60972155 6.17564551 23.4519043 8.59033203 C24.27460006 10.36698856 25.10174663 12.14158815 25.93237305 13.91455078 C26.84338793 16.03193474 27.74505965 18.15335313 28.6394043 20.27783203 C29.3955603 22.05939697 29.3955603 22.05939697 30.16699219 23.87695312 C41.40935121 50.50107987 52.00841748 77.42133521 62.21948242 104.45654297 C64.37964896 110.17565676 66.5477826 115.88527489 68.8737793 121.53955078 C69.39548706 122.81922729 69.39548706 122.81922729 69.92773438 124.12475586 C70.53928718 125.61319372 71.16283411 127.09680206 71.80224609 128.57348633 C72.57299805 130.45751953 72.57299805 130.45751953 73.4519043 133.59033203 C72.50683594 135.78613281 72.50683594 135.78613281 71.4519043 137.59033203 C66.96799394 137.73888156 62.48539312 137.84763507 57.99975586 137.91992188 C56.47476247 137.9500588 54.94994193 137.99097811 53.42553711 138.04296875 C51.23076789 138.11593696 49.03829179 138.14981343 46.8425293 138.17626953 C45.8235556 138.2227211 45.8235556 138.2227211 44.78399658 138.27011108 C42.84350586 138.27148438 42.84350586 138.27148438 39.4519043 137.59033203 C36.52793626 134.19752925 34.90861977 130.7113536 33.5300293 126.48095703 C33.07563477 125.10230469 33.07563477 125.10230469 32.61206055 123.69580078 C32.1615332 122.28234375 32.1615332 122.28234375 31.7019043 120.84033203 C31.38608398 119.88255859 31.07026367 118.92478516 30.74487305 117.93798828 C28.4519043 110.90026168 28.4519043 110.90026168 28.4519043 108.59033203 C11.2919043 108.59033203 -5.8680957 108.59033203 -23.5480957 108.59033203 C-23.8780957 110.24033203 -24.2080957 111.89033203 -24.5480957 113.59033203 C-25.11651408 115.27340416 -25.72263677 116.94408829 -26.3605957 118.60205078 C-26.71379883 119.524375 -27.06700195 120.44669922 -27.4309082 121.39697266 C-27.79958008 122.34765625 -28.16825195 123.29833984 -28.5480957 124.27783203 C-28.91676758 125.24011719 -29.28543945 126.20240234 -29.6652832 127.19384766 C-32.38172982 134.25760027 -32.38172982 134.25760027 -33.5480957 136.59033203 C-36.96561223 137.72950421 -39.58297508 137.70371684 -43.18481445 137.68798828 C-45.13291016 137.6831543 -45.13291016 137.6831543 -47.12036133 137.67822266 C-48.49210678 137.66986735 -49.86385157 137.6614024 -51.2355957 137.65283203 C-52.61905766 137.64781538 -54.00252133 137.64325276 -55.38598633 137.63916016 C-58.77339965 137.62735732 -62.16072604 137.61089222 -65.5480957 137.59033203 C-66.97112581 133.02416723 -65.92598073 129.80319753 -64.29418945 125.49267578 C-64.04255035 124.79903427 -63.79091125 124.10539276 -63.53164673 123.39073181 C-62.69565216 121.09821535 -61.84122857 118.8130847 -60.9855957 116.52783203 C-60.38982888 114.91169167 -59.79470606 113.29531378 -59.20019531 111.67871094 C-57.33979335 106.6402734 -55.44936006 101.61347593 -53.5480957 96.59033203 C-53.25277954 95.81002625 -52.95746338 95.02972046 -52.65319824 94.22576904 C-44.79077151 73.49201036 -36.51298714 52.93291448 -27.98905945 32.46304321 C-26.15071777 28.04767477 -24.32934743 23.62575017 -22.5168457 19.19970703 C-21.61069912 16.99653949 -20.70445574 14.79341176 -19.7980957 12.59033203 C-19.39171875 11.59291992 -18.9853418 10.59550781 -18.56665039 9.56787109 C-18.0083252 8.21773926 -18.0083252 8.21773926 -17.4387207 6.84033203 C-17.11935547 6.06173828 -16.79999023 5.28314453 -16.47094727 4.48095703 C-13.46751355 -1.67210929 -5.95746164 0.06359125 0 0 Z M1.4519043 36.59033203 C-0.83130493 42.67586924 -3.10944957 48.76328438 -5.3840332 54.85205078 C-6.15890037 56.92443041 -6.93493872 58.99637252 -7.7121582 61.06787109 C-8.82720031 64.04036856 -9.93806184 67.0143988 -11.0480957 69.98876953 C-11.39807617 70.91901947 -11.74805664 71.84926941 -12.10864258 72.80770874 C-12.42897461 73.66845001 -12.74930664 74.52919128 -13.0793457 75.41601562 C-13.36358398 76.17546478 -13.64782227 76.93491394 -13.94067383 77.71737671 C-14.65092706 79.57924239 -14.65092706 79.57924239 -14.5480957 81.59033203 C-3.6580957 81.59033203 7.2319043 81.59033203 18.4519043 81.59033203 C17.6936524 77.04082066 16.84950204 73.5225685 15.30737305 69.26611328 C14.8774707 68.07179688 14.44756836 66.87748047 14.00463867 65.64697266 C13.32884766 63.79362305 13.32884766 63.79362305 12.6394043 61.90283203 C12.20047852 60.68660156 11.76155273 59.47037109 11.30932617 58.21728516 C10.02895745 54.67296579 8.74157832 51.1312747 7.4519043 47.59033203 C6.67712578 45.45883577 5.90238239 43.32732673 5.12768555 41.19580078 C4.56917158 39.6606155 4.01061133 38.12544706 3.4519043 36.59033203 C2.7919043 36.59033203 2.1319043 36.59033203 1.4519043 36.59033203 Z " fill="#FFD501" transform="translate(509.548095703125,1297.40966796875)"/>
<path d="M0 0 C2.17465009 -0.0268894 4.34440223 -0.10174498 6.51782227 -0.17749023 C16.28230971 -0.37522585 16.28230971 -0.37522585 19.74145508 1.59741211 C21.24032993 3.48954407 21.99611034 5.28248491 22.87915039 7.53540039 C23.61500366 9.13629517 23.61500366 9.13629517 24.36572266 10.76953125 C26.17497111 14.73562879 27.83984526 18.75684394 29.50415039 22.78540039 C30.12293079 24.26595911 30.74232368 25.74626199 31.36230469 27.22631836 C33.21441496 31.65727411 35.04836013 36.09560229 36.87915039 40.53540039 C37.4043218 41.80593154 37.92954683 43.07644053 38.45483398 44.34692383 C43.84029715 57.39748715 49.09723813 70.49657027 54.19946289 83.66040039 C56.07570191 88.49491828 57.98027339 93.31756907 59.89524841 98.13687134 C61.37725635 101.86989409 62.85222933 105.60567878 64.3265686 109.34173584 C65.06675084 111.21274249 65.80987069 113.08258981 66.55599976 114.95123291 C67.61040851 117.59343119 68.65404493 120.23965913 69.69555664 122.88696289 C70.17767105 124.08397827 70.17767105 124.08397827 70.66952515 125.30517578 C72.18046631 129.17600698 73.30914695 132.30085756 72.87915039 136.53540039 C68.47923083 138.73536017 62.53962618 137.76249965 57.6484375 137.77563477 C55.45347306 137.78534807 53.25944217 137.81637448 51.06469727 137.84790039 C49.67082262 137.85442987 48.27694128 137.85968056 46.88305664 137.86352539 C45.61276611 137.87287109 44.34247559 137.8822168 43.03369141 137.8918457 C39.87915039 137.53540039 39.87915039 137.53540039 38.08276367 136.375 C36.49051069 133.94140442 35.57921089 131.51963108 34.61743164 128.77368164 C34.2594751 127.7660376 33.90151855 126.75839355 33.53271484 125.72021484 C33.09016357 124.44235107 32.6476123 123.1644873 32.19165039 121.84790039 C30.76852539 117.78477539 29.34540039 113.72165039 27.87915039 109.53540039 C11.04915039 109.20540039 -5.78084961 108.87540039 -23.12084961 108.53540039 C-24.11084961 111.50540039 -25.10084961 114.47540039 -26.12084961 117.53540039 C-27.11013097 120.49809195 -28.1078918 123.45594012 -29.12084961 126.41040039 C-29.49209961 127.52801758 -29.49209961 127.52801758 -29.87084961 128.66821289 C-32.2305381 135.50147748 -32.2305381 135.50147748 -35.12084961 137.53540039 C-38.19946289 137.8918457 -38.19946289 137.8918457 -41.94116211 137.86352539 C-42.60042694 137.86165222 -43.25969177 137.85977905 -43.93893433 137.85784912 C-45.32921422 137.85113747 -46.71947552 137.83724034 -48.10961914 137.81665039 C-50.24505014 137.78541209 -52.37974372 137.77567087 -54.51538086 137.76977539 C-64.95736426 137.69888574 -64.95736426 137.69888574 -66.12084961 136.53540039 C-65.69924043 131.02230852 -64.54446944 126.25356938 -62.52319336 121.10180664 C-62.25761124 120.4037944 -61.99202911 119.70578217 -61.71839905 118.98661804 C-60.84060301 116.68685959 -59.94982792 114.39238618 -59.05834961 112.09790039 C-58.42949319 110.46173811 -57.80125104 108.82533962 -57.17358398 107.1887207 C-55.50652643 102.84984895 -53.82731587 98.51577156 -52.14593506 94.18243408 C-51.13236825 91.56514449 -50.12391085 88.94595029 -49.11743164 86.32592773 C-41.66096426 66.91586709 -34.04660442 47.59622376 -25.81225586 28.5012207 C-25.54447327 27.88001343 -25.27669067 27.25880615 -25.00079346 26.61877441 C-24.22160781 24.81195497 -23.4422267 23.00521983 -22.6628418 21.19848633 C-21.56482441 18.59008657 -20.49677925 15.98186909 -19.46166992 13.34887695 C-19.05544907 12.3158696 -19.05544907 12.3158696 -18.64102173 11.26199341 C-18.12412167 9.9389638 -17.61197097 8.61406565 -17.10531616 7.28707886 C-13.74988446 -1.32236592 -8.20893207 0.06743018 0 0 Z M1.87915039 36.53540039 C-1.75686152 45.08256696 -5.13934297 53.70274777 -8.37084961 62.41040039 C-8.81686523 63.59375977 -9.26288086 64.77711914 -9.72241211 65.99633789 C-10.14780273 67.14102539 -10.57319336 68.28571289 -11.01147461 69.46508789 C-11.39335938 70.48844238 -11.77524414 71.51179688 -12.16870117 72.56616211 C-13.34497959 75.98815043 -13.34497959 75.98815043 -14.12084961 81.53540039 C-3.23084961 81.53540039 7.65915039 81.53540039 18.87915039 81.53540039 C17.99558523 76.20469719 17.99558523 76.20469719 16.38867188 71.27416992 C16.08843613 70.49381378 15.78820038 69.71345764 15.47886658 68.90945435 C15.15592117 68.08734467 14.83297577 67.26523499 14.50024414 66.41821289 C14.16871841 65.56105682 13.83719269 64.70390076 13.49562073 63.82077026 C12.44131925 61.09853315 11.37911412 58.37946083 10.31665039 55.66040039 C9.59802657 53.80904153 8.87992187 51.95748109 8.16235352 50.10571289 C6.40728859 45.57991891 4.64513144 41.05694542 2.87915039 36.53540039 C2.54915039 36.53540039 2.21915039 36.53540039 1.87915039 36.53540039 Z " fill="#FFD501" transform="translate(1242.120849609375,1297.464599609375)"/>
<path d="M0 0 C-0.54558462 5.85024468 -1.7381489 10.88800676 -3.8125 16.375 C-4.06064453 17.08527344 -4.30878906 17.79554687 -4.56445312 18.52734375 C-5.65112073 21.44171437 -6.50958271 23.60513121 -8.96484375 25.58203125 C-11.58502264 26.1201486 -12.44251251 25.62776787 -14.75 24.3125 C-25.19651895 19.26105827 -37.6426687 17.83281914 -49 20 C-52.50237225 21.36533155 -54.38083576 22.38083576 -57 25 C-57.43256678 27.03226574 -57.43256678 27.03226574 -57.4375 29.3125 C-57.47746094 30.07175781 -57.51742187 30.83101562 -57.55859375 31.61328125 C-56.71882048 35.2014034 -54.78419238 36.66511867 -52 39 C-49.3120407 40.52379539 -49.3120407 40.52379539 -46.25 41.6875 C-45.033125 42.18894531 -43.81625 42.69039062 -42.5625 43.20703125 C-39.01417777 44.61740795 -35.44548877 45.97108217 -31.875 47.32421875 C-30.78541992 47.74421143 -29.69583984 48.1642041 -28.57324219 48.59692383 C-26.40824877 49.42955243 -24.237189 50.24662754 -22.05957031 51.0456543 C-9.47940854 55.89125103 -0.79084272 63.44932859 4.8125 75.75 C8.55234363 85.98536151 8.55866453 98.56402829 4.2578125 108.609375 C-0.6523854 117.94180083 -7.99826956 125.59289853 -18.05859375 129.15625 C-40.78408824 135.67511694 -66.27943506 134.77276447 -88 125 C-89.68474068 124.03075977 -91.35810356 123.04017012 -93 122 C-92.45233126 115.96195209 -91.10876629 110.79479615 -89 105.125 C-88.72671875 104.36703125 -88.4534375 103.6090625 -88.171875 102.828125 C-86.20556006 97.41112013 -86.20556006 97.41112013 -85 95 C-80.95031142 95.67117744 -77.37346623 96.92478431 -73.5625 98.4375 C-71.37874794 99.30120359 -69.19128114 100.15558074 -67 101 C-65.64841797 101.56460937 -65.64841797 101.56460937 -64.26953125 102.140625 C-59.5462521 103.38210817 -54.9880909 103.3287754 -50.125 103.3125 C-49.16980469 103.32861328 -48.21460938 103.34472656 -47.23046875 103.36132812 C-40.52022803 103.36593048 -34.34023865 102.81832636 -29 98.3125 C-27.52075783 94.89175249 -27.03160261 91.58052193 -28 88 C-31.33939266 83.13135275 -34.55534997 80.78689774 -40.0625 78.625 C-41.08947998 78.19682983 -41.08947998 78.19682983 -42.13720703 77.76000977 C-46.11760999 76.1137279 -50.13234951 74.55512877 -54.14453125 72.98828125 C-83.15666464 61.63935365 -83.15666464 61.63935365 -89.22265625 47.9453125 C-89.47917969 47.30335937 -89.73570312 46.66140625 -90 46 C-90.4125 44.96875 -90.825 43.9375 -91.25 42.875 C-93.5237968 31.12704984 -92.54391288 19.21843594 -86.08203125 8.953125 C-67.24663489 -15.71624368 -24.67024651 -16.44683101 0 0 Z " fill="#FFD501" transform="translate(1022,1305)"/>
<path d="M0 0 C14.45532811 -0.02333012 28.91065331 -0.04091332 43.36599636 -0.05181217 C50.07741868 -0.05697489 56.78882932 -0.06401713 63.50024414 -0.07543945 C69.97113736 -0.08626565 76.44201842 -0.09227626 82.91292 -0.09487724 C85.38778945 -0.09673198 87.8626582 -0.1003535 90.33752251 -0.10573006 C93.79070373 -0.11293693 97.24383401 -0.11399109 100.69702148 -0.11352539 C101.73135818 -0.11712067 102.76569489 -0.12071594 103.83137512 -0.12442017 C104.76672089 -0.1230455 105.70206665 -0.12167084 106.66575623 -0.12025452 C107.4833866 -0.12117631 108.30101698 -0.1220981 109.14342403 -0.12304783 C111 0 111 0 112 1 C112.08758003 2.99964982 112.10696576 5.0023611 112.09765625 7.00390625 C112.09515869 8.09775635 112.09266113 9.19160645 112.09008789 10.31860352 C112.08098389 11.71908936 112.07187988 13.1195752 112.0625 14.5625 C112.041875 18.996875 112.02125 23.43125 112 28 C98.8 28 85.6 28 72 28 C72 63.31 72 98.62 72 135 C67.84516642 136.66193343 66.26860147 137.25132879 62.12890625 137.23046875 C61.22462891 137.22853516 60.32035156 137.22660156 59.38867188 137.22460938 C57.9897168 137.20624023 57.9897168 137.20624023 56.5625 137.1875 C55.63373047 137.18685547 54.70496094 137.18621094 53.74804688 137.18554688 C48.95179913 137.15482358 44.79293283 136.79882214 40 136 C40 100.36 40 64.72 40 28 C27.13 28 14.26 28 1 28 C0 27 0 27 -0.11352539 24.40795898 C-0.10828857 23.28204346 -0.10305176 22.15612793 -0.09765625 20.99609375 C-0.09443359 19.78115234 -0.09121094 18.56621094 -0.08789062 17.31445312 C-0.07951172 16.03505859 -0.07113281 14.75566406 -0.0625 13.4375 C-0.05798828 12.15423828 -0.05347656 10.87097656 -0.04882812 9.54882812 C-0.03699545 6.36583978 -0.02051068 3.18294238 0 0 Z " fill="#FFD501" transform="translate(680,1298)"/>
<path d="M0 0 C1.05368774 0.00012085 1.05368774 0.00012085 2.12866211 0.00024414 C4.27087312 -0.00194055 6.41256783 -0.02008824 8.5546875 -0.0390625 C9.91080552 -0.04199671 11.266926 -0.04398132 12.62304688 -0.04492188 C13.86304443 -0.04903076 15.10304199 -0.05313965 16.38061523 -0.05737305 C19.34570312 0.18554688 19.34570312 0.18554688 21.34570312 2.18554688 C21.59179878 4.07146645 21.59179878 4.07146645 21.58621216 6.41226196 C21.58896149 7.29849747 21.59171082 8.18473297 21.59454346 9.0978241 C21.58735291 10.07246109 21.58016235 11.04709808 21.57275391 12.05126953 C21.57304596 13.07568649 21.57333801 14.10010345 21.57363892 15.15556335 C21.57224161 18.55366381 21.55666151 21.95154706 21.54101562 25.34960938 C21.53728692 27.70087565 21.53443928 30.05214348 21.53244019 32.40341187 C21.52479251 38.60128038 21.50513427 44.79905562 21.48303223 50.99688721 C21.46259821 57.31757343 21.45344371 63.63827467 21.44335938 69.95898438 C21.42188946 82.36787959 21.38773985 94.77670549 21.34570312 107.18554688 C21.90787537 107.19585434 22.47004761 107.2061618 23.04925537 107.21678162 C28.95529531 107.32583419 34.86121253 107.44033795 40.76708984 107.55786133 C42.9646546 107.60089711 45.16224611 107.64259086 47.35986328 107.68286133 C50.53751654 107.74133246 53.71503899 107.80479594 56.89257812 107.86914062 C57.85871033 107.88585312 58.82484253 107.90256561 59.82025146 107.91978455 C66.69212234 108.0655834 73.50266707 108.5462264 80.34570312 109.18554688 C81.87819089 113.78301017 81.57113377 118.36995327 81.59570312 123.18554688 C81.61632813 124.19617187 81.63695312 125.20679688 81.65820312 126.24804688 C81.6659375 127.70210937 81.6659375 127.70210937 81.67382812 129.18554688 C81.68317383 130.07242187 81.69251953 130.95929688 81.70214844 131.87304688 C81.34570312 134.18554688 81.34570312 134.18554688 80.34761047 135.80680847 C77.15362812 138.00654371 73.70247498 137.5932363 69.95874023 137.55786133 C69.10320053 137.56151199 68.24766083 137.56516266 67.36619568 137.56892395 C64.53494491 137.57703787 61.7042649 137.56341352 58.87304688 137.54882812 C56.90914409 137.54830967 54.94524077 137.54882681 52.9813385 137.55033875 C48.8646775 137.55024899 44.7482122 137.53981131 40.6315918 137.52172852 C35.34626277 137.49902635 30.06121944 137.49849956 24.77585506 137.50524616 C20.72076361 137.50858208 16.66573769 137.50196344 12.61065865 137.49211693 C10.66134547 137.48825923 8.71202501 137.48711906 6.76270866 137.48870277 C4.04275405 137.48907225 1.32317053 137.4764869 -1.39672852 137.46020508 C-2.20768982 137.4626825 -3.01865112 137.46515991 -3.85418701 137.4677124 C-9.42555433 137.41428942 -9.42555433 137.41428942 -11.65429688 135.18554688 C-11.90318584 132.84951687 -11.90318584 132.84951687 -11.90153503 129.86460876 C-11.90572952 128.73580795 -11.90992401 127.60700714 -11.91424561 126.44400024 C-11.9086261 125.19976288 -11.90300659 123.95552551 -11.8972168 122.67358398 C-11.89911514 121.36791977 -11.90101349 120.06225555 -11.90296936 118.71702576 C-11.90782535 115.13036823 -11.90015304 111.54383471 -11.89001632 107.95719218 C-11.88124959 104.21003399 -11.88299298 100.46287985 -11.88337708 96.7157135 C-11.8824399 90.42332883 -11.87374824 84.13099232 -11.86010742 77.83862305 C-11.84437452 70.55407942 -11.83910952 63.26958855 -11.83984298 55.98502916 C-11.84045241 48.98832396 -11.83535515 41.99163601 -11.82705116 34.99493599 C-11.82351223 32.01208931 -11.82168705 29.02924874 -11.82115746 26.04640007 C-11.81997039 21.88694622 -11.81027442 17.72755543 -11.79956055 13.56811523 C-11.80001373 12.32185364 -11.80046692 11.07559204 -11.80093384 9.79156494 C-11.79666885 8.66558395 -11.79240387 7.53960297 -11.78800964 6.37950134 C-11.7863338 5.39485869 -11.78465796 4.41021605 -11.78293133 3.39573574 C-11.46376029 -2.08824048 -4.24676257 0.01540558 0 0 Z " fill="#FFD701" transform="translate(1339.654296875,1297.814453125)"/>
<path d="M0 0 C1.29349365 0.00523682 2.5869873 0.01047363 3.91967773 0.01586914 C4.9496714 0.01799156 4.9496714 0.01799156 6.00047302 0.02015686 C8.20144949 0.0257706 10.40232557 0.03832532 12.60327148 0.05102539 C14.09220231 0.05603863 15.58113473 0.06060184 17.07006836 0.06469727 C20.72700223 0.07574446 24.38387707 0.09301826 28.04077148 0.11352539 C28.17138143 13.60435649 28.30178476 27.09518958 28.43192291 40.58602524 C28.49235505 46.85007576 28.55285886 53.11412557 28.61352539 59.37817383 C28.67204818 65.42114351 28.73038413 71.46411496 28.78858948 77.50708771 C28.81085021 79.81480219 28.83317874 82.12251602 28.85557556 84.43022919 C28.88688702 87.65766737 28.91795938 90.88510778 28.94897461 94.11254883 C28.95832535 95.07064453 28.96767609 96.02874023 28.97731018 97.01586914 C28.98572433 97.89643982 28.99413849 98.7770105 29.00280762 99.68426514 C29.01018196 100.44750973 29.0175563 101.21075432 29.02515411 101.99712753 C29.04019851 104.03587796 29.04077148 106.07471946 29.04077148 108.11352539 C29.74820999 108.10908417 30.4556485 108.10464294 31.18452454 108.10006714 C37.84998528 108.0600006 44.51541244 108.0295462 51.18096638 108.00990105 C54.60783842 107.99946177 58.03461099 107.98530008 61.46142578 107.96264648 C65.40062268 107.93676853 69.33977922 107.92705377 73.27905273 107.91821289 C75.12603508 107.90272903 75.12603508 107.90272903 77.0103302 107.88693237 C78.7217646 107.88670578 78.7217646 107.88670578 80.46777344 107.88647461 C81.47371048 107.88203339 82.47964752 107.87759216 83.5160675 107.87301636 C86.04077148 108.11352539 86.04077148 108.11352539 89.04077148 110.11352539 C89.41308594 112.60375977 89.41308594 112.60375977 89.40405273 115.70727539 C89.40308594 117.3759668 89.40308594 117.3759668 89.40209961 119.07836914 C89.38598633 120.2449707 89.36987305 121.41157227 89.35327148 122.61352539 C89.35649414 123.78012695 89.3597168 124.94672852 89.36303711 126.14868164 C89.30760366 134.84669321 89.30760366 134.84669321 87.04077148 137.11352539 C84.22001889 137.31219751 81.49743055 137.38621464 78.67553711 137.37231445 C77.81038986 137.37581909 76.94524261 137.37932373 76.05387878 137.38293457 C73.18484551 137.39176046 70.31605741 137.38589972 67.44702148 137.37915039 C65.45926872 137.38049679 63.47151628 137.38243712 61.48376465 137.38494873 C57.31409577 137.38790116 53.14451247 137.38359854 48.97485352 137.37426758 C43.62112873 137.36287299 38.26760445 137.36943183 32.91388702 137.38141251 C28.80819173 137.3886279 24.70254424 137.38634465 20.59684753 137.38115692 C18.62241085 137.37981954 16.64796988 137.38147123 14.67353821 137.38611603 C11.91757658 137.391176 9.16194296 137.38347852 6.40600586 137.37231445 C5.58412277 137.37636292 4.76223969 137.38041138 3.91545105 137.38458252 C-1.73070045 137.34205345 -1.73070045 137.34205345 -3.95922852 135.11352539 C-4.20811749 132.77749538 -4.20811749 132.77749538 -4.20646667 129.79258728 C-4.21066116 128.66378647 -4.21485565 127.53498566 -4.21917725 126.37197876 C-4.21355774 125.12774139 -4.20793823 123.88350403 -4.20214844 122.6015625 C-4.20404678 121.29589828 -4.20594513 119.99023407 -4.207901 118.64500427 C-4.21275699 115.05834674 -4.20508468 111.47181323 -4.19494796 107.8851707 C-4.18618123 104.13801251 -4.18792462 100.39085837 -4.18830872 96.64369202 C-4.18737155 90.35130735 -4.17867988 84.05897084 -4.16503906 77.76660156 C-4.14930616 70.48205794 -4.14404116 63.19756706 -4.14477462 55.91300768 C-4.14538405 48.91630247 -4.14028679 41.91961453 -4.1319828 34.92291451 C-4.12844387 31.94006783 -4.12661869 28.95722726 -4.1260891 25.97437859 C-4.12490203 21.81492474 -4.11520606 17.65553395 -4.10449219 13.49609375 C-4.10494537 12.24983215 -4.10539856 11.00357056 -4.10586548 9.71954346 C-4.10160049 8.59356247 -4.09733551 7.46758148 -4.09294128 6.30747986 C-4.09126544 5.32283721 -4.0895896 4.33819456 -4.08786297 3.32371426 C-3.88913354 -0.09084193 -3.48331161 0.13363088 0 0 Z " fill="#FFD601" transform="translate(600.959228515625,1297.886474609375)"/>
<path d="M0 0 C0.68429077 -0.00095673 1.36858154 -0.00191345 2.0736084 -0.00289917 C3.52286877 -0.0035808 4.97213218 -0.00172773 6.42138672 0.00244141 C8.64687928 0.00778998 10.87217001 0.0024959 13.09765625 -0.00390625 C14.50260461 -0.00324547 15.90755285 -0.0019643 17.3125 0 C18.59962891 0.00112793 19.88675781 0.00225586 21.21289062 0.00341797 C24.15625 0.1328125 24.15625 0.1328125 25.15625 1.1328125 C25.25687696 2.86177847 25.28701512 4.5948777 25.28996277 6.32676697 C25.29422775 7.45274796 25.29849274 8.57872894 25.30288696 9.73883057 C25.30243378 10.98509216 25.30198059 12.23135376 25.30151367 13.51538086 C25.30487228 14.81929276 25.3082309 16.12320465 25.31169128 17.46662903 C25.32055188 21.05337123 25.32287026 24.6400896 25.32350707 28.22684169 C25.32445449 31.21655582 25.32813085 34.20626434 25.33167917 37.19597632 C25.33983157 44.24710882 25.34226269 51.29822856 25.34155273 58.34936523 C25.34095174 65.63331864 25.35150603 72.91719804 25.3672964 80.20113271 C25.38035337 86.44572199 25.38573741 92.69028702 25.38509732 98.93488985 C25.38484179 102.66850765 25.3877233 106.40205973 25.39827538 110.13566399 C25.40971571 114.29744435 25.40522088 118.45905795 25.39916992 122.62084961 C25.40478943 123.86508698 25.41040894 125.10932434 25.41619873 126.39126587 C25.41200424 127.52006668 25.40780975 128.64886749 25.40348816 129.81187439 C25.40403293 130.79689406 25.40457769 131.78191374 25.40513897 132.79678249 C25.15625 135.1328125 25.15625 135.1328125 23.15625 137.1328125 C20.28295898 137.37573242 20.28295898 137.37573242 16.65234375 137.36328125 C15.35490234 137.36134766 14.05746094 137.35941406 12.72070312 137.35742188 C12.04402588 137.35121826 11.36734863 137.34501465 10.67016602 137.33862305 C8.59834529 137.32035302 6.52697103 137.31811345 4.45507812 137.31835938 C-5.70366743 137.27289507 -5.70366743 137.27289507 -6.84375 136.1328125 C-6.96832424 133.83267627 -7.02185374 131.52868818 -7.04907227 129.2253418 C-7.0589662 128.49823061 -7.06886013 127.77111942 -7.07905388 127.02197456 C-7.11091752 124.58369404 -7.13558957 122.14539543 -7.16015625 119.70703125 C-7.18087644 117.98743761 -7.20196596 116.26784839 -7.22340393 114.54826355 C-7.27947654 109.92790162 -7.32884198 105.30749139 -7.37638092 100.68703461 C-7.40611497 97.83327203 -7.43749582 94.9795323 -7.46942139 92.12579346 C-7.72996856 68.75359562 -7.942745 45.38157546 -7.96875 22.0078125 C-7.9713382 20.91536224 -7.97392639 19.82291199 -7.97659302 18.69735718 C-7.98230226 15.69403563 -7.98097807 12.69082156 -7.9765625 9.6875 C-7.97854141 8.81868698 -7.98052032 7.94987396 -7.9825592 7.05473328 C-7.95288958 -0.35771912 -7.25638748 0.00635888 0 0 Z " fill="#FFD501" transform="translate(1443.84375,1297.8671875)"/>
</svg>
